<?xml version="1.0" encoding="UTF-8"?>
<svg id="Layer_1" xmlns="http://www.w3.org/2000/svg" version="1.1" viewBox="0 0 599.47 281.01">
  <!-- Generator: Adobe Illustrator 29.8.2, SVG Export Plug-In . SVG Version: 2.1.1 Build 3)  -->
  <defs>
    <style>
      .st0 {
        fill: #fff;
      }

      .st1 {
        fill: none;
      }

      .st2 {
        fill: #eae4e1;
      }

      .st3 {
        fill: #554d49;
      }
    </style>
  </defs>
  <path class="st0" d="M535.58,33.42h-5.15v-2.77h13.63v2.77h-5.2v15.26h-3.29v-15.26Z"/>
  <path class="st0" d="M561.41,39.49c0,6.04-3.66,9.49-8.62,9.49s-8.31-3.89-8.31-9.17,3.5-9.44,8.58-9.44,8.36,3.97,8.36,9.12ZM547.95,39.74c0,3.68,1.86,6.6,5.01,6.6s4.98-2.96,4.98-6.73c0-3.4-1.69-6.61-4.97-6.61s-5.01,3.04-5.01,6.74Z"/>
  <path class="st0" d="M564.23,30.66h10.42v2.71h-7.13v4.97h6.63v2.69h-6.63v7.66h-3.29v-18.02Z"/>
  <path class="st0" d="M581.11,30.66v10.51c0,3.52,1.46,5.16,3.69,5.16,2.37,0,3.8-1.63,3.8-5.16v-10.51h3.29v10.29c0,5.55-2.86,8.02-7.21,8.02s-6.87-2.33-6.87-8v-10.31h3.29Z"/>
  <path class="st0" d="M546.09,140.59c-.11-2.33-.23-5.13-.22-7.58h-.07c-.6,2.21-1.35,4.64-2.13,6.92l-2.65,7.8h-2.53l-2.39-7.69c-.71-2.31-1.35-4.76-1.82-7.03h-.06c-.08,2.36-.19,5.24-.32,7.69l-.4,7.24h-3.07l1.2-18.02h4.33l2.35,7.24c.65,2.13,1.23,4.27,1.66,6.28h.08c.48-1.97,1.1-4.17,1.8-6.29l2.5-7.22h4.27l1.04,18.02h-3.21l-.35-7.35Z"/>
  <path class="st0" d="M568.98,138.75c0,6.04-3.66,9.49-8.62,9.49s-8.31-3.89-8.31-9.17,3.5-9.44,8.58-9.44,8.36,3.97,8.36,9.12ZM555.52,139c0,3.68,1.86,6.6,5.01,6.6s4.98-2.96,4.98-6.73c0-3.4-1.69-6.61-4.97-6.61s-5.01,3.04-5.01,6.74Z"/>
  <path class="st0" d="M571.81,129.92h10.42v2.71h-7.13v4.97h6.63v2.69h-6.63v7.66h-3.29v-18.02Z"/>
  <path class="st0" d="M588.69,129.92v10.51c0,3.52,1.46,5.16,3.69,5.16,2.37,0,3.8-1.63,3.8-5.16v-10.51h3.29v10.29c0,5.55-2.86,8.02-7.21,8.02s-6.87-2.33-6.87-8v-10.31h3.29Z"/>
  <path class="st0" d="M530.43,230.6c1.05-.21,2.96-.39,4.81-.39,2.42,0,3.93.31,5.16,1.14,1.11.69,1.86,1.85,1.86,3.39,0,1.66-1.03,3.17-3,3.88v.07c1.9.48,3.65,1.98,3.65,4.46,0,1.6-.69,2.84-1.73,3.72-1.28,1.11-3.39,1.66-6.7,1.66-1.83,0-3.2-.12-4.05-.24v-17.71ZM533.7,237.72h1.69c2.28,0,3.55-1.08,3.55-2.6,0-1.69-1.28-2.47-3.36-2.47-.98,0-1.53.07-1.88.14v4.93ZM533.7,245.99c.43.08.98.09,1.74.09,2.11,0,4-.79,4-3.02,0-2.09-1.84-2.95-4.1-2.96h-1.64v5.88Z"/>
  <path class="st0" d="M561.84,239.19c0,6.04-3.66,9.49-8.62,9.49s-8.31-3.89-8.31-9.17,3.5-9.44,8.58-9.44,8.36,3.97,8.36,9.12ZM548.37,239.44c0,3.68,1.86,6.6,5.01,6.6s4.98-2.96,4.98-6.73c0-3.4-1.69-6.61-4.97-6.61s-5.01,3.04-5.01,6.74Z"/>
  <path class="st0" d="M564.66,230.36h10.42v2.71h-7.13v4.97h6.63v2.69h-6.63v7.66h-3.29v-18.02Z"/>
  <path class="st0" d="M581.54,230.36v10.51c0,3.52,1.46,5.16,3.69,5.16,2.37,0,3.8-1.63,3.8-5.16v-10.51h3.29v10.29c0,5.55-2.86,8.02-7.21,8.02s-6.87-2.33-6.87-8v-10.31h3.29Z"/>
  <path class="st2" d="M459.77,80.21H148.74l-.32-.52L100.09,0h405.88l-46.2,80.21ZM149.96,78.04h308.55L502.22,2.17H103.94l46.02,75.87Z"/>
  <path class="st2" d="M410.28,180.28h-212.82l-47.83-80.91h308.94l-48.29,80.91ZM198.7,178.12h210.35l45.7-76.58H153.43l45.27,76.58Z"/>
  <path class="st2" d="M361.56,281.01h-115.53l-.31-.53-46.84-78.75h210.3l-47.62,79.28ZM247.27,278.84h113.07l45.01-74.94h-202.66l44.58,74.94Z"/>
  <polygon class="st0" points="509.68 61.46 496.82 48.61 509.68 35.75 511.21 37.29 499.89 48.61 511.21 59.92 509.68 61.46"/>
  <rect class="st0" x="498.36" y="47.52" width="29.47" height="2.17"/>
  <polygon class="st0" points="463.14 160.25 450.29 147.4 463.14 134.55 464.68 136.08 453.36 147.4 464.68 158.72 463.14 160.25"/>
  <rect class="st0" x="453.67" y="146.32" width="73.83" height="2.17"/>
  <polygon class="st0" points="414.18 260.65 401.33 247.8 414.18 234.95 415.71 236.48 404.39 247.8 415.71 259.12 414.18 260.65"/>
  <rect class="st0" x="402.86" y="246.72" width="124.96" height="2.17"/>
  <path class="st0" d="M2.89,30.78l-1.26,3.83H0l4.14-12.18h1.9l4.16,12.18h-1.68l-1.3-3.83H2.89ZM6.88,29.56l-1.19-3.5c-.13-.4-.25-.78-.34-1.15-.1-.37-.19-.73-.29-1.07h-.04c-.1.36-.19.73-.29,1.09-.1.37-.2.74-.33,1.11l-1.19,3.52h3.67Z"/>
  <path class="st0" d="M13.66,23.36v2.51h2.28v1.21h-2.28v4.71c0,.54.09.96.26,1.26.17.29.48.44.93.44.2,0,.39-.01.54-.04s.28-.05.38-.07l.07,1.19c-.16.06-.35.11-.59.15s-.51.06-.82.06c-.76,0-1.33-.22-1.72-.67-.23-.24-.39-.55-.48-.93-.09-.38-.14-.83-.14-1.35v-4.77h-1.35v-1.21h1.35v-2.1l1.55-.42Z"/>
  <path class="st0" d="M19.64,23.36v2.51h2.28v1.21h-2.28v4.71c0,.54.09.96.26,1.26s.48.44.93.44c.2,0,.39-.01.54-.04.16-.02.28-.05.38-.07l.07,1.19c-.16.06-.35.11-.59.15-.24.04-.51.06-.82.06-.76,0-1.33-.22-1.72-.67-.23-.24-.39-.55-.48-.93-.09-.38-.14-.83-.14-1.35v-4.77h-1.35v-1.21h1.35v-2.1l1.55-.42Z"/>
  <path class="st0" d="M23.7,28.6c0-.52,0-1-.02-1.45-.01-.45-.03-.87-.05-1.28h1.39l.05,1.72h.07c.2-.59.52-1.06.96-1.4.43-.34.92-.52,1.46-.52.16,0,.31.02.45.05v1.5c-.17-.04-.35-.05-.54-.05-.57,0-1.04.19-1.41.57-.37.38-.61.87-.72,1.47-.02.11-.04.23-.05.35s-.02.26-.02.39v4.66h-1.57v-6.02Z"/>
  <path class="st0" d="M34.36,34.61l-.13-1.1h-.05c-.24.35-.59.65-1.05.91s-1,.39-1.63.39c-.45,0-.83-.07-1.17-.22-.33-.14-.61-.33-.83-.57s-.39-.5-.51-.8c-.12-.3-.17-.61-.17-.92,0-1.06.45-1.87,1.35-2.43s2.2-.83,3.9-.82v-.18c0-.18-.02-.39-.06-.62s-.13-.45-.26-.66-.33-.38-.6-.52c-.26-.14-.62-.22-1.07-.22-.41,0-.81.06-1.21.17-.4.12-.75.27-1.07.48l-.36-1.05c.36-.24.79-.43,1.29-.57.5-.14,1.03-.21,1.58-.21.66,0,1.21.11,1.64.32.43.21.77.48,1.02.82.25.34.42.72.51,1.15.1.43.14.86.14,1.29v3.27c0,.39,0,.76.03,1.11.02.35.06.68.12.98h-1.45ZM34.13,30.15c-.43-.01-.87,0-1.31.05s-.84.14-1.19.28c-.36.14-.65.34-.87.61-.22.27-.33.61-.33,1.03,0,.52.15.9.44,1.15s.65.37,1.06.37c.58,0,1.04-.15,1.39-.45.35-.3.59-.64.72-1.01.06-.18.09-.35.09-.51v-1.52Z"/>
  <path class="st0" d="M44.46,34.29c-.2.11-.53.22-.97.33s-.95.17-1.54.17c-.66,0-1.26-.11-1.8-.33-.54-.22-.99-.52-1.37-.9-.38-.39-.67-.85-.88-1.4-.21-.55-.31-1.16-.31-1.83s.11-1.29.33-1.86.54-1.06.95-1.47c.41-.42.9-.74,1.48-.97s1.22-.34,1.93-.34c.47,0,.9.05,1.29.14.39.1.7.2.91.31l-.36,1.23c-.19-.11-.44-.2-.74-.29-.3-.08-.67-.13-1.1-.13-.51,0-.95.09-1.33.26-.38.17-.7.41-.97.7-.26.3-.46.64-.6,1.05s-.2.83-.2,1.29c0,.51.07.96.23,1.36.15.4.36.75.63,1.03.27.28.59.5.97.65.37.15.78.23,1.21.23.46,0,.84-.05,1.15-.14.31-.1.58-.19.8-.29l.27,1.19Z"/>
  <path class="st0" d="M48.47,23.36v2.51h2.28v1.21h-2.28v4.71c0,.54.09.96.26,1.26.18.29.48.44.93.44.2,0,.39-.01.54-.04.16-.02.28-.05.38-.07l.07,1.19c-.16.06-.35.11-.59.15s-.51.06-.82.06c-.76,0-1.33-.22-1.72-.67-.23-.24-.39-.55-.48-.93-.09-.38-.14-.83-.14-1.35v-4.77h-1.35v-1.21h1.35v-2.1l1.55-.42Z"/>
  <path class="st0" d="M52.32,32.99c.24.16.55.3.93.43.38.13.77.2,1.17.2.58,0,1-.13,1.28-.38.28-.25.42-.56.42-.92,0-.39-.12-.7-.37-.93-.25-.23-.67-.46-1.26-.68-.79-.28-1.38-.63-1.75-1.05-.37-.42-.56-.9-.56-1.43,0-.35.07-.68.21-.99.14-.31.34-.59.6-.82.26-.23.58-.42.95-.55s.8-.2,1.26-.2.86.05,1.23.16c.37.11.68.24.92.38l-.4,1.16c-.17-.11-.41-.22-.71-.33-.31-.11-.67-.17-1.07-.17-.47,0-.83.12-1.08.35-.25.24-.38.51-.38.84,0,.36.13.64.4.85.26.21.69.42,1.26.63.76.29,1.33.64,1.72,1.05.39.41.58.94.58,1.59,0,.77-.28,1.4-.85,1.89-.57.49-1.37.73-2.42.73-.48,0-.93-.05-1.35-.16-.42-.11-.79-.25-1.1-.43l.4-1.21Z"/>
  <path class="st0" d="M63.52,28.24c0-.46,0-.88-.02-1.26s-.03-.75-.05-1.11h1.41l.09,1.45h.04c.11-.2.25-.41.43-.61s.39-.37.63-.52c.24-.15.51-.27.82-.37.31-.1.64-.14,1-.14.3,0,.63.05.99.16.36.11.7.3,1,.58.31.28.57.66.78,1.14.21.48.32,1.1.32,1.84v5.22h-1.59v-5.04c0-.35-.04-.68-.11-.99-.07-.31-.19-.59-.34-.82s-.36-.42-.62-.56c-.26-.14-.58-.21-.95-.21-.53,0-.98.16-1.36.48-.38.32-.64.7-.77,1.15-.07.2-.11.45-.11.74v5.26h-1.59v-6.38Z"/>
  <path class="st0" d="M74.43,30.53c.01.54.1,1,.26,1.38.16.38.38.69.65.94s.59.43.95.54.74.17,1.14.17c.58,0,1.05-.04,1.42-.13.37-.08.7-.19,1-.33l.27,1.14c-.28.13-.66.26-1.14.37-.48.11-1.07.17-1.77.17s-1.28-.11-1.81-.32-.98-.51-1.35-.89-.66-.85-.85-1.39-.29-1.14-.29-1.81.09-1.28.28-1.85c.19-.57.46-1.07.81-1.49.35-.42.79-.76,1.29-1,.51-.25,1.08-.37,1.72-.37.71,0,1.3.14,1.77.42.47.28.84.62,1.11,1.04s.46.86.57,1.35c.11.48.16.92.16,1.32,0,.17,0,.31-.02.43-.01.12-.02.22-.04.31h-6.14ZM79.09,29.39c0-.25-.03-.53-.09-.83-.06-.3-.17-.58-.33-.84s-.39-.48-.68-.65c-.29-.17-.66-.26-1.1-.26-.4,0-.74.08-1.04.25s-.54.38-.74.63c-.2.25-.35.53-.45.83s-.17.59-.21.87h4.64Z"/>
  <path class="st0" d="M83.23,25.87l1.16,4.44c.13.49.25.97.36,1.42.11.45.2.91.29,1.36h.05c.1-.45.21-.9.35-1.36.14-.46.28-.93.42-1.4l1.43-4.46h1.34l1.35,4.37c.17.53.32,1.03.44,1.49.13.46.24.92.33,1.36h.05c.07-.45.17-.9.28-1.36.11-.46.24-.95.39-1.47l1.25-4.39h1.57l-2.82,8.74h-1.45l-1.34-4.17c-.16-.49-.3-.97-.42-1.42s-.24-.94-.35-1.45h-.04c-.11.53-.23,1.03-.36,1.49-.13.46-.28.93-.43,1.4l-1.41,4.16h-1.45l-2.64-8.74h1.63Z"/>
  <path class="st3" d="M293.98,39.34l-1.26,3.83h-1.63l4.14-12.18h1.9l4.16,12.18h-1.68l-1.3-3.83h-4.32ZM297.97,38.11l-1.19-3.5c-.13-.4-.25-.78-.34-1.15-.1-.37-.19-.73-.29-1.07h-.04c-.1.36-.19.73-.29,1.09-.1.37-.2.74-.33,1.11l-1.19,3.52h3.67Z"/>
  <path class="st3" d="M303.26,34.43l1.16,4.44c.13.49.25.97.36,1.42.11.45.2.91.29,1.36h.05c.1-.45.21-.9.35-1.36s.28-.93.42-1.4l1.43-4.46h1.34l1.35,4.37c.17.53.32,1.03.44,1.49s.24.92.33,1.36h.05c.07-.45.17-.9.28-1.36s.24-.95.39-1.47l1.25-4.39h1.57l-2.82,8.74h-1.45l-1.34-4.17c-.16-.49-.3-.97-.42-1.42-.13-.45-.24-.94-.35-1.45h-.04c-.11.53-.23,1.03-.36,1.49s-.28.93-.43,1.4l-1.41,4.16h-1.45l-2.64-8.74h1.63Z"/>
  <path class="st3" d="M320.7,43.17l-.13-1.1h-.05c-.24.35-.59.65-1.05.91-.46.26-1,.39-1.63.39-.45,0-.83-.07-1.17-.22-.33-.14-.61-.33-.83-.57-.22-.24-.39-.5-.51-.8s-.17-.61-.17-.92c0-1.06.45-1.87,1.35-2.43s2.2-.83,3.9-.82v-.18c0-.18-.02-.39-.06-.62-.04-.24-.13-.45-.26-.66-.13-.2-.33-.38-.6-.52-.27-.14-.62-.22-1.07-.22-.41,0-.81.06-1.21.17-.4.12-.75.27-1.07.48l-.36-1.05c.36-.24.79-.43,1.29-.57.5-.14,1.03-.21,1.58-.21.66,0,1.21.11,1.64.32.43.21.77.48,1.02.82s.42.72.52,1.15c.1.43.14.86.14,1.29v3.27c0,.39,0,.76.03,1.11s.06.68.12.98h-1.45ZM320.46,38.71c-.43-.01-.87,0-1.31.05-.44.05-.84.14-1.19.28-.36.14-.64.34-.87.61-.22.27-.33.61-.33,1.03,0,.52.15.9.44,1.15.29.25.65.37,1.06.37.58,0,1.04-.15,1.39-.45.35-.3.59-.64.72-1.01.06-.18.09-.35.09-.51v-1.52Z"/>
  <path class="st3" d="M324.56,37.16c0-.52,0-1-.02-1.45-.01-.45-.03-.87-.05-1.28h1.39l.05,1.72h.07c.2-.59.52-1.06.96-1.4.43-.34.92-.52,1.46-.52.16,0,.31.02.45.05v1.5c-.17-.04-.35-.05-.54-.05-.57,0-1.04.19-1.41.57-.37.38-.61.87-.72,1.47-.02.11-.04.23-.05.35-.01.13-.02.26-.02.39v4.66h-1.57v-6.02Z"/>
  <path class="st3" d="M331.18,39.09c.01.54.1,1,.26,1.38.16.38.38.69.65.94s.59.43.95.54.74.17,1.14.17c.58,0,1.05-.04,1.42-.13.37-.08.7-.19,1-.33l.27,1.14c-.28.13-.66.26-1.14.37-.48.11-1.07.17-1.77.17s-1.28-.11-1.81-.32-.98-.51-1.35-.89-.66-.85-.85-1.39c-.19-.54-.29-1.14-.29-1.81s.09-1.28.28-1.85c.19-.57.46-1.07.81-1.49.35-.42.79-.76,1.29-1s1.08-.37,1.72-.37c.71,0,1.3.14,1.77.42s.84.62,1.11,1.04.46.86.57,1.35c.11.48.16.92.16,1.32,0,.17,0,.31-.02.43-.01.12-.02.22-.04.31h-6.14ZM335.84,37.95c0-.25-.03-.53-.09-.83-.06-.3-.17-.58-.33-.84-.16-.26-.39-.48-.68-.65-.29-.17-.66-.26-1.1-.26-.4,0-.74.08-1.04.25s-.54.38-.74.63c-.2.25-.35.53-.45.83s-.17.59-.21.87h4.64Z"/>
  <path class="st3" d="M339.34,36.8c0-.46,0-.88-.02-1.26-.01-.38-.03-.75-.05-1.11h1.41l.09,1.45h.04c.11-.2.25-.41.43-.61s.39-.37.63-.52c.24-.15.52-.27.82-.37s.64-.14,1-.14c.3,0,.63.05.99.16.36.11.7.3,1,.58.31.28.57.66.78,1.14.21.48.32,1.1.32,1.84v5.22h-1.59v-5.04c0-.35-.04-.68-.11-.99s-.19-.59-.34-.82c-.16-.24-.36-.42-.62-.56-.26-.14-.58-.21-.95-.21-.53,0-.98.16-1.36.48-.38.32-.64.7-.77,1.15-.07.2-.11.45-.11.74v5.26h-1.59v-6.38Z"/>
  <path class="st3" d="M350.25,39.09c.01.54.1,1,.26,1.38.16.38.38.69.65.94s.59.43.95.54.74.17,1.14.17c.58,0,1.05-.04,1.42-.13.37-.08.7-.19,1-.33l.27,1.14c-.28.13-.66.26-1.14.37-.48.11-1.07.17-1.77.17s-1.28-.11-1.81-.32-.98-.51-1.35-.89-.66-.85-.85-1.39-.29-1.14-.29-1.81.09-1.28.28-1.85c.19-.57.46-1.07.81-1.49.35-.42.79-.76,1.29-1,.51-.25,1.08-.37,1.72-.37.71,0,1.3.14,1.77.42.47.28.84.62,1.11,1.04s.46.86.57,1.35c.11.48.16.92.16,1.32,0,.17,0,.31-.02.43-.01.12-.02.22-.04.31h-6.14ZM354.92,37.95c0-.25-.03-.53-.09-.83-.06-.3-.17-.58-.33-.84-.16-.26-.39-.48-.68-.65-.29-.17-.66-.26-1.1-.26-.4,0-.74.08-1.04.25s-.54.38-.74.63c-.2.25-.35.53-.45.83-.1.3-.17.59-.21.87h4.64Z"/>
  <path class="st3" d="M358.2,41.55c.24.16.55.3.93.43.38.13.77.2,1.17.2.58,0,1.01-.13,1.28-.38.28-.25.42-.56.42-.92,0-.39-.12-.7-.37-.93-.25-.23-.67-.46-1.26-.68-.79-.28-1.38-.63-1.75-1.05-.37-.42-.56-.9-.56-1.43,0-.35.07-.68.21-.99.14-.31.34-.59.6-.82.26-.23.57-.42.95-.55.37-.13.79-.2,1.26-.2.45,0,.85.05,1.23.16.37.11.68.24.92.38l-.4,1.16c-.17-.11-.41-.22-.71-.33-.31-.11-.67-.17-1.08-.17-.47,0-.83.12-1.08.35-.25.24-.38.51-.38.84,0,.36.13.64.4.85.26.21.69.42,1.26.63.76.29,1.33.64,1.72,1.05.39.41.58.94.58,1.59,0,.77-.28,1.4-.85,1.89s-1.37.73-2.42.73c-.48,0-.93-.05-1.35-.16-.42-.11-.79-.25-1.1-.43l.4-1.21Z"/>
  <path class="st3" d="M365.36,41.55c.24.16.55.3.93.43.38.13.77.2,1.17.2.58,0,1.01-.13,1.28-.38.28-.25.42-.56.42-.92,0-.39-.12-.7-.37-.93-.25-.23-.67-.46-1.26-.68-.8-.28-1.38-.63-1.75-1.05-.37-.42-.56-.9-.56-1.43,0-.35.07-.68.21-.99.14-.31.34-.59.6-.82.26-.23.58-.42.95-.55s.8-.2,1.26-.2.86.05,1.23.16c.37.11.68.24.92.38l-.4,1.16c-.17-.11-.41-.22-.71-.33s-.67-.17-1.07-.17c-.47,0-.83.12-1.08.35s-.38.51-.38.84c0,.36.13.64.4.85.26.21.69.42,1.26.63.76.29,1.33.64,1.72,1.05.39.41.58.94.58,1.59,0,.77-.28,1.4-.85,1.89-.57.49-1.37.73-2.42.73-.48,0-.93-.05-1.35-.16-.42-.11-.79-.25-1.1-.43l.4-1.21Z"/>
  <path class="st3" d="M283.57,136.36h-4.73v4.39h5.28v1.32h-6.85v-12.18h6.58v1.32h-5v3.85h4.73v1.3Z"/>
  <path class="st3" d="M286.1,135.69c0-.46,0-.88-.02-1.26-.01-.38-.03-.75-.05-1.11h1.41l.09,1.45h.04c.11-.2.25-.41.43-.61s.39-.37.63-.52c.24-.15.52-.27.82-.37s.64-.14,1-.14c.3,0,.63.05.99.16.36.11.7.3,1,.58.31.28.57.66.78,1.14.21.48.32,1.1.32,1.84v5.22h-1.59v-5.04c0-.35-.04-.68-.11-.99s-.19-.59-.34-.82c-.16-.24-.36-.42-.62-.56-.26-.14-.58-.21-.95-.21-.53,0-.98.16-1.36.48-.38.32-.64.7-.77,1.15-.07.2-.11.45-.11.74v5.26h-1.59v-6.38Z"/>
  <path class="st3" d="M303.66,133.33c-.02.31-.04.66-.05,1.03-.01.37-.02.83-.02,1.37v5.08c0,1.01-.1,1.83-.31,2.47-.21.63-.52,1.14-.94,1.53-.42.4-.92.67-1.49.82-.57.15-1.14.23-1.69.23s-1.06-.06-1.59-.18c-.53-.12-.97-.3-1.32-.54l.4-1.21c.29.18.65.34,1.09.48.44.14.93.21,1.47.21.41,0,.79-.05,1.13-.16.34-.11.64-.29.89-.53s.45-.56.59-.95.21-.86.21-1.41v-.98h-.04c-.24.41-.59.76-1.06,1.04-.46.28-1.04.42-1.73.42-.54,0-1.04-.11-1.5-.33-.46-.22-.85-.52-1.17-.89-.33-.38-.58-.83-.77-1.35-.19-.52-.28-1.09-.28-1.69,0-.73.11-1.39.33-1.97.22-.58.52-1.07.88-1.46s.79-.7,1.26-.9c.47-.2.96-.31,1.46-.31.37,0,.71.05,1.01.14.3.09.56.21.79.35s.41.31.56.49c.15.18.27.36.37.54h.04l.07-1.32h1.39ZM302.02,136.78c0-.13,0-.26-.02-.38-.01-.12-.04-.24-.07-.34-.14-.46-.41-.85-.79-1.18-.38-.33-.86-.5-1.44-.5-.39,0-.73.08-1.05.24-.31.16-.59.38-.82.66-.23.28-.41.63-.54,1.04-.13.41-.19.87-.19,1.37,0,.43.05.84.16,1.22.11.38.27.71.49.99s.48.51.8.68.7.25,1.13.25c.49,0,.94-.14,1.35-.43.4-.29.69-.69.86-1.19.05-.13.08-.27.1-.42.02-.15.03-.29.03-.42v-1.57Z"/>
  <path class="st3" d="M311.07,142.07l-.13-1.1h-.05c-.24.35-.59.65-1.05.91s-1,.39-1.63.39c-.45,0-.83-.07-1.17-.22-.33-.14-.61-.33-.83-.57s-.39-.5-.51-.8c-.12-.3-.17-.61-.17-.92,0-1.06.45-1.87,1.35-2.43s2.2-.83,3.9-.82v-.18c0-.18-.02-.39-.06-.62s-.13-.45-.26-.66-.33-.38-.6-.52c-.26-.14-.62-.22-1.07-.22-.41,0-.81.06-1.21.17-.4.12-.75.27-1.07.48l-.36-1.05c.36-.24.79-.43,1.29-.57.5-.14,1.03-.21,1.58-.21.66,0,1.21.11,1.64.32.43.21.77.48,1.02.82.25.34.42.72.51,1.15.1.43.14.86.14,1.29v3.27c0,.39,0,.76.03,1.11.02.35.06.68.12.98h-1.45ZM310.83,137.61c-.43-.01-.87,0-1.31.05s-.84.14-1.19.28c-.36.14-.65.34-.87.61-.22.27-.33.61-.33,1.03,0,.52.15.9.44,1.15s.65.37,1.06.37c.58,0,1.04-.15,1.39-.45.35-.3.59-.64.72-1.01.06-.18.09-.35.09-.51v-1.52Z"/>
  <path class="st3" d="M322.47,133.33c-.02.31-.04.66-.05,1.03s-.02.83-.02,1.37v5.08c0,1.01-.1,1.83-.31,2.47s-.52,1.14-.94,1.53c-.42.4-.92.67-1.49.82-.57.15-1.14.23-1.69.23s-1.06-.06-1.59-.18c-.53-.12-.97-.3-1.32-.54l.4-1.21c.29.18.65.34,1.09.48.44.14.93.21,1.47.21.41,0,.79-.05,1.13-.16.34-.11.64-.29.89-.53.25-.25.45-.56.59-.95s.21-.86.21-1.41v-.98h-.04c-.24.41-.59.76-1.06,1.04s-1.04.42-1.73.42c-.54,0-1.04-.11-1.5-.33s-.85-.52-1.17-.89c-.33-.38-.58-.83-.77-1.35-.19-.52-.28-1.09-.28-1.69,0-.73.11-1.39.33-1.97s.52-1.07.88-1.46c.37-.4.79-.7,1.26-.9.47-.2.96-.31,1.46-.31.37,0,.71.05,1.01.14.3.09.56.21.79.35s.41.31.56.49c.15.18.27.36.37.54h.04l.07-1.32h1.39ZM320.82,136.78c0-.13,0-.26-.02-.38-.01-.12-.04-.24-.07-.34-.14-.46-.41-.85-.79-1.18-.38-.33-.86-.5-1.44-.5-.39,0-.73.08-1.05.24-.31.16-.59.38-.82.66-.24.28-.42.63-.54,1.04-.13.41-.19.87-.19,1.37,0,.43.05.84.16,1.22.11.38.27.71.49.99.22.28.48.51.8.68.32.17.7.25,1.13.25.49,0,.94-.14,1.35-.43.4-.29.69-.69.86-1.19.05-.13.08-.27.1-.42.02-.15.03-.29.03-.42v-1.57Z"/>
  <path class="st3" d="M325.92,137.99c.01.54.1,1,.26,1.38.16.38.38.69.65.94s.59.43.95.54.74.17,1.14.17c.58,0,1.05-.04,1.42-.13.37-.08.7-.19,1-.33l.27,1.14c-.28.13-.66.26-1.14.37-.48.11-1.07.17-1.77.17s-1.28-.11-1.81-.32-.98-.51-1.35-.89-.66-.85-.85-1.39-.29-1.14-.29-1.81.09-1.28.28-1.85c.19-.57.46-1.07.81-1.49.35-.42.79-.76,1.29-1,.51-.25,1.08-.37,1.72-.37.71,0,1.3.14,1.77.42.47.28.84.62,1.11,1.04s.46.86.57,1.35c.11.48.16.92.16,1.32,0,.17,0,.31-.02.43-.01.12-.02.22-.04.31h-6.14ZM330.58,136.85c0-.25-.03-.53-.09-.83-.06-.3-.17-.58-.33-.84s-.39-.48-.68-.65c-.29-.17-.66-.26-1.1-.26-.4,0-.74.08-1.04.25s-.54.38-.74.63c-.2.25-.35.53-.45.83s-.17.59-.21.87h4.64Z"/>
  <path class="st3" d="M334.09,135.69c0-.46,0-.88-.02-1.26s-.03-.75-.05-1.11h1.39l.07,1.41h.05c.12-.2.26-.4.43-.6s.36-.36.59-.52c.22-.15.48-.27.76-.36s.61-.14.97-.14c.6,0,1.12.16,1.54.49.43.33.74.75.93,1.26h.04c.13-.24.28-.46.45-.65s.34-.36.52-.49c.26-.2.55-.36.85-.46.3-.1.66-.15,1.08-.15.29,0,.6.05.94.16.34.11.65.31.93.6.28.29.52.68.71,1.17.19.49.29,1.11.29,1.87v5.15h-1.55v-4.95c0-.84-.15-1.5-.46-1.98-.31-.48-.79-.71-1.44-.71-.46,0-.85.14-1.18.43-.33.29-.56.63-.7,1.01-.04.11-.07.23-.09.37s-.04.28-.04.42v5.4h-1.55v-5.24c0-.7-.15-1.27-.45-1.73-.3-.45-.76-.68-1.37-.68-.51,0-.93.17-1.26.5-.34.33-.57.7-.7,1.09-.08.22-.13.48-.13.78v5.28h-1.55v-6.38Z"/>
  <path class="st3" d="M350.04,137.99c.01.54.1,1,.26,1.38.16.38.38.69.65.94s.59.43.95.54.74.17,1.14.17c.58,0,1.05-.04,1.42-.13.37-.08.7-.19,1-.33l.27,1.14c-.28.13-.66.26-1.14.37-.48.11-1.07.17-1.77.17s-1.28-.11-1.81-.32-.98-.51-1.35-.89-.66-.85-.85-1.39-.29-1.14-.29-1.81.09-1.28.28-1.85c.19-.57.46-1.07.81-1.49.35-.42.79-.76,1.29-1,.51-.25,1.08-.37,1.72-.37.71,0,1.3.14,1.77.42.47.28.84.62,1.11,1.04s.46.86.57,1.35c.11.48.16.92.16,1.32,0,.17,0,.31-.02.43-.01.12-.02.22-.04.31h-6.14ZM354.7,136.85c0-.25-.03-.53-.09-.83-.06-.3-.17-.58-.33-.84-.16-.26-.39-.48-.68-.65-.29-.17-.66-.26-1.1-.26-.4,0-.74.08-1.04.25s-.54.38-.74.63c-.2.25-.35.53-.45.83-.1.3-.17.59-.21.87h4.64Z"/>
  <path class="st3" d="M358.2,135.69c0-.46,0-.88-.02-1.26s-.03-.75-.05-1.11h1.41l.09,1.45h.04c.11-.2.25-.41.43-.61s.39-.37.63-.52c.24-.15.51-.27.82-.37.31-.1.64-.14,1-.14.3,0,.63.05.99.16.36.11.7.3,1,.58.31.28.57.66.78,1.14.21.48.32,1.1.32,1.84v5.22h-1.59v-5.04c0-.35-.04-.68-.11-.99-.07-.31-.19-.59-.34-.82s-.36-.42-.62-.56c-.26-.14-.58-.21-.95-.21-.53,0-.98.16-1.36.48-.38.32-.64.7-.77,1.15-.07.2-.11.45-.11.74v5.26h-1.59v-6.38Z"/>
  <path class="st3" d="M370.07,130.81v2.51h2.28v1.21h-2.28v4.71c0,.54.09.96.26,1.26.17.29.48.44.93.44.2,0,.39-.01.54-.04s.28-.05.38-.07l.07,1.19c-.16.06-.35.11-.59.15s-.51.06-.82.06c-.76,0-1.33-.22-1.72-.67-.23-.24-.39-.55-.48-.93-.09-.38-.14-.83-.14-1.35v-4.77h-1.35v-1.21h1.35v-2.1l1.55-.42Z"/>
  <path class="st3" d="M301.85,243.96c.35.22.77.4,1.26.56s1.01.24,1.55.24c.81,0,1.43-.19,1.88-.58.45-.39.67-.89.67-1.5,0-.57-.18-1.03-.53-1.4-.36-.37-.94-.71-1.76-1.02-1-.35-1.79-.8-2.36-1.35-.57-.55-.86-1.25-.86-2.1,0-.47.09-.91.28-1.31.19-.4.45-.75.79-1.05.34-.29.76-.53,1.25-.7.49-.17,1.03-.25,1.62-.25.63,0,1.16.06,1.61.18.45.12.81.26,1.08.42l-.43,1.28c-.2-.11-.5-.23-.89-.37-.39-.14-.86-.21-1.42-.21-.42,0-.78.06-1.07.17-.29.12-.52.26-.71.43s-.31.37-.4.59-.13.43-.13.63c0,.57.19,1.02.58,1.35s1,.67,1.84.99c1.02.4,1.8.87,2.32,1.42.52.55.79,1.27.79,2.16,0,.47-.09.92-.26,1.34-.17.42-.44.79-.79,1.12-.36.33-.8.58-1.33.77-.53.19-1.16.28-1.88.28-.59,0-1.17-.08-1.75-.23s-1.03-.33-1.35-.55l.4-1.32Z"/>
  <path class="st3" d="M318.24,243.49c0,.46,0,.88.02,1.27.01.39.03.76.05,1.11h-1.41l-.09-1.43h-.04c-.11.18-.25.36-.42.55-.17.19-.37.36-.61.52-.24.16-.51.29-.82.4s-.66.15-1.05.15c-.35,0-.7-.05-1.06-.16-.36-.11-.68-.31-.97-.6s-.53-.68-.71-1.17c-.19-.49-.28-1.13-.28-1.9v-5.11h1.59v4.84c0,.83.14,1.5.43,2.01.29.51.79.77,1.52.77.26,0,.51-.04.73-.13.22-.08.42-.2.6-.33s.33-.29.46-.46.23-.34.3-.52c.1-.25.14-.52.14-.81v-5.37h1.59v6.36Z"/>
  <path class="st3" d="M320.87,239.98c0-.57,0-1.08-.02-1.54-.01-.46-.03-.9-.05-1.32h1.43l.07,1.5h.04c.33-.54.74-.96,1.26-1.26.51-.29,1.13-.44,1.85-.44.53,0,1.02.11,1.47.33s.84.52,1.17.9c.33.39.59.85.78,1.4.19.55.28,1.15.28,1.82,0,.78-.11,1.47-.33,2.06s-.52,1.08-.88,1.47c-.37.39-.79.68-1.26.88-.48.19-.97.29-1.49.29-.58,0-1.11-.12-1.58-.36-.48-.24-.85-.58-1.11-1.01h-.04v4.75h-1.57v-9.47ZM322.45,242.31c0,.12,0,.24.02.34.01.11.03.21.05.31.14.55.43,1,.87,1.35.43.34.94.51,1.52.51.42,0,.8-.08,1.13-.24.33-.16.61-.39.83-.7.22-.3.39-.66.52-1.07.12-.41.18-.87.18-1.37,0-.43-.06-.85-.17-1.25-.12-.4-.28-.74-.5-1.04-.22-.29-.49-.53-.81-.71-.33-.17-.7-.26-1.12-.26-.54,0-1.04.18-1.49.53-.45.36-.76.83-.91,1.44-.02.1-.05.2-.07.32-.02.12-.04.23-.04.33v1.5Z"/>
  <path class="st3" d="M331.15,239.98c0-.57,0-1.08-.02-1.54-.01-.46-.03-.9-.05-1.32h1.43l.07,1.5h.04c.33-.54.74-.96,1.26-1.26.51-.29,1.13-.44,1.85-.44.53,0,1.02.11,1.47.33s.84.52,1.17.9c.33.39.59.85.78,1.4.19.55.28,1.15.28,1.82,0,.78-.11,1.47-.33,2.06s-.52,1.08-.88,1.47c-.37.39-.79.68-1.26.88-.48.19-.97.29-1.49.29-.58,0-1.11-.12-1.58-.36-.48-.24-.85-.58-1.11-1.01h-.04v4.75h-1.57v-9.47ZM332.72,242.31c0,.12,0,.24.02.34.01.11.03.21.05.31.14.55.43,1,.87,1.35.43.34.94.51,1.52.51.42,0,.8-.08,1.13-.24.33-.16.61-.39.83-.7.22-.3.39-.66.52-1.07.12-.41.18-.87.18-1.37,0-.43-.06-.85-.17-1.25-.12-.4-.28-.74-.5-1.04-.22-.29-.49-.53-.81-.71-.33-.17-.7-.26-1.12-.26-.54,0-1.04.18-1.49.53-.45.36-.76.83-.91,1.44-.02.1-.05.2-.07.32-.02.12-.04.23-.04.33v1.5Z"/>
  <path class="st3" d="M345.14,236.93c.63,0,1.2.11,1.72.33.52.22.96.52,1.33.92.37.4.65.87.86,1.43s.31,1.16.31,1.82c0,.81-.13,1.5-.38,2.09-.25.58-.59,1.07-1,1.45-.42.38-.88.66-1.4.84s-1.04.27-1.57.27c-.59,0-1.14-.11-1.65-.32-.51-.21-.95-.51-1.33-.89-.37-.39-.67-.86-.88-1.42-.22-.56-.33-1.18-.33-1.87,0-.73.11-1.39.33-1.96.22-.57.53-1.06.92-1.45.39-.4.85-.7,1.38-.91.53-.21,1.1-.32,1.7-.32ZM345.1,238.12c-.47,0-.87.1-1.21.3s-.62.46-.84.78-.39.68-.49,1.09-.15.82-.15,1.23c0,.48.07.93.2,1.34.13.41.32.76.55,1.07.23.3.51.54.84.71s.68.25,1.07.25.72-.08,1.05-.25.61-.4.85-.71c.24-.3.43-.66.56-1.07s.2-.87.2-1.36c0-.37-.05-.76-.14-1.16-.1-.4-.25-.76-.46-1.08-.21-.33-.48-.59-.81-.8-.33-.21-.73-.32-1.2-.32Z"/>
  <path class="st3" d="M351.35,239.85c0-.52,0-1-.02-1.45-.01-.45-.03-.87-.05-1.28h1.39l.05,1.72h.07c.2-.59.52-1.06.96-1.4.43-.34.92-.52,1.46-.52.16,0,.31.02.45.05v1.5c-.17-.04-.35-.05-.54-.05-.57,0-1.04.19-1.41.57-.37.38-.61.87-.72,1.47-.02.11-.04.23-.05.35s-.02.26-.02.39v4.66h-1.57v-6.02Z"/>
  <path class="st3" d="M359.61,234.62v2.51h2.28v1.21h-2.28v4.71c0,.54.09.96.26,1.26s.48.44.93.44c.2,0,.39-.01.54-.04.16-.02.28-.05.38-.07l.07,1.19c-.16.06-.35.11-.59.15-.24.04-.51.06-.82.06-.76,0-1.33-.22-1.72-.67-.23-.24-.39-.55-.48-.93-.09-.38-.14-.83-.14-1.35v-4.77h-1.35v-1.21h1.35v-2.1l1.55-.42Z"/>
  <path class="st0" d="M66.7,136.65v-12.18h1.72l3.9,6.16c.46.72.86,1.41,1.22,2.05.35.64.68,1.28.97,1.91l.04-.02c-.07-.82-.12-1.62-.14-2.4-.02-.78-.04-1.65-.04-2.6v-5.09h1.48v12.18h-1.59l-3.87-6.18c-.42-.69-.83-1.37-1.22-2.05-.39-.68-.74-1.35-1.06-2.01l-.05.02c.05.77.08,1.55.1,2.33s.03,1.68.03,2.69v5.2h-1.48Z"/>
  <path class="st0" d="M85.85,134.27c0,.46,0,.88.02,1.27.01.39.03.76.05,1.11h-1.41l-.09-1.43h-.04c-.11.18-.25.36-.42.55-.17.19-.37.36-.6.52-.24.16-.51.29-.82.4s-.66.15-1.05.15c-.35,0-.7-.05-1.06-.16-.36-.11-.68-.31-.97-.6-.29-.29-.53-.68-.71-1.17-.19-.49-.28-1.13-.28-1.9v-5.11h1.59v4.84c0,.83.14,1.5.43,2.01.29.51.8.77,1.52.77.26,0,.51-.04.73-.13.22-.08.42-.2.61-.33s.33-.29.46-.46.23-.34.3-.52c.1-.25.14-.52.14-.81v-5.37h1.59v6.36Z"/>
  <path class="st0" d="M88.48,130.64c0-.52,0-1-.02-1.45-.01-.45-.03-.87-.05-1.28h1.39l.05,1.72h.07c.2-.59.52-1.06.96-1.4.43-.34.92-.52,1.46-.52.16,0,.31.02.45.05v1.5c-.17-.04-.35-.05-.54-.05-.57,0-1.04.19-1.41.57-.37.38-.61.87-.72,1.47-.02.11-.04.23-.05.35s-.02.26-.02.39v4.66h-1.57v-6.02Z"/>
  <path class="st0" d="M96.74,125.4v2.51h2.28v1.21h-2.28v4.71c0,.54.09.96.26,1.26.18.29.48.44.93.44.2,0,.39-.01.54-.04.16-.02.28-.05.38-.07l.07,1.19c-.16.06-.35.11-.59.15s-.51.06-.82.06c-.76,0-1.33-.22-1.72-.67-.23-.24-.39-.55-.48-.93-.09-.38-.14-.83-.14-1.35v-4.77h-1.35v-1.21h1.35v-2.1l1.55-.42Z"/>
  <path class="st0" d="M108.12,134.27c0,.46,0,.88.02,1.27.01.39.03.76.05,1.11h-1.41l-.09-1.43h-.04c-.11.18-.25.36-.42.55-.17.19-.37.36-.6.52-.24.16-.51.29-.82.4s-.66.15-1.05.15c-.35,0-.7-.05-1.06-.16-.36-.11-.68-.31-.97-.6-.29-.29-.53-.68-.71-1.17-.19-.49-.28-1.13-.28-1.9v-5.11h1.59v4.84c0,.83.14,1.5.43,2.01.29.51.8.77,1.52.77.26,0,.51-.04.73-.13.22-.08.42-.2.61-.33s.33-.29.46-.46.23-.34.3-.52c.1-.25.14-.52.14-.81v-5.37h1.59v6.36Z"/>
  <path class="st0" d="M110.76,130.64c0-.52,0-1-.02-1.45-.01-.45-.03-.87-.05-1.28h1.39l.05,1.72h.07c.2-.59.52-1.06.96-1.4.43-.34.92-.52,1.46-.52.16,0,.31.02.45.05v1.5c-.17-.04-.35-.05-.54-.05-.57,0-1.04.19-1.41.57-.37.38-.61.87-.72,1.47-.02.11-.04.23-.05.35s-.02.26-.02.39v4.66h-1.57v-6.02Z"/>
  <path class="st0" d="M117.37,132.57c.01.54.1,1,.26,1.38.16.38.38.69.65.94s.59.43.95.54.74.17,1.14.17c.58,0,1.05-.04,1.42-.13.37-.08.7-.19,1-.33l.27,1.14c-.28.13-.66.26-1.14.37s-1.07.17-1.77.17-1.28-.11-1.81-.32-.98-.51-1.35-.89-.66-.85-.85-1.39-.29-1.14-.29-1.81.09-1.28.28-1.85c.19-.57.46-1.07.81-1.49.36-.42.79-.76,1.29-1s1.08-.37,1.72-.37c.71,0,1.3.14,1.77.42.47.28.84.62,1.11,1.04s.46.86.57,1.35c.11.48.16.92.16,1.32,0,.17,0,.31-.02.43-.01.12-.02.22-.04.31h-6.14ZM122.03,131.43c0-.25-.03-.53-.09-.83-.06-.3-.17-.58-.33-.84-.16-.26-.39-.48-.68-.65-.29-.17-.66-.26-1.1-.26-.4,0-.74.08-1.04.25-.3.17-.54.38-.74.63-.2.25-.35.53-.45.83s-.17.59-.21.87h4.64Z"/>
  <path class="st0" d="M125.32,135.03c.24.16.55.3.93.43.38.13.77.2,1.17.2.58,0,1-.13,1.28-.38.28-.25.42-.56.42-.92,0-.39-.12-.7-.37-.93-.25-.23-.67-.46-1.26-.68-.79-.28-1.38-.63-1.75-1.05-.37-.42-.56-.9-.56-1.43,0-.35.07-.68.21-.99.14-.31.34-.59.6-.82.26-.23.58-.42.95-.55s.8-.2,1.26-.2.86.05,1.23.16c.37.11.68.24.92.38l-.4,1.16c-.17-.11-.41-.22-.71-.33-.31-.11-.67-.17-1.07-.17-.47,0-.83.12-1.08.35-.25.24-.38.51-.38.84,0,.36.13.64.4.85.26.21.69.42,1.26.63.76.29,1.33.64,1.72,1.05.39.41.58.94.58,1.59,0,.77-.28,1.4-.85,1.89-.57.49-1.37.73-2.42.73-.48,0-.93-.05-1.35-.16-.42-.11-.79-.25-1.1-.43l.4-1.21Z"/>
  <path class="st0" d="M144.2,136.65c-.17-.17-.34-.35-.52-.53-.18-.19-.38-.41-.62-.66-.53.49-1.09.85-1.67,1.07-.58.22-1.21.33-1.89.33-.59,0-1.12-.09-1.58-.28-.46-.19-.86-.44-1.17-.75-.32-.31-.56-.67-.73-1.08-.17-.41-.25-.84-.25-1.3,0-.83.22-1.54.67-2.11.45-.58,1.02-1.06,1.72-1.45v-.05c-.31-.4-.56-.81-.74-1.25-.18-.43-.27-.87-.27-1.3,0-.37.07-.74.2-1.09.13-.35.33-.67.59-.96.26-.28.58-.51.97-.69.39-.17.83-.26,1.34-.26.37,0,.73.06,1.06.18.33.12.62.29.86.52.24.23.43.5.57.81.14.31.21.67.21,1.07,0,.65-.2,1.23-.61,1.75s-1.09,1.02-2.07,1.5v.05c.25.3.52.6.79.91.27.31.54.61.79.9.26.3.51.58.74.85s.45.51.64.73c.54-.83.93-2.02,1.17-3.56h1.45c-.17.96-.39,1.82-.66,2.57-.27.75-.64,1.39-1.09,1.93.33.35.65.7.98,1.05.33.35.67.72,1.03,1.1h-1.88ZM139.77,135.66c.53,0,1.01-.11,1.44-.32.43-.21.79-.47,1.07-.79-.18-.19-.4-.43-.65-.71-.25-.28-.53-.59-.83-.92-.3-.33-.62-.68-.95-1.06-.33-.37-.67-.75-1-1.14-.17.11-.34.24-.52.39-.18.15-.35.32-.51.52-.16.2-.29.43-.39.69s-.15.55-.15.88c0,.35.06.67.18.98.12.3.29.56.51.78.22.22.49.39.8.51s.64.19,1,.19ZM140.12,125.36c-.51,0-.89.18-1.15.53-.26.36-.39.77-.39,1.24,0,.43.09.82.26,1.17s.39.69.66,1.01c.61-.35,1.1-.7,1.47-1.07.37-.36.55-.8.55-1.32,0-.18-.03-.36-.08-.55-.05-.19-.14-.35-.25-.51-.11-.15-.26-.27-.43-.37-.18-.1-.39-.14-.64-.14Z"/>
  <path class="st0" d="M48.63,152.73c.01.54.1,1,.26,1.38.16.38.38.69.65.94s.59.43.95.54.74.17,1.14.17c.58,0,1.05-.04,1.42-.13.37-.08.7-.19,1-.33l.27,1.14c-.28.13-.66.26-1.14.37-.48.11-1.07.17-1.77.17s-1.28-.11-1.81-.32-.98-.51-1.35-.89-.66-.85-.85-1.39c-.19-.54-.29-1.14-.29-1.81s.09-1.28.28-1.85c.19-.57.46-1.07.81-1.49.35-.42.79-.76,1.29-1s1.08-.37,1.72-.37c.71,0,1.3.14,1.77.42s.84.62,1.11,1.04.46.86.57,1.35c.11.48.16.92.16,1.32,0,.17,0,.31-.02.43-.01.12-.02.22-.04.31h-6.14ZM53.29,151.6c0-.25-.03-.53-.09-.83-.06-.3-.17-.58-.33-.84-.16-.26-.39-.48-.68-.65-.29-.17-.66-.26-1.1-.26-.4,0-.74.08-1.04.25s-.54.38-.74.63c-.2.25-.35.53-.45.83s-.17.59-.21.87h4.64Z"/>
  <path class="st0" d="M64.35,143.99v10.57c0,.39,0,.78.02,1.19s.03.76.05,1.07h-1.43l-.07-1.52h-.04c-.24.49-.62.9-1.13,1.23-.51.33-1.13.49-1.85.49-.53,0-1.02-.11-1.48-.33-.46-.22-.85-.52-1.18-.9-.33-.39-.59-.85-.79-1.4s-.29-1.15-.29-1.82c0-.72.1-1.38.31-1.96.2-.58.49-1.08.85-1.48.36-.4.78-.71,1.26-.93s.98-.33,1.51-.33c.67,0,1.23.14,1.67.41.44.27.76.58.97.93h.04v-5.22h1.59ZM62.76,151.63c0-.1,0-.21-.02-.33s-.03-.24-.05-.33c-.12-.51-.38-.94-.79-1.3s-.91-.54-1.51-.54c-.41,0-.78.08-1.1.25s-.6.4-.82.7c-.22.3-.39.66-.51,1.07-.12.42-.18.86-.18,1.35,0,.45.05.86.16,1.26.11.39.27.73.49,1.03.22.29.48.53.8.7.32.17.7.25,1.13.25.54,0,1.03-.17,1.46-.5.43-.33.72-.8.87-1.4.05-.19.07-.42.07-.69v-1.52Z"/>
  <path class="st0" d="M74.3,154.43c0,.46,0,.88.02,1.27.01.39.03.76.05,1.11h-1.41l-.09-1.43h-.04c-.11.18-.25.36-.42.55-.17.19-.37.36-.6.52-.24.16-.51.29-.82.4-.31.1-.66.15-1.05.15-.35,0-.7-.05-1.06-.16-.35-.11-.68-.31-.97-.6-.29-.29-.53-.68-.71-1.17-.19-.49-.28-1.13-.28-1.9v-5.11h1.59v4.84c0,.83.14,1.5.43,2.01s.79.77,1.52.77c.27,0,.51-.04.73-.13.22-.08.42-.2.61-.33s.33-.29.46-.46c.13-.17.23-.34.3-.52.1-.25.14-.52.14-.81v-5.37h1.59v6.36Z"/>
  <path class="st0" d="M83.17,156.49c-.2.11-.53.22-.97.33-.44.11-.95.17-1.54.17-.66,0-1.26-.11-1.8-.33-.54-.22-.99-.52-1.37-.9-.38-.39-.67-.85-.88-1.4-.2-.55-.31-1.16-.31-1.83s.11-1.29.33-1.86c.22-.57.54-1.06.95-1.47.41-.42.9-.74,1.48-.97s1.22-.34,1.93-.34c.47,0,.9.05,1.29.14.39.1.7.2.91.31l-.36,1.23c-.19-.11-.44-.2-.74-.29-.3-.08-.67-.13-1.1-.13-.51,0-.95.09-1.33.26-.38.17-.7.41-.97.7-.27.3-.46.64-.6,1.05s-.2.83-.2,1.29c0,.51.07.96.23,1.36.15.4.36.75.63,1.03.27.28.59.5.97.65.37.15.78.23,1.21.23.46,0,.84-.05,1.15-.14.31-.1.58-.19.8-.29l.27,1.19Z"/>
  <path class="st0" d="M89.88,156.82l-.13-1.1h-.05c-.24.35-.59.65-1.05.91-.46.26-1,.39-1.63.39-.45,0-.83-.07-1.17-.22-.33-.14-.61-.33-.83-.57s-.39-.5-.51-.8-.17-.61-.17-.92c0-1.06.45-1.87,1.35-2.43s2.2-.83,3.9-.82v-.18c0-.18-.02-.39-.06-.62s-.13-.45-.26-.66-.33-.38-.6-.52-.62-.22-1.07-.22c-.41,0-.81.06-1.21.17-.4.12-.75.27-1.07.48l-.36-1.05c.36-.24.79-.43,1.29-.57.5-.14,1.03-.21,1.58-.21.66,0,1.21.11,1.64.32.43.21.77.48,1.02.82.25.34.42.72.51,1.15.1.43.14.86.14,1.29v3.27c0,.39,0,.76.03,1.11.02.35.06.68.12.98h-1.45ZM89.64,152.35c-.43-.01-.87,0-1.31.05s-.84.14-1.19.28c-.35.14-.64.34-.87.61-.22.27-.33.61-.33,1.03,0,.52.15.9.44,1.15s.65.37,1.06.37c.58,0,1.04-.15,1.39-.45.35-.3.59-.64.72-1.01.06-.18.09-.35.09-.51v-1.52Z"/>
  <path class="st0" d="M95.58,145.56v2.51h2.28v1.21h-2.28v4.71c0,.54.09.96.26,1.26.17.29.48.44.93.44.2,0,.39-.01.54-.04s.28-.05.38-.07l.07,1.19c-.16.06-.35.11-.59.15s-.51.06-.82.06c-.76,0-1.33-.22-1.72-.67-.23-.24-.39-.55-.48-.93-.09-.38-.14-.83-.14-1.35v-4.77h-1.35v-1.21h1.35v-2.1l1.55-.42Z"/>
  <path class="st0" d="M100.43,152.73c.01.54.1,1,.26,1.38.16.38.38.69.65.94s.59.43.95.54.74.17,1.14.17c.58,0,1.05-.04,1.42-.13.37-.08.7-.19,1-.33l.27,1.14c-.28.13-.66.26-1.14.37-.48.11-1.07.17-1.77.17s-1.28-.11-1.81-.32c-.53-.21-.98-.51-1.35-.89-.37-.39-.66-.85-.85-1.39s-.29-1.14-.29-1.81.09-1.28.28-1.85c.19-.57.46-1.07.81-1.49.35-.42.79-.76,1.29-1s1.08-.37,1.72-.37c.71,0,1.3.14,1.77.42.47.28.84.62,1.11,1.04s.46.86.57,1.35c.11.48.16.92.16,1.32,0,.17,0,.31-.02.43-.01.12-.02.22-.04.31h-6.14ZM105.09,151.6c0-.25-.03-.53-.09-.83-.06-.3-.17-.58-.33-.84-.16-.26-.39-.48-.68-.65-.29-.17-.66-.26-1.1-.26-.4,0-.74.08-1.04.25-.3.17-.54.38-.74.63-.2.25-.35.53-.45.83s-.17.59-.21.87h4.64Z"/>
  <path class="st0" d="M108.37,155.19c.24.16.55.3.93.43.38.13.77.2,1.17.2.58,0,1.01-.13,1.28-.38.28-.25.42-.56.42-.92,0-.39-.12-.7-.37-.93-.25-.23-.67-.46-1.26-.68-.8-.28-1.38-.63-1.75-1.05-.37-.42-.56-.9-.56-1.43,0-.35.07-.68.21-.99.14-.31.34-.59.6-.82.26-.23.58-.42.95-.55s.8-.2,1.26-.2.86.05,1.23.16c.37.11.68.24.92.38l-.4,1.16c-.17-.11-.41-.22-.71-.33s-.67-.17-1.07-.17c-.47,0-.83.12-1.08.35s-.38.51-.38.84c0,.36.13.64.4.85.26.21.69.42,1.26.63.76.29,1.33.64,1.72,1.05.39.41.58.94.58,1.59,0,.77-.28,1.4-.85,1.89-.57.49-1.37.73-2.42.73-.48,0-.93-.05-1.35-.16-.42-.11-.79-.25-1.1-.43l.4-1.21Z"/>
  <path class="st0" d="M119.58,143.99h1.59v12.83h-1.59v-12.83Z"/>
  <path class="st0" d="M124.72,152.73c.01.54.1,1,.26,1.38.16.38.38.69.65.94s.59.43.95.54.74.17,1.14.17c.58,0,1.05-.04,1.42-.13.37-.08.7-.19,1-.33l.27,1.14c-.28.13-.66.26-1.14.37-.48.11-1.07.17-1.77.17s-1.28-.11-1.81-.32-.98-.51-1.35-.89-.66-.85-.85-1.39c-.19-.54-.29-1.14-.29-1.81s.09-1.28.28-1.85c.19-.57.46-1.07.81-1.49.35-.42.79-.76,1.29-1s1.08-.37,1.72-.37c.71,0,1.3.14,1.77.42s.84.62,1.11,1.04.46.86.57,1.35c.11.48.16.92.16,1.32,0,.17,0,.31-.02.43-.01.12-.02.22-.04.31h-6.14ZM129.39,151.6c0-.25-.03-.53-.09-.83-.06-.3-.17-.58-.33-.84-.16-.26-.39-.48-.68-.65-.29-.17-.66-.26-1.1-.26-.4,0-.74.08-1.04.25s-.54.38-.74.63c-.2.25-.35.53-.45.83s-.17.59-.21.87h4.64Z"/>
  <path class="st0" d="M137.73,156.82l-.13-1.1h-.05c-.24.35-.59.65-1.05.91s-1,.39-1.63.39c-.45,0-.83-.07-1.17-.22-.33-.14-.61-.33-.83-.57s-.39-.5-.51-.8c-.12-.3-.17-.61-.17-.92,0-1.06.45-1.87,1.35-2.43s2.2-.83,3.9-.82v-.18c0-.18-.02-.39-.06-.62s-.13-.45-.26-.66-.33-.38-.6-.52c-.26-.14-.62-.22-1.07-.22-.41,0-.81.06-1.21.17-.4.12-.75.27-1.07.48l-.36-1.05c.36-.24.79-.43,1.29-.57.5-.14,1.03-.21,1.58-.21.66,0,1.21.11,1.64.32.43.21.77.48,1.02.82.25.34.42.72.51,1.15.1.43.14.86.14,1.29v3.27c0,.39,0,.76.03,1.11.02.35.06.68.12.98h-1.45ZM137.5,152.35c-.43-.01-.87,0-1.31.05s-.84.14-1.19.28c-.36.14-.65.34-.87.61-.22.27-.33.61-.33,1.03,0,.52.15.9.44,1.15s.65.37,1.06.37c.58,0,1.04-.15,1.39-.45.35-.3.59-.64.72-1.01.06-.18.09-.35.09-.51v-1.52Z"/>
  <path class="st0" d="M149.15,143.99v10.57c0,.39,0,.78.02,1.19s.03.76.05,1.07h-1.43l-.07-1.52h-.04c-.24.49-.62.9-1.13,1.23-.51.33-1.13.49-1.85.49-.53,0-1.02-.11-1.48-.33-.46-.22-.85-.52-1.18-.9-.33-.39-.59-.85-.79-1.4s-.29-1.15-.29-1.82c0-.72.1-1.38.31-1.96.2-.58.49-1.08.85-1.48.36-.4.78-.71,1.26-.93s.98-.33,1.51-.33c.67,0,1.23.14,1.67.41.44.27.76.58.97.93h.04v-5.22h1.59ZM147.56,151.63c0-.1,0-.21-.02-.33s-.03-.24-.05-.33c-.12-.51-.38-.94-.79-1.3s-.91-.54-1.51-.54c-.41,0-.78.08-1.1.25s-.6.4-.82.7c-.22.3-.39.66-.51,1.07-.12.42-.18.86-.18,1.35,0,.45.05.86.16,1.26.11.39.27.73.49,1.03.22.29.48.53.8.7.32.17.7.25,1.13.25.54,0,1.03-.17,1.46-.5.43-.33.72-.8.87-1.4.05-.19.07-.42.07-.69v-1.52Z"/>
  <path class="st0" d="M151.57,155.19c.24.16.55.3.93.43.38.13.77.2,1.17.2.58,0,1.01-.13,1.28-.38.28-.25.42-.56.42-.92,0-.39-.12-.7-.37-.93-.25-.23-.67-.46-1.26-.68-.8-.28-1.38-.63-1.75-1.05-.37-.42-.56-.9-.56-1.43,0-.35.07-.68.21-.99.14-.31.34-.59.6-.82.26-.23.58-.42.95-.55s.79-.2,1.26-.2c.45,0,.86.05,1.23.16.37.11.68.24.92.38l-.4,1.16c-.17-.11-.41-.22-.71-.33s-.67-.17-1.07-.17c-.47,0-.83.12-1.08.35-.25.24-.38.51-.38.84,0,.36.13.64.4.85.27.21.69.42,1.26.63.76.29,1.33.64,1.72,1.05.39.41.58.94.58,1.59,0,.77-.28,1.4-.85,1.89s-1.37.73-2.42.73c-.48,0-.93-.05-1.35-.16-.42-.11-.79-.25-1.1-.43l.4-1.21Z"/>
  <path class="st0" d="M62.72,227.83c-.29.14-.71.28-1.26.4-.55.12-1.2.18-1.95.18-.86,0-1.65-.13-2.38-.4-.74-.26-1.37-.66-1.91-1.18-.54-.52-.96-1.17-1.26-1.93s-.46-1.65-.46-2.65.15-1.82.46-2.61c.31-.79.74-1.46,1.3-2.02s1.23-.99,2.01-1.3c.78-.31,1.64-.46,2.58-.46.76,0,1.38.06,1.86.19.48.13.82.24,1.03.35l-.38,1.28c-.3-.14-.66-.27-1.08-.36-.41-.1-.88-.14-1.38-.14-.71,0-1.36.11-1.94.33-.58.22-1.08.55-1.5.98s-.74.95-.97,1.58c-.23.63-.34,1.34-.34,2.13,0,.75.11,1.42.32,2.02s.52,1.12.91,1.54.88.76,1.46.98c.58.23,1.24.34,1.99.34.48,0,.95-.05,1.41-.14.46-.09.84-.21,1.16-.37l.33,1.25Z"/>
  <path class="st0" d="M68.14,219.28c.63,0,1.2.11,1.72.33s.96.52,1.33.92c.37.4.65.87.86,1.43s.31,1.16.31,1.82c0,.81-.13,1.5-.38,2.09-.25.58-.59,1.07-1,1.45-.42.38-.88.66-1.4.84-.52.18-1.04.27-1.57.27-.59,0-1.14-.11-1.65-.32-.51-.21-.95-.51-1.33-.89-.37-.39-.67-.86-.89-1.42-.22-.56-.33-1.18-.33-1.87,0-.73.11-1.39.33-1.96.22-.57.53-1.06.92-1.45.39-.4.85-.7,1.38-.91.53-.21,1.1-.32,1.7-.32ZM68.1,220.48c-.47,0-.87.1-1.21.3s-.62.46-.84.78c-.22.32-.39.68-.49,1.09s-.15.82-.15,1.23c0,.48.07.93.2,1.34s.32.76.55,1.07c.24.3.52.54.84.71.32.17.68.25,1.07.25s.72-.08,1.05-.25.61-.4.85-.71c.24-.3.43-.66.56-1.07.13-.42.2-.87.2-1.36,0-.37-.05-.76-.14-1.16-.1-.4-.25-.76-.46-1.08-.21-.33-.48-.59-.81-.8-.33-.21-.73-.32-1.2-.32Z"/>
  <path class="st0" d="M74.36,221.85c0-.46,0-.88-.02-1.26s-.03-.75-.05-1.11h1.41l.09,1.45h.04c.11-.2.25-.41.43-.61s.39-.37.63-.52c.24-.15.51-.27.82-.37.31-.1.64-.14,1-.14.3,0,.63.05.99.16.36.11.7.3,1,.58.31.28.57.66.78,1.14.21.48.32,1.1.32,1.84v5.22h-1.59v-5.04c0-.35-.04-.68-.11-.99-.07-.31-.19-.59-.34-.82s-.36-.42-.62-.56c-.26-.14-.58-.21-.95-.21-.53,0-.98.16-1.36.48-.38.32-.64.7-.77,1.15-.07.2-.11.45-.11.74v5.26h-1.59v-6.38Z"/>
  <path class="st0" d="M84.76,219.48l1.72,4.91c.14.4.27.78.39,1.15.11.37.22.73.32,1.09h.05c.1-.36.21-.73.33-1.09.13-.37.26-.75.41-1.15l1.7-4.91h1.66l-3.43,8.74h-1.52l-3.32-8.74h1.7Z"/>
  <path class="st0" d="M93.54,224.14c.01.54.1,1,.26,1.38.16.38.38.69.65.94s.59.43.95.54.74.17,1.14.17c.58,0,1.05-.04,1.42-.13.37-.08.7-.19,1-.33l.27,1.14c-.28.13-.66.26-1.14.37-.48.11-1.07.17-1.77.17s-1.28-.11-1.81-.32-.98-.51-1.35-.89-.66-.85-.85-1.39-.29-1.14-.29-1.81.09-1.28.28-1.85c.19-.57.46-1.07.81-1.49.35-.42.79-.76,1.29-1,.51-.25,1.08-.37,1.72-.37.71,0,1.3.14,1.77.42.47.28.84.62,1.11,1.04s.46.86.57,1.35c.11.48.16.92.16,1.32,0,.17,0,.31-.02.43-.01.12-.02.22-.04.31h-6.14ZM98.2,223.01c0-.25-.03-.53-.09-.83-.06-.3-.17-.58-.33-.84s-.39-.48-.68-.65c-.29-.17-.66-.26-1.1-.26-.4,0-.74.08-1.04.25s-.54.38-.74.63c-.2.25-.35.53-.45.83s-.17.59-.21.87h4.64Z"/>
  <path class="st0" d="M101.71,222.21c0-.52,0-1-.02-1.45-.01-.45-.03-.87-.05-1.28h1.39l.05,1.72h.07c.2-.59.52-1.06.96-1.4.43-.34.92-.52,1.46-.52.16,0,.31.02.45.05v1.5c-.17-.04-.35-.05-.54-.05-.57,0-1.04.19-1.41.57-.37.38-.61.87-.72,1.47-.02.11-.04.23-.05.35s-.02.26-.02.39v4.66h-1.57v-6.02Z"/>
  <path class="st0" d="M109.96,216.97v2.51h2.28v1.21h-2.28v4.71c0,.54.09.96.26,1.26.17.29.48.44.93.44.2,0,.39-.01.54-.04s.28-.05.38-.07l.07,1.19c-.16.06-.35.11-.59.15-.23.04-.51.06-.82.06-.76,0-1.33-.22-1.72-.67-.23-.24-.39-.55-.48-.93-.09-.38-.14-.83-.14-1.35v-4.77h-1.35v-1.21h1.35v-2.1l1.55-.42Z"/>
  <path class="st0" d="M117.86,215.4h1.59v12.83h-1.59v-12.83Z"/>
  <path class="st0" d="M123.01,224.14c.01.54.1,1,.26,1.38.16.38.38.69.65.94s.59.43.95.54.74.17,1.14.17c.58,0,1.05-.04,1.42-.13.37-.08.7-.19,1-.33l.27,1.14c-.28.13-.66.26-1.14.37-.48.11-1.07.17-1.77.17s-1.28-.11-1.81-.32c-.53-.21-.98-.51-1.35-.89-.37-.39-.66-.85-.85-1.39s-.29-1.14-.29-1.81.09-1.28.28-1.85c.19-.57.46-1.07.81-1.49.35-.42.79-.76,1.29-1s1.08-.37,1.72-.37c.71,0,1.3.14,1.77.42.47.28.84.62,1.11,1.04s.46.86.57,1.35c.11.48.16.92.16,1.32,0,.17,0,.31-.02.43-.01.12-.02.22-.04.31h-6.14ZM127.67,223.01c0-.25-.03-.53-.09-.83-.06-.3-.17-.58-.33-.84-.16-.26-.39-.48-.68-.65-.29-.17-.66-.26-1.1-.26-.4,0-.74.08-1.04.25-.3.17-.54.38-.74.63-.2.25-.35.53-.45.83s-.17.59-.21.87h4.64Z"/>
  <path class="st0" d="M136.01,228.23l-.13-1.1h-.05c-.24.35-.59.65-1.05.91-.46.26-1,.39-1.63.39-.45,0-.83-.07-1.17-.22-.33-.14-.61-.33-.83-.57-.22-.24-.39-.5-.51-.8-.12-.3-.17-.61-.17-.92,0-1.06.45-1.87,1.35-2.43s2.2-.83,3.9-.82v-.18c0-.18-.02-.39-.06-.62-.04-.24-.13-.45-.26-.66s-.33-.38-.6-.52c-.27-.14-.62-.22-1.07-.22-.41,0-.81.06-1.21.17-.4.12-.75.27-1.07.48l-.36-1.05c.36-.24.79-.43,1.29-.57.5-.14,1.03-.21,1.58-.21.66,0,1.21.11,1.64.32.43.21.77.48,1.02.82s.42.72.52,1.15c.1.43.14.86.14,1.29v3.27c0,.39,0,.76.03,1.11.02.35.06.68.12.98h-1.45ZM135.78,223.76c-.43-.01-.87,0-1.31.05s-.84.14-1.19.28c-.36.14-.64.34-.87.61-.22.27-.33.61-.33,1.03,0,.52.15.9.44,1.15.29.25.65.37,1.06.37.58,0,1.04-.15,1.39-.45.35-.3.59-.64.72-1.01.06-.18.09-.35.09-.51v-1.52Z"/>
  <path class="st0" d="M147.43,215.4v10.57c0,.39,0,.78.02,1.19.01.41.03.76.05,1.07h-1.43l-.07-1.52h-.04c-.24.49-.62.9-1.13,1.23-.51.33-1.13.49-1.85.49-.53,0-1.02-.11-1.48-.33s-.85-.52-1.18-.9c-.33-.39-.59-.85-.79-1.4s-.29-1.15-.29-1.82c0-.72.1-1.38.31-1.96.2-.58.49-1.08.85-1.48.36-.4.78-.71,1.26-.93.48-.22.98-.33,1.51-.33.67,0,1.23.14,1.67.41s.76.58.97.93h.04v-5.22h1.59ZM145.84,223.04c0-.1,0-.21-.02-.33-.01-.13-.03-.24-.05-.33-.12-.51-.38-.94-.79-1.3s-.91-.54-1.51-.54c-.41,0-.78.08-1.1.25s-.6.4-.82.7c-.22.3-.39.66-.51,1.07-.12.42-.18.86-.18,1.35,0,.45.05.86.16,1.26s.27.73.49,1.03.48.53.8.7.7.25,1.13.25c.54,0,1.03-.17,1.46-.5.43-.33.72-.8.87-1.4.05-.19.07-.42.07-.69v-1.52Z"/>
  <path class="st0" d="M149.85,226.6c.24.16.55.3.93.43.38.13.77.2,1.17.2.58,0,1.01-.13,1.28-.38.28-.25.41-.56.41-.92,0-.39-.12-.7-.37-.93-.25-.23-.67-.46-1.26-.68-.79-.28-1.38-.63-1.75-1.05-.37-.42-.56-.9-.56-1.43,0-.35.07-.68.21-.99.14-.31.34-.59.6-.82.26-.23.58-.42.95-.55s.79-.2,1.26-.2c.45,0,.85.05,1.23.16.37.11.68.24.92.38l-.4,1.16c-.17-.11-.41-.22-.71-.33s-.67-.17-1.07-.17c-.47,0-.83.12-1.08.35-.25.24-.38.51-.38.84,0,.36.13.64.4.85.26.21.69.42,1.26.63.76.29,1.33.64,1.72,1.05.39.41.58.94.58,1.59,0,.77-.28,1.4-.85,1.89s-1.37.73-2.42.73c-.48,0-.93-.05-1.35-.16-.42-.11-.79-.25-1.1-.43l.4-1.21Z"/>
  <path class="st0" d="M161.85,216.03c.3,0,.54.1.71.29.17.19.26.43.26.7.01.28-.08.51-.26.7-.19.19-.44.28-.75.28-.28,0-.51-.09-.69-.28-.18-.19-.27-.42-.27-.7s.09-.51.28-.7.42-.29.71-.29ZM161.05,228.23v-8.74h1.59v8.74h-1.59Z"/>
  <path class="st0" d="M165.28,221.85c0-.46,0-.88-.02-1.26s-.03-.75-.05-1.11h1.41l.09,1.45h.04c.11-.2.25-.41.43-.61s.39-.37.63-.52c.24-.15.52-.27.82-.37s.64-.14,1-.14c.3,0,.63.05.99.16.36.11.7.3,1,.58.31.28.57.66.78,1.14.21.48.32,1.1.32,1.84v5.22h-1.59v-5.04c0-.35-.04-.68-.11-.99-.07-.31-.19-.59-.34-.82-.16-.24-.36-.42-.62-.56-.26-.14-.58-.21-.95-.21-.53,0-.99.16-1.36.48-.38.32-.64.7-.77,1.15-.07.2-.11.45-.11.74v5.26h-1.59v-6.38Z"/>
  <path class="st0" d="M177.15,216.97v2.51h2.28v1.21h-2.28v4.71c0,.54.09.96.26,1.26.17.29.48.44.93.44.2,0,.39-.01.54-.04s.28-.05.38-.07l.07,1.19c-.16.06-.35.11-.59.15s-.51.06-.82.06c-.76,0-1.33-.22-1.72-.67-.23-.24-.39-.55-.48-.93-.09-.38-.14-.83-.14-1.35v-4.77h-1.35v-1.21h1.35v-2.1l1.55-.42Z"/>
  <path class="st0" d="M184.81,219.28c.63,0,1.2.11,1.72.33.52.22.96.52,1.33.92.37.4.65.87.86,1.43s.31,1.16.31,1.82c0,.81-.13,1.5-.38,2.09-.25.58-.59,1.07-1,1.45-.42.38-.88.66-1.4.84s-1.04.27-1.57.27c-.59,0-1.14-.11-1.65-.32-.51-.21-.95-.51-1.33-.89-.37-.39-.67-.86-.89-1.42-.22-.56-.32-1.18-.32-1.87,0-.73.11-1.39.33-1.96.22-.57.53-1.06.92-1.45.39-.4.85-.7,1.38-.91.53-.21,1.1-.32,1.7-.32ZM184.77,220.48c-.47,0-.87.1-1.21.3s-.62.46-.84.78c-.22.32-.39.68-.49,1.09-.1.41-.15.82-.15,1.23,0,.48.07.93.2,1.34.13.41.32.76.55,1.07.24.3.52.54.84.71s.68.25,1.07.25.72-.08,1.05-.25.61-.4.85-.71c.24-.3.43-.66.56-1.07.13-.42.2-.87.2-1.36,0-.37-.05-.76-.14-1.16-.1-.4-.25-.76-.46-1.08-.21-.33-.48-.59-.81-.8-.33-.21-.73-.32-1.2-.32Z"/>
  <path class="st0" d="M51.27,235.68h1.59v12.83h-1.59v-12.83Z"/>
  <path class="st0" d="M59.24,239.57c.63,0,1.2.11,1.72.33.52.22.96.52,1.33.92.37.4.65.87.86,1.43s.31,1.16.31,1.82c0,.81-.13,1.5-.38,2.09-.25.58-.59,1.07-1,1.45-.42.38-.88.66-1.4.84s-1.04.27-1.57.27c-.59,0-1.14-.11-1.65-.32-.51-.21-.95-.51-1.33-.89-.37-.39-.67-.86-.88-1.42-.22-.56-.33-1.18-.33-1.87,0-.73.11-1.39.33-1.96.22-.57.53-1.06.92-1.45.39-.4.85-.7,1.38-.91.53-.21,1.1-.32,1.7-.32ZM59.2,240.76c-.47,0-.87.1-1.21.3s-.62.46-.84.78-.39.68-.49,1.09-.15.82-.15,1.23c0,.48.07.93.2,1.34.13.41.32.76.55,1.07.23.3.51.54.84.71s.68.25,1.07.25.72-.08,1.05-.25.61-.4.85-.71c.24-.3.43-.66.56-1.07s.2-.87.2-1.36c0-.37-.05-.76-.14-1.16-.1-.4-.25-.76-.46-1.08-.21-.33-.48-.59-.81-.8-.33-.21-.73-.32-1.2-.32Z"/>
  <path class="st0" d="M65.45,242.13c0-.46,0-.88-.02-1.26s-.03-.75-.05-1.11h1.41l.09,1.45h.04c.11-.2.25-.41.43-.61s.39-.37.63-.52c.24-.15.52-.27.82-.37s.64-.14,1-.14c.3,0,.63.05.99.16.36.11.7.3,1,.58.31.28.57.66.78,1.14.21.48.32,1.1.32,1.84v5.22h-1.59v-5.04c0-.35-.04-.68-.11-.99-.07-.31-.19-.59-.34-.82s-.36-.42-.62-.56c-.26-.14-.58-.21-.95-.21-.53,0-.98.16-1.36.48-.38.32-.64.7-.77,1.15-.07.2-.11.45-.11.74v5.26h-1.59v-6.38Z"/>
  <path class="st0" d="M83.01,239.77c-.02.31-.04.66-.05,1.03s-.02.83-.02,1.37v5.08c0,1.01-.1,1.83-.31,2.47s-.52,1.14-.94,1.53c-.42.4-.92.67-1.49.82-.57.15-1.14.23-1.69.23s-1.06-.06-1.59-.18c-.53-.12-.97-.3-1.32-.54l.4-1.21c.29.18.65.34,1.09.48.44.14.93.21,1.47.21.41,0,.79-.05,1.13-.16.34-.11.64-.29.89-.53.25-.25.45-.56.59-.95.14-.39.21-.86.21-1.41v-.98h-.04c-.24.41-.59.76-1.06,1.04s-1.04.42-1.73.42c-.54,0-1.04-.11-1.5-.33-.46-.22-.85-.52-1.17-.89-.33-.38-.58-.83-.77-1.35-.19-.52-.28-1.09-.28-1.69,0-.73.11-1.39.33-1.97s.52-1.07.89-1.46c.37-.4.79-.7,1.26-.9.47-.2.96-.31,1.46-.31.37,0,.71.05,1.01.14s.56.21.79.35c.22.14.41.31.56.49.15.18.27.36.37.54h.04l.07-1.32h1.39ZM81.37,243.22c0-.13,0-.26-.02-.38-.01-.12-.04-.24-.07-.34-.14-.46-.41-.85-.79-1.18-.38-.33-.86-.5-1.44-.5-.39,0-.74.08-1.05.24-.31.16-.59.38-.82.66s-.42.63-.54,1.04-.19.87-.19,1.37c0,.43.05.84.16,1.22.11.38.27.71.49.99s.48.51.8.68.7.25,1.13.25c.49,0,.94-.14,1.35-.43.4-.29.69-.69.86-1.19.05-.13.08-.27.1-.42.02-.15.03-.29.03-.42v-1.57Z"/>
  <path class="st0" d="M89.26,243.03v1.17h-4.46v-1.17h4.46Z"/>
  <path class="st0" d="M93.04,237.25v2.51h2.28v1.21h-2.28v4.71c0,.54.09.96.26,1.26.17.29.48.44.93.44.2,0,.39-.01.54-.04s.28-.05.38-.07l.07,1.19c-.16.06-.35.11-.59.15s-.51.06-.82.06c-.76,0-1.33-.22-1.72-.67-.23-.24-.39-.55-.48-.93-.09-.38-.14-.83-.14-1.35v-4.77h-1.35v-1.21h1.35v-2.1l1.55-.42Z"/>
  <path class="st0" d="M97.88,244.43c.01.54.1,1,.26,1.38.16.38.38.69.65.94s.59.43.95.54.74.17,1.14.17c.58,0,1.05-.04,1.42-.13.37-.08.7-.19,1-.33l.27,1.14c-.28.13-.66.26-1.14.37-.48.11-1.07.17-1.77.17s-1.28-.11-1.81-.32c-.53-.21-.98-.51-1.35-.89-.37-.39-.66-.85-.85-1.39s-.29-1.14-.29-1.81.09-1.28.28-1.85c.19-.57.46-1.07.81-1.49.35-.42.79-.76,1.29-1s1.08-.37,1.72-.37c.71,0,1.3.14,1.77.42.47.28.84.62,1.11,1.04s.46.86.57,1.35c.11.48.16.92.16,1.32,0,.17,0,.31-.02.43-.01.12-.02.22-.04.31h-6.14ZM102.54,243.29c0-.25-.03-.53-.09-.83-.06-.3-.17-.58-.33-.84-.16-.26-.39-.48-.68-.65-.29-.17-.66-.26-1.1-.26-.4,0-.74.08-1.04.25-.3.17-.54.38-.74.63-.2.25-.35.53-.45.83s-.17.59-.21.87h4.64Z"/>
  <path class="st0" d="M106.05,242.49c0-.52,0-1-.02-1.45-.01-.45-.03-.87-.05-1.28h1.39l.05,1.72h.07c.2-.59.52-1.06.96-1.4.43-.34.92-.52,1.46-.52.16,0,.31.02.45.05v1.5c-.17-.04-.35-.05-.54-.05-.57,0-1.04.19-1.41.57-.37.38-.61.87-.72,1.47-.02.11-.04.23-.05.35s-.02.26-.02.39v4.66h-1.57v-6.02Z"/>
  <path class="st0" d="M112.03,242.13c0-.46,0-.88-.02-1.26s-.03-.75-.05-1.11h1.39l.07,1.41h.05c.12-.2.26-.4.43-.6s.36-.36.59-.52c.22-.15.48-.27.76-.36s.61-.14.97-.14c.6,0,1.12.16,1.54.49.43.33.74.75.93,1.26h.04c.13-.24.28-.46.45-.65s.34-.36.52-.49c.26-.2.55-.36.85-.46.3-.1.66-.15,1.08-.15.29,0,.6.05.94.16.34.11.65.31.93.6.28.29.52.68.71,1.17.19.49.29,1.11.29,1.87v5.15h-1.55v-4.95c0-.84-.15-1.5-.46-1.98-.31-.48-.79-.71-1.44-.71-.46,0-.85.14-1.18.43-.33.29-.56.63-.7,1.01-.04.11-.07.23-.09.37s-.04.28-.04.42v5.4h-1.55v-5.24c0-.7-.15-1.27-.45-1.73-.3-.45-.76-.68-1.37-.68-.51,0-.93.17-1.26.5-.34.33-.57.7-.71,1.09-.08.22-.13.48-.13.78v5.28h-1.55v-6.38Z"/>
  <path class="st0" d="M130.92,242.13c0-.46,0-.88-.02-1.26-.01-.38-.03-.75-.05-1.11h1.39l.07,1.41h.05c.12-.2.26-.4.43-.6.17-.19.36-.36.59-.52.22-.15.48-.27.76-.36s.6-.14.97-.14c.6,0,1.12.16,1.54.49s.74.75.93,1.26h.04c.13-.24.28-.46.45-.65s.34-.36.52-.49c.26-.2.55-.36.85-.46.3-.1.66-.15,1.08-.15.29,0,.6.05.94.16.34.11.65.31.93.6.28.29.52.68.71,1.17.19.49.29,1.11.29,1.87v5.15h-1.55v-4.95c0-.84-.15-1.5-.46-1.98-.31-.48-.79-.71-1.44-.71-.46,0-.85.14-1.18.43-.33.29-.56.63-.7,1.01-.04.11-.07.23-.09.37-.02.14-.04.28-.04.42v5.4h-1.55v-5.24c0-.7-.15-1.27-.45-1.73-.3-.45-.76-.68-1.37-.68-.51,0-.93.17-1.26.5-.34.33-.57.7-.7,1.09-.08.22-.13.48-.13.78v5.28h-1.55v-6.38Z"/>
  <path class="st0" d="M146.88,244.43c.01.54.1,1,.26,1.38.16.38.38.69.65.94s.59.43.95.54.74.17,1.14.17c.58,0,1.05-.04,1.42-.13.37-.08.7-.19,1-.33l.27,1.14c-.28.13-.66.26-1.14.37-.48.11-1.07.17-1.77.17s-1.28-.11-1.81-.32-.98-.51-1.35-.89-.66-.85-.85-1.39-.29-1.14-.29-1.81.09-1.28.28-1.85c.19-.57.46-1.07.81-1.49.35-.42.79-.76,1.29-1,.51-.25,1.08-.37,1.72-.37.71,0,1.3.14,1.77.42.47.28.84.62,1.11,1.04s.46.86.57,1.35c.11.48.16.92.16,1.32,0,.17,0,.31-.02.43-.01.12-.02.22-.04.31h-6.14ZM151.54,243.29c0-.25-.03-.53-.09-.83-.06-.3-.17-.58-.33-.84s-.39-.48-.68-.65c-.29-.17-.66-.26-1.1-.26-.4,0-.74.08-1.04.25s-.54.38-.74.63c-.2.25-.35.53-.45.83s-.17.59-.21.87h4.64Z"/>
  <path class="st0" d="M155.04,242.13c0-.46,0-.88-.02-1.26s-.03-.75-.05-1.11h1.39l.07,1.41h.05c.12-.2.26-.4.43-.6s.36-.36.59-.52c.22-.15.48-.27.76-.36s.61-.14.97-.14c.6,0,1.12.16,1.54.49.43.33.74.75.93,1.26h.04c.13-.24.28-.46.45-.65s.34-.36.52-.49c.26-.2.55-.36.85-.46.3-.1.66-.15,1.08-.15.29,0,.6.05.94.16.34.11.65.31.93.6.28.29.52.68.71,1.17.19.49.29,1.11.29,1.87v5.15h-1.55v-4.95c0-.84-.15-1.5-.46-1.98-.31-.48-.79-.71-1.44-.71-.46,0-.85.14-1.18.43-.33.29-.56.63-.7,1.01-.04.11-.07.23-.09.37s-.04.28-.04.42v5.4h-1.55v-5.24c0-.7-.15-1.27-.45-1.73-.3-.45-.76-.68-1.37-.68-.51,0-.93.17-1.26.5-.34.33-.57.7-.7,1.09-.08.22-.13.48-.13.78v5.28h-1.55v-6.38Z"/>
  <path class="st0" d="M170.04,248.51c.02-.3.04-.66.05-1.07.01-.41.02-.81.02-1.19v-10.57h1.57v5.49h.04c.28-.49.66-.88,1.17-1.17.5-.29,1.1-.43,1.82-.43.54,0,1.04.11,1.49.33s.84.52,1.17.91c.33.39.58.86.76,1.41.18.55.27,1.15.27,1.82,0,.78-.11,1.47-.33,2.05s-.52,1.07-.89,1.46c-.37.39-.79.68-1.26.88-.47.19-.95.29-1.43.29-.64,0-1.2-.13-1.7-.39s-.9-.68-1.23-1.26h-.05l-.07,1.45h-1.37ZM171.68,245c0,.1,0,.19.02.29.01.1.03.19.05.29.16.55.45,1,.88,1.35s.93.52,1.51.52c.41,0,.78-.08,1.11-.24.33-.16.61-.39.84-.69.23-.29.4-.65.52-1.06s.18-.87.18-1.37c0-.43-.06-.85-.17-1.25-.11-.4-.28-.74-.5-1.04s-.49-.53-.81-.71c-.33-.17-.7-.26-1.12-.26-.54,0-1.04.17-1.49.52-.45.34-.76.82-.93,1.44-.02.1-.05.2-.06.3-.02.1-.03.22-.03.35v1.57Z"/>
  <path class="st0" d="M181.27,244.43c.01.54.1,1,.26,1.38.16.38.38.69.65.94s.59.43.95.54.74.17,1.14.17c.58,0,1.05-.04,1.42-.13.37-.08.7-.19,1-.33l.27,1.14c-.28.13-.66.26-1.14.37-.48.11-1.07.17-1.77.17s-1.28-.11-1.81-.32-.98-.51-1.35-.89-.66-.85-.85-1.39-.29-1.14-.29-1.81.09-1.28.28-1.85c.19-.57.46-1.07.81-1.49.35-.42.79-.76,1.29-1,.51-.25,1.08-.37,1.72-.37.71,0,1.3.14,1.77.42.47.28.84.62,1.11,1.04s.46.86.57,1.35c.11.48.16.92.16,1.32,0,.17,0,.31-.02.43-.01.12-.02.22-.04.31h-6.14ZM185.93,243.29c0-.25-.03-.53-.09-.83-.06-.3-.17-.58-.33-.84-.16-.26-.39-.48-.68-.65-.29-.17-.66-.26-1.1-.26-.4,0-.74.08-1.04.25s-.54.38-.74.63c-.2.25-.35.53-.45.83-.1.3-.17.59-.21.87h4.64Z"/>
  <path class="st0" d="M189.44,242.49c0-.52,0-1-.02-1.45-.01-.45-.03-.87-.05-1.28h1.39l.05,1.72h.07c.2-.59.52-1.06.96-1.4.43-.34.92-.52,1.46-.52.16,0,.31.02.45.05v1.5c-.17-.04-.35-.05-.54-.05-.57,0-1.04.19-1.41.57-.37.38-.61.87-.72,1.47-.02.11-.04.23-.05.35s-.02.26-.02.39v4.66h-1.57v-6.02Z"/>
  <path class="st0" d="M195.13,246.88c.24.16.55.3.93.43.38.13.77.2,1.17.2.58,0,1.01-.13,1.28-.38.28-.25.41-.56.41-.92,0-.39-.12-.7-.37-.93-.25-.23-.67-.46-1.26-.68-.79-.28-1.38-.63-1.75-1.05-.37-.42-.56-.9-.56-1.43,0-.35.07-.68.21-.99.14-.31.34-.59.6-.82.26-.23.58-.42.95-.55s.79-.2,1.26-.2c.45,0,.85.05,1.23.16.37.11.68.24.92.38l-.4,1.16c-.17-.11-.41-.22-.71-.33s-.67-.17-1.07-.17c-.47,0-.83.12-1.08.35-.25.24-.38.51-.38.84,0,.36.13.64.4.85.26.21.69.42,1.26.63.76.29,1.33.64,1.72,1.05.39.41.58.94.58,1.59,0,.77-.28,1.4-.85,1.89s-1.37.73-2.42.73c-.48,0-.93-.05-1.35-.16-.42-.11-.79-.25-1.1-.43l.4-1.21Z"/>
  <path class="st0" d="M104.47,268.71l-.13-1.1h-.05c-.24.35-.59.65-1.05.91-.46.26-1,.39-1.63.39-.45,0-.83-.07-1.17-.22-.33-.14-.61-.33-.83-.57-.22-.24-.39-.5-.51-.8-.12-.3-.17-.61-.17-.92,0-1.06.45-1.87,1.35-2.43s2.2-.83,3.9-.82v-.18c0-.18-.02-.39-.06-.62-.04-.24-.13-.45-.26-.66s-.33-.38-.6-.52c-.27-.14-.62-.22-1.07-.22-.41,0-.81.06-1.21.17-.4.12-.75.27-1.07.48l-.36-1.05c.36-.24.79-.43,1.29-.57.5-.14,1.03-.21,1.58-.21.66,0,1.21.11,1.64.32.43.21.77.48,1.02.82s.42.72.52,1.15c.1.43.14.86.14,1.29v3.27c0,.39,0,.76.03,1.11.02.35.06.68.12.98h-1.45ZM104.24,264.25c-.43-.01-.87,0-1.31.05s-.84.14-1.19.28c-.36.14-.64.34-.87.61-.22.27-.33.61-.33,1.03,0,.52.15.9.44,1.15.29.25.65.37,1.06.37.58,0,1.04-.15,1.39-.45.35-.3.59-.64.72-1.01.06-.18.09-.35.09-.51v-1.52Z"/>
  <path class="st0" d="M108.34,262.33c0-.46,0-.88-.02-1.26s-.03-.75-.05-1.11h1.41l.09,1.45h.04c.11-.2.25-.41.43-.61s.39-.37.63-.52c.24-.15.52-.27.82-.37s.64-.14,1-.14c.3,0,.63.05.99.16.36.11.7.3,1,.58.31.28.57.66.78,1.14.21.48.32,1.1.32,1.84v5.22h-1.59v-5.04c0-.35-.04-.68-.11-.99-.07-.31-.19-.59-.34-.82-.16-.24-.36-.42-.62-.56-.26-.14-.58-.21-.95-.21-.53,0-.99.16-1.36.48-.38.32-.64.7-.77,1.15-.07.2-.11.45-.11.74v5.26h-1.59v-6.38Z"/>
  <path class="st0" d="M125.92,255.88v10.57c0,.39,0,.78.02,1.19s.03.76.05,1.07h-1.43l-.07-1.52h-.04c-.24.49-.62.9-1.13,1.23-.51.33-1.13.49-1.85.49-.53,0-1.02-.11-1.48-.33-.46-.22-.85-.52-1.18-.9-.33-.39-.59-.85-.79-1.4s-.29-1.15-.29-1.82c0-.72.1-1.38.31-1.96.2-.58.49-1.08.85-1.48.36-.4.78-.71,1.26-.93s.98-.33,1.51-.33c.67,0,1.23.14,1.67.41.44.27.76.58.97.93h.04v-5.22h1.59ZM124.33,263.52c0-.1,0-.21-.02-.33s-.03-.24-.05-.33c-.12-.51-.38-.94-.79-1.3s-.91-.54-1.51-.54c-.41,0-.78.08-1.1.25s-.6.4-.82.7c-.22.3-.39.66-.51,1.07-.12.42-.18.86-.18,1.35,0,.45.05.86.16,1.26.11.39.27.73.49,1.03.22.29.48.53.8.7.32.17.7.25,1.13.25.54,0,1.03-.17,1.46-.5.43-.33.72-.8.87-1.4.05-.19.07-.42.07-.69v-1.52Z"/>
  <path class="st0" d="M132.17,267.08c.24.16.55.3.93.43.38.13.77.2,1.17.2.58,0,1.01-.13,1.28-.38.28-.25.41-.56.41-.92,0-.39-.12-.7-.37-.93-.25-.23-.67-.46-1.26-.68-.79-.28-1.38-.63-1.75-1.05-.37-.42-.56-.9-.56-1.43,0-.35.07-.68.21-.99.14-.31.34-.59.6-.82.26-.23.58-.42.95-.55s.79-.2,1.26-.2c.45,0,.85.05,1.23.16.37.11.68.24.92.38l-.4,1.16c-.17-.11-.41-.22-.71-.33s-.67-.17-1.07-.17c-.47,0-.83.12-1.08.35-.25.24-.38.51-.38.84,0,.36.13.64.4.85.26.21.69.42,1.26.63.76.29,1.33.64,1.72,1.05.39.41.58.94.58,1.59,0,.77-.28,1.4-.85,1.89s-1.37.73-2.42.73c-.48,0-.93-.05-1.35-.16-.42-.11-.79-.25-1.1-.43l.4-1.21Z"/>
  <path class="st0" d="M146.85,266.32c0,.46,0,.88.02,1.27.01.39.03.76.05,1.11h-1.41l-.09-1.43h-.04c-.11.18-.25.36-.42.55-.17.19-.37.36-.61.52-.24.16-.51.29-.82.4s-.66.15-1.05.15c-.35,0-.7-.05-1.06-.16-.36-.11-.68-.31-.97-.6s-.53-.68-.71-1.17c-.19-.49-.28-1.13-.28-1.9v-5.11h1.59v4.84c0,.83.14,1.5.43,2.01.29.51.79.77,1.52.77.26,0,.51-.04.73-.13.22-.08.42-.2.6-.33s.33-.29.46-.46.23-.34.3-.52c.1-.25.14-.52.14-.81v-5.37h1.59v6.36Z"/>
  <path class="st0" d="M149.49,262.82c0-.57,0-1.08-.02-1.54-.01-.46-.03-.9-.05-1.32h1.43l.07,1.5h.04c.33-.54.74-.96,1.26-1.26.51-.29,1.13-.44,1.85-.44.53,0,1.02.11,1.47.33s.84.52,1.17.9c.33.39.59.85.78,1.4.19.55.28,1.15.28,1.82,0,.78-.11,1.47-.33,2.06-.22.59-.52,1.08-.89,1.47-.37.39-.79.68-1.26.88s-.97.29-1.49.29c-.58,0-1.11-.12-1.58-.36-.48-.24-.85-.58-1.11-1.01h-.04v4.75h-1.57v-9.47ZM151.06,265.15c0,.12,0,.24.02.34.01.11.03.21.05.31.14.55.43,1,.87,1.35.43.34.94.51,1.52.51.42,0,.8-.08,1.13-.24.33-.16.61-.39.83-.7.22-.3.39-.66.51-1.07.12-.41.18-.87.18-1.37,0-.43-.06-.85-.17-1.25-.11-.4-.28-.74-.5-1.04s-.49-.53-.81-.71c-.33-.17-.7-.26-1.12-.26-.54,0-1.04.18-1.49.53-.45.36-.76.83-.91,1.44-.02.1-.05.2-.07.32-.02.12-.04.23-.04.33v1.5Z"/>
  <path class="st0" d="M159.77,262.82c0-.57,0-1.08-.02-1.54-.01-.46-.03-.9-.05-1.32h1.43l.07,1.5h.04c.33-.54.74-.96,1.26-1.26.51-.29,1.13-.44,1.85-.44.53,0,1.02.11,1.47.33s.84.52,1.17.9c.33.39.59.85.78,1.4.19.55.28,1.15.28,1.82,0,.78-.11,1.47-.33,2.06-.22.59-.52,1.08-.89,1.47-.37.39-.79.68-1.26.88s-.97.29-1.49.29c-.58,0-1.11-.12-1.58-.36-.48-.24-.85-.58-1.11-1.01h-.04v4.75h-1.57v-9.47ZM161.34,265.15c0,.12,0,.24.02.34.01.11.03.21.05.31.14.55.43,1,.87,1.35.43.34.94.51,1.52.51.42,0,.8-.08,1.13-.24.33-.16.61-.39.83-.7.22-.3.39-.66.51-1.07.12-.41.18-.87.18-1.37,0-.43-.06-.85-.17-1.25-.11-.4-.28-.74-.5-1.04s-.49-.53-.81-.71c-.33-.17-.7-.26-1.12-.26-.54,0-1.04.18-1.49.53-.45.36-.76.83-.91,1.44-.02.1-.05.2-.07.32-.02.12-.04.23-.04.33v1.5Z"/>
  <path class="st0" d="M173.75,259.76c.63,0,1.2.11,1.72.33s.96.52,1.33.92c.37.4.65.87.86,1.43s.31,1.16.31,1.82c0,.81-.13,1.5-.38,2.09-.25.58-.59,1.07-1,1.45-.42.38-.88.66-1.4.84-.52.18-1.04.27-1.57.27-.59,0-1.14-.11-1.65-.32-.51-.21-.95-.51-1.33-.89-.37-.39-.67-.86-.89-1.42-.22-.56-.33-1.18-.33-1.87,0-.73.11-1.39.33-1.96.22-.57.53-1.06.92-1.45.39-.4.85-.7,1.38-.91.53-.21,1.1-.32,1.7-.32ZM173.72,260.96c-.47,0-.87.1-1.21.3s-.62.46-.84.78c-.22.32-.39.68-.49,1.09s-.15.82-.15,1.23c0,.48.07.93.2,1.34s.32.76.55,1.07c.24.3.52.54.84.71.32.17.68.25,1.07.25s.72-.08,1.05-.25.61-.4.85-.71c.24-.3.43-.66.56-1.07.13-.42.2-.87.2-1.36,0-.37-.05-.76-.14-1.16-.1-.4-.25-.76-.46-1.08-.21-.33-.48-.59-.81-.8-.33-.21-.73-.32-1.2-.32Z"/>
  <path class="st0" d="M179.97,262.69c0-.52,0-1-.02-1.45-.01-.45-.03-.87-.05-1.28h1.39l.05,1.72h.07c.2-.59.52-1.06.96-1.4.43-.34.92-.52,1.46-.52.16,0,.31.02.45.05v1.5c-.17-.04-.35-.05-.54-.05-.57,0-1.04.19-1.41.57-.37.38-.61.87-.72,1.47-.02.11-.04.23-.05.35-.01.13-.02.26-.02.39v4.66h-1.57v-6.02Z"/>
  <path class="st0" d="M188.23,257.45v2.51h2.28v1.21h-2.28v4.71c0,.54.09.96.26,1.26.17.29.48.44.93.44.2,0,.39-.01.54-.04s.28-.05.38-.07l.07,1.19c-.16.06-.35.11-.59.15s-.51.06-.82.06c-.76,0-1.33-.22-1.72-.67-.23-.24-.39-.55-.48-.93-.09-.38-.14-.83-.14-1.35v-4.77h-1.35v-1.21h1.35v-2.1l1.55-.42Z"/>
  <path class="st0" d="M193.07,264.62c.01.54.1,1,.26,1.38.16.38.38.69.65.94s.59.43.95.54.74.17,1.14.17c.58,0,1.05-.04,1.42-.13.37-.08.7-.19,1-.33l.27,1.14c-.28.13-.66.26-1.14.37-.48.11-1.07.17-1.77.17s-1.28-.11-1.81-.32c-.53-.21-.98-.51-1.35-.89-.37-.39-.66-.85-.85-1.39s-.29-1.14-.29-1.81.09-1.28.28-1.85c.19-.57.46-1.07.81-1.49.35-.42.79-.76,1.29-1s1.08-.37,1.72-.37c.71,0,1.3.14,1.77.42.47.28.84.62,1.11,1.04s.46.86.57,1.35c.11.48.16.92.16,1.32,0,.17,0,.31-.02.43-.01.12-.02.22-.04.31h-6.14ZM197.73,263.49c0-.25-.03-.53-.09-.83-.06-.3-.17-.58-.33-.84-.16-.26-.39-.48-.68-.65-.29-.17-.66-.26-1.1-.26-.4,0-.74.08-1.04.25-.3.17-.54.38-.74.63-.2.25-.35.53-.45.83s-.17.59-.21.87h4.64Z"/>
  <path class="st0" d="M201.23,262.69c0-.52,0-1-.02-1.45-.01-.45-.03-.87-.05-1.28h1.39l.05,1.72h.07c.2-.59.52-1.06.96-1.4.43-.34.92-.52,1.46-.52.16,0,.31.02.45.05v1.5c-.17-.04-.35-.05-.54-.05-.57,0-1.04.19-1.41.57-.37.38-.61.87-.72,1.47-.02.11-.04.23-.05.35s-.02.26-.02.39v4.66h-1.57v-6.02Z"/>
  <path class="st0" d="M206.92,267.08c.24.16.55.3.93.43.38.13.77.2,1.17.2.58,0,1.01-.13,1.28-.38.28-.25.42-.56.42-.92,0-.39-.12-.7-.37-.93-.25-.23-.67-.46-1.26-.68-.79-.28-1.38-.63-1.75-1.05-.37-.42-.56-.9-.56-1.43,0-.35.07-.68.21-.99.14-.31.34-.59.6-.82.26-.23.57-.42.95-.55.37-.13.79-.2,1.26-.2.45,0,.85.05,1.23.16.37.11.68.24.92.38l-.4,1.16c-.17-.11-.41-.22-.71-.33-.31-.11-.67-.17-1.08-.17-.47,0-.83.12-1.08.35-.25.24-.38.51-.38.84,0,.36.13.64.4.85.26.21.69.42,1.26.63.76.29,1.33.64,1.72,1.05.39.41.58.94.58,1.59,0,.77-.28,1.4-.85,1.89s-1.37.73-2.42.73c-.48,0-.93-.05-1.35-.16-.42-.11-.79-.25-1.1-.43l.4-1.21Z"/>
  <path class="st2" d="M267.53,226.79c.4.36.66.89,1.29.58,1.89-1.98,3.88-3.7,6.57-4.5,12.51-3.76,21.98,10.98,13.36,20.94l-19.64,19.65c-.43.41-.72.39-1.18.06-.76-.54-3.13-3.43-3.63-3.58-.54-.16-.83.2-1.27.29-2.16.45-4.05-.66-4.62-2.79-.3-.2-1.55.62-2.07.7-2.87.45-5.22-2.12-4.27-4.89.13-.38.68-1.07.61-1.34-.09-.36-.74-.43-1.02-.61-1.24-.78-2.03-2.01-1.96-3.53.03-.59.58-1.61.48-1.96-.06-.23-1.65-1.66-1.97-2.02-8.62-9.96.85-24.71,13.36-20.94,2.73.82,3.95,2.12,5.97,3.92ZM268.64,236.5c.89.77,1.43,1.16,2.7.86.48-.11,2.32-1.75,2.36-2.13.01-.11,0-.21-.07-.3l-8.66-8.63c-8.09-6.38-19.57-.16-18.63,10.17.29,3.18,2.39,6.36,4.9,8.24l11.7-11.52c.25-.54-1.32-1.39-1.51-1.98-.11-.34-.07-.78.28-.98.49-.17.94.23,1.29.54,1.92,1.71,3.69,4.04,5.64,5.74ZM284.83,244.06c.24.21.37.56.79.64s2.17-1.96,2.49-2.37c6.22-7.98.16-19.32-9.88-18.59-3.43.25-6.38,2.23-8.5,4.81-.08.3.13.56.31.77,1.16,1.38,2.95,2.75,4.22,4.11.18.19,1.25,1.37,1.28,1.46.08.28.05.49-.09.73s-2.05,2.11-2.37,2.36c-3.62,2.89-6.26-1.51-8.64-3.68l-.35-.1-12.46,12.42c-1.55,2.03.83,4.72,3.04,3.41.76-.45,2.84-2.7,3.62-3.47,1.7-1.67,3.47-3.85,5.26-5.37,1.02-.86,1.84.38.89,1.2l-10.7,10.69c-.81,1.04-.49,2.7.63,3.36,1.7,1,2.69-.18,3.83-1.26,2.42-2.28,4.82-5.29,7.29-7.39,1.06-.9,1.99-.18,1.25.88-2.24,2.35-4.74,4.51-6.81,6.99-.77,2.73,1.75,4.29,3.95,2.46,1.17-.97,2.28-2.39,3.39-3.45.25-.57-.4-1.55-.41-2.27-.02-.96.5-2.14,1.19-2.8.35-.34,1.77-.97,1.8-1.07.1-.29-.53-1.15-.65-1.56-.85-2.89,1.88-5.57,4.76-4.64.33.11,1.22.73,1.42.67.69-1.26,1.23-2.44,2.76-2.85,3.09-.83,4.75,2.11,6.72,3.9ZM280.99,242.19c-2.53-2.24-5.46.91-3.39,3.27.74.84,2.14,2.25,2.98,2.99.64.55.94.48,1.58-.02.32-.25,2.32-2.27,2.32-2.49-.02-.19-.16-.3-.27-.44-.58-.75-2.47-2.65-3.22-3.31ZM276.11,252.54c.51.44.78.77,1.49.41.29-.15,2.51-2.45,2.55-2.69l-.04-.28-6.04-6.03c-1.7-1.09-3.79.23-3.6,2.23.08.85.77,1.43,1.33,2.04,1.2,1.31,3,3.15,4.32,4.32ZM270.31,250c-1.47.2-2.27,1.69-1.9,3.09.16.63,2.8,3.29,3.42,3.79.74.59.94.75,1.75.13.27-.21,2-1.91,2.12-2.11.13-.22.17-.35.1-.6-.18-.6-3.27-3.05-3.77-3.82-.47-.34-1.12-.55-1.71-.47ZM268.06,256.47c-1.07.17-2,1.29-1.95,2.38.05.96,1.5,2.95,2.53,2.81.31-.04.42-.2.64-.37.41-.32,1.76-1.65,2.05-2.05.1-.15.25-.31.25-.5s-1.55-1.73-1.82-1.9c-.51-.33-1.08-.46-1.69-.36Z"/>
  <path class="st1" d="M253,19.82c-5.48,3.02-7.29,7.47-10.12,12.65-.51.93-1.07,1.84-1.57,2.78l7.1,3.91,5.26-9.37c6.91-9.39,20.9-1.38,16.37,9.37l-5.01,9.18,7.1,3.91.1-.08c2.34-4.73,5.86-9.12,6.58-14.48,1.94-14.53-12.9-24.96-25.8-17.85Z"/>
  <path class="st2" d="M270.98,18.59c-9.14-5.22-20.59-1.85-25.98,7.04-3.1,5.11-5.68,10.69-8.73,15.84-.43,1-.19,2.05.62,2.78,1.96.97,4.11,2.6,6.09,3.41.97.4,1.97.2,2.68-.57,3.34-5.59,6.2-11.47,9.59-17.03,6.33-7.31,17.41-.08,13.39,8.71l-8.68,15.72c-.51,1.17-.12,2.34.91,3.05,1.71,1.17,3.94,2.01,5.7,3.15,1.13.52,2.3.19,3.01-.84,2.7-5.36,6.14-10.54,8.78-15.91,4.4-8.96,1.4-20.33-7.38-25.35ZM244.99,45.84s-.6,1.06-2.03.28l-5.26-3.19s-.6-.54,0-1.56c.6-1.02,2.96-5.03,2.96-5.03l7.3,3.99-2.97,5.51ZM268.71,59.08s-.6,1.06-2.03.28l-5.26-3.19s-.6-.54,0-1.56c.6-1.02,2.96-5.03,2.96-5.03l7.3,3.99-2.97,5.51ZM272.22,52.16l-.1.08-7.1-3.91,5.01-9.18c4.53-10.76-9.45-18.76-16.37-9.37l-5.26,9.37-7.1-3.91c.51-.93,1.06-1.85,1.57-2.78,2.83-5.18,4.64-9.63,10.12-12.65,12.9-7.11,27.74,3.33,25.8,17.85-.72,5.36-4.24,9.75-6.58,14.48Z"/>
  <path class="st2" d="M258.98,62.03c-.84.14-1.65.42-2.54.53-6.59.77-13.11-3-15.73-9.1-.27-.63-.44-1.32-.69-1.94-.3-.72-1.47-.39-1.34.39.06.37.26.9.38,1.26,2.62,7.41,10.6,11.99,18.32,10.71.5-.08,1.51-.25,1.95-.43.92-.37.58-1.57-.35-1.41Z"/>
  <path class="st2" d="M243.72,50c-.45-.22-1.07.17-1.03.7.05.68.8,2.2,1.15,2.84,2.17,3.89,6.48,6.39,10.94,6.35,1.02,0,2.61-.17,3.54-.56.57-.24.46-1.14-.11-1.31-.32-.09-1.18.21-1.57.28-5.26.87-10.31-1.98-12.26-6.96-.16-.41-.2-1.11-.66-1.34Z"/>
  <path class="st2" d="M256.75,55.18c1.16-.32.76-1.59-.12-1.48-.36.05-.76.2-1.17.25-2.78.35-5.6-1.29-6.75-3.82-.22-.47-.35-1.5-1.03-1.42-1.01.12-.65,1.06-.4,1.7,1.42,3.65,5.68,5.8,9.46,4.76Z"/>
  <path class="st0" d="M68.98,42.04h1.59v12.83h-1.59v-12.83Z"/>
  <path class="st0" d="M74.13,50.78c.01.54.1,1,.26,1.38.16.38.38.69.65.94s.59.43.95.54.74.17,1.14.17c.58,0,1.05-.04,1.42-.13.37-.08.7-.19,1-.33l.27,1.14c-.28.13-.66.26-1.14.37-.48.11-1.07.17-1.77.17s-1.28-.11-1.81-.32-.98-.51-1.35-.89-.66-.85-.85-1.39-.29-1.14-.29-1.81.09-1.28.28-1.85c.19-.57.46-1.07.81-1.49.35-.42.79-.76,1.29-1,.51-.25,1.08-.37,1.72-.37.71,0,1.3.14,1.77.42.47.28.84.62,1.11,1.04s.46.86.57,1.35c.11.48.16.92.16,1.32,0,.17,0,.31-.02.43-.01.12-.02.22-.04.31h-6.14ZM78.79,49.64c0-.25-.03-.53-.09-.83-.06-.3-.17-.58-.33-.84-.16-.26-.39-.48-.68-.65-.29-.17-.66-.26-1.1-.26-.4,0-.74.08-1.04.25s-.54.38-.74.63c-.2.25-.35.53-.45.83-.1.3-.17.59-.21.87h4.64Z"/>
  <path class="st0" d="M87.14,54.87l-.13-1.1h-.05c-.24.35-.59.65-1.05.91-.46.26-1,.39-1.63.39-.45,0-.83-.07-1.17-.22-.33-.14-.61-.33-.83-.57s-.39-.5-.51-.8-.17-.61-.17-.92c0-1.06.45-1.87,1.35-2.43s2.2-.83,3.9-.82v-.18c0-.18-.02-.39-.06-.62s-.13-.45-.26-.66c-.13-.2-.33-.38-.6-.52-.27-.14-.62-.22-1.07-.22-.41,0-.81.06-1.21.17-.4.12-.75.27-1.07.48l-.36-1.05c.36-.24.79-.43,1.29-.57.5-.14,1.03-.21,1.58-.21.66,0,1.21.11,1.64.32.43.21.77.48,1.02.82s.42.72.52,1.15c.1.43.14.86.14,1.29v3.27c0,.39,0,.76.03,1.11.02.35.06.68.12.98h-1.45ZM86.9,50.4c-.43-.01-.87,0-1.31.05s-.84.14-1.19.28c-.35.14-.64.34-.87.61-.22.27-.33.61-.33,1.03,0,.52.15.9.44,1.15s.65.37,1.06.37c.58,0,1.04-.15,1.39-.45.35-.3.59-.64.72-1.01.06-.18.09-.35.09-.51v-1.52Z"/>
  <path class="st0" d="M98.55,42.04v10.57c0,.39,0,.78.02,1.19s.03.76.05,1.07h-1.43l-.07-1.52h-.04c-.24.49-.62.9-1.13,1.23-.51.33-1.13.49-1.85.49-.53,0-1.02-.11-1.48-.33-.46-.22-.85-.52-1.18-.9-.33-.39-.59-.85-.79-1.4s-.29-1.15-.29-1.82c0-.72.1-1.38.31-1.96.2-.58.49-1.08.85-1.48.36-.4.78-.71,1.26-.93s.98-.33,1.51-.33c.67,0,1.23.14,1.67.41s.76.58.97.93h.04v-5.22h1.59ZM96.96,49.68c0-.1,0-.21-.02-.33s-.03-.24-.05-.33c-.12-.51-.38-.94-.79-1.3-.4-.36-.91-.54-1.51-.54-.41,0-.78.08-1.1.25-.33.17-.6.4-.82.7-.22.3-.39.66-.52,1.07-.12.42-.18.86-.18,1.35,0,.45.05.86.16,1.26.11.39.27.73.49,1.03s.48.53.8.7.7.25,1.13.25c.54,0,1.03-.17,1.46-.5.43-.33.72-.8.87-1.4.05-.19.07-.42.07-.69v-1.52Z"/>
  <path class="st0" d="M100.97,53.24c.24.16.55.3.93.43.38.13.77.2,1.17.2.58,0,1.01-.13,1.28-.38.28-.25.42-.56.42-.92,0-.39-.12-.7-.37-.93-.25-.23-.67-.46-1.26-.68-.8-.28-1.38-.63-1.75-1.05-.37-.42-.56-.9-.56-1.43,0-.35.07-.68.21-.99.14-.31.34-.59.6-.82.26-.23.58-.42.95-.55s.8-.2,1.26-.2.86.05,1.23.16c.37.11.68.24.92.38l-.4,1.16c-.17-.11-.41-.22-.71-.33s-.67-.17-1.07-.17c-.47,0-.83.12-1.08.35s-.38.51-.38.84c0,.36.13.64.4.85.26.21.69.42,1.26.63.76.29,1.33.64,1.72,1.05.39.41.58.94.58,1.59,0,.77-.28,1.4-.85,1.89-.57.49-1.37.73-2.42.73-.48,0-.93-.05-1.35-.16-.42-.11-.79-.25-1.1-.43l.4-1.21Z"/>
  <path class="st2" d="M223.75,149.05c4.47-4.4,12.1-1.43,12.49,4.79.05.78.09,2.33,0,3.08-.02.19-.13.37-.3.46l-13.91.04c-.35-.01-.52-.32-.55-.64-.08-.87-.04-2.3.05-3.18.17-1.76.96-3.33,2.21-4.55ZM235.15,156.33c.07-2.11.07-4.04-1.26-5.78-3.02-3.96-9.29-3.02-10.93,1.68-.47,1.36-.31,2.69-.33,4.1h12.52Z"/>
  <path class="st2" d="M222.04,158.01c-.62-.02-1.07-.49-1.13-1.17-.08-.92-.04-2.39.05-3.29.18-1.86,1.01-3.56,2.38-4.91h0c2.23-2.19,5.44-2.85,8.38-1.72,2.95,1.13,4.91,3.77,5.1,6.89.05.81.09,2.39,0,3.19-.05.38-.26.71-.59.9l-.14.08-14.06.04ZM222.04,155.16c0,.4,0,.8,0,1.15,0-.31,0-.61,0-.91,0-.08,0-.16,0-.24ZM223.22,155.74h11.37c.04-1.87-.09-3.44-1.16-4.84-1.3-1.7-3.34-2.52-5.47-2.18-2.09.33-3.75,1.72-4.44,3.7-.33.95-.32,1.93-.3,2.96,0,.12,0,.25,0,.37Z"/>
  <path class="st2" d="M255.77,121.73c3.86-.32,7.35,2.19,8.01,6.05.17.98.21,2.83.11,3.83-.03.3-.17.53-.5.55l-13.87-.02c-.24-.08-.31-.24-.33-.47-.09-.91-.07-2.79.06-3.69.44-3.21,3.28-5.96,6.53-6.23ZM262.8,131.05c.1-2.3.03-4.35-1.56-6.14-2.88-3.25-8.12-2.68-10.2,1.13-.9,1.64-.78,3.19-.75,5.01h12.52Z"/>
  <path class="st2" d="M263.42,132.73l-14.08-.05c-.3-.1-.67-.35-.73-.97-.1-.99-.07-2.92.06-3.83.48-3.49,3.58-6.45,7.06-6.73h0c4.23-.35,7.94,2.46,8.63,6.53.18,1.06.21,2.98.12,3.98-.06.64-.46,1.05-1.05,1.08ZM250.85,130.47h11.38c.06-1.93-.1-3.66-1.44-5.17-1.25-1.41-3.04-2.1-4.92-1.89-1.86.21-3.44,1.27-4.34,2.91-.73,1.33-.72,2.64-.69,4.15Z"/>
  <path class="st2" d="M245.9,120.75c-.92.58-1.78,1.46-2.69,2.03-.22.13-.38.2-.62.11-.29-.11-.4-.45-.29-.73.1-.25,1.49-1.15,1.8-1.42.03-.03.09,0,.06-.11-.53-.04-1.06-.15-1.59-.19-3.23-.24-6.58.57-9.35,2.22-4.89,2.91-7.88,8.24-7.86,13.95-.3.57-1.01.44-1.07-.21-.04-.38.02-.98.05-1.38.4-4.99,3.07-9.61,7.12-12.51,3.64-2.61,8.26-3.71,12.7-2.97-.29-.5-.73-.93-1.03-1.41-.2-.32-.34-.66.07-.91.32-.19.52-.05.75.18.51.52,1.39,1.77,1.82,2.4.24.35.42.53.14.95Z"/>
  <path class="st2" d="M224.84,137.55c-.07,0-.14,0-.21-.02-.51-.1-.87-.52-.92-1.09-.04-.41,0-.98.04-1.4.42-5.17,3.17-10.01,7.37-13.02,3.4-2.44,7.62-3.58,11.76-3.24-.09-.11-.17-.23-.24-.35-.17-.27-.36-.64-.26-1.05.05-.19.17-.46.53-.67.5-.3,1-.21,1.47.28.56.57,1.48,1.88,1.88,2.49.28.41.61.89.13,1.6l-.17.17c-.43.27-.84.61-1.29.97-.45.37-.92.75-1.41,1.06-.21.13-.59.37-1.14.16-.28-.11-.49-.32-.61-.59-.12-.29-.12-.62,0-.91.09-.23.32-.44.94-.9-.06,0-.11-.01-.17-.01-3.09-.24-6.29.53-9.01,2.14-4.69,2.79-7.6,7.95-7.58,13.45v.14s-.07.13-.07.13c-.22.43-.62.68-1.04.68ZM244.65,120.2l.16.6c.21-.16.42-.32.63-.46-.02-.01-.06-.07-.1-.12l-.07-.1c-.16-.23-.37-.54-.59-.85l.59,1.04-.63-.1ZM243.96,120.16h-.03s.03,0,.03,0Z"/>
  <path class="st2" d="M242.93,153.44c.27.4,1.47,1.01,1.62,1.39.14.34-.05.7-.4.76-.23.04-.38-.07-.55-.19-.86-.57-1.67-1.39-2.52-1.99-.24-.21-.3-.51-.12-.78l2.19-2.75c.43-.3.96.07.86.57-.05.27-1.01,1.34-1.24,1.65-.03.04-.21.25-.17.28,7.96-.57,14.25-6.96,14.8-14.91.03-.41-.17-1.48.4-1.59.5-.09.74.22.74.69,0,.61-.08,1.38-.15,1.98-.96,7.88-7.51,14.27-15.45,14.87Z"/>
  <path class="st2" d="M244.05,156.18c-.34,0-.58-.16-.74-.27-.51-.34-.97-.73-1.41-1.1-.38-.32-.76-.64-1.15-.92-.52-.46-.61-1.09-.26-1.6l2.33-2.89c.39-.27.89-.28,1.28-.03.39.26.58.73.49,1.2-.05.23-.22.5-.68,1.07,6.97-1.13,12.42-7.02,12.91-14.21,0-.07,0-.17,0-.28-.02-.54-.06-1.66.88-1.84.49-.09.82.07,1,.22.28.23.43.6.43,1.04,0,.51-.05,1.19-.16,2.05-.94,7.68-7.09,13.99-14.58,15.22.33.24.6.48.71.75.13.33.12.69-.05.99-.16.3-.45.5-.78.57-.07.01-.14.02-.21.02ZM242.03,152.23l-.61.77c.33.19.66.45.99.72l-.52-.79.4-.03-.08-.07c-.19-.17-.25-.37-.18-.6Z"/>
  <path class="st2" d="M238.32,131.3c1.21-.15,2.33.32,3.07,1.27,2.55-2.89,6.52-.57,5.69,3.13-.47,2.09-2.47,4.11-4.25,5.19-.3.18-1.21.71-1.51.67-.2-.03-.6-.25-.79-.35-2.47-1.3-5.79-4.66-4.72-7.73.37-1.05,1.38-2.04,2.51-2.18ZM245.42,132.97c-.97-.97-2.38-.7-3.18.32-.2.25-.33.7-.6.83-.64.29-.84-.54-1.16-.93-1.14-1.35-3.18-.95-3.68.73-.66,2.25,1.74,4.72,3.45,5.85.22.14,1.01.65,1.21.62s1.04-.59,1.26-.74c1.77-1.23,4.82-4.56,2.7-6.68Z"/>
  <path class="st2" d="M241.36,142.15c-.05,0-.09,0-.12-.01-.26-.04-.56-.19-.91-.38-2.86-1.51-6.25-5.1-5.07-8.47.47-1.35,1.7-2.4,2.99-2.57h0c1.2-.14,2.32.21,3.16,1,1.25-1.09,2.86-1.35,4.24-.64,1.37.7,2.52,2.44,2,4.75-.5,2.26-2.63,4.42-4.52,5.56-1.09.67-1.55.76-1.77.76ZM241.37,140.97s.03,0,.04.01c0,0,0,0,.02,0-.02,0-.03,0-.05,0ZM238.81,132.96c-.1,0-.21.01-.31.03-.55.12-.96.51-1.13,1.09-.55,1.89,1.62,4.14,3.21,5.2.41.27.71.43.85.5.19-.11.69-.42.96-.61,1.15-.8,3.02-2.67,3.16-4.31.05-.58-.12-1.06-.54-1.48h0c-.31-.3-.68-.46-1.07-.43-.46.03-.91.28-1.24.7-.05.07-.09.15-.14.24-.14.27-.32.6-.67.76-.95.44-1.46-.43-1.68-.8-.06-.1-.11-.2-.18-.28-.33-.39-.77-.6-1.23-.6ZM241.36,133.48c.04.06.08.11.1.13-.06-.04.02-.19.07-.28.02-.04.04-.08.06-.12l-.23.27Z"/>
  <path class="st2" d="M231.63,145.64c-1.97,1.95-5.37,1.22-6.37-1.35-1.43-3.67,2.81-6.9,5.98-4.56,1.9,1.4,2.06,4.25.39,5.9ZM228.45,140.08c-3.19.38-3.12,5.33.18,5.58,4.07.31,4.02-6.08-.18-5.58Z"/>
  <path class="st2" d="M228.91,147.34c-.32,0-.64-.03-.96-.1-1.49-.32-2.7-1.34-3.25-2.73-.75-1.92-.18-3.96,1.45-5.21,1.63-1.25,3.76-1.26,5.42-.03,1.03.76,1.67,1.95,1.77,3.25.1,1.33-.38,2.62-1.31,3.54h0c-.84.83-1.96,1.28-3.13,1.28ZM228.52,140.66h0c-1.29.16-1.85,1.24-1.83,2.24.02,1.01.64,2.08,1.98,2.18,1.18.1,1.76-.47,2.05-.96.46-.78.44-1.84-.05-2.59-.31-.48-.94-1-2.16-.87Z"/>
  <path class="st2" d="M256.05,113.71c3.45-.35,5.69,3.52,3.57,6.27-1.84,2.38-5.63,1.84-6.72-.96-.91-2.34.63-5.05,3.16-5.31ZM256.15,114.8c-3.23.37-3.15,5.28.04,5.58,4.19.39,4.11-6.05-.04-5.58Z"/>
  <path class="st2" d="M256.56,122.07c-.22,0-.45-.02-.67-.05-1.62-.23-2.94-1.28-3.53-2.79-.51-1.3-.37-2.81.38-4.02.73-1.19,1.92-1.94,3.26-2.08h0c1.85-.18,3.57.7,4.47,2.31.88,1.58.73,3.45-.38,4.89-.86,1.11-2.14,1.73-3.52,1.73ZM256.58,115.36c-.12,0-.24,0-.36.02h0c-1.31.15-1.88,1.22-1.87,2.23.01,1,.6,2.07,1.89,2.19,1.22.11,1.83-.45,2.13-.94.47-.77.46-1.84-.03-2.59-.27-.43-.8-.91-1.76-.91Z"/>
</svg>