<?xml version="1.0" encoding="UTF-8"?>
<svg id="Layer_1" xmlns="http://www.w3.org/2000/svg" version="1.1" viewBox="0 0 978.49 205.09">
  <!-- Generator: Adobe Illustrator 29.8.2, SVG Export Plug-In . SVG Version: 2.1.1 Build 3)  -->
  <defs>
    <style>
      .st0 {
        fill: #fff;
      }

      .st1 {
        fill: none;
      }

      .st2 {
        fill: #eae4e1;
      }

      .st3 {
        fill: #554d49;
      }
    </style>
  </defs>
  <circle class="st2" cx="777.51" cy="149.32" r="4.8"/>
  <circle class="st2" cx="633.09" cy="148.37" r="4.8"/>
  <circle class="st2" cx="488.67" cy="148.37" r="4.8"/>
  <circle class="st2" cx="344.25" cy="148.37" r="4.8"/>
  <circle class="st2" cx="201.81" cy="148.37" r="4.8"/>
  <path class="st1" d="M797.23,29.22h-37.74v37.74h36.34c.34,0,1.41-.91,1.41-1.2V29.22ZM787.47,57.41h-17.85l-.38-.38v-17.85h18.23v18.23Z"/>
  <path class="st1" d="M647.55,32.95h6.33c1.66-1.88,4.78-7.01,3.96-8.83-.74-1.63-6.98-1.84-9.22-1.65-2.91.25-4.3.72-4.81,1.61-.49.86-.21,2.27.9,4.57.37.78,2.37,3.94,2.84,4.31Z"/>
  <path class="st1" d="M597.37,70.28c1.04-.09,2.14-.13,3.27-.13,1.88,0,3.85.1,5.77.2,3.5.18,7.13.37,10.18-.06,1.52-.21,2.21-1.4,2.22-2.48,0-1.1-.67-2.33-2.22-2.57l-19.4.04c-1.28.37-2.08,1.38-2.04,2.57.04,1.2.91,2.15,2.22,2.43Z"/>
  <path class="st1" d="M597.37,60.97c1.04-.09,2.14-.13,3.27-.13,1.88,0,3.85.1,5.77.2,3.5.18,7.13.37,10.18-.06,1.52-.21,2.21-1.4,2.22-2.48,0-1.1-.67-2.33-2.22-2.57l-19.4.04c-1.28.37-2.08,1.38-2.04,2.57.04,1.2.91,2.15,2.22,2.43Z"/>
  <path class="st1" d="M637.19,77.12c5.89,2.88,19.71,4.1,27.98-.54,3.52-1.98,5.47-4.76,5.79-8.26,1.12-12.19-4.93-24.88-14.72-30.89l-10.85-.07c-8.58,5.19-14.28,15.19-14.89,26.11-.35,6.24.65,10.7,6.69,13.66ZM643.16,63.25c.32-.39.68-.61,1.1-.65.89-.09,1.79.69,2.58,1.37.39.33.75.64,1.06.82,1.73.95,4.91,1.14,6.26-.06.69-.61.8-1.5.34-2.63-.41-1-2.15-1.57-4-2.16-2.81-.91-6.3-2.04-6.76-5.31-.52-3.76,1.39-6.2,5.53-7.08.04-.16.04-.47.04-.71,0-.72.01-1.61.55-2.06.29-.24.68-.33,1.18-.25,1.64.26,1.61,2.01,1.57,3.19,1.6.04,4.75,1.53,5.55,3.24.36.76.21,1.49-.43,2.1-1.08,1.04-2.29.17-3.37-.59-.5-.36-.98-.7-1.42-.85-1.51-.51-3.87-.42-4.85.53-.48.46-.6,1.1-.36,1.9.28.94,3,1.86,4.98,2.53.97.33,1.81.61,2.29.86,2.86,1.48,4.26,4.28,3.58,7.13-.64,2.69-2.97,4.48-5.97,4.61.16,1.62-.41,2.62-1.01,3.03-.24.16-.51.25-.77.25-.22,0-.44-.06-.65-.18-.72-.43-1.09-1.47-1.02-2.89-1.61-.26-5.42-2.03-6.31-4.05-.32-.74-.23-1.45.27-2.07Z"/>
  <rect class="st1" x="773.17" y="42.91" width="10.37" height="10.58"/>
  <path class="st1" d="M597.37,51.66c1.04-.09,2.14-.13,3.27-.13,1.88,0,3.85.1,5.77.2,3.5.18,7.13.37,10.18-.06,1.52-.21,2.21-1.4,2.22-2.48,0-1.1-.67-2.33-2.22-2.57l-19.4.04c-1.28.37-2.08,1.38-2.04,2.57.04,1.2.91,2.15,2.22,2.43Z"/>
  <path class="st1" d="M747.85,77.04c-.05,0-.11,0-.17.01-.97.14-1.33.88-1.24,1.55.08.66.6,1.32,1.55,1.23.51-.05.87-.29,1.04-.68.21-.48.1-1.15-.25-1.61-.15-.19-.46-.5-.92-.5Z"/>
  <path class="st1" d="M809.07,79.83c.51-.05.9-.32,1.08-.76.21-.5.13-1.15-.2-1.57-.28-.36-.72-.52-1.2-.44-.85.13-1.22.95-1.13,1.65.08.58.49,1.22,1.44,1.13Z"/>
  <path class="st1" d="M763.35,6.02l1.68-.02c.39-.51.43-1.16.11-1.68-.32-.51-.89-.73-1.52-.59-.75.17-.83.83-.8,1.2.04.6.34,1.07.53,1.09Z"/>
  <path class="st1" d="M735.44,41.1c-.62.14-.87.73-.89,1.2-.03.51.19,1.11.74,1.29.69.23,1.27.11,1.62-.34.35-.45.39-1.16.09-1.65-.3-.48-.86-.65-1.56-.5Z"/>
  <path class="st1" d="M809.04,18.72c.54-.05.95-.32,1.13-.76.21-.5.12-1.11-.23-1.54-.32-.4-.82-.55-1.38-.44-.83.17-1.03.87-.95,1.43.1.69.64,1.38,1.43,1.32Z"/>
  <path class="st1" d="M484.36,55.13c-.63.05-.68.69-.68,1.67,0,.15,0,.3,0,.43-.16,4.14-.08,8.43,0,12.57.05,2.91.11,5.91.08,8.83.16.39.75.45,1.44.47h.23c3.78.22,8.79.22,12.49.01h.17c.39-.02,1.11-.06,1.32-.34l-.13-23.53c-.16-.08-.35-.09-.57-.11h-.11c-2.35-.2-4.88-.11-7.33-.03-2.3.08-4.67.16-6.91.02ZM495.87,57.58c.65.06,1.15.31,1.51.74.75.9.68,2.38.54,3.81-.12,1.25-.71,1.9-1.87,2.04-.94.11-2.52.16-4.14.16-1.74,0-3.52-.06-4.6-.16-.97-.09-1.65-.6-1.83-1.37-.14-.64-.12-2.87-.04-3.52.1-.89.67-1.49,1.55-1.65,1.66-.3,7.11-.22,8.89-.05Z"/>
  <path class="st1" d="M355.39,18.56c3.32,2.08,7.34,1.78,10.24-.77,2.92-2.57,3.75-6.53,2.12-10.11-1.37-2.99-4.35-4.76-7.83-4.76-.51,0-1.03.04-1.55.11-3.95.58-5.98,3.74-6.56,6.5-.76,3.63.65,7.17,3.59,9.02Z"/>
  <path class="st1" d="M199.62,66.17l-21.24-8.08v12.29c0,.63,2.85,2.72,3.87,3.24,8.54,4.37,26.61,4.37,35.15,0,1.02-.52,3.87-2.61,3.87-3.24v-12.29l-21.56,8.11-.09-.03Z"/>
  <path class="st1" d="M347.28,50.86c-1.04-1.33-2.62-1.9-4.43-1.61-3.21.51-4.35,3.2-4.04,5.47.31,2.31,2.12,4.63,5.39,4.29,1.81-.2,3.16-1.15,3.82-2.7.74-1.76.45-3.94-.73-5.44Z"/>
  <path class="st1" d="M323.67,69.15v11.76h7.15c.33-1.57.47-3.41.63-5.36.54-6.7,1.14-14.27,9.39-13.81,0-.02,0-.04,0-.06-.12,0-.23-.02-.34-.08-3.27-1.71-5.1-4.32-5.14-7.34-.04-2.98,1.68-5.88,4.38-7.39,2.58-1.44,5.58-1.3,8.24.38,3.58,2.27,4.83,6.84,2.9,10.63-.9,1.76-2.19,2.6-3.56,3.49-.17.11-.34.22-.51.33,4.91-.12,7.46,2.33,8.45,8.06.41,2.38.64,4.87.86,7.29.12,1.27.24,2.59.38,3.87h8.35v-11.76c0-1.27,1.93-1.58,3.49-1.83.49-.08.96-.15,1.24-.24,2.87-.94,4.96-3.47,5.58-6.8-.26-3.56-.08-7.47.08-11.25.19-4.39.39-8.94-.08-12.96-.45-3.86-3.72-6.92-7.79-7.27-3.86-.33-11.23-.33-14.88,0-4.13.38-7.41,3.93-7.81,8.46-.02.28,0,.78.04,1.36.1,1.79.23,4.25-.79,4.94-.38.26-.86.25-1.43-.02-.44-.21-.89-.65-1.41-1.15-.75-.74-1.61-1.57-2.72-2-2.51-.97-13.71-.97-17.18-.63-2.71.27-5.23,1.82-6.6,4.04-.27.45-1.2,2.31-1.24,2.56v21.17h8.72c.44,0,1.62,1.18,1.62,1.62Z"/>
  <path class="st1" d="M347.89,64.98c-2.03-.2-8.49-.19-9.85.38-1.58.66-2.11,2.13-2.43,3.63-.44,1.99-.62,4.09-.81,6.12-.17,1.92-.35,3.9-.73,5.8h19.17c-.24-1.55-.39-3.16-.54-4.72-.31-3.21-.62-6.53-1.68-9.49-.87-1.1-1.77-1.6-3.12-1.73Z"/>
  <path class="st1" d="M320.46,19.13c-1.13,3.23-.3,7.17,2.01,9.58,2.09,2.18,5.08,2.83,8.42,1.82,5.09-1.54,6.54-6.23,5.73-9.95-.83-3.82-4.12-7.35-9.59-6.61-3.23.44-5.57,2.27-6.57,5.15Z"/>
  <path class="st1" d="M597.37,79.59c1.04-.09,2.14-.13,3.27-.13,1.88,0,3.85.1,5.77.2,3.5.18,7.13.37,10.18-.06,1.52-.21,2.21-1.4,2.22-2.48,0-1.1-.67-2.33-2.22-2.57l-19.4.04c-1.28.37-2.08,1.38-2.04,2.57.04,1.2.91,2.15,2.22,2.43Z"/>
  <path class="st1" d="M453.69,44.56c.62-.87,1.27-2.39,1.9-3.86.8-1.87,1.63-3.81,2.49-4.66.42-.42.94-.65,1.45-.65.16,0,.32.02.47.07.63.19,1.08.71,1.24,1.45l.03,13.18c-.77,3.88-1.8,7.79-2.81,11.57-1.09,4.12-2.22,8.38-3,12.54-.28,1.51-.33,3.07,1.21,4.17.97.69,1.98.91,2.84.6.9-.32,1.59-1.18,1.92-2.42.89-3.3,1.46-6.97,2-10.51.6-3.93,1.23-7.99,2.3-11.57.36-1.22,1.2-1.99,2.17-2.03.93-.04,1.79.64,2.21,1.76l.02.08,1.09,22.86c.23.83.99,1.53,1.97,1.77.97.24,1.91,0,2.53-.65.87-.91.78-3.06.72-4.64-.01-.28-.02-.54-.03-.78-.1-5.52-.27-11.14-.44-16.58-.16-5.2-.33-10.58-.43-15.88,0-.25-.04-.61-.08-1.04-.17-1.83-.44-4.59.72-5.46.43-.33,1.01-.35,1.71-.08l.06.04,5.88,4.64c.66.19,1.59.64,2.58,1.13,1.49.73,3.18,1.55,4,1.48.77-.07,1.41-.52,1.7-1.21.31-.72.2-1.54-.31-2.18-.51-.65-2.15-1.39-3.73-2.11-1.36-.62-2.65-1.2-3.4-1.78-.46-.35-.82-.8-1.17-1.22-.27-.33-.54-.66-.85-.95-1.78-1.65-6.46-5.18-8.66-5.76-2.14-.56-8.96-.75-10.98-.18-3.28.94-8.18,7.41-11.38,12.67-.12.2-.27.43-.43.69-.72,1.13-1.8,2.85-1.93,3.78-.19,1.38.68,2.24,1.48,2.56.91.36,2.16.24,2.93-.84Z"/>
  <path class="st1" d="M497.27,25.04l28.09-16.92c1.02-.75,2.96-3.74,2.78-4.83-.01-.07-.2-.66-3.29-.4-2.8.23-5.39,2.28-7.9,4.25-1.52,1.2-2.96,2.33-4.43,3.08l-.09.05c-.34.18-.7.36-1.12.42l-21.25-1.81c.12.05.25.09.37.13.12.04.24.08.34.12,1.17.43,2.54.86,3.99,1.3,2.52.78,5.13,1.58,6.96,2.54.7.37,1.14.92,1.25,1.54.1.62-.14,1.27-.68,1.84-1.04,1.08-2.69,2.07-4.28,3.02-1.23.73-2.38,1.43-3.27,2.15l-.09.05c-1.1.32-2.84-.17-4.52-.65-1.44-.41-2.93-.83-3.65-.6-.08.03-.43.25-.68.42l7.39,4.34,4.1-.04Z"/>
  <path class="st1" d="M469.44,17.49c3.2-.27,4.47-2.88,4.29-5.19-.17-2.32-1.84-4.72-5.07-4.51-1.79.12-3.18,1.01-3.91,2.52-.81,1.67-.66,3.8.37,5.3.94,1.37,2.47,2.03,4.32,1.88Z"/>
  <polygon class="st1" points="490.97 51.86 492.38 51.86 492.38 43.9 490.97 44.16 490.97 51.86"/>
  <path class="st1" d="M735.44,61.74c-.74.17-1,.92-.87,1.58.13.65.64,1.25,1.5,1.11.5-.08.87-.38,1.03-.83.18-.5.07-1.1-.28-1.49-.33-.37-.82-.5-1.39-.37Z"/>
  <path class="st1" d="M165.58,48.83c1.12.57,2.55,1.1,3.94,1.62.6.22,1.18.44,1.72.65,4.24,1.68,8.56,3.35,12.75,4.96,5.18,2,10.53,4.06,15.77,6.16l24.39-9.56-24.41-3.19c-.84-.19-1.42-.7-1.61-1.39-.19-.68.02-1.44.53-1.95.57-.57,1.42-.74,2.33-.47,4.17.78,8.61,1.23,12.91,1.66,4.43.44,9.01.9,13.31,1.74.5.1,1.48.47,2.27.77.47.18,1,.38,1.1.39.24-.04,3.04-1.17,3.49-1.4.06-.03.14-.06.21-.09.04-.01.07-.02.1-.04l-34.67-10.27-34.43,10.27s.06.03.1.04c.07.03.14.05.2.08Z"/>
  <path class="st2" d="M503.59,111.79h117.65c-.02-.31-.05-.62-.05-.94,0-.19.02-.37.03-.56h-117.61c0,.19.03.37.03.56,0,.32-.03.63-.05.94Z"/>
  <path class="st2" d="M648.01,111.79h116.07c0-.51.03-1.01.09-1.5h-116.14c0,.19.03.37.03.56,0,.32-.03.63-.05.94Z"/>
  <path class="st2" d="M2.19,112.53h0c0,.41.34.75.75.75h185.22c-.09-.49-.15-.99-.19-1.5H2.94c-.41,0-.75.34-.75.75Z"/>
  <path class="st2" d="M503.59,111.79c-.04.51-.09,1.01-.19,1.5h118.02c-.09-.49-.15-.99-.19-1.5h-117.65Z"/>
  <path class="st2" d="M359.17,111.79h117.65c-.02-.31-.05-.62-.05-.94,0-.19.02-.37.03-.56h-117.61c0,.19.03.37.03.56,0,.32-.03.63-.05.94Z"/>
  <path class="st2" d="M214.75,111.79c-.04.51-.09,1.01-.19,1.5h118.02c-.09-.49-.15-.99-.19-1.5h-117.65Z"/>
  <path class="st2" d="M214.75,111.79h117.65c-.02-.31-.05-.62-.05-.94,0-.19.02-.37.03-.56h-117.61c0,.19.03.37.03.56,0,.32-.03.63-.05.94Z"/>
  <path class="st2" d="M764.07,111.79h-116.07c-.04.51-.09,1.01-.19,1.5h116.34c-.05-.49-.09-.99-.09-1.5,0,0,0,0,0,0Z"/>
  <path class="st2" d="M187.92,110.84c0-.19.02-.37.03-.56H2.94c-.41,0-.75.34-.75.75h0c0,.41.34.75.75.75h185.03c-.02-.31-.05-.62-.05-.94Z"/>
  <path class="st2" d="M790.85,110.29c.06.49.09.99.09,1.5h187.55-187.55s0,0,0,0c0,.51-.03,1.01-.09,1.5h187.64v-3h-187.64Z"/>
  <path class="st2" d="M359.17,111.79c-.04.51-.09,1.01-.19,1.5h118.02c-.09-.49-.15-.99-.19-1.5h-117.65Z"/>
  <path class="st2" d="M776.01,125.13v24.18h1.5v-24.09c-.51,0-1.01-.03-1.5-.09Z"/>
  <path class="st2" d="M777.51,125.22v24.09h1.5v-24.18c-.49.06-.99.09-1.5.09h0Z"/>
  <path class="st2" d="M779.01,123.62v1.52c6.21-.69,11.15-5.64,11.85-11.85h-1.52c-.68,5.39-4.94,9.66-10.33,10.33Z"/>
  <path class="st2" d="M777.51,99.85c6.08,0,11.09,4.55,11.83,10.43h1.52c-.75-6.7-6.45-11.93-13.35-11.93s-12.6,5.23-13.35,11.93h1.52c.74-5.88,5.75-10.43,11.83-10.43Z"/>
  <path class="st2" d="M765.67,113.29h-1.52c.69,6.21,5.64,11.15,11.85,11.85v-1.52c-5.39-.68-9.65-4.94-10.33-10.33Z"/>
  <path class="st2" d="M765.57,111.79c0-.51.04-1.01.1-1.5h-1.52c-.06.49-.09.99-.09,1.5h1.5Z"/>
  <path class="st2" d="M790.94,111.79h-1.5s0,0,0,0c0,.51-.04,1.01-.1,1.5h1.52c.05-.49.09-.99.09-1.5,0,0,0,0,0,0Z"/>
  <path class="st2" d="M765.57,111.79s0,0,0,0h-1.5s0,0,0,0c0,.51.03,1.01.09,1.5h1.52c-.06-.49-.1-.99-.1-1.5Z"/>
  <path class="st2" d="M789.44,111.79h1.5c0-.51-.03-1.01-.09-1.5h-1.52c.06.49.1.99.1,1.5Z"/>
  <path class="st2" d="M777.51,123.72c-.51,0-1.01-.04-1.5-.1v1.52c.49.06.99.09,1.5.09v-1.5Z"/>
  <path class="st2" d="M777.51,123.72v1.5h0c.51,0,1.01-.03,1.5-.09v-1.52c-.49.06-.99.1-1.5.1Z"/>
  <path class="st2" d="M767.19,113.29h-1.52c.68,5.39,4.94,9.66,10.33,10.33v-1.52c-4.55-.66-8.16-4.26-8.82-8.82Z"/>
  <path class="st2" d="M777.51,101.35c5.24,0,9.58,3.89,10.31,8.93h1.52c-.74-5.88-5.75-10.43-11.83-10.43s-11.09,4.55-11.83,10.43h1.52c.73-5.04,5.07-8.93,10.31-8.93Z"/>
  <path class="st2" d="M779.01,122.1v1.52c5.39-.68,9.65-4.94,10.33-10.33h-1.52c-.66,4.55-4.26,8.16-8.81,8.82Z"/>
  <path class="st2" d="M787.82,110.29c.07.49.12.99.12,1.5h1.5c0-.51-.04-1.01-.1-1.5h-1.52Z"/>
  <path class="st2" d="M767.07,111.79s0,0,0,0h-1.5s0,0,0,0c0,.51.04,1.01.1,1.5h1.52c-.07-.49-.12-.99-.12-1.5Z"/>
  <path class="st2" d="M767.19,110.29h-1.52c-.06.49-.1.99-.1,1.5h1.5c0-.51.05-1.01.12-1.5Z"/>
  <path class="st2" d="M787.94,111.79c0,.51-.05,1.01-.12,1.5h1.52c.06-.49.1-.99.1-1.5,0,0,0,0,0,0h-1.5s0,0,0,0Z"/>
  <path class="st2" d="M777.51,122.22h0v1.5c.51,0,1.01-.04,1.5-.1v-1.52c-.49.07-.99.12-1.5.12Z"/>
  <path class="st2" d="M776.01,122.1v1.52c.49.06.99.1,1.5.1v-1.5c-.51,0-1.01-.05-1.5-.12Z"/>
  <path class="st2" d="M633.09,148.37h1.5v-24.1c-.51,0-1.01-.04-1.5-.09v24.19Z"/>
  <path class="st2" d="M631.59,123.92v24.45h1.5v-24.19c-.51-.06-1.01-.15-1.5-.26Z"/>
  <path class="st2" d="M622.93,113.29h-1.52c.97,5.25,5,9.44,10.17,10.64v-1.55c-4.35-1.14-7.73-4.66-8.65-9.09Z"/>
  <path class="st2" d="M634.62,98.91c6.4,0,11.61,5.05,11.91,11.38h1.5c-.3-7.15-6.19-12.88-13.41-12.88s-13.11,5.73-13.41,12.88h1.5c.29-6.33,5.5-11.38,11.91-11.38Z"/>
  <path class="st2" d="M634.62,122.78s-.02,0-.03,0v1.5s.02,0,.03,0c6.57,0,12.05-4.75,13.2-10.99h-1.52c-1.13,5.42-5.93,9.49-11.68,9.49Z"/>
  <path class="st2" d="M646.55,110.84c0,.32-.02.63-.05.94h1.5c.02-.31.05-.62.05-.94,0-.19-.02-.37-.03-.56h-1.5c0,.19.03.37.03.56Z"/>
  <path class="st2" d="M622.73,111.79h-1.5c.04.51.09,1.01.19,1.5h1.52c-.1-.49-.16-.99-.2-1.5Z"/>
  <path class="st2" d="M621.23,111.79h1.5c-.02-.31-.05-.62-.05-.94,0-.19.02-.37.03-.56h-1.5c0,.19-.03.37-.03.56,0,.32.03.63.05.94Z"/>
  <path class="st2" d="M646.51,111.79c-.04.51-.1,1.01-.2,1.5h1.52c.09-.49.15-.99.19-1.5h-1.5Z"/>
  <path class="st2" d="M633.09,122.67c-.51-.07-1.01-.17-1.5-.29v1.55c.49.11.99.21,1.5.26v-1.52Z"/>
  <path class="st2" d="M633.09,122.67v1.52c.49.06.99.09,1.5.09v-1.5c-.51,0-1.01-.04-1.5-.11Z"/>
  <path class="st2" d="M634.62,121.28s-.02,0-.03,0v1.5s.02,0,.03,0c5.75,0,10.56-4.07,11.68-9.49h-1.55c-1.1,4.58-5.22,7.99-10.14,7.99Z"/>
  <path class="st2" d="M624.48,113.29h-1.55c.92,4.43,4.3,7.95,8.65,9.09v-1.55c-3.51-1.07-6.24-3.95-7.1-7.54Z"/>
  <path class="st2" d="M634.62,100.41c5.57,0,10.11,4.38,10.41,9.88h1.5c-.29-6.33-5.5-11.38-11.91-11.38s-11.61,5.05-11.91,11.38h1.5c.29-5.49,4.84-9.88,10.41-9.88Z"/>
  <path class="st2" d="M644.75,113.29h1.55c.1-.49.16-.99.2-1.5h-1.5c-.05.51-.13,1.01-.25,1.5Z"/>
  <path class="st2" d="M624.23,111.79h-1.5c.04.51.1,1.01.2,1.5h1.55c-.12-.49-.21-.99-.25-1.5Z"/>
  <path class="st2" d="M646.52,110.29h-1.5c0,.19.03.37.03.56,0,.32-.02.63-.05.94h1.5c.02-.31.05-.62.05-.94,0-.19-.02-.37-.03-.56Z"/>
  <path class="st2" d="M624.18,110.84c0-.19.02-.37.03-.56h-1.5c0,.19-.03.37-.03.56,0,.32.02.63.05.94h1.5c-.03-.31-.05-.62-.05-.94Z"/>
  <path class="st2" d="M633.09,121.15v1.52c.49.06.99.11,1.5.11v-1.5c-.51,0-1.01-.05-1.5-.12Z"/>
  <path class="st2" d="M631.59,120.83v1.55c.49.13.99.23,1.5.29v-1.52c-.51-.08-1.01-.18-1.5-.33Z"/>
  <path class="st2" d="M488.67,148.37h1.5v-24.1c-.51,0-1.01-.04-1.5-.09v24.19Z"/>
  <path class="st2" d="M487.17,123.92v24.45h1.5v-24.19c-.51-.06-1.01-.15-1.5-.26Z"/>
  <path class="st2" d="M490.2,122.78s-.02,0-.03,0v1.5s.02,0,.03,0c6.57,0,12.05-4.75,13.2-10.99h-1.52c-1.13,5.42-5.93,9.49-11.68,9.49Z"/>
  <path class="st2" d="M490.2,98.91c6.4,0,11.61,5.05,11.91,11.38h1.5c-.3-7.15-6.19-12.88-13.41-12.88s-13.11,5.73-13.41,12.88h1.5c.29-6.33,5.5-11.38,11.91-11.38Z"/>
  <path class="st2" d="M478.51,113.29h-1.52c.97,5.25,5,9.44,10.17,10.64v-1.55c-4.35-1.14-7.73-4.66-8.65-9.09Z"/>
  <path class="st2" d="M476.81,111.79h1.5c-.02-.31-.05-.62-.05-.94,0-.19.02-.37.03-.56h-1.5c0,.19-.03.37-.03.56,0,.32.03.63.05.94Z"/>
  <path class="st2" d="M502.09,111.79c-.04.51-.1,1.01-.2,1.5h1.52c.09-.49.15-.99.19-1.5h-1.5Z"/>
  <path class="st2" d="M502.13,110.84c0,.32-.02.63-.05.94h1.5c.02-.31.05-.62.05-.94,0-.19-.02-.37-.03-.56h-1.5c0,.19.03.37.03.56Z"/>
  <path class="st2" d="M478.31,111.79h-1.5c.04.51.09,1.01.19,1.5h1.52c-.1-.49-.16-.99-.2-1.5Z"/>
  <path class="st2" d="M488.67,122.67c-.51-.07-1.01-.17-1.5-.29v1.55c.49.11.99.21,1.5.26v-1.52Z"/>
  <path class="st2" d="M488.67,122.67v1.52c.49.06.99.09,1.5.09v-1.5c-.51,0-1.01-.04-1.5-.11Z"/>
  <path class="st2" d="M490.2,121.28s-.02,0-.03,0v1.5s.02,0,.03,0c5.75,0,10.56-4.07,11.68-9.49h-1.55c-1.1,4.58-5.22,7.99-10.14,7.99Z"/>
  <path class="st2" d="M480.06,113.29h-1.55c.92,4.43,4.3,7.95,8.65,9.09v-1.55c-3.51-1.07-6.24-3.95-7.1-7.54Z"/>
  <path class="st2" d="M490.2,100.41c5.57,0,10.11,4.38,10.41,9.88h1.5c-.29-6.33-5.5-11.38-11.91-11.38s-11.61,5.05-11.91,11.38h1.5c.29-5.49,4.84-9.88,10.41-9.88Z"/>
  <path class="st2" d="M479.76,110.84c0-.19.02-.37.03-.56h-1.5c0,.19-.03.37-.03.56,0,.32.02.63.05.94h1.5c-.03-.31-.05-.62-.05-.94Z"/>
  <path class="st2" d="M479.81,111.79h-1.5c.04.51.1,1.01.2,1.5h1.55c-.12-.49-.21-.99-.25-1.5Z"/>
  <path class="st2" d="M500.33,113.29h1.55c.1-.49.16-.99.2-1.5h-1.5c-.05.51-.13,1.01-.25,1.5Z"/>
  <path class="st2" d="M502.11,110.29h-1.5c0,.19.03.37.03.56,0,.32-.02.63-.05.94h1.5c.02-.31.05-.62.05-.94,0-.19-.02-.37-.03-.56Z"/>
  <path class="st2" d="M488.67,121.15v1.52c.49.06.99.11,1.5.11v-1.5c-.51,0-1.01-.05-1.5-.12Z"/>
  <path class="st2" d="M487.17,120.83v1.55c.49.13.99.23,1.5.29v-1.52c-.51-.08-1.01-.18-1.5-.33Z"/>
  <path class="st2" d="M342.75,123.92v24.45h1.5v-24.19c-.51-.06-1.01-.15-1.5-.26Z"/>
  <path class="st2" d="M344.25,148.37h1.5v-24.1c-.51,0-1.01-.04-1.5-.09v24.19Z"/>
  <path class="st2" d="M334.1,113.29h-1.52c.97,5.25,5,9.44,10.17,10.64v-1.55c-4.35-1.14-7.73-4.66-8.65-9.09Z"/>
  <path class="st2" d="M345.78,98.91c6.4,0,11.61,5.05,11.91,11.38h1.5c-.3-7.15-6.19-12.88-13.41-12.88s-13.11,5.73-13.41,12.88h1.5c.29-6.33,5.5-11.38,11.91-11.38Z"/>
  <path class="st2" d="M345.78,122.78s-.02,0-.03,0v1.5s.02,0,.03,0c6.57,0,12.05-4.75,13.2-10.99h-1.52c-1.13,5.42-5.93,9.49-11.68,9.49Z"/>
  <path class="st2" d="M357.71,110.84c0,.32-.02.63-.05.94h1.5c.02-.31.05-.62.05-.94,0-.19-.02-.37-.03-.56h-1.5c0,.19.03.37.03.56Z"/>
  <path class="st2" d="M332.39,111.79h1.5c-.02-.31-.05-.62-.05-.94,0-.19.02-.37.03-.56h-1.5c0,.19-.03.37-.03.56,0,.32.03.63.05.94Z"/>
  <path class="st2" d="M333.89,111.79h-1.5c.04.51.09,1.01.19,1.5h1.52c-.1-.49-.16-.99-.2-1.5Z"/>
  <path class="st2" d="M357.67,111.79c-.04.51-.1,1.01-.2,1.5h1.52c.09-.49.15-.99.19-1.5h-1.5Z"/>
  <path class="st2" d="M344.25,122.67c-.51-.07-1.01-.17-1.5-.29v1.55c.49.11.99.21,1.5.26v-1.52Z"/>
  <path class="st2" d="M344.25,122.67v1.52c.49.06.99.09,1.5.09v-1.5c-.51,0-1.01-.04-1.5-.11Z"/>
  <path class="st2" d="M345.78,121.28s-.02,0-.03,0v1.5s.02,0,.03,0c5.75,0,10.56-4.07,11.68-9.49h-1.55c-1.1,4.58-5.22,7.99-10.13,7.99Z"/>
  <path class="st2" d="M335.64,113.29h-1.55c.92,4.43,4.3,7.95,8.65,9.09v-1.55c-3.51-1.07-6.24-3.95-7.1-7.54Z"/>
  <path class="st2" d="M345.78,100.41c5.57,0,10.11,4.38,10.41,9.88h1.5c-.29-6.33-5.5-11.38-11.91-11.38s-11.61,5.05-11.91,11.38h1.5c.29-5.49,4.84-9.88,10.41-9.88Z"/>
  <path class="st2" d="M335.39,111.79h-1.5c.04.51.1,1.01.2,1.5h1.55c-.12-.49-.21-.99-.25-1.5Z"/>
  <path class="st2" d="M335.34,110.84c0-.19.02-.37.03-.56h-1.5c0,.19-.03.37-.03.56,0,.32.02.63.05.94h1.5c-.03-.31-.05-.62-.05-.94Z"/>
  <path class="st2" d="M357.69,110.29h-1.5c0,.19.03.37.03.56,0,.32-.02.63-.05.94h1.5c.02-.31.05-.62.05-.94,0-.19-.02-.37-.03-.56Z"/>
  <path class="st2" d="M355.91,113.29h1.55c.1-.49.16-.99.2-1.5h-1.5c-.05.51-.13,1.01-.25,1.5Z"/>
  <path class="st2" d="M342.75,120.83v1.55c.49.13.99.23,1.5.29v-1.52c-.51-.08-1.02-.18-1.5-.33Z"/>
  <path class="st2" d="M344.25,121.15v1.52c.49.06.99.11,1.5.11v-1.5c-.51,0-1.01-.05-1.5-.12Z"/>
  <path class="st2" d="M201.36,148.37h1.5v-24.18c-.49.06-.99.09-1.5.09v24.09Z"/>
  <path class="st2" d="M199.86,124.19v24.18h1.5v-24.09c-.51,0-1.01-.03-1.5-.09Z"/>
  <path class="st2" d="M201.36,98.91c6.4,0,11.61,5.05,11.91,11.38h1.5c-.3-7.15-6.19-12.88-13.41-12.88s-13.11,5.73-13.41,12.88h1.5c.29-6.33,5.5-11.38,11.91-11.38Z"/>
  <path class="st2" d="M189.68,113.29h-1.52c1.06,5.76,5.81,10.25,11.7,10.9v-1.52c-5.07-.64-9.16-4.45-10.18-9.39Z"/>
  <path class="st2" d="M202.86,122.67v1.52c5.89-.66,10.64-5.14,11.7-10.9h-1.52c-1.03,4.94-5.11,8.75-10.18,9.39Z"/>
  <path class="st2" d="M187.97,111.79h1.5c-.02-.31-.05-.62-.05-.94,0-.19.02-.37.03-.56h-1.5c0,.19-.03.37-.03.56,0,.32.03.63.05.94Z"/>
  <path class="st2" d="M213.29,110.84c0,.32-.02.63-.05.94h1.5c.02-.31.05-.62.05-.94,0-.19-.02-.37-.03-.56h-1.5c0,.19.03.37.03.56Z"/>
  <path class="st2" d="M213.25,111.79c-.04.51-.1,1.01-.2,1.5h1.52c.09-.49.15-.99.19-1.5h-1.5Z"/>
  <path class="st2" d="M189.47,111.79h-1.5c.04.51.09,1.01.19,1.5h1.52c-.1-.49-.16-.99-.2-1.5Z"/>
  <path class="st2" d="M201.36,122.78c-.51,0-1.01-.04-1.5-.1v1.52c.49.06.99.09,1.5.09v-1.5Z"/>
  <path class="st2" d="M201.36,122.78v1.5c.51,0,1.01-.03,1.5-.09v-1.52c-.49.06-.99.1-1.5.1Z"/>
  <path class="st2" d="M201.36,100.41c5.57,0,10.11,4.38,10.41,9.88h1.5c-.29-6.33-5.5-11.38-11.91-11.38s-11.61,5.05-11.91,11.38h1.5c.29-5.49,4.84-9.88,10.41-9.88Z"/>
  <path class="st2" d="M191.22,113.29h-1.55c1.03,4.94,5.11,8.75,10.18,9.39v-1.52c-4.23-.61-7.65-3.77-8.63-7.87Z"/>
  <path class="st2" d="M202.86,121.16v1.52c5.07-.64,9.16-4.45,10.18-9.39h-1.55c-.99,4.1-4.4,7.26-8.63,7.87Z"/>
  <path class="st2" d="M190.92,110.84c0-.19.02-.37.03-.56h-1.5c0,.19-.03.37-.03.56,0,.32.02.63.05.94h1.5c-.03-.31-.05-.62-.05-.94Z"/>
  <path class="st2" d="M190.97,111.79h-1.5c.04.51.1,1.01.2,1.5h1.55c-.12-.49-.21-.99-.25-1.5Z"/>
  <path class="st2" d="M213.27,110.29h-1.5c0,.19.03.37.03.56,0,.32-.02.63-.05.94h1.5c.02-.31.05-.62.05-.94,0-.19-.02-.37-.03-.56Z"/>
  <path class="st2" d="M211.49,113.29h1.55c.1-.49.16-.99.2-1.5h-1.5c-.05.51-.13,1.01-.25,1.5Z"/>
  <path class="st2" d="M201.36,121.28v1.5c.51,0,1.01-.04,1.5-.1v-1.52c-.49.07-.99.12-1.5.12Z"/>
  <path class="st2" d="M199.86,121.16v1.52c.49.06.99.1,1.5.1v-1.5c-.51,0-1.01-.05-1.5-.12Z"/>
  <path class="st0" d="M750.48,61.49c-.08,0-.15-.06-.33-.22-.38-.33-1.07-.94-1.91-1.01-1.39-.12-1.9.32-2.34.71-.27.23-.52.45-.9.52-.45.09-3.95.09-4.32-.03l-.05-.02-.02-.05c-.74-1.45-2.04-2.51-3.56-2.9-1.41-.37-2.87-.12-4.09.7-1.42.94-2.17,2.58-2.01,4.38.16,1.82,1.24,3.37,2.81,4.06,2.69,1.17,5.19.22,6.86-2.61l.02-.04h.04c.36-.14,3.86-.13,4.32-.05.29.06.56.27.88.52.49.38,1.09.86,1.96.86,1,0,1.87-.77,2.29-1.15.2-.18.28-.25.36-.25h5.33v5.72h6.54v5.9l-.04.04s-.09.04-.14.04c-.05,0-.16,0-.2.03-.04.04-.04.15-.03.2,0,.05,0,.1-.04.14l-.04.04h-.05s-9.49,0-9.49,0l-.03-.09c-.77-2.59-3.14-3.3-4.94-3.11-2.04.21-4.21,1.59-4.43,4.2-.27,3.23,1.77,4.94,3.6,5.42,2.02.53,4.63-.17,5.9-2.93l.04-.09.1.02c.65.13,2.31.06,3.92,0,2.19-.09,4.25-.18,4.77.13.11.06.2.21.33.4.14.21.31.46.51.62,1.14.87,2.53.93,3.62.16,1.15-.81,1.6-2.28,1.14-3.76-.12-.38-.57-.81-.84-1.07-.2-.19-.25-.25-.25-.33v-5.74h11.48v5.54c0,.08-.06.15-.31.44-.34.38-.9,1.03-1.03,1.53-.3,1.16.1,2.42.98,3.15,1.53,1.26,3.26.81,4.22-.13,1-.99,1.41-2.72.08-4.38-.09-.11-.26-.14-.35-.15-.06,0-.17-.03-.17-.14v-5.84h11.48v5.54c0,.09-.08.17-.24.35-.47.5-1.45,1.53-1.05,3.16.3,1.24,1.09,2.04,2.21,2.27,1.25.26,2.64-.27,3.39-1.27.69-.93.72-2.12.06-3.34-.11-.2-.27-.38-.43-.56-.23-.26-.45-.5-.51-.8-.05-.28-.11-5.01.11-5.31l.03-.05h.06c3.27-.37,5.4-2.69,5.31-5.79v-.15s.15.03.15.03c.45.08,1.14.04,1.88,0,.48-.03.97-.05,1.45-.05,1.12,0,2.12.15,2.49.82.42.74.32,2.76.22,4.71-.07,1.42-.14,2.76,0,3.47l.02.1-.09.04c-3.01,1.32-3.51,4.26-2.7,6.43.8,2.15,2.98,3.88,6.04,2.93,2.03-.63,3.37-2.46,3.41-4.64.03-1.68-.78-3.78-3.14-4.61l-.08-.03v-.09l-.03-7.83c.06-.34.33-.62.6-.91.3-.32.62-.64.73-1.06.31-1.16.04-2.27-.74-3.05-.82-.82-2.06-1.12-3.31-.79-.42.11-.91.59-1.21.87-.21.2-.27.26-.35.26h-5.33v-11.48h5.13c.09,0,.17.07.35.24.48.45,1.49,1.4,3.05,1.14,1.08-.18,1.91-.87,2.28-1.91.41-1.12.2-2.39-.52-3.23-.72-.83-1.88-1.13-3.25-.85-.5.1-1.06.64-1.36.93-.2.2-.27.25-.35.25h-5.33v-11.48h5.44c.11,0,.13.11.14.17.01.09.04.26.15.35,1.28,1.02,2.58,1.23,3.66.59,1.14-.68,1.82-2.22,1.58-3.58-.13-.71-.62-1.95-2.49-2.3-1.5-.28-2.4.65-2.83,1.1-.16.17-.23.24-.33.24h-5.33v-5.92h-5.52v-5.74c0-.14.67-.92.67-.92.41-.25,6.98-.23,7.54-.11.55.11.71.48.86.8.07.16.14.32.25.45,2.16,2.51,4.95,2.39,6.76,1.17,1.75-1.18,2.97-3.71,1.54-6.47-.85-1.64-2.52-2.57-4.45-2.49-2.02.09-3.74,1.25-4.48,3.04l-.04.09h-.1c-1.05-.16-2.35-.08-3.61,0-1.38.09-2.81.18-3.91-.03-.29-.05-.54-.28-.81-.52-.3-.27-.65-.57-1.08-.66-1.32-.27-2.51.04-3.27.87-.73.79-.94,1.95-.59,3.18.11.39.56.91.83,1.22.22.25.26.31.26.38v5.74h-11.48v-5.74c0-.08.06-.15.31-.39.34-.34.91-.91,1.03-1.37.51-1.93-.41-2.92-1-3.34-1.12-.79-2.8-.8-3.91-.03-1.05.73-1.4,2-.99,3.57.11.42.59.91.87,1.21.2.21.26.27.26.35v5.74h-11.48v-5.74c0-.08.04-.12.37-.44.23-.22.54-.52.63-.67.55-.94.57-1.85.06-2.95-.16-.35-.58-.75-.83-.99-.18-.17-.22-.21-.24-.27-.08-.32-.05-4.62.04-4.9l.03-.05c.26-.28.61-.49.94-.68.3-.18.61-.36.85-.6,1.42-1.43,1.81-3.5,1.01-5.41-.78-1.88-2.5-3.05-4.48-3.05h-.01c-3.02,0-4.52,2.12-4.88,3.94-.39,1.99.38,4.49,3.01,5.56l.09.04v.1c-.11.68-.05,1.52,0,2.33.06.89.11,1.81-.02,2.54-.06.29-.27.54-.51.83-.39.47-.87,1.05-.88,2.01,0,.97.56,1.58.97,2.04.21.23.37.41.42.59.19.67.11,1.77.03,2.93-.07,1-.15,2.03-.03,2.7l.03.15h-6.56v5.92h-5.33c-.09,0-.16-.07-.33-.24-.38-.39-1.19-1.2-2.3-1.17-1,.03-1.88.79-2.31,1.16-.21.18-.29.25-.37.25h-10.8v6.3l-.09.03c-2.49.78-3.24,3.07-3.12,4.79.13,1.94,1.38,4.09,3.87,4.52,3.13.53,5.15-1.38,5.76-3.52.59-2.07-.07-4.67-2.88-5.82l-.08-.03-.04-2.83h7.58c.09,0,.16.07.33.25.39.39,1.19,1.2,2.32,1.2s1.93-.81,2.32-1.2c.17-.18.25-.25.33-.25h5.33v11.48h-5.33c-.08,0-.14-.05-.35-.26-.3-.29-.79-.77-1.21-.87-1.46-.38-2.69-.07-3.45.86-.79.96-.95,2.44-.39,3.59.49,1.01,1.43,1.56,2.64,1.56.03,0,.07,0,.1,0,1.15-.03,1.94-.82,2.32-1.2.17-.17.24-.24.33-.24h4.95l.38.38v11.1h-5.33ZM737.34,63.68c-.19.54-.64.9-1.23.99-.1.02-.2.02-.3.02-.85,0-1.36-.64-1.49-1.33-.15-.78.17-1.67,1.06-1.87.67-.15,1.24.01,1.63.45.4.45.53,1.15.32,1.74ZM749.26,79.25c-.21.48-.65.77-1.24.83-.07,0-.13,0-.2,0-.95,0-1.53-.71-1.62-1.46-.09-.76.32-1.66,1.45-1.83.5-.07.99.14,1.33.58.41.54.53,1.3.29,1.87ZM808.72,76.81c.59-.09,1.1.1,1.44.54.39.5.48,1.23.23,1.82-.23.53-.68.85-1.29.91-.07,0-.14.01-.21.01-.92,0-1.42-.66-1.51-1.36-.11-.82.33-1.77,1.33-1.93ZM808.51,15.73c.66-.13,1.24.05,1.63.53.4.49.51,1.21.26,1.79-.23.54-.7.86-1.34.92-.04,0-.09,0-.13,0-.88,0-1.46-.77-1.57-1.54-.09-.66.15-1.5,1.15-1.71ZM737.11,43.4c-.28.36-.69.55-1.18.55-.23,0-.47-.04-.72-.12-.67-.22-.94-.93-.91-1.54.04-.73.46-1.29,1.09-1.43.81-.18,1.47.05,1.82.61.37.58.32,1.39-.1,1.93ZM763.57,3.48c.73-.17,1.42.1,1.79.7.39.63.32,1.42-.17,2.02l-.04.05-1.82.02c-.41-.04-.73-.73-.77-1.32-.05-.76.33-1.31,1-1.46ZM759.24,28.97h38.24v36.79c0,.46-1.22,1.45-1.66,1.45h-36.59V28.97Z"/>
  <path class="st0" d="M787.22,57.16v-17.73h-17.73v17.49l.23.23h17.49ZM772.92,42.66h10.87v11.08h-10.87v-11.08Z"/>
  <path class="st0" d="M593.19,72.16l.16.17-.15.17c-1.71,1.93-2.23,4.55-1.36,6.84.84,2.21,2.82,3.71,5.29,3.99,1.16-.08,2.35-.1,3.56-.1,1.91,0,3.86.07,5.77.14,3.4.12,6.92.25,10.17-.03,2.59-.22,4.66-1.73,5.54-4.03.88-2.28.36-4.77-1.39-6.64l-.15-.16.14-.17c2.42-2.86,2.42-6.46,0-8.97l-.16-.16.14-.17c2.38-2.84,2.38-6.53.01-8.97l-.16-.17.15-.17c1.66-1.89,2.2-4.35,1.45-6.59-.73-2.16-2.56-3.73-4.92-4.22-2.97.28-6.4.1-9.72-.07-3.84-.2-7.81-.41-11.1.1-2.22.34-4.04,2-4.77,4.31-.73,2.32-.17,4.73,1.46,6.29l.17.16-.15.18c-2.38,2.84-2.38,6.53-.01,8.97l.16.16-.15.17c-2.42,2.86-2.42,6.46,0,8.97ZM597.09,46.17h.07s19.47-.04,19.47-.04c1.88.29,2.69,1.75,2.68,3.07-.01,1.29-.83,2.71-2.65,2.97-1.41.2-2.93.27-4.5.27-1.89,0-3.85-.1-5.78-.2-3.07-.16-6.24-.32-9.01-.07h-.04s-.04,0-.04,0c-1.56-.32-2.6-1.46-2.65-2.91-.05-1.45.91-2.66,2.44-3.08ZM597.09,55.48h.07s19.47-.04,19.47-.04c1.88.29,2.69,1.75,2.68,3.07-.01,1.29-.83,2.71-2.65,2.97-1.41.2-2.93.27-4.5.27-1.89,0-3.85-.1-5.78-.2-3.07-.16-6.24-.32-9.01-.07h-.04s-.04,0-.04,0c-1.56-.32-2.6-1.46-2.65-2.91-.05-1.45.91-2.66,2.44-3.08ZM597.09,64.78h.07s19.47-.04,19.47-.04c1.88.29,2.69,1.75,2.68,3.07-.01,1.29-.83,2.71-2.65,2.97-1.41.2-2.93.27-4.5.27-1.89,0-3.85-.1-5.78-.2-3.07-.16-6.24-.32-9.01-.07h-.04s-.04,0-.04,0c-1.56-.32-2.6-1.46-2.65-2.91-.05-1.45.91-2.66,2.44-3.08ZM597.09,74.09h.07s19.47-.04,19.47-.04c1.88.29,2.69,1.75,2.68,3.07-.01,1.29-.83,2.71-2.65,2.97-1.41.2-2.93.27-4.5.27-1.89,0-3.85-.1-5.78-.2-3.07-.16-6.24-.32-9.01-.07h-.04s-.04,0-.04,0c-1.56-.32-2.6-1.46-2.65-2.91-.05-1.45.91-2.66,2.44-3.08Z"/>
  <path class="st0" d="M640.23,82.16c8.73,2.24,21.36,1.76,28.62-3.5,3.6-2.61,5.57-6.16,5.85-10.55.91-14.01-5.46-27.03-16.63-33.98l-.22-.14.15-.21c2.39-3.55,4.89-8.08,3-11.62-1.83-3.43-9.2-3.72-12.84-3.4-4.2.37-6.84,1.67-7.86,3.86-1.53,3.31.89,7.89,3.19,11.15l.15.22-.22.14c-8.21,5.15-14,13.6-15.87,23.17-2.78,14.24,1.13,21.91,12.68,24.87ZM643.37,23.83c.7-1.23,2.58-1.63,5.2-1.86,1.32-.11,8.73-.24,9.71,1.94,1.04,2.29-2.76,7.97-4.11,9.46l-.07.08-6.72-.02c-.61-.28-2.85-4-3.12-4.57-1.2-2.5-1.47-4-.88-5.04ZM630,63.43c.62-11.1,6.44-21.28,15.2-26.54l.06-.04,11.13.07.06.04c9.98,6.09,16.16,19.01,15.02,31.4-.34,3.67-2.37,6.58-6.05,8.65-4.02,2.26-9.33,3.15-14.43,3.15-5.57,0-10.89-1.07-14.01-2.6-6.29-3.08-7.33-7.69-6.97-14.13Z"/>
  <path class="st0" d="M649.48,68.89l.25.02-.02.25c-.11,1.32.17,2.32.76,2.66.28.16.59.15.88-.05.51-.34.98-1.26.76-2.82l-.04-.28h.29c2.89-.03,5.16-1.69,5.76-4.24.63-2.62-.68-5.2-3.32-6.57-.45-.23-1.27-.51-2.22-.83-2.31-.78-4.94-1.67-5.3-2.86-.37-1.24.06-1.99.49-2.41,1.23-1.19,3.9-1.13,5.36-.64.51.17,1.04.55,1.55.91,1.18.84,2.01,1.34,2.73.64.48-.46.58-.96.32-1.53-.73-1.57-4.01-3.08-5.33-2.94l-.28.03v-.51c.05-1.38,0-2.54-1.14-2.72-.35-.05-.6,0-.78.14-.37.31-.37,1.07-.38,1.69,0,.48,0,.85-.16,1.07l-.06.08-.1.02c-3.99.81-5.76,3.01-5.26,6.55.41,2.96,3.6,3.99,6.42,4.9,2.05.66,3.81,1.23,4.31,2.45.68,1.68.12,2.67-.47,3.19-1.52,1.35-4.93,1.18-6.84.12-.36-.2-.74-.52-1.15-.87-.69-.59-1.47-1.26-2.13-1.26-.03,0-.06,0-.09,0-.28.03-.52.18-.75.46-.38.47-.45.98-.2,1.55.8,1.83,4.65,3.68,6.13,3.78Z"/>
  <path class="st0" d="M449.85,47.96c2.25.84,4.64.11,6.1-1.85l2.56-4.92v8.92l-5.89,24.38c-.44,4.17,2.3,6.63,5.03,7.15,2.5.47,5.45-.59,6.39-4.04l3.57-18.01.79,17.24c.46,3.37,3.02,4.9,5.36,4.9h.01c2.36,0,4.94-1.52,5.41-4.93l-1.05-39.18.38.2c.77.41,1.47,1.03,2.15,1.62.59.52,1.14,1.01,1.73,1.37,1.04.63,2.38,1.13,3.68,1.61.7.26,1.36.5,1.97.77l.15.06v9.09h-4.33c-1.04,0-2.65,1.54-2.77,2.66.04,2.94.01,5.98-.01,8.91-.05,5.19-.09,10.55.21,15.77.19.38.44.84.75,1.14.26.26.59.39.91.53.23.1.46.19.63.33.17.14.28.33.38.53.12.23.25.47.5.66.96.72,3.85.82,4.91.16.35-.21.5-.44.65-.67.29-.43.56-.72,1.38-.72.19,0,.4.01.66.05.34.04.5.35.64.62.08.16.16.32.27.42.94.9,3.89,1,4.98.37.27-.16.49-.47.69-.74.16-.23.3-.42.47-.53.21-.13.47-.22.74-.3.36-.11.73-.23,1.06-.48.79-.59,1.27-1.46,1.37-2.52v-23.22c-.26-1.12-.72-1.86-1.5-2.35-.17-.11-1.19-.59-1.33-.63h-4.46s0-14.39,0-14.39c-.03-.14-.51-1.19-.65-1.44-.91-1.53-2.81-2.32-4.64-3.08-1.24-.52-2.41-1.01-3.29-1.71-.37-.3-.79-.78-1.23-1.3-.38-.44-.77-.9-1.13-1.23-2.26-2.04-6.71-5.23-9.19-5.93-2.37-.67-8.85-.65-11.45-.42-3.47.31-7.78,4.36-12.82,12.05l-.29.45c-1.27,1.92-3.63,5.51-3.76,7.31-.21,2.92,1.58,4.65,3.32,5.3ZM498.65,54.63h.11c.29.03.63.05.93.27l.1.07v.13s.13,23.8.13,23.8l-.02.05c-.29.6-1.18.63-1.77.66h-.17c-1.86.11-4.04.16-6.24.16s-4.41-.05-6.3-.15h-.23c-.65-.03-1.64-.07-1.91-.86v-.08c.02-2.93-.04-5.95-.1-8.86-.08-4.15-.16-8.44,0-12.6,0-.13,0-.27,0-.41,0-.83,0-2.07,1.18-2.17,2.25.14,4.61.06,6.9-.02,2.46-.09,5.01-.17,7.39.02ZM492.88,52.36h-2.41v-8.62l2.41-.44v9.05ZM448.78,42.77c.15-1.04,1.22-2.74,2-3.98.16-.25.31-.48.42-.68,1.17-1.93,7.26-11.63,11.67-12.89,2.08-.59,9.06-.4,11.25.17,2.31.6,7.01,4.14,8.87,5.87.34.31.62.66.9,1,.35.43.68.83,1.09,1.15.7.55,2.02,1.14,3.3,1.72,1.71.78,3.33,1.51,3.92,2.26.61.78.75,1.81.37,2.69-.37.86-1.16,1.42-2.11,1.51-.96.08-2.65-.73-4.27-1.52-.99-.48-1.93-.94-2.54-1.11l-.09-.05-5.89-4.65c-.52-.2-.91-.19-1.19.02-.93.7-.66,3.51-.52,5.02.04.45.08.82.08,1.08.1,5.29.27,10.67.43,15.87.17,5.44.34,11.06.44,16.59,0,.23.01.49.03.77.06,1.66.15,3.93-.86,5-.74.78-1.87,1.08-3.01.79-1.15-.29-2.05-1.12-2.34-2.18l-1.1-22.88c-.34-.89-.98-1.43-1.71-1.4-.75.02-1.4.66-1.71,1.67-1.06,3.55-1.69,7.6-2.29,11.51-.55,3.56-1.11,7.24-2.01,10.57-.38,1.4-1.17,2.38-2.23,2.76-.31.11-.64.17-.97.17-.76,0-1.56-.28-2.33-.83-1.78-1.27-1.71-3.07-1.42-4.67.78-4.18,1.91-8.44,3-12.57,1-3.77,2.04-7.67,2.79-11.49l-.03-13.08c-.11-.5-.44-.89-.89-1.02-.47-.14-1,.03-1.43.46-.79.79-1.6,2.68-2.38,4.5-.67,1.56-1.3,3.04-1.95,3.95-.93,1.3-2.44,1.45-3.53,1.01-1.28-.51-1.99-1.73-1.79-3.1Z"/>
  <path class="st0" d="M492.17,27.66l5.82.04,29.48-17.67c1.09-1.24,4.4-5.35,3.15-8.09-1.24-2.72-7.1-1.78-9.62-.93l-9.99,6.93-23.01-1.85c-1.98,1.01-2.97,1.98-2.93,2.88.04,1.03.81,1.32,1.69,1.66l.33.13c2.11.84,4.37,1.59,6.56,2.31,1.58.52,3.21,1.06,4.77,1.63.03.01.07.01.12.01.1,0,.26.01.36.15.11.13.08.31.06.43l-.02.1-5.1,3.49h-.08c-1.03.04-2.23-.33-3.53-.7-1.58-.44-3.21-.9-4.31-.62-.42.11-3.09,1.74-3.44,2.1-.75.77-.75,1.6,0,2.39l9.69,5.62ZM485.1,20.78c0-.32,1.21-.92,1.22-.92.87-.28,2.36.14,3.95.59,1.59.45,3.23.91,4.2.66.9-.73,2.06-1.42,3.28-2.16,1.57-.94,3.18-1.91,4.18-2.94.44-.46.63-.94.55-1.41-.08-.47-.43-.89-.98-1.18-1.8-.94-4.38-1.74-6.88-2.51-1.46-.45-2.83-.87-4.01-1.31-.1-.04-.21-.07-.33-.11-.53-.18-1.13-.38-1.47-.78l-.38-.46,22.88,1.95c.29-.05.59-.2.91-.36l.09-.05c1.43-.73,2.85-1.85,4.35-3.03,2.57-2.02,5.22-4.12,8.17-4.36,2.45-.2,3.7.07,3.83.82.23,1.38-1.91,4.53-3,5.33l-28.23,17-4.37.05-.06-.04-7.89-4.63v-.14Z"/>
  <path class="st0" d="M467.3,20.06c3.2.7,5.89-.19,7.57-2.53,1.87-2.6,2.04-6.47.4-9.19-1.5-2.5-4.22-3.61-7.64-3.15-4.04.55-5.98,3.99-6.11,7.15-.12,2.95,1.32,6.73,5.78,7.72ZM464.3,10.1c.82-1.68,2.35-2.68,4.33-2.8,3.57-.22,5.41,2.41,5.6,4.97.19,2.55-1.22,5.43-4.75,5.73-.19.02-.38.02-.57.02-1.78,0-3.26-.74-4.21-2.12-1.13-1.64-1.29-3.98-.4-5.8Z"/>
  <path class="st0" d="M485.97,62.69c.18.79,1.03.95,1.38.98,2.03.19,6.76.22,8.64,0,.92-.11,1.34-.57,1.43-1.59.09-.98.25-2.62-.43-3.44-.27-.33-.65-.51-1.17-.56-.91-.08-2.78-.14-4.6-.14-1.72,0-3.39.05-4.15.19-.67.12-1.06.54-1.14,1.21-.08.66-.08,2.81.04,3.35ZM488.04,60.37h7.1v1.02h-7.1v-1.02Z"/>
  <path class="st0" d="M310.65,69.63c.06.21.13.42.19.64h9.79v12.57c.03.06.32.5.46.66h46.35c.61-.64.5-5.45.43-8.36-.05-2.09-.09-3.89.04-4.63l.03-.18.18-.03c4.91-.7,8.83-4.37,9.77-9.13.84-4.32.82-22.23-.04-26.25-.91-4.27-5.18-8.31-9.33-8.81-3.53-.43-13.17-.43-16.9,0-6.24.72-10.05,7.03-9.7,12.47v.1s-.06.08-.06.08c-.2.22-.49.13-2.21-.71-.41-.2-.79-.39-.94-.44-2.81-.97-14.56-.94-18.14-.59-3.7.37-7.84,3.44-9.22,6.84-1.55,3.81-1.44,19.66-1.06,24.07.06.64.21,1.16.38,1.7ZM333.45,81.41l.06-.3c.42-1.97.61-4.04.79-6.04.18-2.05.37-4.17.82-6.19.34-1.55.93-3.23,2.73-3.98,1.56-.65,8.36-.59,10.09-.42,1.49.14,2.53.73,3.49,1.95l.04.07c1.09,3.03,1.41,6.4,1.72,9.65.16,1.65.32,3.35.58,4.97l.05.29h-20.37ZM343.53,59.54c-3.15,0-4.91-2.39-5.23-4.76-.34-2.51.92-5.46,4.46-6.03,2-.32,3.74.32,4.9,1.8,1.29,1.64,1.61,4.03.8,5.95-.73,1.72-2.23,2.79-4.22,3-.25.03-.48.04-.71.04ZM312.83,46.35c0-.36,1.17-2.57,1.31-2.81,1.44-2.36,4.11-4,6.97-4.28,3.06-.3,14.71-.38,17.41.66,1.21.47,2.14,1.38,2.89,2.11.49.48.91.89,1.28,1.06.41.19.71.21.94.06.79-.53.65-3.01.57-4.5-.03-.63-.06-1.12-.03-1.43.42-4.77,3.9-8.51,8.27-8.91,3.67-.33,11.09-.33,14.97,0,4.3.37,7.77,3.62,8.24,7.71.47,4.06.27,8.63.08,13.04-.17,3.78-.34,7.69-.08,11.23v.03s0,.03,0,.03c-.65,3.52-2.86,6.22-5.92,7.21-.32.1-.78.18-1.31.26-1.29.21-3.07.49-3.07,1.33v12.26h-9.29l-.03-.22c-.16-1.35-.28-2.75-.41-4.1-.22-2.4-.44-4.89-.85-7.25-1-5.83-3.55-8.03-8.81-7.59l-.9.07.74-.53c.43-.31.85-.58,1.26-.85,1.37-.89,2.55-1.66,3.39-3.3,1.81-3.55.64-7.84-2.72-9.98-2.5-1.58-5.31-1.72-7.72-.37-2.5,1.4-4.16,4.19-4.12,6.94.04,2.83,1.77,5.28,4.87,6.9.04.02.09.03.15.03.1,0,.25.01.36.15.12.16.11.39.05.72l-.04.22-.22-.02c-7.95-.59-8.53,6.49-9.09,13.34-.17,2.05-.32,3.98-.68,5.62l-.04.2h-8.05v-12.26c-.05-.22-.9-1.07-1.13-1.12h-9.21s0-21.69,0-21.69Z"/>
  <path class="st0" d="M348.93,12.23c.41,5.28,3.95,10.57,10.95,10.57.05,0,.1,0,.15,0,4.47-.05,7.96-2.11,9.83-5.8,2.02-3.99,1.67-9.04-.87-12.58-2.41-3.36-6.41-4.82-11.25-4.13-6.62.96-9.21,6.85-8.82,11.93ZM358.28,2.54c4.29-.63,8.28,1.35,9.91,4.93,1.73,3.78.85,7.98-2.24,10.7-1.71,1.5-3.79,2.27-5.91,2.27-1.68,0-3.37-.48-4.92-1.45-3.13-1.96-4.62-5.71-3.82-9.55.79-3.74,3.46-6.38,6.98-6.9Z"/>
  <path class="st0" d="M321.25,31.29c5.76,4.58,12.07,2.44,15.51-1.5,3.45-3.96,4.74-10.54-.59-15.65-3.13-2.99-6.93-3.96-10.72-2.73-4.24,1.38-7.62,5.24-8.41,9.6-.71,3.9.79,7.55,4.22,10.28ZM319.99,18.97c1.07-3.07,3.55-5.01,6.98-5.48,5.78-.79,9.26,2.95,10.14,7,.86,3.93-.68,8.9-6.07,10.53-1.08.33-2.13.49-3.12.49-2.26,0-4.26-.83-5.8-2.44-2.44-2.54-3.31-6.69-2.12-10.1Z"/>
  <path class="st0" d="M174.97,56.15l.06,14.66c.79,2.52,2.91,4.54,6.5,6.18,8.91,4.06,24.9,4.38,34.91.69,4.57-1.69,7.26-3.93,8.2-6.87v-14.54s5.34-2.05,5.34-2.05v.37c-.01.32.05.62.12.95.05.27.11.54.13.83.1,1.55.21,13.91-.16,14.71-.15.33-.4.57-.63.8-.44.42-.85.82-.86,1.88-.01,1.44,2.21,7.48,3.05,9.31.02.05.05.11.07.17.01.03.02.06.03.09.23-.92.69-2.06,1.18-3.27,1.13-2.81,2.54-6.31,1.39-8.06-.14-.21-.33-.34-.53-.47-.28-.19-.6-.4-.69-.85-.09-2.11-.04-4.25,0-6.32.08-3.65.17-7.43-.5-11v-.05s0-.05,0-.05c.06-.31.57-.52,2.93-1.37,2.11-.76,5.63-2.03,6.01-2.88v-.84c-.63-.91-1.79-1.25-2.9-1.58-.29-.08-.57-.17-.84-.26-6.53-2.18-13.27-4.13-19.79-6.02-5.94-1.72-12.09-3.5-18.06-5.45-5.55,1.76-11.24,3.4-16.74,4.99-7.02,2.03-14.28,4.13-21.31,6.48-.27.09-.55.17-.84.26-1.12.33-2.27.66-2.9,1.58v.77l1.4,1.15,15.43,6.07ZM221.77,70.38c0,1.1-3.57,3.4-4.14,3.69-4.33,2.21-11.06,3.32-17.8,3.32s-13.48-1.11-17.8-3.32c-.57-.29-4.14-2.59-4.14-3.69v-13.02l21.83,8.3,22.06-8.3v13.02ZM199.71,37.92l.07.02,35.27,10.44v.2c-.04.43-.39.56-.6.63-.05.02-.1.04-.15.06-.28.15-3.4,1.46-3.74,1.46h0c-.14,0-.44-.11-1.26-.42-.77-.29-1.72-.65-2.19-.74-4.28-.83-8.85-1.29-13.27-1.73-4.31-.43-8.77-.88-12.98-1.67-.77-.23-1.42-.1-1.86.34-.39.38-.55.96-.4,1.46.15.52.58.88,1.22,1.03l26.32,3.43-26.39,10.34-.09-.04c-5.26-2.12-10.65-4.19-15.85-6.2-4.18-1.61-8.51-3.28-12.75-4.96-.53-.21-1.11-.43-1.71-.65-1.4-.52-2.84-1.06-3.99-1.64-.04-.02-.1-.04-.15-.06-.21-.08-.56-.2-.58-.63v-.2s35.08-10.47,35.08-10.47Z"/>
  <g>
    <path class="st3" d="M308.62,163.43h7.62v1.98h-5.21v3.64h4.85v1.96h-4.85v5.6h-2.41v-13.18Z"/>
    <path class="st3" d="M323.02,176.62l-.16-1.06h-.06c-.58.75-1.57,1.28-2.81,1.28-1.93,0-3-1.38-3-2.83,0-2.4,2.14-3.62,5.65-3.61v-.16c0-.63-.25-1.67-1.93-1.66-.93,0-1.91.3-2.56.71l-.48-1.56c.72-.44,1.95-.84,3.45-.84,3.05,0,3.93,1.93,3.93,4.01v3.43c0,.87.04,1.71.15,2.29h-2.17ZM322.71,171.96c-1.7-.02-3.32.34-3.32,1.79,0,.93.61,1.37,1.37,1.37.96,0,1.65-.62,1.88-1.32.05-.17.07-.36.07-.52v-1.32Z"/>
    <path class="st3" d="M327.6,169.93c0-1.1-.03-2.01-.08-2.83h2.06l.11,1.4h.06c.46-.74,1.33-1.61,2.93-1.61,1.26,0,2.23.7,2.64,1.76h.04c.33-.52.73-.92,1.16-1.2.54-.36,1.14-.56,1.94-.56,1.57,0,3.18,1.08,3.18,4.13v5.61h-2.35v-5.27c0-1.59-.55-2.52-1.7-2.52-.82,0-1.43.58-1.67,1.27-.08.23-.12.53-.12.8v5.71h-2.35v-5.51c0-1.34-.54-2.28-1.64-2.28-.9,0-1.51.71-1.73,1.36-.09.24-.12.53-.12.8v5.63h-2.35v-6.69Z"/>
    <path class="st3" d="M346.74,164.43c0,.72-.52,1.3-1.37,1.3-.8,0-1.32-.58-1.32-1.3,0-.73.54-1.3,1.35-1.3s1.34.56,1.34,1.3ZM344.19,176.62v-9.52h2.41v9.52h-2.41Z"/>
    <path class="st3" d="M349.19,162.73h2.41v13.89h-2.41v-13.89Z"/>
    <path class="st3" d="M356.77,164.43c0,.72-.52,1.3-1.37,1.3-.8,0-1.32-.58-1.32-1.3,0-.73.54-1.3,1.35-1.3s1.34.56,1.34,1.3ZM354.22,176.62v-9.52h2.41v9.52h-2.41Z"/>
    <path class="st3" d="M360.92,172.52c.06,1.73,1.4,2.48,2.94,2.48,1.11,0,1.9-.17,2.63-.44l.36,1.66c-.82.35-1.95.6-3.33.6-3.09,0-4.9-1.91-4.9-4.83,0-2.63,1.59-5.12,4.66-5.12s4.1,2.54,4.1,4.63c0,.45-.04.81-.08,1.01h-6.37ZM365.11,170.85c.01-.88-.37-2.32-1.99-2.32-1.48,0-2.1,1.35-2.21,2.32h4.19Z"/>
    <path class="st3" d="M369.2,174.4c.53.33,1.57.7,2.43.7,1.06,0,1.53-.44,1.53-1.07s-.39-.97-1.56-1.39c-1.86-.64-2.64-1.65-2.63-2.78,0-1.67,1.39-2.98,3.61-2.98,1.05,0,1.97.26,2.53.57l-.48,1.69c-.4-.23-1.17-.55-2.01-.55s-1.33.42-1.33,1.01.46.89,1.66,1.33c1.73.61,2.53,1.5,2.54,2.9,0,1.74-1.35,2.99-3.87,2.99-1.15,0-2.2-.28-2.9-.67l.48-1.75Z"/>
  </g>
  <g>
    <path class="st3" d="M442.67,165.46h-3.76v-2.02h9.97v2.02h-3.8v11.16h-2.41v-11.16Z"/>
    <path class="st3" d="M457.87,171.76c0,3.5-2.46,5.07-4.89,5.07-2.69,0-4.77-1.85-4.77-4.91s2.06-5.05,4.93-5.05,4.73,2,4.73,4.88ZM450.68,171.87c0,1.83.92,3.22,2.37,3.22s2.34-1.33,2.34-3.25c0-1.5-.66-3.21-2.32-3.21s-2.38,1.65-2.38,3.24Z"/>
    <path class="st3" d="M468.37,173.77c0,1.13.04,2.08.08,2.85h-2.1l-.12-1.44h-.06c-.4.67-1.34,1.65-3.05,1.65s-3.32-1.04-3.32-4.15v-5.58h2.41v5.18c0,1.58.5,2.59,1.78,2.59.96,0,1.59-.67,1.84-1.29.08-.21.13-.47.13-.75v-5.75h2.41v6.67Z"/>
    <path class="st3" d="M470.97,170.16c0-1.28-.03-2.21-.08-3.06h2.08l.09,1.81h.07c.47-1.34,1.58-2.03,2.61-2.03.23,0,.37,0,.56.05v2.27c-.21-.04-.42-.07-.71-.07-1.15,0-1.94.73-2.16,1.82-.04.21-.06.47-.06.73v4.94h-2.41v-6.46Z"/>
    <path class="st3" d="M480.51,164.43c0,.72-.52,1.3-1.37,1.3-.8,0-1.32-.58-1.32-1.3,0-.73.54-1.3,1.35-1.3s1.34.56,1.34,1.3ZM477.96,176.62v-9.52h2.41v9.52h-2.41Z"/>
    <path class="st3" d="M482.85,174.4c.53.33,1.57.7,2.43.7,1.06,0,1.53-.44,1.53-1.07s-.39-.97-1.56-1.39c-1.86-.64-2.64-1.65-2.63-2.78,0-1.67,1.39-2.98,3.61-2.98,1.05,0,1.97.26,2.53.57l-.48,1.69c-.4-.23-1.17-.55-2.01-.55s-1.33.42-1.33,1.01.46.89,1.66,1.33c1.73.61,2.53,1.5,2.54,2.9,0,1.74-1.35,2.99-3.87,2.99-1.15,0-2.2-.28-2.9-.67l.48-1.75Z"/>
    <path class="st3" d="M493.87,164.37v2.73h2.29v1.79h-2.29v4.2c0,1.17.31,1.76,1.23,1.76.41,0,.72-.05.93-.11l.05,1.83c-.36.14-.99.25-1.75.25-.89,0-1.62-.3-2.07-.78-.52-.55-.75-1.42-.75-2.67v-4.48h-1.36v-1.79h1.36v-2.16l2.36-.57Z"/>
    <path class="st3" d="M497.87,174.4c.53.33,1.57.7,2.43.7,1.06,0,1.53-.44,1.53-1.07s-.39-.97-1.56-1.39c-1.86-.64-2.64-1.65-2.63-2.78,0-1.67,1.39-2.98,3.61-2.98,1.05,0,1.97.26,2.53.57l-.48,1.69c-.4-.23-1.17-.55-2.01-.55s-1.33.42-1.33,1.01.46.89,1.66,1.33c1.73.61,2.53,1.5,2.54,2.9,0,1.74-1.35,2.99-3.87,2.99-1.15,0-2.2-.28-2.9-.67l.48-1.75Z"/>
    <path class="st3" d="M518.6,176.62c-.33-.33-.63-.66-1.03-1.1-.99.84-2.21,1.31-3.72,1.31-2.91,0-4.35-1.82-4.35-3.72,0-1.77,1.03-3.01,2.54-3.82v-.06c-.62-.73-1.05-1.7-1.05-2.64,0-1.65,1.25-3.38,3.69-3.38,1.86,0,3.28,1.15,3.28,2.96,0,1.36-.8,2.47-2.73,3.45v.07c.91,1.05,1.92,2.22,2.65,3.01.57-.87.97-2.11,1.19-3.5h2.16c-.35,2.03-.97,3.71-2.06,4.94.73.81,1.46,1.61,2.26,2.47h-2.82ZM516.42,174.17c-.8-.83-2.05-2.22-3.3-3.64-.62.42-1.34,1.11-1.34,2.21,0,1.3.96,2.34,2.42,2.34.94,0,1.72-.39,2.22-.9ZM513.16,166.37c0,.79.37,1.44.95,2.11,1.13-.7,1.77-1.3,1.77-2.22,0-.71-.41-1.49-1.32-1.49s-1.4.77-1.4,1.6Z"/>
    <path class="st3" d="M431.05,187.08c1.07-.17,2.42-.28,3.84-.28,2.47,0,4.16.51,5.37,1.52,1.28,1.04,2.07,2.61,2.07,4.85,0,2.36-.81,4.11-2.05,5.25-1.32,1.19-3.41,1.79-5.97,1.79-1.4,0-2.46-.07-3.26-.17v-12.96ZM433.46,198.25c.34.06.85.06,1.34.06,3.13.02,4.99-1.72,4.99-5.06.01-2.91-1.66-4.58-4.69-4.58-.75,0-1.29.07-1.64.14v9.44Z"/>
    <path class="st3" d="M449.67,200.09l-.16-1.06h-.06c-.58.75-1.57,1.28-2.81,1.28-1.93,0-3-1.38-3-2.83,0-2.4,2.14-3.62,5.65-3.61v-.16c0-.63-.25-1.67-1.93-1.66-.93,0-1.91.3-2.56.71l-.48-1.56c.72-.44,1.95-.84,3.45-.84,3.05,0,3.93,1.93,3.93,4.01v3.43c0,.87.04,1.71.15,2.29h-2.17ZM449.35,195.42c-1.7-.02-3.32.34-3.32,1.79,0,.93.61,1.37,1.37,1.37.96,0,1.65-.62,1.88-1.32.05-.17.07-.36.07-.52v-1.32Z"/>
    <path class="st3" d="M455.55,190.56l1.72,5.11c.19.59.4,1.32.54,1.85h.06c.15-.54.33-1.25.51-1.87l1.49-5.08h2.57l-2.39,6.5c-1.31,3.55-2.19,5.13-3.31,6.12-.95.83-1.93,1.14-2.53,1.22l-.54-2.03c.4-.1.91-.32,1.39-.66.46-.3.99-.86,1.32-1.52.09-.16.15-.3.15-.42,0-.11-.03-.25-.13-.47l-3.5-8.74h2.65Z"/>
    <path class="st3" d="M467.99,194.05v1.66h-4.99v-1.66h4.99Z"/>
    <path class="st3" d="M472.6,200.09l-4.27-13.18h2.63l1.8,6c.51,1.66.95,3.21,1.29,4.8h.04c.35-1.56.83-3.17,1.34-4.77l1.92-6.03h2.56l-4.56,13.18h-2.76Z"/>
    <path class="st3" d="M483.37,187.9c0,.72-.52,1.3-1.37,1.3-.8,0-1.32-.58-1.32-1.3,0-.73.54-1.3,1.35-1.3s1.34.56,1.34,1.3ZM480.82,200.09v-9.52h2.41v9.52h-2.41Z"/>
    <path class="st3" d="M485.71,197.87c.53.33,1.57.7,2.43.7,1.06,0,1.53-.44,1.53-1.07s-.39-.97-1.56-1.39c-1.86-.64-2.64-1.65-2.63-2.78,0-1.67,1.39-2.98,3.61-2.98,1.05,0,1.97.26,2.53.57l-.48,1.69c-.4-.23-1.17-.55-2.01-.55s-1.33.42-1.33,1.01.46.89,1.66,1.33c1.73.61,2.53,1.5,2.54,2.9,0,1.74-1.35,2.99-3.87,2.99-1.15,0-2.2-.28-2.9-.67l.48-1.75Z"/>
    <path class="st3" d="M496.53,187.9c0,.72-.52,1.3-1.37,1.3-.8,0-1.32-.58-1.32-1.3,0-.73.54-1.3,1.35-1.3s1.33.56,1.34,1.3ZM493.98,200.09v-9.52h2.41v9.52h-2.41Z"/>
    <path class="st3" d="M501.75,187.84v2.73h2.29v1.79h-2.29v4.2c0,1.17.31,1.76,1.23,1.76.41,0,.72-.05.93-.11l.05,1.83c-.36.14-.99.25-1.75.25-.89,0-1.62-.3-2.07-.78-.52-.55-.75-1.42-.75-2.67v-4.48h-1.36v-1.79h1.36v-2.16l2.36-.57Z"/>
    <path class="st3" d="M514.78,195.23c0,3.5-2.46,5.07-4.89,5.07-2.69,0-4.77-1.85-4.77-4.91s2.06-5.05,4.93-5.05,4.73,2,4.73,4.88ZM507.6,195.33c0,1.83.92,3.22,2.37,3.22s2.34-1.33,2.34-3.25c0-1.5-.66-3.21-2.32-3.21s-2.38,1.65-2.38,3.24Z"/>
    <path class="st3" d="M516.77,193.62c0-1.28-.03-2.21-.08-3.06h2.08l.09,1.81h.07c.47-1.34,1.58-2.02,2.61-2.02.24,0,.37,0,.57.05v2.27c-.21-.04-.42-.07-.71-.07-1.15,0-1.94.73-2.16,1.82-.04.21-.06.47-.06.73v4.94h-2.41v-6.46Z"/>
    <path class="st3" d="M523.61,197.87c.53.33,1.57.7,2.43.7,1.06,0,1.53-.44,1.53-1.07s-.39-.97-1.56-1.39c-1.86-.64-2.64-1.65-2.63-2.78,0-1.67,1.39-2.98,3.61-2.98,1.05,0,1.97.26,2.53.57l-.48,1.69c-.4-.23-1.17-.55-2.01-.55s-1.33.42-1.33,1.01.46.89,1.66,1.33c1.73.61,2.53,1.5,2.54,2.9,0,1.74-1.35,2.99-3.87,2.99-1.15,0-2.2-.28-2.9-.67l.48-1.75Z"/>
  </g>
  <g>
    <path class="st3" d="M596.1,163.62c1.07-.17,2.42-.28,3.84-.28,2.47,0,4.16.51,5.37,1.52,1.28,1.04,2.07,2.61,2.07,4.85,0,2.36-.81,4.11-2.05,5.25-1.32,1.19-3.41,1.79-5.97,1.79-1.4,0-2.46-.07-3.26-.17v-12.96ZM598.51,174.78c.34.06.85.06,1.34.06,3.13.02,4.99-1.72,4.99-5.06.01-2.91-1.66-4.58-4.69-4.58-.75,0-1.29.07-1.64.14v9.44Z"/>
    <path class="st3" d="M618.23,171.76c0,3.5-2.46,5.07-4.89,5.07-2.69,0-4.77-1.85-4.77-4.91s2.06-5.05,4.93-5.05,4.73,2,4.73,4.88ZM611.05,171.87c0,1.83.92,3.22,2.37,3.22s2.34-1.33,2.34-3.25c0-1.5-.66-3.21-2.32-3.21s-2.38,1.65-2.38,3.24Z"/>
    <path class="st3" d="M620,169.93c0-1.1-.04-2.01-.08-2.83h2.1l.12,1.43h.06c.42-.74,1.45-1.64,3.04-1.64s3.38,1.07,3.38,4.08v5.66h-2.41v-5.37c0-1.37-.5-2.41-1.82-2.41-.96,0-1.62.68-1.87,1.41-.07.2-.11.49-.11.76v5.6h-2.41v-6.69Z"/>
    <path class="st3" d="M640.02,171.76c0,3.5-2.46,5.07-4.89,5.07-2.69,0-4.77-1.85-4.77-4.91s2.06-5.05,4.93-5.05,4.73,2,4.73,4.88ZM632.83,171.87c0,1.83.92,3.22,2.37,3.22s2.34-1.33,2.34-3.25c0-1.5-.66-3.21-2.32-3.21s-2.38,1.65-2.38,3.24Z"/>
    <path class="st3" d="M641.78,170.16c0-1.28-.03-2.21-.08-3.06h2.09l.09,1.81h.07c.47-1.34,1.58-2.03,2.61-2.03.23,0,.37,0,.57.05v2.27c-.21-.04-.42-.07-.71-.07-1.15,0-1.94.73-2.16,1.82-.04.21-.06.47-.06.73v4.94h-2.41v-6.46Z"/>
    <path class="st3" d="M648.41,174.4c.53.33,1.57.7,2.43.7,1.06,0,1.53-.44,1.53-1.07s-.39-.97-1.56-1.39c-1.86-.64-2.64-1.65-2.63-2.78,0-1.67,1.39-2.98,3.61-2.98,1.05,0,1.97.26,2.53.57l-.48,1.69c-.4-.23-1.17-.55-2.01-.55s-1.33.42-1.33,1.01.46.89,1.66,1.33c1.73.61,2.53,1.5,2.54,2.9,0,1.74-1.35,2.99-3.87,2.99-1.15,0-2.2-.28-2.9-.67l.48-1.75Z"/>
    <path class="st3" d="M668.72,176.62c-.33-.33-.63-.66-1.03-1.1-.99.84-2.21,1.31-3.72,1.31-2.91,0-4.35-1.82-4.35-3.72,0-1.77,1.03-3.01,2.54-3.82v-.06c-.62-.73-1.05-1.7-1.05-2.64,0-1.65,1.25-3.38,3.69-3.38,1.86,0,3.28,1.15,3.28,2.96,0,1.36-.8,2.47-2.73,3.45v.07c.91,1.05,1.92,2.22,2.65,3.01.57-.87.97-2.11,1.19-3.5h2.16c-.35,2.03-.97,3.71-2.06,4.94.73.81,1.46,1.61,2.26,2.47h-2.82ZM666.54,174.17c-.8-.83-2.05-2.22-3.3-3.64-.62.42-1.34,1.11-1.34,2.21,0,1.3.96,2.34,2.42,2.34.94,0,1.72-.39,2.22-.9ZM663.28,166.37c0,.79.37,1.44.95,2.11,1.13-.7,1.77-1.3,1.77-2.22,0-.71-.41-1.49-1.32-1.49s-1.4.77-1.4,1.6Z"/>
    <path class="st3" d="M593.52,197.46c.78.45,1.96.84,3.19.84,1.54,0,2.4-.72,2.4-1.8,0-1-.67-1.58-2.34-2.19-2.18-.77-3.57-1.94-3.57-3.83,0-2.16,1.81-3.79,4.67-3.79,1.43,0,2.47.3,3.16.65l-.58,1.94c-.48-.25-1.4-.63-2.63-.63-1.53,0-2.18.81-2.18,1.59,0,1.01.76,1.49,2.52,2.16,2.29.87,3.39,2.02,3.39,3.92,0,2.12-1.6,3.96-5,3.96-1.4,0-2.84-.4-3.56-.84l.53-1.99Z"/>
    <path class="st3" d="M604.16,193.72c0-1.23-.04-2.26-.08-3.16h2.12l.12,1.46h.04c.7-1.08,1.81-1.68,3.26-1.68,2.18,0,4,1.87,4,4.84,0,3.45-2.16,5.11-4.33,5.11-1.2,0-2.19-.5-2.68-1.27h-.04v4.93h-2.41v-10.24ZM606.57,196.1c0,.23.02.45.07.66.25.98,1.09,1.68,2.12,1.68,1.53,0,2.42-1.27,2.42-3.14,0-1.69-.82-3.06-2.37-3.06-.99,0-1.9.72-2.15,1.78-.05.19-.09.41-.09.61v1.46Z"/>
    <path class="st3" d="M625.24,195.23c0,3.5-2.46,5.07-4.89,5.07-2.69,0-4.77-1.85-4.77-4.91s2.06-5.05,4.93-5.05,4.73,2,4.73,4.88ZM618.06,195.33c0,1.83.92,3.22,2.37,3.22s2.34-1.33,2.34-3.25c0-1.5-.66-3.21-2.32-3.21s-2.38,1.65-2.38,3.24Z"/>
    <path class="st3" d="M627.77,193.4c0-1.1-.04-2.01-.08-2.83h2.1l.12,1.43h.06c.42-.74,1.45-1.64,3.04-1.64s3.38,1.07,3.38,4.08v5.66h-2.41v-5.37c0-1.37-.5-2.41-1.82-2.41-.96,0-1.62.68-1.87,1.41-.07.2-.11.49-.11.76v5.6h-2.41v-6.69Z"/>
    <path class="st3" d="M639.39,197.87c.53.33,1.57.7,2.43.7,1.06,0,1.53-.44,1.53-1.07s-.39-.97-1.56-1.39c-1.86-.64-2.64-1.65-2.63-2.78,0-1.67,1.39-2.98,3.61-2.98,1.05,0,1.97.26,2.53.57l-.48,1.69c-.4-.23-1.17-.55-2.01-.55s-1.33.42-1.33,1.01.46.89,1.66,1.33c1.73.61,2.53,1.5,2.54,2.9,0,1.74-1.35,2.99-3.87,2.99-1.15,0-2.2-.28-2.9-.67l.48-1.75Z"/>
    <path class="st3" d="M657.25,195.23c0,3.5-2.46,5.07-4.89,5.07-2.69,0-4.77-1.85-4.77-4.91s2.06-5.05,4.93-5.05,4.73,2,4.73,4.88ZM650.07,195.33c0,1.83.92,3.22,2.37,3.22s2.34-1.33,2.34-3.25c0-1.5-.66-3.21-2.32-3.21s-2.38,1.65-2.38,3.24Z"/>
    <path class="st3" d="M659.78,193.62c0-1.28-.03-2.21-.08-3.06h2.09l.09,1.81h.07c.47-1.34,1.58-2.02,2.61-2.02.24,0,.37,0,.57.05v2.27c-.21-.04-.42-.07-.71-.07-1.15,0-1.94.73-2.16,1.82-.04.21-.06.47-.06.73v4.94h-2.41v-6.46Z"/>
    <path class="st3" d="M667.18,197.87c.53.33,1.57.7,2.43.7,1.06,0,1.53-.44,1.53-1.07s-.39-.97-1.56-1.39c-1.86-.64-2.64-1.65-2.63-2.78,0-1.67,1.39-2.98,3.61-2.98,1.05,0,1.97.26,2.53.57l-.48,1.69c-.4-.23-1.17-.55-2.01-.55s-1.33.42-1.33,1.01.46.89,1.66,1.33c1.73.61,2.53,1.5,2.54,2.9,0,1.74-1.35,2.99-3.87,2.99-1.15,0-2.2-.28-2.9-.67l.48-1.75Z"/>
  </g>
  <g>
    <path class="st3" d="M762.32,165.46h-3.76v-2.02h9.97v2.02h-3.8v11.16h-2.41v-11.16Z"/>
    <path class="st3" d="M770.17,172.52c.06,1.73,1.4,2.48,2.94,2.48,1.11,0,1.9-.17,2.63-.44l.36,1.66c-.82.35-1.95.6-3.33.6-3.09,0-4.9-1.91-4.9-4.83,0-2.63,1.59-5.12,4.66-5.12s4.1,2.54,4.1,4.63c0,.45-.04.81-.08,1.01h-6.37ZM774.35,170.85c0-.88-.37-2.32-1.99-2.32-1.48,0-2.1,1.35-2.21,2.32h4.19Z"/>
    <path class="st3" d="M785.55,176.33c-.5.24-1.49.49-2.69.49-2.99,0-4.91-1.92-4.91-4.87s1.95-5.07,5.3-5.07c.89,0,1.77.19,2.33.43l-.43,1.81c-.39-.19-.96-.37-1.82-.37-1.84,0-2.92,1.34-2.92,3.09,0,1.95,1.28,3.07,2.92,3.07.83,0,1.42-.18,1.89-.38l.32,1.79Z"/>
    <path class="st3" d="M787.34,162.73h2.41v5.66h.04c.3-.45.7-.82,1.2-1.09.47-.27,1.05-.42,1.64-.42,1.62,0,3.33,1.07,3.33,4.13v5.61h-2.41v-5.34c0-1.38-.5-2.43-1.83-2.43-.94,0-1.6.63-1.87,1.35-.08.21-.11.46-.11.73v5.7h-2.41v-13.89Z"/>
    <path class="st3" d="M741.36,199.7c-.57.28-1.83.59-3.42.59-4.18,0-6.73-2.63-6.73-6.64,0-4.33,3.03-6.95,7.06-6.95,1.58,0,2.71.32,3.19.58l-.52,1.92c-.61-.28-1.49-.52-2.57-.52-2.69,0-4.62,1.68-4.62,4.85,0,2.91,1.69,4.75,4.59,4.75.97,0,1.99-.19,2.63-.48l.4,1.9Z"/>
    <path class="st3" d="M752.05,195.23c0,3.5-2.46,5.07-4.89,5.07-2.69,0-4.77-1.85-4.77-4.91s2.06-5.05,4.93-5.05,4.73,2,4.73,4.88ZM744.86,195.33c0,1.83.92,3.22,2.37,3.22s2.34-1.33,2.34-3.25c0-1.5-.66-3.21-2.32-3.21s-2.38,1.65-2.38,3.24Z"/>
    <path class="st3" d="M754.03,193.4c0-1.1-.04-2.01-.08-2.83h2.06l.11,1.4h.06c.46-.74,1.33-1.61,2.93-1.61,1.26,0,2.23.7,2.64,1.76h.04c.33-.52.73-.92,1.16-1.2.54-.36,1.14-.56,1.94-.56,1.57,0,3.18,1.08,3.18,4.13v5.61h-2.35v-5.27c0-1.59-.55-2.52-1.7-2.52-.82,0-1.43.58-1.67,1.27-.08.23-.12.53-.12.8v5.71h-2.35v-5.51c0-1.34-.54-2.28-1.64-2.28-.9,0-1.51.71-1.73,1.36-.09.24-.12.53-.12.8v5.63h-2.35v-6.69Z"/>
    <path class="st3" d="M770.61,193.72c0-1.23-.04-2.26-.08-3.16h2.12l.12,1.46h.04c.7-1.08,1.81-1.68,3.26-1.68,2.18,0,4,1.87,4,4.84,0,3.45-2.16,5.11-4.33,5.11-1.2,0-2.19-.5-2.68-1.27h-.04v4.93h-2.41v-10.24ZM773.02,196.1c0,.23.02.45.07.66.25.98,1.09,1.68,2.12,1.68,1.53,0,2.42-1.27,2.42-3.14,0-1.69-.82-3.06-2.37-3.06-.99,0-1.9.72-2.15,1.78-.05.19-.09.41-.09.61v1.46Z"/>
    <path class="st3" d="M787.41,200.09l-.17-1.06h-.06c-.58.75-1.57,1.28-2.81,1.28-1.93,0-3-1.38-3-2.83,0-2.4,2.14-3.62,5.65-3.61v-.16c0-.63-.25-1.67-1.93-1.66-.93,0-1.91.3-2.56.71l-.48-1.56c.72-.44,1.95-.84,3.45-.84,3.05,0,3.93,1.93,3.93,4.01v3.43c0,.87.04,1.71.15,2.29h-2.17ZM787.09,195.42c-1.7-.02-3.33.34-3.33,1.79,0,.93.61,1.37,1.37,1.37.96,0,1.65-.62,1.88-1.32.05-.17.07-.36.07-.52v-1.32Z"/>
    <path class="st3" d="M791.99,193.4c0-1.1-.04-2.01-.08-2.83h2.1l.12,1.43h.06c.42-.74,1.45-1.64,3.04-1.64s3.38,1.07,3.38,4.08v5.66h-2.41v-5.37c0-1.37-.5-2.41-1.82-2.41-.96,0-1.62.68-1.87,1.41-.07.2-.11.49-.11.76v5.6h-2.41v-6.69Z"/>
    <path class="st3" d="M805.73,187.9c0,.72-.52,1.3-1.37,1.3-.8,0-1.32-.58-1.32-1.3,0-.73.54-1.3,1.35-1.3s1.33.56,1.34,1.3ZM803.17,200.09v-9.52h2.41v9.52h-2.41Z"/>
    <path class="st3" d="M809.88,195.99c.06,1.73,1.4,2.48,2.94,2.48,1.11,0,1.9-.17,2.63-.44l.36,1.66c-.82.35-1.95.6-3.33.6-3.09,0-4.9-1.91-4.9-4.83,0-2.63,1.59-5.12,4.66-5.12s4.1,2.54,4.1,4.63c0,.45-.04.81-.08,1.01h-6.37ZM814.06,194.31c0-.88-.37-2.32-1.99-2.32-1.48,0-2.1,1.35-2.21,2.32h4.19Z"/>
    <path class="st3" d="M818.15,197.87c.53.33,1.57.7,2.43.7,1.06,0,1.53-.44,1.53-1.07s-.39-.97-1.56-1.39c-1.86-.64-2.64-1.65-2.63-2.78,0-1.67,1.39-2.98,3.61-2.98,1.05,0,1.97.26,2.53.57l-.48,1.69c-.4-.23-1.17-.55-2.01-.55s-1.33.42-1.33,1.01.46.89,1.66,1.33c1.73.61,2.53,1.5,2.54,2.9,0,1.74-1.35,2.99-3.87,2.99-1.15,0-2.2-.28-2.9-.67l.48-1.75Z"/>
  </g>
  <g>
    <path class="st3" d="M171.07,176.62v-5.49l-4.17-7.7h2.76l1.57,3.38c.45.97.79,1.72,1.15,2.61h.04c.33-.84.7-1.66,1.14-2.62l1.59-3.38h2.72l-4.38,7.63v5.55h-2.41Z"/>
    <path class="st3" d="M186.44,171.76c0,3.5-2.46,5.07-4.89,5.07-2.69,0-4.77-1.85-4.77-4.91s2.06-5.05,4.93-5.05,4.73,2,4.73,4.88ZM179.26,171.87c0,1.83.92,3.22,2.37,3.22s2.34-1.33,2.34-3.25c0-1.5-.66-3.21-2.32-3.21s-2.38,1.65-2.38,3.24Z"/>
    <path class="st3" d="M196.94,173.77c0,1.13.04,2.08.08,2.85h-2.1l-.12-1.44h-.06c-.4.67-1.34,1.65-3.05,1.65s-3.32-1.04-3.32-4.15v-5.58h2.41v5.18c0,1.58.5,2.59,1.78,2.59.96,0,1.59-.67,1.84-1.29.08-.21.13-.47.13-.75v-5.75h2.41v6.67Z"/>
    <path class="st3" d="M202.31,164.37v2.73h2.29v1.79h-2.29v4.2c0,1.17.31,1.76,1.23,1.76.41,0,.72-.05.94-.11l.05,1.83c-.36.14-.99.25-1.75.25-.89,0-1.62-.3-2.07-.78-.52-.55-.75-1.42-.75-2.67v-4.48h-1.36v-1.79h1.36v-2.16l2.36-.57Z"/>
    <path class="st3" d="M206.42,162.73h2.41v5.66h.04c.3-.45.7-.82,1.2-1.09.47-.27,1.05-.42,1.65-.42,1.62,0,3.33,1.07,3.33,4.13v5.61h-2.41v-5.34c0-1.38-.5-2.43-1.83-2.43-.94,0-1.6.63-1.87,1.35-.08.21-.1.46-.1.73v5.7h-2.41v-13.89Z"/>
    <path class="st3" d="M230.07,176.62c-.33-.33-.63-.66-1.03-1.1-.99.84-2.21,1.31-3.72,1.31-2.91,0-4.35-1.82-4.35-3.72,0-1.77,1.03-3.01,2.54-3.82v-.06c-.62-.73-1.05-1.7-1.05-2.64,0-1.65,1.25-3.38,3.69-3.38,1.86,0,3.28,1.15,3.28,2.96,0,1.36-.8,2.47-2.73,3.45v.07c.91,1.05,1.92,2.22,2.65,3.01.57-.87.97-2.11,1.19-3.5h2.16c-.35,2.03-.97,3.71-2.06,4.94.73.81,1.46,1.61,2.26,2.47h-2.82ZM227.88,174.17c-.8-.83-2.05-2.22-3.3-3.64-.62.42-1.34,1.11-1.34,2.21,0,1.3.96,2.34,2.42,2.34.94,0,1.72-.39,2.22-.9ZM224.62,166.37c0,.79.37,1.44.95,2.11,1.13-.7,1.77-1.3,1.77-2.22,0-.71-.41-1.49-1.32-1.49s-1.4.77-1.4,1.6Z"/>
    <path class="st3" d="M163.35,197.46c.78.45,1.96.84,3.19.84,1.54,0,2.4-.72,2.4-1.8,0-1-.67-1.58-2.34-2.19-2.18-.77-3.57-1.94-3.57-3.83,0-2.16,1.81-3.79,4.67-3.79,1.43,0,2.47.3,3.16.65l-.58,1.94c-.48-.25-1.4-.63-2.63-.63-1.53,0-2.18.81-2.18,1.59,0,1.01.76,1.49,2.52,2.16,2.29.87,3.39,2.02,3.39,3.92,0,2.12-1.6,3.96-5,3.96-1.4,0-2.84-.4-3.56-.84l.53-1.99Z"/>
    <path class="st3" d="M176.14,187.84v2.73h2.29v1.79h-2.29v4.2c0,1.17.31,1.76,1.23,1.76.41,0,.72-.05.94-.11l.05,1.83c-.36.14-.99.25-1.75.25-.89,0-1.62-.3-2.07-.78-.52-.55-.75-1.42-.75-2.67v-4.48h-1.36v-1.79h1.36v-2.16l2.36-.57Z"/>
    <path class="st3" d="M188.77,197.23c0,1.13.04,2.08.08,2.85h-2.1l-.12-1.44h-.06c-.4.67-1.34,1.65-3.05,1.65s-3.32-1.04-3.32-4.15v-5.58h2.41v5.18c0,1.58.5,2.59,1.78,2.59.96,0,1.59-.67,1.84-1.29.08-.21.13-.47.13-.75v-5.75h2.41v6.67Z"/>
    <path class="st3" d="M200.15,186.2v11.22c0,.98.03,2.02.08,2.67h-2.14l-.11-1.51h-.04c-.57,1.07-1.72,1.72-3.09,1.72-2.27,0-4.07-1.94-4.07-4.87-.01-3.19,1.98-5.09,4.27-5.09,1.3,0,2.24.54,2.67,1.24h.04v-5.39h2.41ZM197.74,194.53c0-.19-.01-.43-.05-.63-.21-.93-.99-1.69-2.07-1.69-1.55,0-2.41,1.37-2.41,3.13s.87,3.03,2.38,3.03c.98,0,1.84-.67,2.08-1.71.05-.21.07-.45.07-.7v-1.43Z"/>
    <path class="st3" d="M204.43,195.99c.06,1.73,1.4,2.48,2.94,2.48,1.11,0,1.9-.17,2.63-.44l.36,1.66c-.82.35-1.95.6-3.33.6-3.09,0-4.9-1.91-4.9-4.83,0-2.63,1.59-5.12,4.66-5.12s4.1,2.54,4.1,4.63c0,.45-.04.81-.08,1.01h-6.37ZM208.62,194.31c.01-.88-.37-2.32-1.99-2.32-1.48,0-2.1,1.35-2.21,2.32h4.19Z"/>
    <path class="st3" d="M212.83,193.4c0-1.1-.03-2.01-.08-2.83h2.1l.12,1.43h.06c.42-.74,1.45-1.64,3.04-1.64,1.66,0,3.39,1.07,3.39,4.08v5.66h-2.41v-5.37c0-1.37-.5-2.41-1.82-2.41-.96,0-1.62.68-1.87,1.41-.07.2-.11.49-.11.76v5.6h-2.41v-6.69Z"/>
    <path class="st3" d="M226.67,187.84v2.73h2.29v1.79h-2.29v4.2c0,1.17.31,1.76,1.23,1.76.41,0,.72-.05.94-.11l.05,1.83c-.36.14-.99.25-1.75.25-.89,0-1.62-.3-2.07-.78-.52-.55-.75-1.42-.75-2.67v-4.48h-1.36v-1.79h1.36v-2.16l2.36-.57Z"/>
    <path class="st3" d="M230.67,197.87c.53.33,1.57.7,2.43.7,1.06,0,1.53-.44,1.53-1.07s-.39-.97-1.56-1.39c-1.86-.64-2.64-1.65-2.63-2.78,0-1.67,1.39-2.98,3.61-2.98,1.05,0,1.97.26,2.53.57l-.48,1.69c-.4-.23-1.17-.55-2.01-.55s-1.33.42-1.33,1.01.46.89,1.66,1.33c1.73.61,2.53,1.5,2.54,2.9,0,1.74-1.35,2.99-3.87,2.99-1.15,0-2.2-.28-2.9-.67l.48-1.75Z"/>
  </g>
  <rect class="st2" y="110.29" width="4.17" height="3"/>
</svg>