<?xml version="1.0" encoding="UTF-8"?>
<svg id="Layer_1" data-name="Layer 1" xmlns="http://www.w3.org/2000/svg" viewBox="0 0 30.7 23.86">
  <defs>
    <style>
      .cls-1 {
        fill: #fff;
      }

      .cls-2 {
        fill: none;
      }
    </style>
  </defs>
  <path class="cls-2" d="M20.67,5.26h2.33c.61-.69,1.76-2.58,1.46-3.25-.27-.6-2.57-.68-3.39-.61-1.07,.09-1.58,.26-1.77,.59-.18,.32-.08,.84,.33,1.68,.14,.29,.87,1.45,1.04,1.59h0Z"/>
  <path class="cls-2" d="M2.21,18.99c.38-.03,.79-.05,1.2-.05,.69,0,1.42,.04,2.12,.07,1.29,.07,2.62,.14,3.75-.02,.56-.08,.81-.52,.82-.91,0-.4-.25-.86-.82-.95H2.15c-.47,.15-.77,.52-.75,.96,.01,.44,.33,.79,.82,.89Z"/>
  <path class="cls-2" d="M2.21,15.57c.38-.03,.79-.05,1.2-.05,.69,0,1.42,.04,2.12,.07,1.29,.07,2.62,.14,3.75-.02,.56-.08,.81-.52,.82-.91,0-.4-.25-.86-.82-.95H2.15c-.47,.15-.77,.52-.75,.96,.01,.44,.33,.79,.82,.89Z"/>
  <path class="cls-2" d="M16.86,21.51c2.17,1.06,7.25,1.51,10.29-.2,1.3-.73,2.01-1.75,2.13-3.04,.41-4.48-1.81-9.15-5.42-11.36l-3.99-.03c-3.16,1.91-5.25,5.59-5.48,9.61-.13,2.3,.24,3.94,2.46,5.03h0Zm2.2-5.11c.12-.14,.25-.22,.4-.24,.33-.03,.66,.25,.95,.5,.14,.12,.28,.24,.39,.3,.64,.35,1.81,.42,2.3-.02,.25-.22,.29-.55,.13-.97-.15-.37-.79-.58-1.47-.79-1.03-.33-2.32-.75-2.49-1.95-.19-1.38,.51-2.28,2.03-2.6,.01-.06,.01-.17,.01-.26,0-.26,0-.59,.2-.76,.11-.09,.25-.12,.43-.09,.6,.1,.59,.74,.58,1.17,.59,.01,1.75,.56,2.04,1.19,.13,.28,.08,.55-.16,.77-.4,.38-.84,.06-1.24-.22-.18-.13-.36-.26-.52-.31-.56-.19-1.42-.15-1.78,.19-.18,.17-.22,.4-.13,.7,.1,.35,1.1,.68,1.83,.93,.36,.12,.67,.22,.84,.32,1.05,.54,1.57,1.57,1.32,2.62-.24,.99-1.09,1.65-2.2,1.7,.06,.6-.15,.96-.37,1.11-.09,.06-.19,.09-.28,.09-.08,0-.16-.02-.24-.07-.26-.16-.4-.54-.38-1.06-.59-.1-1.99-.75-2.32-1.49-.12-.27-.08-.53,.1-.76h.01Z"/>
  <path class="cls-2" d="M2.21,12.14c.38-.03,.79-.05,1.2-.05,.69,0,1.42,.04,2.12,.07,1.29,.07,2.62,.14,3.75-.02,.56-.08,.81-.52,.82-.91,0-.4-.25-.86-.82-.95H2.15c-.47,.15-.77,.52-.75,.96,.01,.44,.33,.79,.82,.89Z"/>
  <path class="cls-2" d="M2.21,22.42c.38-.03,.79-.05,1.2-.05,.69,0,1.42,.04,2.12,.07,1.29,.07,2.62,.14,3.75-.02,.56-.08,.81-.52,.82-.91,0-.4-.25-.86-.82-.95H2.15c-.47,.15-.77,.52-.75,.96,.01,.44,.33,.79,.82,.89Z"/>
  <path class="cls-1" d="M.68,19.68l.06,.06-.06,.06c-.63,.71-.82,1.67-.5,2.52,.31,.81,1.04,1.36,1.95,1.47,.43-.03,.86-.04,1.31-.04,.7,0,1.42,.03,2.12,.05,1.25,.04,2.55,.09,3.74-.01,.95-.08,1.71-.64,2.04-1.48,.32-.84,.13-1.75-.51-2.44l-.06-.06,.05-.06c.89-1.05,.89-2.38,0-3.3l-.06-.06,.05-.06c.88-1.04,.88-2.4,0-3.3l-.06-.06,.06-.06c.61-.7,.81-1.6,.53-2.42-.27-.79-.94-1.37-1.81-1.55-1.09,.1-2.35,.04-3.58-.03-1.41-.07-2.87-.15-4.08,.04-.82,.13-1.49,.74-1.75,1.59-.27,.85-.06,1.74,.54,2.31l.06,.06-.06,.07c-.88,1.04-.88,2.4,0,3.3l.06,.06-.06,.06c-.89,1.05-.89,2.38,0,3.3h0Zm1.43-9.56h7.19c.69,.09,.99,.63,.99,1.11,0,.47-.31,1-.97,1.09-.52,.07-1.08,.1-1.66,.1-.7,0-1.42-.04-2.13-.07-1.13-.06-2.3-.12-3.31-.03h-.03c-.57-.12-.96-.54-.97-1.07-.02-.53,.33-.98,.9-1.13h0Zm0,3.42h7.19c.69,.09,.99,.63,.99,1.11,0,.47-.31,1-.97,1.09-.52,.07-1.08,.1-1.66,.1-.7,0-1.42-.04-2.13-.07-1.13-.06-2.3-.12-3.31-.03h-.03c-.57-.12-.96-.54-.97-1.07-.02-.53,.33-.98,.9-1.13h0Zm0,3.42h7.19c.69,.09,.99,.63,.99,1.11,0,.47-.31,1-.97,1.09-.52,.07-1.08,.1-1.66,.1-.7,0-1.42-.04-2.13-.07-1.13-.06-2.3-.12-3.31-.03h-.03c-.57-.12-.96-.54-.97-1.07-.02-.53,.33-.98,.9-1.13h0Zm0,3.42h7.19c.69,.09,.99,.63,.99,1.11,0,.47-.31,1-.97,1.09-.52,.07-1.08,.1-1.66,.1-.7,0-1.42-.04-2.13-.07-1.13-.06-2.3-.12-3.31-.03h-.03c-.57-.12-.96-.54-.97-1.07-.02-.53,.33-.98,.9-1.13h0Z"/>
  <path class="cls-1" d="M17.98,23.36c3.21,.82,7.86,.65,10.53-1.29,1.32-.96,2.05-2.27,2.15-3.88,.33-5.15-2.01-9.94-6.12-12.5l-.08-.05,.06-.08c.88-1.31,1.8-2.97,1.1-4.28C24.95,.03,22.24-.08,20.9,.04c-1.55,.14-2.52,.61-2.89,1.42-.56,1.22,.33,2.9,1.17,4.1l.06,.08-.08,.05c-3.02,1.89-5.15,5-5.84,8.52-1.02,5.24,.42,8.06,4.67,9.15h0ZM19.14,1.9c.26-.45,.95-.6,1.91-.68,.49-.04,3.21-.09,3.57,.71,.38,.84-1.02,2.93-1.51,3.48l-.03,.03h-2.47c-.22-.11-1.05-1.48-1.15-1.69-.44-.92-.54-1.47-.32-1.85h0Zm-4.92,14.57c.23-4.08,2.37-7.83,5.59-9.76h.02s4.09,.01,4.09,.01h.02c3.67,2.26,5.95,7.01,5.53,11.57-.13,1.35-.87,2.42-2.23,3.18-1.48,.83-3.43,1.16-5.31,1.16-2.05,0-4.01-.39-5.15-.96-2.31-1.13-2.7-2.83-2.56-5.2h0Z"/>
  <path class="cls-1" d="M21.38,18.48h.09s0,.1,0,.1c-.04,.49,.06,.85,.28,.98,.1,.06,.22,.06,.32-.02,.19-.13,.36-.46,.28-1.04v-.1s.09,0,.09,0c1.06-.01,1.9-.62,2.12-1.56,.23-.96-.25-1.91-1.22-2.42-.17-.08-.47-.19-.82-.31-.85-.29-1.82-.61-1.95-1.05-.14-.46,.02-.73,.18-.89,.45-.44,1.43-.42,1.97-.24,.19,.06,.38,.2,.57,.33,.43,.31,.74,.49,1,.24,.18-.17,.21-.35,.12-.56-.27-.58-1.48-1.13-1.96-1.08h-.1s0-.18,0-.18c.02-.51,0-.93-.42-1-.13-.02-.22,0-.29,.05-.14,.11-.14,.39-.14,.62,0,.18,0,.31-.06,.39l-.02,.03h-.04c-1.47,.31-2.12,1.11-1.94,2.42,.15,1.09,1.32,1.47,2.36,1.8,.75,.24,1.4,.45,1.59,.9,.25,.62,.04,.98-.17,1.17-.56,.5-1.81,.43-2.52,.04-.13-.07-.27-.19-.42-.32-.25-.22-.54-.46-.78-.46h-.03c-.1,.01-.19,.07-.28,.17-.14,.17-.17,.36-.07,.57,.29,.67,1.71,1.35,2.26,1.39h0Z"/>
</svg>