<?xml version="1.0" encoding="UTF-8"?>
<svg id="Layer_1" data-name="Layer 1" xmlns="http://www.w3.org/2000/svg" viewBox="0 0 24.61 29.98">
  <defs>
    <style>
      .cls-1 {
        fill: #fff;
      }

      .cls-2 {
        fill: none;
      }
    </style>
  </defs>
  <path class="cls-2" d="M16.3,6.63c1.19,.75,2.64,.64,3.68-.28,1.05-.92,1.35-2.35,.76-3.63-.49-1.07-1.56-1.71-2.81-1.71-.18,0-.37,.01-.56,.04-1.42,.21-2.15,1.34-2.36,2.34-.27,1.31,.23,2.58,1.29,3.24h0Z"/>
  <path class="cls-2" d="M13.38,18.24c-.37-.48-.94-.68-1.59-.58-1.15,.18-1.56,1.15-1.45,1.97,.11,.83,.76,1.66,1.94,1.54,.65-.07,1.14-.41,1.37-.97,.27-.63,.16-1.42-.26-1.96h0Z"/>
  <path class="cls-2" d="M4.9,24.82v4.23h2.57c.12-.56,.17-1.23,.23-1.93,.19-2.41,.41-5.13,3.38-4.96v-.02s-.08,0-.12-.03c-1.18-.61-1.83-1.55-1.85-2.64-.01-1.07,.6-2.11,1.57-2.66,.93-.52,2.01-.47,2.96,.14,1.29,.82,1.74,2.46,1.04,3.82-.32,.63-.79,.93-1.28,1.25-.06,.04-.12,.08-.18,.12,1.77-.04,2.68,.84,3.04,2.9,.15,.86,.23,1.75,.31,2.62,.04,.46,.09,.93,.14,1.39h3v-4.23c0-.46,.69-.57,1.25-.66,.18-.03,.35-.05,.45-.09,1.03-.34,1.78-1.25,2.01-2.44-.09-1.28-.03-2.69,.03-4.04,.07-1.58,.14-3.21-.03-4.66-.16-1.39-1.34-2.49-2.8-2.61-1.39-.12-4.04-.12-5.35,0-1.48,.14-2.66,1.41-2.81,3.04,0,.1,0,.28,.01,.49,.04,.64,.08,1.53-.28,1.78-.14,.09-.31,.09-.51,0-.16-.08-.32-.23-.51-.41-.27-.27-.58-.56-.98-.72-.9-.35-4.93-.35-6.18-.23-.97,.1-1.88,.65-2.37,1.45-.1,.16-.43,.83-.45,.92v7.61h3.13c.16,0,.58,.42,.58,.58h0Z"/>
  <path class="cls-2" d="M13.6,23.32c-.73-.07-3.05-.07-3.54,.14-.57,.24-.76,.77-.87,1.31-.16,.72-.22,1.47-.29,2.2-.06,.69-.13,1.4-.26,2.09h6.89c-.09-.56-.14-1.14-.19-1.7-.11-1.15-.22-2.35-.6-3.41-.31-.4-.64-.58-1.12-.62h0Z"/>
  <path class="cls-2" d="M3.74,6.83c-.41,1.16-.11,2.58,.72,3.44,.75,.78,1.83,1.02,3.03,.65,1.83-.55,2.35-2.24,2.06-3.58-.3-1.37-1.48-2.64-3.45-2.38-1.16,.16-2,.82-2.36,1.85h0Z"/>
  <path class="cls-1" d="M.22,24.99c.02,.08,.05,.15,.07,.23H3.8v4.52s.12,.18,.17,.24H20.63c.22-.23,.18-1.96,.15-3.01-.02-.75-.03-1.4,.01-1.66v-.06s.08-.01,.08-.01c1.77-.25,3.17-1.57,3.51-3.28,.3-1.55,.29-7.99-.01-9.44-.33-1.54-1.86-2.99-3.35-3.17-1.27-.15-4.73-.15-6.08,0-2.24,.26-3.61,2.53-3.49,4.48v.04l-.02,.03c-.07,.08-.18,.05-.79-.26-.15-.07-.28-.14-.34-.16-1.01-.35-5.23-.34-6.52-.21-1.33,.13-2.82,1.24-3.31,2.46C-.09,17.09-.05,22.79,.09,24.38c.02,.23,.08,.42,.14,.61h0Zm8.2,4.24l.02-.11c.15-.71,.22-1.45,.28-2.17,.06-.74,.13-1.5,.29-2.23,.12-.56,.33-1.16,.98-1.43,.56-.23,3.01-.21,3.63-.15,.54,.05,.91,.26,1.25,.7v.03c.41,1.09,.52,2.3,.63,3.47,.06,.59,.12,1.2,.21,1.79l.02,.1h-7.32Zm3.62-7.86c-1.13,0-1.77-.86-1.88-1.71-.12-.9,.33-1.96,1.6-2.17,.72-.12,1.34,.12,1.76,.65,.46,.59,.58,1.45,.29,2.14-.26,.62-.8,1-1.52,1.08-.09,.01-.17,.01-.26,.01h0ZM1,16.62c0-.13,.42-.92,.47-1.01,.52-.85,1.48-1.44,2.51-1.54,1.1-.11,5.29-.14,6.26,.24,.44,.17,.77,.5,1.04,.76,.18,.17,.33,.32,.46,.38,.15,.07,.26,.08,.34,.02,.28-.19,.23-1.08,.2-1.62-.01-.23-.02-.4-.01-.51,.15-1.71,1.4-3.06,2.97-3.2,1.32-.12,3.99-.12,5.38,0,1.55,.13,2.79,1.3,2.96,2.77,.17,1.46,.1,3.1,.03,4.69-.06,1.36-.12,2.76-.03,4.04h0v.02c-.23,1.27-1.03,2.24-2.13,2.59-.12,.04-.28,.06-.47,.09-.46,.08-1.1,.18-1.1,.48v4.41h-3.34v-.08c-.07-.49-.11-.99-.16-1.47-.08-.86-.16-1.76-.31-2.61-.36-2.1-1.28-2.89-3.17-2.73l-.32,.03,.27-.19c.15-.11,.31-.21,.45-.31,.49-.32,.92-.6,1.22-1.19,.65-1.28,.23-2.82-.98-3.59-.9-.57-1.91-.62-2.78-.13-.9,.5-1.5,1.51-1.48,2.5,.01,1.02,.64,1.9,1.75,2.48,.01,0,.03,.01,.05,.01,.04,0,.09,0,.13,.05,.04,.06,.04,.14,.02,.26v.08s-.09,0-.09,0c-2.86-.21-3.07,2.33-3.27,4.8-.06,.74-.12,1.43-.24,2.02v.07h-2.91v-4.41c-.02-.08-.32-.38-.41-.4H1.01v-7.8h-.01Z"/>
  <path class="cls-1" d="M13.98,4.35c.15,1.9,1.42,3.8,3.94,3.8h.05c1.61-.02,2.86-.76,3.53-2.09,.73-1.43,.6-3.25-.31-4.52C20.32,.34,18.89-.19,17.15,.06c-2.38,.35-3.31,2.46-3.17,4.29h0Zm3.36-3.48c1.54-.23,2.98,.49,3.56,1.77,.62,1.36,.31,2.87-.81,3.85-.61,.54-1.36,.82-2.12,.82-.6,0-1.21-.17-1.77-.52-1.13-.7-1.66-2.05-1.37-3.43,.28-1.34,1.24-2.29,2.51-2.48Z"/>
  <path class="cls-1" d="M4.03,11.2c2.07,1.65,4.34,.88,5.58-.54,1.24-1.42,1.7-3.79-.21-5.63-1.13-1.07-2.49-1.42-3.85-.98-1.52,.5-2.74,1.88-3.02,3.45-.26,1.4,.28,2.71,1.52,3.7h0Zm-.45-4.43c.38-1.1,1.28-1.8,2.51-1.97,2.08-.28,3.33,1.06,3.65,2.52,.31,1.41-.24,3.2-2.18,3.79-.39,.12-.77,.18-1.12,.18-.81,0-1.53-.3-2.09-.88-.88-.91-1.19-2.41-.76-3.63h0Z"/>
</svg>