<?xml version="1.0" encoding="UTF-8"?>
<svg id="Layer_1" xmlns="http://www.w3.org/2000/svg" version="1.1" viewBox="0 0 18.41 18.36">
  <!-- Generator: Adobe Illustrator 29.8.2, SVG Export Plug-In . SVG Version: 2.1.1 Build 3)  -->
  <defs>
    <style>
      .st0 {
        fill: #eae4e1;
      }
    </style>
  </defs>
  <path class="st0" d="M10.32,18.36h-3.8V6.12h3.63v1.68c.09-.09.12-.12.15-.16.74-1.16,1.84-1.75,3.18-1.81.67-.03,1.37.03,2.02.19,1.54.37,2.36,1.48,2.65,2.97.16.87.23,1.76.24,2.64.03,2.16.01,4.32.01,6.47,0,.08,0,.16-.01.26h-3.8c0-.11,0-.22,0-.33,0-2.01,0-4.02,0-6.02,0-.4-.03-.8-.1-1.2-.24-1.38-1.11-1.79-2.38-1.6-.94.14-1.49.73-1.66,1.75-.08.44-.11.89-.12,1.34-.01,1.91,0,3.83,0,5.74,0,.1,0,.2,0,.33Z"/>
  <path class="st0" d="M4.09,6.12v12.24H.31V6.12h3.78Z"/>
  <path class="st0" d="M2.21,4.42C.98,4.42,0,3.44,0,2.21,0,.99.98,0,2.21,0c1.22,0,2.21.99,2.21,2.21,0,1.22-.99,2.21-2.21,2.21Z"/>
</svg>