<?xml version="1.0" encoding="UTF-8"?>
<svg id="Layer_1" data-name="Layer 1" xmlns="http://www.w3.org/2000/svg" viewBox="0 0 336 284.43">
  <defs>
    <style>
      .cls-1 {
        fill: #fff;
      }

      .cls-2 {
        fill: #554d49;
      }

      .cls-3 {
        fill: none;
      }
    </style>
  </defs>
  <rect class="cls-2" x="166.06" y="3.52" width="4.32" height="277.9"/>
  <circle class="cls-2" cx="168.23" cy="3.43" r="2.16"/>
  <circle class="cls-2" cx="168.23" cy="281.42" r="2.16"/>
  <polygon class="cls-2" points="154.84 36.22 143.23 36.22 143.23 35.14 154.45 35.14 167.86 24.12 168.54 24.96 154.84 36.22"/>
  <circle class="cls-2" cx="168.2" cy="24.54" r="1.7"/>
  <circle class="cls-1" cx="168.2" cy="24.54" r="1.37"/>
  <circle class="cls-2" cx="143.24" cy="35.61" r="1.52"/>
  <polygon class="cls-2" points="154.84 95.59 143.23 95.59 143.23 94.51 154.45 94.51 167.86 83.49 168.54 84.33 154.84 95.59"/>
  <circle class="cls-2" cx="168.2" cy="83.91" r="1.7"/>
  <circle class="cls-1" cx="168.2" cy="83.91" r="1.37"/>
  <circle class="cls-2" cx="143.24" cy="94.98" r="1.52"/>
  <polygon class="cls-2" points="154.84 154.96 143.23 154.96 143.23 153.88 154.45 153.88 167.86 142.86 168.54 143.7 154.84 154.96"/>
  <circle class="cls-2" cx="168.2" cy="143.28" r="1.7"/>
  <circle class="cls-1" cx="168.2" cy="143.28" r="1.37"/>
  <circle class="cls-2" cx="143.24" cy="154.36" r="1.52"/>
  <polygon class="cls-2" points="154.84 214.33 143.23 214.33 143.23 213.25 154.45 213.25 167.86 202.23 168.54 203.07 154.84 214.33"/>
  <circle class="cls-2" cx="168.2" cy="202.65" r="1.7"/>
  <circle class="cls-1" cx="168.2" cy="202.65" r="1.37"/>
  <circle class="cls-2" cx="143.24" cy="213.73" r="1.52"/>
  <polygon class="cls-2" points="193.22 65.91 181.61 65.91 167.91 54.64 168.6 53.81 182 64.82 193.22 64.82 193.22 65.91"/>
  <circle class="cls-2" cx="168.26" cy="54.22" r="1.7"/>
  <circle class="cls-1" cx="168.26" cy="54.22" r="1.37"/>
  <circle class="cls-2" cx="193.21" cy="65.3" r="1.52"/>
  <polygon class="cls-2" points="193.22 125.28 181.61 125.28 167.91 114.02 168.6 113.18 182 124.19 193.22 124.19 193.22 125.28"/>
  <circle class="cls-2" cx="168.26" cy="113.6" r="1.7"/>
  <circle class="cls-1" cx="168.26" cy="113.6" r="1.37"/>
  <circle class="cls-2" cx="193.21" cy="124.67" r="1.52"/>
  <polygon class="cls-2" points="193.22 184.65 181.61 184.65 167.91 173.39 168.6 172.55 182 183.56 193.22 183.56 193.22 184.65"/>
  <circle class="cls-2" cx="168.26" cy="172.97" r="1.7"/>
  <circle class="cls-1" cx="168.26" cy="172.97" r="1.37"/>
  <circle class="cls-2" cx="193.21" cy="184.04" r="1.52"/>
  <polygon class="cls-2" points="193.22 244.02 181.61 244.02 167.91 232.76 168.6 231.92 182 242.94 193.22 242.94 193.22 244.02"/>
  <circle class="cls-2" cx="168.26" cy="232.34" r="1.7"/>
  <circle class="cls-1" cx="168.26" cy="232.34" r="1.37"/>
  <circle class="cls-2" cx="193.21" cy="243.41" r="1.52"/>
  <polygon class="cls-2" points="154.84 273.71 143.23 273.71 143.23 272.62 154.45 272.62 167.86 261.6 168.54 262.44 154.84 273.71"/>
  <circle class="cls-2" cx="168.2" cy="262.02" r="1.7"/>
  <circle class="cls-1" cx="168.2" cy="262.02" r="1.37"/>
  <circle class="cls-2" cx="143.24" cy="273.1" r="1.52"/>
  <g>
    <path class="cls-2" d="M58.26,36.77c-.24,.12-.79,.25-1.5,.25-2.03,0-3.07-1.27-3.07-2.93,0-2,1.43-3.1,3.2-3.1,.69,0,1.21,.13,1.44,.26l-.27,1.05c-.26-.12-.64-.22-1.11-.22-1.05,0-1.86,.64-1.86,1.94,0,1.17,.69,1.91,1.87,1.91,.4,0,.84-.08,1.11-.19l.2,1.04h0Z"/>
    <path class="cls-2" d="M59.06,30.77h1.32v2.43h.02c.14-.19,.31-.33,.52-.44,.2-.11,.44-.17,.69-.17,.84,0,1.49,.59,1.49,1.87v2.48h-1.32v-2.34c0-.56-.19-.94-.68-.94-.35,0-.57,.23-.66,.47-.03,.08-.04,.19-.04,.29v2.52h-1.32v-6.16h0Z"/>
    <path class="cls-2" d="M66.57,36.93l-.08-.42h-.03c-.28,.34-.71,.52-1.22,.52-.86,0-1.37-.62-1.37-1.3,0-1.11,.99-1.63,2.5-1.63v-.05c0-.23-.12-.55-.78-.55-.43,0-.89,.15-1.17,.32l-.24-.85c.3-.17,.88-.38,1.65-.38,1.42,0,1.86,.84,1.86,1.84v1.48c0,.4,.02,.79,.07,1.03h-1.2Zm-.16-2.01c-.69,0-1.23,.16-1.23,.67,0,.34,.23,.51,.53,.51,.32,0,.6-.22,.68-.49,.02-.07,.03-.15,.03-.23v-.46h0Z"/>
    <path class="cls-2" d="M68.73,34.09c0-.63-.01-1.03-.03-1.4h1.14l.05,.79h.03c.22-.62,.73-.88,1.15-.88,.12,0,.18,0,.28,.03v1.24c-.1-.02-.21-.03-.36-.03-.49,0-.82,.26-.91,.67-.02,.08-.03,.19-.03,.3v2.15h-1.32v-2.85h0Z"/>
    <path class="cls-2" d="M72.01,30.77h1.32v6.16h-1.32v-6.16Z"/>
    <path class="cls-2" d="M75.41,35.24c.04,.55,.58,.81,1.2,.81,.45,0,.81-.06,1.17-.18l.18,.89c-.44,.18-.97,.27-1.54,.27-1.44,0-2.27-.84-2.27-2.16,0-1.08,.67-2.27,2.14-2.27,1.38,0,1.9,1.07,1.9,2.12,0,.23-.03,.43-.05,.53h-2.73Zm1.55-.91c0-.32-.14-.86-.74-.86-.56,0-.79,.51-.82,.86h1.56Z"/>
    <path class="cls-2" d="M78.97,35.78c.24,.15,.75,.32,1.13,.32s.57-.13,.57-.35-.13-.33-.63-.49c-.89-.29-1.22-.77-1.21-1.27,0-.8,.67-1.4,1.73-1.4,.5,0,.94,.12,1.2,.25l-.23,.91c-.19-.1-.56-.24-.92-.24-.32,0-.51,.13-.51,.34s.17,.31,.69,.49c.81,.27,1.15,.69,1.15,1.31,0,.79-.62,1.38-1.84,1.38-.56,0-1.05-.13-1.38-.3l.24-.94Z"/>
    <path class="cls-2" d="M84.55,31.16c.43-.07,1.05-.13,1.76-.13,.87,0,1.48,.13,1.89,.46,.35,.28,.54,.69,.54,1.23,0,.74-.53,1.26-1.03,1.44v.03c.41,.16,.63,.55,.78,1.09,.18,.66,.36,1.42,.47,1.65h-1.35c-.09-.17-.23-.64-.4-1.36-.16-.73-.41-.93-.96-.93h-.4v2.3h-1.31v-5.77h0Zm1.31,2.52h.52c.66,0,1.05-.33,1.05-.84,0-.53-.37-.81-.97-.81-.32,0-.5,.02-.59,.04v1.61Z"/>
    <path class="cls-2" d="M91.09,31.5c0,.37-.27,.66-.71,.66s-.69-.29-.69-.66c0-.38,.27-.66,.7-.66s.69,.28,.7,.66Zm-1.36,5.43v-4.25h1.32v4.25h-1.32Z"/>
    <path class="cls-2" d="M93.1,32.68l.57,1.98c.1,.36,.18,.69,.24,1.03h.03c.07-.35,.14-.67,.23-1.03l.55-1.98h1.39l-1.58,4.25h-1.32l-1.55-4.25h1.44Z"/>
    <path class="cls-2" d="M97.6,35.24c.04,.55,.58,.81,1.2,.81,.45,0,.81-.06,1.17-.18l.18,.89c-.44,.18-.97,.27-1.54,.27-1.44,0-2.27-.84-2.27-2.16,0-1.08,.67-2.27,2.14-2.27,1.38,0,1.9,1.07,1.9,2.12,0,.23-.03,.43-.05,.53h-2.73Zm1.55-.91c0-.32-.14-.86-.74-.86-.56,0-.79,.51-.82,.86h1.56Z"/>
    <path class="cls-2" d="M101.17,34.09c0-.63-.01-1.03-.03-1.4h1.14l.05,.79h.03c.22-.62,.73-.88,1.15-.88,.12,0,.18,0,.28,.03v1.24c-.1-.02-.21-.03-.36-.03-.49,0-.82,.26-.91,.67-.02,.08-.03,.19-.03,.3v2.15h-1.32v-2.85h0Z"/>
    <path class="cls-2" d="M111.21,34.7c-.03-.71-.05-1.55-.05-2.41h-.03c-.19,.75-.43,1.58-.65,2.27l-.72,2.28h-1.03l-.63-2.26c-.19-.69-.38-1.52-.53-2.29h-.02c-.03,.79-.06,1.7-.1,2.43l-.11,2.22h-1.22l.37-5.85h1.76l.57,1.96c.19,.67,.36,1.41,.49,2.09h.03c.16-.68,.36-1.45,.56-2.1l.62-1.95h1.73l.31,5.85h-1.28l-.09-2.24h0Z"/>
    <path class="cls-2" d="M117.58,35.57c0,.55,.02,1.01,.03,1.36h-1.15l-.06-.6h-.03c-.16,.26-.56,.69-1.32,.69-.86,0-1.49-.54-1.49-1.84v-2.5h1.32v2.28c0,.62,.2,.99,.66,.99,.36,0,.57-.25,.66-.46,.03-.08,.05-.17,.05-.28v-2.54h1.32v2.89h0Z"/>
    <path class="cls-2" d="M118.63,35.78c.24,.15,.75,.32,1.13,.32s.57-.13,.57-.35-.13-.33-.63-.49c-.89-.29-1.22-.77-1.21-1.27,0-.8,.67-1.4,1.73-1.4,.5,0,.94,.12,1.2,.25l-.23,.91c-.19-.1-.56-.24-.92-.24-.32,0-.51,.13-.51,.34s.17,.31,.69,.49c.81,.27,1.15,.69,1.15,1.31,0,.79-.62,1.38-1.84,1.38-.56,0-1.05-.13-1.38-.3l.24-.94h0Z"/>
    <path class="cls-2" d="M123.42,35.24c.04,.55,.58,.81,1.2,.81,.45,0,.81-.06,1.17-.18l.18,.89c-.44,.18-.97,.27-1.54,.27-1.44,0-2.27-.84-2.27-2.16,0-1.08,.67-2.27,2.14-2.27,1.38,0,1.9,1.07,1.9,2.12,0,.23-.03,.43-.05,.53h-2.73Zm1.55-.91c0-.32-.14-.86-.74-.86-.56,0-.79,.51-.82,.86h1.56Z"/>
    <path class="cls-2" d="M130.99,35.57c0,.55,.02,1.01,.03,1.36h-1.15l-.06-.6h-.03c-.16,.26-.56,.69-1.32,.69-.86,0-1.49-.54-1.49-1.84v-2.5h1.32v2.28c0,.62,.2,.99,.66,.99,.36,0,.57-.25,.66-.46,.03-.08,.05-.17,.05-.28v-2.54h1.32v2.89h0Z"/>
    <path class="cls-2" d="M132.05,34.04c0-.53-.02-.98-.03-1.36h1.12l.06,.58h.03c.18-.27,.56-.67,1.28-.67,.55,0,.98,.28,1.16,.73h.02c.16-.23,.35-.4,.55-.52,.23-.14,.49-.21,.81-.21,.81,0,1.43,.57,1.43,1.84v2.5h-1.28v-2.31c0-.62-.2-.97-.63-.97-.31,0-.52,.21-.61,.46-.03,.1-.05,.23-.05,.33v2.49h-1.28v-2.38c0-.53-.19-.9-.61-.9-.34,0-.54,.26-.62,.47-.04,.1-.05,.23-.05,.33v2.47h-1.28v-2.89h0Z"/>
    <path class="cls-2" d="M49.49,45.19c0,1.55-1.1,2.26-2.24,2.26-1.24,0-2.2-.82-2.2-2.19s.9-2.25,2.27-2.25,2.16,.89,2.16,2.18h0Zm-3.07,.04c0,.72,.31,1.28,.87,1.28,.52,0,.84-.52,.84-1.28,0-.63-.24-1.27-.84-1.27-.63,0-.87,.65-.87,1.28h0Z"/>
    <path class="cls-2" d="M50.46,47.35v-3.28h-.56v-.98h.56v-.16c0-.51,.16-1.07,.53-1.42,.33-.31,.79-.43,1.18-.43,.29,0,.52,.04,.7,.09l-.05,1.01c-.12-.03-.25-.06-.43-.06-.43,0-.62,.34-.62,.75v.22h.85v.98h-.84v3.28h-1.32Z"/>
    <path class="cls-2" d="M56.4,41.5v5.85h-1.32v-5.85h1.32Z"/>
    <path class="cls-2" d="M57.52,44.46c0-.53-.02-.98-.03-1.36h1.15l.06,.59h.03c.17-.27,.6-.69,1.32-.69,.87,0,1.52,.58,1.52,1.83v2.52h-1.32v-2.36c0-.55-.2-.92-.67-.92-.36,0-.58,.26-.67,.5-.03,.08-.05,.21-.05,.33v2.45h-1.32v-2.89h0Z"/>
    <path class="cls-2" d="M66.73,41.19v4.9c0,.48,.02,.99,.03,1.27h-1.18l-.06-.62h-.02c-.27,.48-.78,.72-1.33,.72-1,0-1.81-.86-1.81-2.18,0-1.43,.89-2.26,1.9-2.26,.53,0,.93,.19,1.12,.48h.02v-2.3h1.32Zm-1.32,3.72c0-.07,0-.16-.02-.24-.07-.36-.36-.65-.76-.65-.61,0-.91,.54-.91,1.21,0,.72,.35,1.17,.9,1.17,.38,0,.69-.26,.76-.63,.02-.09,.03-.19,.03-.3v-.56Z"/>
    <path class="cls-2" d="M71.79,45.99c0,.55,.02,1.01,.03,1.36h-1.15l-.06-.6h-.03c-.16,.26-.56,.69-1.32,.69-.86,0-1.49-.54-1.49-1.84v-2.5h1.32v2.28c0,.62,.2,.99,.66,.99,.36,0,.57-.25,.66-.46,.03-.08,.05-.17,.05-.28v-2.54h1.32v2.89h0Z"/>
    <path class="cls-2" d="M72.84,46.2c.24,.15,.75,.32,1.13,.32s.57-.13,.57-.35-.13-.33-.63-.49c-.89-.29-1.22-.77-1.21-1.27,0-.8,.67-1.4,1.73-1.4,.5,0,.94,.12,1.2,.25l-.23,.91c-.19-.1-.56-.24-.92-.24-.32,0-.51,.13-.51,.34s.17,.31,.69,.49c.81,.27,1.15,.69,1.15,1.31,0,.79-.62,1.38-1.84,1.38-.56,0-1.05-.13-1.38-.3l.24-.94Z"/>
    <path class="cls-2" d="M78.09,41.89v1.21h.95v.98h-.95v1.54c0,.51,.13,.75,.52,.75,.17,0,.3-.02,.39-.04v1c-.16,.06-.48,.11-.85,.11-.43,0-.78-.15-.99-.37-.25-.25-.36-.66-.36-1.26v-1.74h-.56v-.98h.56v-.91l1.29-.3h0Z"/>
    <path class="cls-2" d="M79.8,44.5c0-.63-.01-1.03-.03-1.4h1.14l.05,.79h.03c.22-.62,.73-.88,1.15-.88,.12,0,.18,0,.28,.03v1.24c-.1-.02-.21-.03-.36-.03-.49,0-.82,.26-.91,.67-.02,.08-.03,.19-.03,.3v2.15h-1.32v-2.85h0Z"/>
    <path class="cls-2" d="M84.24,43.1l.63,2.09c.07,.25,.16,.57,.21,.79h.03c.06-.23,.13-.54,.19-.79l.53-2.09h1.41l-.99,2.8c-.61,1.69-1.02,2.36-1.5,2.79-.46,.4-.94,.55-1.27,.58l-.28-1.12c.17-.03,.37-.11,.57-.23,.2-.11,.42-.32,.54-.53,.04-.07,.07-.13,.07-.19,0-.05-.01-.11-.06-.22l-1.56-3.89h1.47Z"/>
    <path class="cls-2" d="M93.32,47.35c-.13-.13-.25-.26-.39-.42-.38,.3-.92,.51-1.61,.51-1.42,0-2.04-.84-2.04-1.66,0-.77,.44-1.33,1.12-1.68v-.03c-.25-.28-.45-.71-.45-1.13,0-.74,.59-1.55,1.76-1.55,.9,0,1.58,.53,1.58,1.37,0,.59-.35,1.1-1.15,1.51v.03c.33,.37,.69,.8,.97,1.09,.24-.37,.42-.9,.5-1.43h1.18c-.16,.89-.45,1.65-.97,2.22,.33,.38,.67,.76,1.03,1.15h-1.53Zm-1.01-1.15c-.36-.36-.84-.89-1.32-1.43-.24,.17-.46,.43-.46,.81,0,.5,.37,.92,.98,.92,.34,0,.63-.13,.8-.3h0Zm-1.17-3.37c0,.3,.13,.56,.4,.84,.43-.29,.64-.52,.64-.86,0-.28-.16-.58-.51-.58s-.53,.29-.53,.59Z"/>
    <path class="cls-2" d="M98.56,41.5v5.85h-1.32v-5.85h1.32Z"/>
    <path class="cls-2" d="M99.69,44.46c0-.53-.02-.98-.03-1.36h1.15l.06,.59h.03c.17-.27,.6-.69,1.32-.69,.87,0,1.52,.58,1.52,1.83v2.52h-1.32v-2.36c0-.55-.2-.92-.67-.92-.36,0-.58,.26-.67,.5-.03,.08-.05,.21-.05,.33v2.45h-1.32v-2.89h0Z"/>
    <path class="cls-2" d="M104.78,44.46c0-.53-.02-.98-.03-1.36h1.15l.06,.59h.03c.17-.27,.6-.69,1.32-.69,.87,0,1.52,.58,1.52,1.83v2.52h-1.32v-2.36c0-.55-.2-.92-.67-.92-.36,0-.58,.26-.67,.5-.03,.08-.05,.21-.05,.33v2.45h-1.32v-2.89h0Z"/>
    <path class="cls-2" d="M114.06,45.19c0,1.55-1.1,2.26-2.24,2.26-1.24,0-2.2-.82-2.2-2.19s.9-2.25,2.27-2.25,2.16,.89,2.16,2.18h0Zm-3.07,.04c0,.72,.31,1.28,.87,1.28,.52,0,.84-.52,.84-1.28,0-.63-.24-1.27-.84-1.27-.63,0-.87,.65-.87,1.28h0Z"/>
    <path class="cls-2" d="M115.79,43.1l.57,1.98c.1,.36,.18,.69,.24,1.03h.03c.07-.35,.14-.67,.23-1.03l.55-1.98h1.39l-1.58,4.25h-1.32l-1.55-4.25h1.44Z"/>
    <path class="cls-2" d="M121.76,47.35l-.08-.42h-.03c-.28,.34-.71,.52-1.22,.52-.86,0-1.37-.62-1.37-1.3,0-1.11,.99-1.63,2.5-1.63v-.05c0-.23-.12-.55-.78-.55-.43,0-.89,.15-1.17,.32l-.24-.85c.3-.17,.88-.38,1.65-.38,1.42,0,1.86,.84,1.86,1.84v1.48c0,.4,.02,.79,.07,1.03h-1.2Zm-.16-2.01c-.69,0-1.23,.16-1.23,.67,0,.34,.23,.51,.53,.51,.32,0,.6-.22,.68-.49,.02-.07,.03-.15,.03-.23v-.46Z"/>
    <path class="cls-2" d="M125.33,41.89v1.21h.95v.98h-.95v1.54c0,.51,.13,.75,.52,.75,.17,0,.3-.02,.39-.04v1c-.16,.06-.48,.11-.85,.11-.43,0-.78-.15-.99-.37-.25-.25-.36-.66-.36-1.26v-1.74h-.56v-.98h.56v-.91l1.29-.3h0Z"/>
    <path class="cls-2" d="M128.4,41.92c0,.37-.27,.66-.71,.66s-.69-.29-.69-.66c0-.38,.27-.66,.7-.66s.69,.28,.7,.66h0Zm-1.36,5.43v-4.25h1.32v4.25h-1.32Z"/>
    <path class="cls-2" d="M133.61,45.19c0,1.55-1.1,2.26-2.24,2.26-1.24,0-2.2-.82-2.2-2.19s.9-2.25,2.27-2.25,2.16,.89,2.16,2.18h0Zm-3.07,.04c0,.72,.31,1.28,.87,1.28,.52,0,.84-.52,.84-1.28,0-.63-.24-1.27-.84-1.27-.63,0-.87,.65-.87,1.28h0Z"/>
    <path class="cls-2" d="M134.43,44.46c0-.53-.02-.98-.03-1.36h1.15l.06,.59h.03c.17-.27,.6-.69,1.32-.69,.87,0,1.52,.58,1.52,1.83v2.52h-1.32v-2.36c0-.55-.2-.92-.67-.92-.36,0-.58,.26-.67,.5-.03,.08-.05,.21-.05,.33v2.45h-1.32v-2.89h0Z"/>
    <path class="cls-2" d="M37.1,56.73l-1.72-5.27h.74l.82,2.6c.23,.71,.42,1.35,.56,1.97h.02c.15-.61,.36-1.27,.6-1.96l.89-2.6h.73l-1.88,5.27h-.75Z"/>
    <path class="cls-2" d="M43.44,54.81c0,1.4-.97,2.01-1.88,2.01-1.02,0-1.82-.75-1.82-1.95,0-1.26,.83-2.01,1.88-2.01s1.82,.79,1.82,1.94h0Zm-3,.04c0,.83,.47,1.45,1.15,1.45s1.15-.62,1.15-1.48c0-.64-.32-1.45-1.14-1.45s-1.16,.75-1.16,1.47h0Z"/>
    <path class="cls-2" d="M44.31,51.18h.69v5.55h-.69v-5.55Z"/>
    <path class="cls-2" d="M46.54,54.96c.01,.93,.6,1.31,1.29,1.31,.49,0,.79-.09,1.05-.2l.12,.49c-.24,.11-.66,.24-1.26,.24-1.16,0-1.86-.77-1.86-1.91s.67-2.04,1.78-2.04c1.23,0,1.55,1.08,1.55,1.78,0,.14,0,.25-.02,.32h-2.65Zm2.01-.49c0-.43-.18-1.11-.95-1.11-.7,0-1,.63-1.05,1.11h2Z"/>
    <path class="cls-2" d="M50.07,53.97c0-.4-.01-.71-.03-1.02h.61l.04,.62h.02c.19-.36,.63-.71,1.25-.71,.52,0,1.33,.31,1.33,1.61v2.25h-.69v-2.18c0-.61-.23-1.12-.87-1.12-.45,0-.8,.32-.92,.71-.03,.08-.05,.2-.05,.32v2.28h-.69v-2.76h0Z"/>
    <path class="cls-2" d="M55.2,51.86v1.09h.99v.52h-.99v2.04c0,.47,.13,.74,.52,.74,.18,0,.31-.02,.4-.05l.03,.52c-.13,.05-.35,.1-.61,.1-.32,0-.58-.1-.74-.29-.19-.21-.26-.54-.26-.99v-2.06h-.59v-.52h.59v-.91l.67-.18h0Z"/>
    <path class="cls-2" d="M57.3,54.96c.01,.93,.6,1.31,1.29,1.31,.49,0,.79-.09,1.05-.2l.12,.49c-.24,.11-.66,.24-1.26,.24-1.16,0-1.86-.77-1.86-1.91s.67-2.04,1.78-2.04c1.23,0,1.55,1.08,1.55,1.78,0,.14,0,.25-.02,.32h-2.65Zm2.01-.49c0-.43-.18-1.11-.95-1.11-.7,0-1,.63-1.05,1.11h2Z"/>
    <path class="cls-2" d="M61.21,54.96c.01,.93,.6,1.31,1.29,1.31,.49,0,.79-.09,1.05-.2l.12,.49c-.24,.11-.66,.24-1.26,.24-1.16,0-1.86-.77-1.86-1.91s.67-2.04,1.78-2.04c1.23,0,1.55,1.08,1.55,1.78,0,.14,0,.25-.02,.32h-2.65Zm2.01-.49c0-.43-.18-1.11-.95-1.11-.7,0-1,.63-1.05,1.11h2Z"/>
    <path class="cls-2" d="M64.74,54.13c0-.45-.01-.82-.03-1.18h.6l.03,.74h.03c.18-.51,.59-.83,1.05-.83,.07,0,.13,0,.19,.02v.65c-.07-.01-.14-.02-.23-.02-.49,0-.82,.36-.92,.88-.02,.1-.03,.21-.03,.32v2.02h-.69v-2.6h0Z"/>
    <path class="cls-2" d="M73.42,54.42c-.04-.73-.09-1.62-.08-2.27h-.02c-.18,.61-.4,1.28-.66,2l-.93,2.56h-.51l-.86-2.51c-.25-.74-.46-1.42-.6-2.04h-.02c-.02,.66-.05,1.53-.1,2.32l-.14,2.26h-.65l.36-5.27h.87l.9,2.55c.22,.65,.4,1.22,.53,1.78h.02c.14-.53,.32-1.12,.56-1.78l.94-2.55h.87l.33,5.27h-.67l-.13-2.31h0Z"/>
    <path class="cls-2" d="M77.38,56.73l-.06-.48h-.02c-.21,.3-.62,.56-1.15,.56-.76,0-1.15-.54-1.15-1.09,0-.92,.81-1.42,2.27-1.41v-.08c0-.31-.09-.88-.86-.87-.35,0-.72,.1-.99,.28l-.16-.46c.31-.2,.77-.33,1.25-.33,1.15,0,1.44,.79,1.44,1.55v1.42c0,.32,.01,.65,.06,.9h-.62Zm-.11-1.93c-.74-.02-1.6,.12-1.6,.85,0,.45,.3,.66,.64,.66,.5,0,.81-.31,.92-.63,.02-.07,.03-.15,.03-.22v-.66h0Z"/>
    <path class="cls-2" d="M79.05,54.13c0-.45-.01-.82-.03-1.18h.6l.03,.74h.03c.18-.51,.59-.83,1.05-.83,.07,0,.13,0,.19,.02v.65c-.07-.01-.14-.02-.23-.02-.49,0-.82,.36-.92,.88-.02,.1-.03,.21-.03,.32v2.02h-.69v-2.6h0Z"/>
    <path class="cls-2" d="M82.32,54.68h.02c.09-.13,.22-.3,.33-.43l1.12-1.3h.82l-1.46,1.55,1.66,2.23h-.84l-1.3-1.82-.35,.4v1.42h-.68v-5.55h.68v3.5h0Z"/>
    <path class="cls-2" d="M85.69,54.96c.01,.93,.6,1.31,1.29,1.31,.49,0,.79-.09,1.05-.2l.12,.49c-.24,.11-.66,.24-1.26,.24-1.16,0-1.86-.77-1.86-1.91s.67-2.04,1.78-2.04c1.23,0,1.55,1.08,1.55,1.78,0,.14,0,.25-.02,.32h-2.65Zm2.01-.49c0-.43-.18-1.11-.95-1.11-.7,0-1,.63-1.05,1.11h2Z"/>
    <path class="cls-2" d="M90.05,51.86v1.09h.99v.52h-.99v2.04c0,.47,.13,.74,.52,.74,.18,0,.31-.02,.4-.05l.03,.52c-.13,.05-.35,.1-.61,.1-.32,0-.58-.1-.74-.29-.19-.21-.26-.54-.26-.99v-2.06h-.59v-.52h.59v-.91l.67-.18h0Z"/>
    <path class="cls-2" d="M92.58,51.88c0,.23-.16,.43-.44,.43-.25,0-.42-.2-.42-.43s.17-.43,.43-.43,.42,.19,.43,.43h0Zm-.77,4.85v-3.78h.69v3.78h-.69Z"/>
    <path class="cls-2" d="M93.64,53.97c0-.4-.01-.71-.03-1.02h.61l.04,.62h.02c.19-.36,.63-.71,1.25-.71,.52,0,1.33,.31,1.33,1.61v2.25h-.69v-2.18c0-.61-.23-1.12-.87-1.12-.45,0-.8,.32-.92,.71-.03,.08-.05,.2-.05,.32v2.28h-.69v-2.76h0Z"/>
    <path class="cls-2" d="M101.24,52.95c-.02,.27-.03,.57-.03,1.03v2.2c0,.88-.18,1.4-.54,1.73-.37,.34-.9,.45-1.38,.45s-.96-.11-1.26-.31l.17-.53c.25,.16,.64,.3,1.11,.3,.7,0,1.22-.37,1.22-1.32v-.42h-.02c-.21,.36-.62,.64-1.2,.64-.94,0-1.61-.8-1.61-1.85,0-1.28,.83-2.01,1.71-2.01,.66,0,1.01,.34,1.18,.65h.02l.03-.56h.6Zm-.72,1.48c0-.11,0-.22-.04-.31-.13-.4-.46-.73-.96-.73-.66,0-1.12,.56-1.12,1.43,0,.74,.38,1.36,1.12,1.36,.43,0,.81-.27,.96-.71,.03-.11,.05-.25,.05-.36v-.68Z"/>
    <path class="cls-2" d="M107.7,56.56c-.25,.12-.75,.25-1.39,.25-1.48,0-2.6-.94-2.6-2.67s1.12-2.77,2.75-2.77c.65,0,1.07,.14,1.25,.23l-.17,.56c-.26-.12-.62-.22-1.06-.22-1.24,0-2.05,.79-2.05,2.17,0,1.29,.74,2.11,2.02,2.11,.42,0,.84-.08,1.12-.22l.13,.54h0Z"/>
    <path class="cls-2" d="M111.87,54.81c0,1.4-.97,2.01-1.88,2.01-1.02,0-1.82-.75-1.82-1.95,0-1.26,.83-2.01,1.88-2.01s1.82,.79,1.82,1.94h0Zm-3,.04c0,.83,.47,1.45,1.15,1.45s1.15-.62,1.15-1.48c0-.64-.32-1.45-1.14-1.45s-1.16,.75-1.16,1.47h0Z"/>
    <path class="cls-2" d="M112.73,53.97c0-.4-.01-.71-.03-1.02h.61l.04,.62h.02c.19-.36,.63-.71,1.25-.71,.52,0,1.33,.31,1.33,1.61v2.25h-.69v-2.18c0-.61-.23-1.12-.87-1.12-.45,0-.8,.32-.92,.71-.03,.08-.05,.2-.05,.32v2.28h-.69v-2.76h0Z"/>
    <path class="cls-2" d="M116.97,56.03c.21,.13,.57,.27,.91,.27,.5,0,.73-.25,.73-.56s-.2-.5-.7-.69c-.68-.25-1.01-.62-1-1.07,0-.61,.49-1.11,1.31-1.11,.39,0,.72,.1,.92,.23l-.17,.5c-.14-.09-.42-.22-.78-.22-.4,0-.63,.23-.63,.52,0,.31,.22,.45,.72,.64,.65,.24,.99,.57,.99,1.14,0,.67-.52,1.14-1.42,1.14-.41,0-.79-.11-1.06-.26l.16-.52h0Z"/>
    <path class="cls-2" d="M123.33,55.7c0,.4,.01,.73,.03,1.03h-.61l-.03-.62h-.02c-.17,.3-.57,.7-1.25,.7-.59,0-1.3-.33-1.3-1.66v-2.21h.69v2.09c0,.72,.23,1.21,.85,1.21,.46,0,.78-.32,.91-.63,.03-.1,.06-.22,.06-.35v-2.31h.69v2.74h0Z"/>
    <path class="cls-2" d="M124.47,51.18h.69v5.55h-.69v-5.55Z"/>
    <path class="cls-2" d="M127.14,51.86v1.09h.99v.52h-.99v2.04c0,.47,.13,.74,.52,.74,.18,0,.31-.02,.4-.05l.03,.52c-.13,.05-.35,.1-.61,.1-.32,0-.58-.1-.74-.29-.19-.21-.26-.54-.26-.99v-2.06h-.59v-.52h.59v-.91l.67-.18h0Z"/>
    <path class="cls-2" d="M131,56.73l-.06-.48h-.02c-.21,.3-.62,.56-1.15,.56-.76,0-1.15-.54-1.15-1.09,0-.92,.81-1.42,2.27-1.41v-.08c0-.31-.09-.88-.86-.87-.35,0-.72,.1-.99,.28l-.16-.46c.31-.2,.77-.33,1.25-.33,1.15,0,1.44,.79,1.44,1.55v1.42c0,.32,.01,.65,.06,.9h-.62Zm-.1-1.93c-.74-.02-1.6,.12-1.6,.85,0,.45,.3,.66,.64,.66,.5,0,.81-.31,.92-.63,.02-.07,.03-.15,.03-.22v-.66h0Z"/>
    <path class="cls-2" d="M132.67,53.97c0-.4-.01-.71-.03-1.02h.61l.04,.62h.02c.19-.36,.63-.71,1.25-.71,.52,0,1.33,.31,1.33,1.61v2.25h-.69v-2.18c0-.61-.23-1.12-.87-1.12-.45,0-.8,.32-.92,.71-.03,.08-.05,.2-.05,.32v2.28h-.69v-2.76h0Z"/>
    <path class="cls-2" d="M137.8,51.86v1.09h.99v.52h-.99v2.04c0,.47,.13,.74,.52,.74,.18,0,.31-.02,.4-.05l.03,.52c-.13,.05-.35,.1-.61,.1-.32,0-.58-.1-.74-.29-.19-.21-.26-.54-.26-.99v-2.06h-.59v-.52h.59v-.91l.67-.18h0Z"/>
    <path class="cls-2" d="M83.54,63.51c0,1.72-.65,2.68-1.77,2.68-.99,0-1.67-.93-1.68-2.61,0-1.71,.74-2.64,1.77-2.64s1.68,.96,1.68,2.57h0Zm-2.76,.07c0,1.32,.41,2.07,1.03,2.07,.7,0,1.04-.82,1.04-2.11s-.32-2.07-1.03-2.07c-.6,0-1.04,.73-1.04,2.11h0Z"/>
    <path class="cls-2" d="M84.58,65.62c.15,.01,.32,0,.55-.03,.4-.05,.77-.21,1.07-.49,.33-.31,.57-.76,.67-1.35h-.02c-.29,.35-.69,.55-1.2,.55-.91,0-1.5-.69-1.5-1.56,0-.96,.7-1.8,1.74-1.8s1.68,.84,1.68,2.14c0,1.12-.38,1.89-.88,2.38-.39,.38-.93,.62-1.48,.68-.24,.04-.47,.05-.63,.04v-.56h0Zm.25-2.92c0,.63,.38,1.08,.98,1.08,.46,0,.82-.23,1-.53,.03-.07,.06-.14,.06-.25,0-.87-.32-1.53-1.04-1.53-.59,0-1,.52-1,1.24Z"/>
    <path class="cls-2" d="M87.82,66.42l2.18-5.67h.53l-2.19,5.67h-.52Z"/>
    <path class="cls-2" d="M90.86,66.11v-.42l.54-.53c1.3-1.24,1.89-1.9,1.89-2.66,0-.52-.24-.99-1-.99-.46,0-.85,.24-1.08,.43l-.22-.48c.35-.3,.85-.52,1.44-.52,1.09,0,1.55,.75,1.55,1.48,0,.94-.68,1.7-1.75,2.73l-.4,.38v.02h2.27v.57h-3.24Z"/>
    <path class="cls-2" d="M98.25,63.51c0,1.72-.65,2.68-1.77,2.68-.99,0-1.67-.93-1.68-2.61,0-1.71,.74-2.64,1.77-2.64s1.68,.96,1.68,2.57h0Zm-2.76,.07c0,1.32,.41,2.07,1.03,2.07,.7,0,1.04-.82,1.04-2.11s-.32-2.07-1.03-2.07c-.6,0-1.04,.73-1.04,2.11h0Z"/>
    <path class="cls-2" d="M98.88,66.11v-.42l.54-.53c1.3-1.24,1.89-1.9,1.89-2.66,0-.52-.24-.99-1-.99-.46,0-.85,.24-1.08,.43l-.22-.48c.35-.3,.85-.52,1.44-.52,1.09,0,1.55,.75,1.55,1.48,0,.94-.68,1.7-1.75,2.73l-.4,.38v.02h2.27v.57h-3.24Z"/>
    <path class="cls-2" d="M105.92,61.6h-1.94l-.2,1.31c.12-.02,.23-.03,.41-.03,.4,0,.78,.09,1.1,.27,.4,.22,.72,.66,.72,1.3,0,.99-.79,1.73-1.89,1.73-.56,0-1.02-.16-1.27-.31l.17-.53c.21,.13,.63,.29,1.09,.29,.64,0,1.2-.43,1.2-1.11,0-.65-.44-1.12-1.46-1.12-.3,0-.52,.03-.71,.05l.33-2.44h2.43v.58h0Z"/>
    <path class="cls-2" d="M110.37,63.74v.5h-1.93v-.5h1.93Z"/>
    <path class="cls-2" d="M115.99,63.51c0,1.72-.65,2.68-1.77,2.68-.99,0-1.67-.93-1.68-2.61,0-1.71,.74-2.64,1.77-2.64s1.68,.96,1.68,2.57h0Zm-2.76,.07c0,1.32,.41,2.07,1.03,2.07,.7,0,1.04-.82,1.04-2.11s-.32-2.07-1.03-2.07c-.6,0-1.04,.73-1.04,2.11h0Z"/>
    <path class="cls-2" d="M119.65,61.6h-1.94l-.2,1.31c.12-.02,.23-.03,.41-.03,.4,0,.78,.09,1.1,.27,.4,.22,.72,.66,.72,1.3,0,.99-.79,1.73-1.89,1.73-.56,0-1.02-.16-1.27-.31l.17-.53c.21,.13,.63,.29,1.09,.29,.64,0,1.2-.43,1.2-1.11,0-.65-.44-1.12-1.46-1.12-.3,0-.52,.03-.71,.05l.33-2.44h2.43v.58h0Z"/>
    <path class="cls-2" d="M120.27,66.42l2.18-5.67h.53l-2.19,5.67h-.52Z"/>
    <path class="cls-2" d="M123.3,66.11v-.42l.54-.53c1.3-1.24,1.89-1.9,1.89-2.66,0-.52-.24-.99-1-.99-.46,0-.85,.24-1.08,.43l-.22-.48c.35-.3,.85-.52,1.44-.52,1.09,0,1.55,.75,1.55,1.48,0,.94-.68,1.7-1.75,2.73l-.4,.38v.02h2.27v.57h-3.24Z"/>
    <path class="cls-2" d="M130.69,63.51c0,1.72-.65,2.68-1.77,2.68-.99,0-1.67-.93-1.68-2.61,0-1.71,.74-2.64,1.77-2.64s1.68,.96,1.68,2.57h0Zm-2.76,.07c0,1.32,.41,2.07,1.03,2.07,.7,0,1.04-.82,1.04-2.11s-.32-2.07-1.03-2.07c-.6,0-1.04,.73-1.04,2.11h0Z"/>
    <path class="cls-2" d="M131.32,66.11v-.42l.54-.53c1.3-1.24,1.89-1.9,1.89-2.66,0-.52-.24-.99-1-.99-.46,0-.85,.24-1.08,.43l-.22-.48c.35-.3,.85-.52,1.44-.52,1.09,0,1.55,.75,1.55,1.48,0,.94-.68,1.7-1.75,2.73l-.4,.38v.02h2.27v.57h-3.24Z"/>
    <path class="cls-2" d="M138.23,61.51c-.14,0-.32,0-.52,.04-1.08,.17-1.65,.96-1.76,1.81h.02c.24-.33,.66-.59,1.22-.59,.9,0,1.54,.66,1.54,1.64,0,.93-.63,1.79-1.69,1.79s-1.79-.85-1.79-2.16c0-1,.36-1.79,.86-2.29,.42-.42,.98-.67,1.62-.76,.2-.03,.37-.04,.49-.04v.56h0Zm-.2,2.93c0-.73-.42-1.16-1.05-1.16-.42,0-.8,.26-.99,.63-.04,.08-.07,.18-.07,.3,0,.84,.4,1.46,1.12,1.46,.59,0,.99-.49,.99-1.22h0Z"/>
  </g>
  <g>
    <path class="cls-2" d="M63.26,91.24c.35-.07,1.05-.13,1.71-.13,.81,0,1.3,.08,1.73,.33,.41,.22,.7,.62,.7,1.15s-.3,1-.96,1.25v.02c.67,.17,1.16,.69,1.16,1.43,0,.53-.25,.96-.61,1.24-.43,.34-1.14,.53-2.3,.53-.65,0-1.13-.04-1.43-.09v-5.75h0Zm1.31,2.24h.43c.7,0,1.07-.29,1.07-.72s-.34-.68-.93-.68c-.29,0-.45,.02-.56,.04v1.36h0Zm0,2.59c.13,.02,.28,.03,.51,.03,.6,0,1.13-.23,1.13-.85s-.53-.82-1.19-.82h-.45v1.65h0Z"/>
    <path class="cls-2" d="M68.45,94.16c0-.63-.01-1.03-.03-1.4h1.14l.05,.79h.03c.22-.62,.73-.88,1.15-.88,.12,0,.18,0,.28,.03v1.24c-.1-.02-.21-.03-.36-.03-.49,0-.82,.26-.91,.67-.02,.08-.03,.19-.03,.3v2.15h-1.32v-2.85h0Z"/>
    <path class="cls-2" d="M74.08,97.01l-.08-.42h-.03c-.28,.34-.71,.52-1.22,.52-.86,0-1.37-.62-1.37-1.3,0-1.11,.99-1.63,2.5-1.63v-.05c0-.23-.12-.55-.78-.55-.43,0-.89,.15-1.17,.32l-.24-.85c.3-.17,.88-.38,1.65-.38,1.42,0,1.86,.84,1.86,1.84v1.48c0,.4,.02,.79,.07,1.03h-1.2Zm-.16-2.01c-.69,0-1.23,.16-1.23,.67,0,.34,.23,.51,.53,.51,.32,0,.6-.22,.68-.49,.02-.07,.03-.15,.03-.23v-.46h0Z"/>
    <path class="cls-2" d="M76.24,94.12c0-.53-.02-.98-.03-1.36h1.15l.06,.59h.03c.17-.27,.6-.69,1.32-.69,.87,0,1.52,.58,1.52,1.83v2.52h-1.32v-2.36c0-.55-.2-.92-.67-.92-.36,0-.58,.26-.67,.5-.03,.08-.05,.21-.05,.33v2.45h-1.32v-2.89h0Z"/>
    <path class="cls-2" d="M85.45,90.85v4.9c0,.48,.02,.99,.03,1.27h-1.18l-.06-.62h-.02c-.27,.48-.78,.72-1.33,.72-1,0-1.81-.86-1.81-2.18,0-1.43,.89-2.26,1.9-2.26,.53,0,.93,.19,1.12,.48h.02v-2.3h1.32Zm-1.32,3.72c0-.07,0-.16-.02-.24-.07-.36-.36-.65-.76-.65-.61,0-.91,.54-.91,1.21,0,.72,.35,1.17,.9,1.17,.38,0,.69-.26,.76-.63,.02-.09,.03-.19,.03-.3v-.56h0Z"/>
    <path class="cls-2" d="M87.52,95.31c.04,.55,.58,.81,1.2,.81,.45,0,.81-.06,1.17-.18l.18,.89c-.44,.18-.97,.27-1.54,.27-1.44,0-2.27-.84-2.27-2.16,0-1.08,.67-2.27,2.14-2.27,1.38,0,1.9,1.07,1.9,2.12,0,.23-.03,.43-.05,.53h-2.73Zm1.55-.91c0-.32-.14-.86-.74-.86-.56,0-.79,.51-.82,.86h1.56Z"/>
    <path class="cls-2" d="M92.45,91.58c0,.37-.27,.66-.71,.66s-.69-.29-.69-.66c0-.38,.27-.66,.7-.66s.69,.28,.7,.66Zm-1.36,5.43v-4.25h1.32v4.25h-1.32Z"/>
    <path class="cls-2" d="M93.46,95.86c.24,.15,.75,.32,1.13,.32s.57-.13,.57-.35-.13-.33-.63-.49c-.89-.29-1.22-.77-1.21-1.27,0-.8,.67-1.4,1.73-1.4,.5,0,.94,.12,1.2,.25l-.23,.91c-.19-.1-.56-.24-.92-.24-.32,0-.51,.13-.51,.34s.17,.31,.69,.49c.81,.27,1.15,.69,1.15,1.31,0,.79-.62,1.38-1.84,1.38-.56,0-1.05-.13-1.38-.3l.24-.94Z"/>
    <path class="cls-2" d="M100.35,91.16v3.36c0,1.01,.39,1.53,1.06,1.53s1.08-.49,1.08-1.53v-3.36h1.32v3.29c0,1.81-.91,2.67-2.44,2.67s-2.34-.82-2.34-2.68v-3.27h1.32Z"/>
    <path class="cls-2" d="M104.89,94.12c0-.53-.02-.98-.03-1.36h1.15l.06,.59h.03c.17-.27,.6-.69,1.32-.69,.87,0,1.52,.58,1.52,1.83v2.52h-1.32v-2.36c0-.55-.2-.92-.67-.92-.36,0-.58,.26-.67,.5-.03,.08-.05,.21-.05,.33v2.45h-1.32v-2.89h0Z"/>
    <path class="cls-2" d="M111.34,91.58c0,.37-.27,.66-.71,.66s-.69-.29-.69-.66c0-.38,.27-.66,.7-.66s.69,.28,.7,.66Zm-1.36,5.43v-4.25h1.32v4.25h-1.32Z"/>
    <path class="cls-2" d="M113.34,92.76l.57,1.98c.1,.36,.18,.69,.24,1.03h.03c.07-.35,.14-.67,.23-1.03l.55-1.98h1.39l-1.58,4.25h-1.32l-1.55-4.25h1.44Z"/>
    <path class="cls-2" d="M117.85,95.31c.04,.55,.58,.81,1.2,.81,.45,0,.81-.06,1.17-.18l.18,.89c-.44,.18-.97,.27-1.54,.27-1.44,0-2.27-.84-2.27-2.16,0-1.08,.67-2.27,2.14-2.27,1.38,0,1.9,1.07,1.9,2.12,0,.23-.03,.43-.05,.53h-2.73Zm1.55-.91c0-.32-.14-.86-.74-.86-.56,0-.79,.51-.82,.86h1.56Z"/>
    <path class="cls-2" d="M121.41,94.16c0-.63-.01-1.03-.03-1.4h1.14l.05,.79h.03c.22-.62,.73-.88,1.15-.88,.12,0,.18,0,.28,.03v1.24c-.1-.02-.21-.03-.36-.03-.49,0-.82,.26-.91,.67-.02,.08-.03,.19-.03,.3v2.15h-1.32v-2.85h0Z"/>
    <path class="cls-2" d="M124.71,95.86c.24,.15,.75,.32,1.13,.32s.57-.13,.57-.35-.13-.33-.63-.49c-.89-.29-1.22-.77-1.21-1.27,0-.8,.67-1.4,1.73-1.4,.5,0,.94,.12,1.2,.25l-.23,.91c-.19-.1-.56-.24-.92-.24-.32,0-.51,.13-.51,.34s.17,.31,.69,.49c.81,.27,1.15,.69,1.15,1.31,0,.79-.62,1.38-1.84,1.38-.56,0-1.05-.13-1.38-.3l.24-.94h0Z"/>
    <path class="cls-2" d="M129.84,91.58c0,.37-.27,.66-.71,.66s-.69-.29-.69-.66c0-.38,.27-.66,.7-.66s.69,.28,.7,.66h0Zm-1.36,5.43v-4.25h1.32v4.25h-1.32Z"/>
    <path class="cls-2" d="M132.33,91.55v1.21h.95v.98h-.95v1.54c0,.51,.13,.75,.52,.75,.17,0,.3-.02,.39-.04v1c-.16,.06-.48,.11-.85,.11-.43,0-.78-.15-.99-.37-.25-.25-.36-.66-.36-1.26v-1.74h-.56v-.98h.56v-.91l1.29-.3h0Z"/>
    <path class="cls-2" d="M135.08,92.76l.63,2.09c.07,.25,.16,.57,.21,.79h.03c.06-.23,.13-.54,.19-.79l.53-2.09h1.41l-.99,2.8c-.61,1.69-1.02,2.36-1.5,2.79-.46,.4-.94,.55-1.27,.58l-.28-1.12c.17-.03,.37-.11,.57-.23,.2-.11,.42-.32,.54-.53,.04-.07,.07-.13,.07-.19,0-.05-.01-.11-.06-.22l-1.56-3.89h1.47Z"/>
    <path class="cls-2" d="M84.98,104.07c-.04-.73-.09-1.62-.08-2.27h-.02c-.18,.61-.4,1.28-.66,2l-.93,2.56h-.51l-.86-2.51c-.25-.74-.46-1.42-.6-2.04h-.02c-.02,.66-.05,1.53-.1,2.32l-.14,2.26h-.65l.36-5.27h.87l.9,2.55c.22,.65,.4,1.22,.53,1.78h.02c.14-.53,.32-1.12,.56-1.78l.94-2.55h.87l.33,5.27h-.67l-.13-2.31h0Z"/>
    <path class="cls-2" d="M86.82,101.19c.3-.07,.77-.11,1.24-.11,.68,0,1.12,.12,1.45,.38,.27,.21,.44,.52,.44,.93,0,.51-.34,.96-.89,1.15v.02c.5,.12,1.09,.53,1.09,1.32,0,.45-.18,.8-.45,1.05-.36,.34-.96,.49-1.82,.49-.47,0-.83-.03-1.05-.06v-5.18Zm.68,2.16h.63c.71,0,1.13-.38,1.13-.89,0-.61-.46-.86-1.15-.86-.32,0-.49,.02-.61,.05v1.7h0Zm0,2.52c.14,.03,.33,.03,.57,.03,.71,0,1.35-.26,1.35-1.02,0-.72-.62-1.02-1.36-1.02h-.56v2.01h0Z"/>
    <path class="cls-2" d="M91.9,104.73l-.54,1.65h-.7l1.79-5.27h.82l1.8,5.27h-.73l-.56-1.65h-1.87Zm1.73-.53l-.52-1.52c-.11-.34-.2-.66-.27-.96h-.02c-.07,.31-.16,.63-.26,.95l-.52,1.52h1.59Z"/>
    <path class="cls-2" d="M98.23,101.54c0,.23-.16,.43-.44,.43-.25,0-.42-.2-.42-.43s.17-.43,.43-.43,.42,.19,.43,.43h0Zm-.77,4.85v-3.78h.69v3.78h-.69Z"/>
    <path class="cls-2" d="M99.29,103.63c0-.4-.01-.71-.03-1.02h.61l.04,.62h.02c.19-.36,.63-.71,1.25-.71,.52,0,1.33,.31,1.33,1.61v2.25h-.69v-2.18c0-.61-.23-1.12-.87-1.12-.45,0-.8,.32-.92,.71-.03,.08-.05,.2-.05,.32v2.28h-.69v-2.76h0Z"/>
    <path class="cls-2" d="M109.75,104.07c-.04-.73-.09-1.62-.08-2.27h-.02c-.18,.61-.4,1.28-.66,2l-.93,2.56h-.51l-.86-2.51c-.25-.74-.46-1.42-.6-2.04h-.02c-.02,.66-.05,1.53-.1,2.32l-.14,2.26h-.65l.36-5.27h.87l.9,2.55c.22,.65,.4,1.22,.53,1.78h.02c.14-.53,.32-1.12,.56-1.78l.94-2.55h.87l.33,5.27h-.67l-.13-2.31h0Z"/>
    <path class="cls-2" d="M113.71,106.39l-.06-.48h-.02c-.21,.3-.62,.56-1.15,.56-.76,0-1.15-.54-1.15-1.09,0-.92,.81-1.42,2.27-1.41v-.08c0-.31-.09-.88-.86-.87-.35,0-.72,.1-.99,.28l-.16-.46c.31-.2,.77-.33,1.25-.33,1.15,0,1.44,.79,1.44,1.55v1.42c0,.32,.01,.65,.06,.9h-.62Zm-.11-1.93c-.74-.02-1.6,.12-1.6,.85,0,.45,.3,.66,.64,.66,.5,0,.81-.31,.92-.63,.02-.07,.03-.15,.03-.22v-.66h0Z"/>
    <path class="cls-2" d="M115.38,103.79c0-.45-.01-.82-.03-1.18h.6l.03,.74h.03c.18-.51,.59-.83,1.05-.83,.07,0,.13,0,.19,.02v.65c-.07-.01-.14-.02-.23-.02-.49,0-.82,.36-.92,.88-.02,.1-.03,.21-.03,.32v2.02h-.69v-2.6h0Z"/>
    <path class="cls-2" d="M118.65,104.34h.02c.09-.13,.22-.3,.33-.43l1.12-1.3h.82l-1.46,1.55,1.66,2.23h-.84l-1.3-1.82-.35,.4v1.42h-.68v-5.55h.68v3.5h0Z"/>
    <path class="cls-2" d="M122.02,104.62c.01,.93,.6,1.31,1.29,1.31,.49,0,.79-.09,1.05-.2l.12,.49c-.24,.11-.66,.24-1.26,.24-1.16,0-1.86-.77-1.86-1.91s.67-2.04,1.78-2.04c1.23,0,1.55,1.08,1.55,1.78,0,.14,0,.25-.02,.32h-2.65Zm2.01-.49c0-.43-.18-1.11-.95-1.11-.7,0-1,.63-1.05,1.11h2Z"/>
    <path class="cls-2" d="M126.38,101.52v1.09h.99v.52h-.99v2.04c0,.47,.13,.74,.52,.74,.18,0,.31-.02,.4-.05l.03,.52c-.13,.05-.35,.1-.61,.1-.32,0-.58-.1-.74-.29-.19-.21-.26-.54-.26-.99v-2.06h-.59v-.52h.59v-.91l.67-.18h0Z"/>
    <path class="cls-2" d="M128.91,101.54c0,.23-.16,.43-.44,.43-.25,0-.42-.2-.42-.43s.17-.43,.43-.43,.42,.19,.43,.43h0Zm-.77,4.85v-3.78h.69v3.78h-.69Z"/>
    <path class="cls-2" d="M129.97,103.63c0-.4-.01-.71-.03-1.02h.61l.04,.62h.02c.19-.36,.63-.71,1.25-.71,.52,0,1.33,.31,1.33,1.61v2.25h-.69v-2.18c0-.61-.23-1.12-.87-1.12-.45,0-.8,.32-.92,.71-.03,.08-.05,.2-.05,.32v2.28h-.69v-2.76h0Z"/>
    <path class="cls-2" d="M137.57,102.61c-.02,.27-.03,.57-.03,1.03v2.2c0,.88-.18,1.4-.54,1.73-.37,.34-.9,.45-1.38,.45s-.96-.11-1.26-.31l.17-.53c.25,.16,.64,.3,1.11,.3,.7,0,1.22-.37,1.22-1.32v-.42h-.02c-.21,.36-.62,.64-1.2,.64-.94,0-1.61-.8-1.61-1.85,0-1.28,.83-2.01,1.71-2.01,.66,0,1.01,.34,1.18,.65h.02l.03-.56h.6Zm-.72,1.48c0-.11,0-.22-.04-.31-.13-.4-.46-.73-.96-.73-.66,0-1.12,.56-1.12,1.43,0,.74,.38,1.36,1.12,1.36,.43,0,.81-.27,.96-.71,.03-.11,.05-.25,.05-.36v-.68h0Z"/>
    <path class="cls-2" d="M82.66,113.17c0,1.72-.65,2.68-1.77,2.68-.99,0-1.67-.93-1.68-2.61,0-1.71,.74-2.64,1.77-2.64s1.68,.96,1.68,2.57h0Zm-2.76,.07c0,1.32,.41,2.07,1.03,2.07,.7,0,1.04-.82,1.04-2.11s-.32-2.07-1.03-2.07c-.6,0-1.04,.73-1.04,2.11h0Z"/>
    <path class="cls-2" d="M83.69,115.28c.15,.01,.32,0,.55-.03,.4-.05,.77-.21,1.07-.49,.33-.31,.57-.76,.67-1.35h-.02c-.29,.35-.69,.55-1.2,.55-.91,0-1.5-.69-1.5-1.56,0-.96,.7-1.8,1.74-1.8s1.68,.84,1.68,2.14c0,1.12-.38,1.89-.88,2.38-.39,.38-.93,.62-1.48,.68-.24,.04-.47,.05-.63,.04v-.56h0Zm.25-2.92c0,.63,.38,1.08,.98,1.08,.46,0,.82-.23,1-.53,.03-.07,.06-.14,.06-.25,0-.87-.32-1.53-1.04-1.53-.59,0-1,.52-1,1.24Z"/>
    <path class="cls-2" d="M86.94,116.08l2.18-5.67h.53l-2.19,5.67h-.52Z"/>
    <path class="cls-2" d="M89.97,115.76v-.42l.54-.53c1.3-1.24,1.89-1.9,1.89-2.66,0-.52-.24-.99-1-.99-.46,0-.85,.24-1.08,.43l-.22-.48c.35-.3,.85-.52,1.44-.52,1.09,0,1.55,.75,1.55,1.48,0,.94-.68,1.7-1.75,2.73l-.4,.38v.02h2.27v.57h-3.24Z"/>
    <path class="cls-2" d="M97.37,113.17c0,1.72-.65,2.68-1.77,2.68-.99,0-1.67-.93-1.68-2.61,0-1.71,.74-2.64,1.77-2.64s1.68,.96,1.68,2.57h0Zm-2.76,.07c0,1.32,.41,2.07,1.03,2.07,.7,0,1.04-.82,1.04-2.11s-.32-2.07-1.03-2.07c-.6,0-1.04,.73-1.04,2.11h0Z"/>
    <path class="cls-2" d="M97.99,115.76v-.42l.54-.53c1.3-1.24,1.89-1.9,1.89-2.66,0-.52-.24-.99-1-.99-.46,0-.85,.24-1.08,.43l-.22-.48c.35-.3,.85-.52,1.44-.52,1.09,0,1.55,.75,1.55,1.48,0,.94-.68,1.7-1.75,2.73l-.4,.38v.02h2.27v.57h-3.24Z"/>
    <path class="cls-2" d="M104.13,115.76v-1.38h-2.36v-.45l2.26-3.25h.75v3.16h.71v.53h-.71v1.38h-.65Zm0-1.92v-1.7c0-.26,0-.53,.03-.79h-.03c-.16,.3-.28,.52-.42,.75l-1.24,1.73v.02h1.66Z"/>
    <path class="cls-2" d="M109.48,113.4v.5h-1.93v-.5h1.93Z"/>
    <path class="cls-2" d="M113.22,111.32h-.02l-.88,.48-.13-.52,1.11-.59h.58v5.08h-.66v-4.44h0Z"/>
    <path class="cls-2" d="M115.73,115.76v-.42l.54-.53c1.3-1.24,1.89-1.9,1.89-2.66,0-.52-.24-.99-1-.99-.46,0-.85,.24-1.08,.43l-.22-.48c.35-.3,.85-.52,1.44-.52,1.09,0,1.55,.75,1.55,1.48,0,.94-.68,1.7-1.75,2.73l-.4,.38v.02h2.27v.57h-3.24Z"/>
    <path class="cls-2" d="M119.38,116.08l2.18-5.67h.53l-2.19,5.67h-.52Z"/>
    <path class="cls-2" d="M122.42,115.76v-.42l.54-.53c1.3-1.24,1.89-1.9,1.89-2.66,0-.52-.24-.99-1-.99-.46,0-.85,.24-1.08,.43l-.22-.48c.35-.3,.85-.52,1.44-.52,1.09,0,1.55,.75,1.55,1.48,0,.94-.68,1.7-1.75,2.73l-.4,.38v.02h2.27v.57h-3.24Z"/>
    <path class="cls-2" d="M129.81,113.17c0,1.72-.65,2.68-1.77,2.68-.99,0-1.67-.93-1.68-2.61,0-1.71,.74-2.64,1.77-2.64s1.68,.96,1.68,2.57h0Zm-2.76,.07c0,1.32,.41,2.07,1.03,2.07,.7,0,1.04-.82,1.04-2.11s-.32-2.07-1.03-2.07c-.6,0-1.04,.73-1.04,2.11h0Z"/>
    <path class="cls-2" d="M130.43,115.76v-.42l.54-.53c1.3-1.24,1.89-1.9,1.89-2.66,0-.52-.24-.99-1-.99-.46,0-.85,.24-1.08,.43l-.22-.48c.35-.3,.85-.52,1.44-.52,1.09,0,1.55,.75,1.55,1.48,0,.94-.68,1.7-1.75,2.73l-.4,.38v.02h2.27v.57h-3.24Z"/>
    <path class="cls-2" d="M137.35,111.17c-.14,0-.32,0-.52,.04-1.08,.17-1.65,.96-1.76,1.81h.02c.24-.33,.66-.59,1.22-.59,.9,0,1.54,.66,1.54,1.64,0,.93-.63,1.79-1.69,1.79s-1.79-.85-1.79-2.16c0-1,.36-1.79,.86-2.29,.42-.42,.98-.67,1.62-.76,.2-.03,.37-.04,.49-.04v.56h0Zm-.2,2.93c0-.73-.42-1.16-1.05-1.16-.42,0-.8,.26-.99,.63-.04,.08-.07,.18-.07,.3,0,.84,.4,1.46,1.12,1.46,.59,0,.99-.49,.99-1.22h0Z"/>
  </g>
  <path class="cls-2" d="M32.24,149.8v3.36c0,1.01,.39,1.53,1.06,1.53s1.08-.49,1.08-1.53v-3.36h1.32v3.29c0,1.81-.91,2.67-2.44,2.67s-2.34-.82-2.34-2.68v-3.27h1.32Z"/>
  <path class="cls-2" d="M36.78,152.76c0-.53-.02-.98-.03-1.36h1.15l.06,.59h.03c.17-.27,.6-.69,1.32-.69,.87,0,1.52,.58,1.52,1.83v2.52h-1.32v-2.36c0-.55-.2-.92-.67-.92-.36,0-.58,.26-.67,.5-.03,.08-.05,.21-.05,.33v2.45h-1.32v-2.89h0Z"/>
  <path class="cls-2" d="M43.23,150.22c0,.37-.27,.66-.71,.66s-.69-.29-.69-.66c0-.38,.27-.66,.7-.66s.69,.28,.7,.66Zm-1.36,5.43v-4.25h1.32v4.25h-1.32Z"/>
  <path class="cls-2" d="M45.23,151.4l.57,1.98c.1,.36,.18,.69,.24,1.03h.03c.07-.35,.14-.67,.23-1.03l.55-1.98h1.39l-1.58,4.25h-1.32l-1.55-4.25h1.44Z"/>
  <path class="cls-2" d="M49.74,153.96c.04,.55,.58,.81,1.2,.81,.45,0,.81-.06,1.17-.18l.18,.89c-.44,.18-.97,.27-1.54,.27-1.44,0-2.27-.84-2.27-2.16,0-1.08,.67-2.27,2.14-2.27,1.38,0,1.9,1.07,1.9,2.12,0,.23-.03,.43-.05,.53h-2.73Zm1.55-.91c0-.32-.14-.86-.74-.86-.56,0-.79,.51-.82,.86h1.56Z"/>
  <path class="cls-2" d="M53.3,152.81c0-.63-.01-1.03-.03-1.4h1.14l.05,.79h.03c.22-.62,.73-.88,1.15-.88,.12,0,.18,0,.28,.03v1.24c-.1-.02-.21-.03-.36-.03-.49,0-.82,.26-.91,.67-.02,.08-.03,.19-.03,.3v2.15h-1.32v-2.85h0Z"/>
  <path class="cls-2" d="M56.59,154.5c.24,.15,.75,.32,1.13,.32s.57-.13,.57-.35-.13-.33-.63-.49c-.89-.29-1.22-.77-1.21-1.27,0-.8,.67-1.4,1.73-1.4,.5,0,.94,.12,1.2,.25l-.23,.91c-.19-.1-.56-.24-.92-.24-.32,0-.51,.13-.51,.34s.17,.31,.69,.49c.81,.27,1.15,.69,1.15,1.31,0,.79-.62,1.38-1.84,1.38-.56,0-1.05-.13-1.38-.3l.24-.94h0Z"/>
  <path class="cls-2" d="M61.73,150.22c0,.37-.27,.66-.71,.66s-.69-.29-.69-.66c0-.38,.27-.66,.7-.66s.69,.28,.7,.66Zm-1.36,5.43v-4.25h1.32v4.25h-1.32Z"/>
  <path class="cls-2" d="M64.22,150.19v1.21h.95v.98h-.95v1.54c0,.51,.13,.75,.52,.75,.17,0,.3-.02,.39-.04v1c-.16,.06-.48,.11-.85,.11-.43,0-.78-.15-.99-.37-.25-.25-.36-.66-.36-1.26v-1.74h-.56v-.98h.56v-.91l1.29-.3Z"/>
  <path class="cls-2" d="M66.97,151.4l.63,2.09c.07,.25,.16,.56,.21,.79h.03c.06-.23,.13-.54,.19-.79l.53-2.09h1.41l-.99,2.8c-.61,1.69-1.02,2.36-1.5,2.79-.46,.4-.94,.55-1.27,.58l-.28-1.12c.17-.03,.37-.11,.57-.23,.2-.11,.42-.32,.54-.53,.04-.07,.07-.13,.07-.19,0-.05-.01-.11-.06-.22l-1.56-3.89h1.47Z"/>
  <path class="cls-2" d="M76.46,153.49c0,1.55-1.1,2.26-2.24,2.26-1.24,0-2.2-.82-2.2-2.19s.9-2.25,2.27-2.25,2.16,.89,2.16,2.18h0Zm-3.07,.04c0,.72,.31,1.28,.87,1.28,.52,0,.84-.52,.84-1.28,0-.63-.24-1.27-.84-1.27-.63,0-.87,.65-.87,1.28h0Z"/>
  <path class="cls-2" d="M77.44,155.65v-3.28h-.56v-.98h.56v-.16c0-.51,.16-1.07,.53-1.42,.33-.31,.79-.43,1.18-.43,.29,0,.52,.04,.7,.09l-.05,1.01c-.12-.03-.25-.06-.43-.06-.43,0-.62,.34-.62,.75v.22h.85v.98h-.84v3.28h-1.32Z"/>
  <path class="cls-2" d="M86.99,153.42c-.03-.71-.05-1.55-.05-2.41h-.03c-.19,.75-.43,1.58-.65,2.27l-.72,2.28h-1.03l-.63-2.26c-.19-.69-.38-1.52-.53-2.29h-.02c-.03,.79-.06,1.7-.1,2.43l-.11,2.22h-1.22l.37-5.85h1.76l.57,1.96c.19,.67,.36,1.41,.49,2.09h.03c.16-.68,.36-1.45,.56-2.1l.62-1.95h1.73l.31,5.85h-1.28l-.09-2.24h0Z"/>
  <path class="cls-2" d="M91.79,155.65l-.08-.42h-.03c-.28,.34-.71,.52-1.22,.52-.86,0-1.37-.62-1.37-1.3,0-1.11,.99-1.63,2.5-1.63v-.05c0-.23-.12-.55-.78-.55-.43,0-.89,.15-1.17,.32l-.24-.85c.3-.17,.88-.38,1.65-.38,1.42,0,1.86,.84,1.86,1.84v1.48c0,.4,.02,.79,.07,1.03h-1.2Zm-.16-2.01c-.69,0-1.23,.16-1.23,.67,0,.34,.23,.51,.53,.51,.32,0,.6-.22,.68-.49,.02-.07,.03-.15,.03-.23v-.46h0Z"/>
  <path class="cls-2" d="M93.95,154.5c.24,.15,.75,.32,1.13,.32s.57-.13,.57-.35-.13-.33-.63-.49c-.89-.29-1.22-.77-1.21-1.27,0-.8,.67-1.4,1.73-1.4,.5,0,.94,.12,1.2,.25l-.23,.91c-.19-.1-.56-.24-.92-.24-.32,0-.51,.13-.51,.34s.17,.31,.69,.49c.81,.27,1.15,.69,1.15,1.31,0,.79-.62,1.38-1.84,1.38-.56,0-1.05-.13-1.38-.3l.24-.94h0Z"/>
  <path class="cls-2" d="M97.71,154.5c.24,.15,.75,.32,1.13,.32s.57-.13,.57-.35-.13-.33-.63-.49c-.89-.29-1.22-.77-1.21-1.27,0-.8,.67-1.4,1.73-1.4,.5,0,.94,.12,1.2,.25l-.23,.91c-.19-.1-.56-.24-.92-.24-.32,0-.51,.13-.51,.34s.17,.31,.69,.49c.81,.27,1.15,.69,1.15,1.31,0,.79-.62,1.38-1.84,1.38-.56,0-1.05-.13-1.38-.3l.24-.94h0Z"/>
  <path class="cls-2" d="M103.91,155.65l-.08-.42h-.03c-.28,.34-.71,.52-1.22,.52-.86,0-1.37-.62-1.37-1.3,0-1.11,.99-1.63,2.5-1.63v-.05c0-.23-.12-.55-.78-.55-.43,0-.89,.15-1.17,.32l-.24-.85c.3-.17,.88-.38,1.65-.38,1.42,0,1.86,.84,1.86,1.84v1.48c0,.4,.02,.79,.07,1.03h-1.2Zm-.16-2.01c-.69,0-1.23,.16-1.23,.67,0,.34,.23,.51,.53,.51,.32,0,.6-.22,.68-.49,.02-.07,.03-.15,.03-.23v-.46h0Z"/>
  <path class="cls-2" d="M109.26,155.55c-.24,.11-.68,.2-1.19,.2-1.37,0-2.25-.84-2.25-2.17,0-1.24,.85-2.26,2.43-2.26,.35,0,.73,.07,1.01,.17l-.2,.98c-.16-.07-.39-.13-.74-.13-.7,0-1.15,.49-1.14,1.19,0,.78,.53,1.19,1.16,1.19,.32,0,.56-.06,.76-.14l.16,.98h0Z"/>
  <path class="cls-2" d="M109.99,149.49h1.32v2.43h.02c.14-.19,.31-.33,.52-.44,.2-.11,.44-.17,.69-.17,.84,0,1.49,.59,1.49,1.87v2.48h-1.32v-2.34c0-.56-.19-.94-.68-.94-.35,0-.57,.23-.66,.47-.03,.08-.04,.19-.04,.29v2.52h-1.32v-6.16h0Z"/>
  <path class="cls-2" d="M119.08,154.3c0,.55,.02,1.01,.03,1.36h-1.15l-.06-.6h-.03c-.16,.26-.56,.69-1.32,.69-.86,0-1.49-.54-1.49-1.84v-2.5h1.32v2.28c0,.62,.2,.99,.66,.99,.36,0,.57-.25,.66-.46,.03-.08,.05-.17,.05-.28v-2.53h1.32v2.89h0Z"/>
  <path class="cls-2" d="M120.13,154.5c.24,.15,.75,.32,1.13,.32s.57-.13,.57-.35-.13-.33-.63-.49c-.89-.29-1.22-.77-1.21-1.27,0-.8,.67-1.4,1.73-1.4,.5,0,.94,.12,1.2,.25l-.23,.91c-.19-.1-.56-.24-.92-.24-.32,0-.51,.13-.51,.34s.17,.31,.69,.49c.81,.27,1.15,.69,1.15,1.31,0,.79-.62,1.38-1.84,1.38-.56,0-1.05-.13-1.38-.3l.24-.94h0Z"/>
  <path class="cls-2" d="M124.92,153.96c.04,.55,.58,.81,1.2,.81,.45,0,.81-.06,1.17-.18l.18,.89c-.44,.18-.97,.27-1.54,.27-1.44,0-2.27-.84-2.27-2.16,0-1.08,.67-2.27,2.14-2.27,1.38,0,1.9,1.07,1.9,2.12,0,.23-.03,.43-.05,.53h-2.73Zm1.55-.91c0-.32-.14-.86-.74-.86-.56,0-.79,.51-.82,.86h1.56Z"/>
  <path class="cls-2" d="M129.96,150.19v1.21h.95v.98h-.95v1.54c0,.51,.13,.75,.52,.75,.17,0,.3-.02,.39-.04v1c-.16,.06-.48,.11-.85,.11-.43,0-.78-.15-.99-.37-.25-.25-.36-.66-.36-1.26v-1.74h-.56v-.98h.56v-.91l1.29-.3Z"/>
  <path class="cls-2" d="M133.15,150.19v1.21h.95v.98h-.95v1.54c0,.51,.13,.75,.52,.75,.17,0,.3-.02,.39-.04v1c-.16,.06-.48,.11-.85,.11-.43,0-.78-.15-.99-.37-.25-.25-.36-.66-.36-1.26v-1.74h-.56v-.98h.56v-.91l1.29-.3Z"/>
  <path class="cls-2" d="M134.86,154.5c.24,.15,.75,.32,1.13,.32s.57-.13,.57-.35-.13-.33-.63-.49c-.89-.29-1.22-.77-1.21-1.27,0-.8,.67-1.4,1.73-1.4,.5,0,.94,.12,1.2,.25l-.23,.91c-.19-.1-.56-.24-.92-.24-.32,0-.51,.13-.51,.34s.17,.31,.69,.49c.81,.27,1.15,.69,1.15,1.31,0,.79-.62,1.38-1.84,1.38-.56,0-1.05-.13-1.38-.3l.24-.94h0Z"/>
  <g>
    <path class="cls-2" d="M101.53,164.86c-.25,.13-.75,.25-1.39,.25-1.48,0-2.6-.94-2.6-2.67s1.12-2.77,2.75-2.77c.65,0,1.07,.14,1.25,.23l-.17,.56c-.26-.12-.62-.22-1.06-.22-1.24,0-2.05,.79-2.05,2.17,0,1.29,.74,2.11,2.02,2.11,.42,0,.84-.08,1.12-.22l.13,.54h0Z"/>
    <path class="cls-2" d="M102.66,163.27c.01,.93,.6,1.31,1.29,1.31,.49,0,.79-.09,1.05-.2l.12,.49c-.24,.11-.66,.24-1.26,.24-1.16,0-1.86-.77-1.86-1.91s.67-2.04,1.78-2.04c1.23,0,1.55,1.08,1.55,1.78,0,.14,0,.25-.02,.32h-2.65Zm2.01-.49c0-.43-.18-1.11-.95-1.11-.7,0-1,.63-1.05,1.11h2Z"/>
    <path class="cls-2" d="M106.19,162.43c0-.45-.01-.82-.03-1.18h.6l.03,.74h.03c.18-.51,.59-.83,1.05-.83,.07,0,.13,0,.19,.02v.65c-.07-.01-.14-.02-.23-.02-.49,0-.82,.36-.92,.88-.02,.1-.03,.21-.03,.32v2.02h-.69v-2.6h0Z"/>
    <path class="cls-2" d="M109.76,160.16v1.09h.99v.52h-.99v2.04c0,.47,.13,.74,.52,.74,.18,0,.31-.02,.4-.05l.03,.52c-.13,.05-.35,.1-.61,.1-.32,0-.58-.1-.74-.29-.19-.21-.26-.54-.26-.99v-2.06h-.59v-.52h.59v-.91l.67-.18h0Z"/>
    <path class="cls-2" d="M112.29,160.18c0,.23-.16,.43-.44,.43-.25,0-.42-.2-.42-.43s.17-.43,.43-.43,.42,.19,.43,.43h0Zm-.77,4.85v-3.78h.69v3.78h-.69Z"/>
    <path class="cls-2" d="M113.41,165.03v-3.26h-.53v-.52h.53v-.21c0-.99,.59-1.65,1.65-1.65,.36,0,.77,.11,.96,.25l-.19,.52c-.17-.11-.46-.22-.8-.22-.72,0-.94,.51-.94,1.12v.19h2.2v3.78h-.69v-3.26h-1.51v3.26h-.69Z"/>
    <path class="cls-2" d="M120.13,164.9c-.18,.09-.58,.22-1.09,.22-1.14,0-1.89-.78-1.89-1.93s.79-2.01,2.03-2.01c.4,0,.77,.1,.96,.2l-.15,.53c-.17-.09-.43-.18-.8-.18-.86,0-1.34,.65-1.33,1.43,0,.88,.56,1.42,1.32,1.42,.39,0,.65-.1,.84-.18l.12,.52h0Z"/>
    <path class="cls-2" d="M123.04,165.03l-.06-.48h-.02c-.21,.3-.62,.56-1.15,.56-.76,0-1.15-.54-1.15-1.09,0-.92,.81-1.42,2.27-1.41v-.08c0-.31-.09-.88-.86-.87-.35,0-.72,.1-.99,.28l-.16-.46c.31-.2,.77-.33,1.25-.33,1.15,0,1.44,.79,1.44,1.55v1.42c0,.32,.01,.65,.06,.9h-.62Zm-.1-1.93c-.74-.02-1.6,.12-1.6,.85,0,.45,.3,.66,.64,.66,.5,0,.81-.31,.92-.63,.02-.07,.03-.15,.03-.22v-.66h0Z"/>
    <path class="cls-2" d="M125.5,160.16v1.09h.99v.52h-.99v2.04c0,.47,.13,.74,.52,.74,.18,0,.31-.02,.4-.05l.03,.52c-.13,.05-.35,.1-.61,.1-.32,0-.58-.1-.74-.29-.19-.21-.26-.54-.26-.99v-2.06h-.59v-.52h.59v-.91l.67-.18h0Z"/>
    <path class="cls-2" d="M127.6,163.27c.01,.93,.6,1.31,1.29,1.31,.49,0,.79-.09,1.05-.2l.12,.49c-.24,.11-.66,.24-1.26,.24-1.16,0-1.86-.77-1.86-1.91s.67-2.04,1.78-2.04c1.23,0,1.55,1.08,1.55,1.78,0,.14,0,.25-.02,.32h-2.65Zm2.01-.49c0-.43-.18-1.11-.95-1.11-.7,0-1,.63-1.05,1.11h2Z"/>
    <path class="cls-2" d="M133.55,160.18c0,.23-.16,.43-.44,.43-.25,0-.42-.2-.42-.43s.17-.43,.43-.43,.42,.19,.43,.43h0Zm-.77,4.85v-3.78h.69v3.78h-.69Z"/>
    <path class="cls-2" d="M134.61,162.27c0-.4-.01-.71-.03-1.02h.61l.04,.62h.02c.19-.36,.63-.71,1.25-.71,.52,0,1.33,.31,1.33,1.61v2.26h-.69v-2.18c0-.61-.23-1.12-.87-1.12-.45,0-.8,.32-.92,.7-.03,.08-.05,.2-.05,.32v2.28h-.69v-2.76h0Z"/>
  </g>
  <g>
    <path class="cls-2" d="M47.76,175.03l-1.34-5.27h.72l.63,2.67c.15,.66,.29,1.31,.39,1.82h.02c.09-.53,.25-1.15,.43-1.83l.71-2.66h.7l.64,2.67c.15,.63,.29,1.25,.37,1.81h.02c.1-.58,.25-1.16,.42-1.82l.69-2.66h.7l-1.49,5.27h-.71l-.66-2.74c-.16-.68-.28-1.19-.35-1.72h-.02c-.09,.53-.21,1.04-.4,1.72l-.75,2.74h-.71Z"/>
    <path class="cls-2" d="M53.62,173.27c.01,.93,.6,1.31,1.29,1.31,.49,0,.79-.09,1.05-.2l.12,.49c-.24,.11-.66,.24-1.26,.24-1.16,0-1.86-.77-1.86-1.91s.67-2.04,1.78-2.04c1.23,0,1.55,1.08,1.55,1.78,0,.14,0,.25-.02,.32h-2.65Zm2.01-.49c0-.43-.18-1.11-.95-1.11-.7,0-1,.63-1.05,1.11h2Z"/>
    <path class="cls-2" d="M57.12,175.03c.02-.26,.03-.64,.03-.98v-4.58h.68v2.37h.02c.24-.43,.68-.69,1.29-.69,.94,0,1.6,.78,1.6,1.92,0,1.35-.86,2.03-1.7,2.03-.55,0-.98-.21-1.27-.71h-.02l-.03,.62h-.59Zm.71-1.51c0,.09,0,.17,.03,.25,.13,.48,.53,.8,1.03,.8,.72,0,1.15-.59,1.15-1.45,0-.76-.39-1.41-1.13-1.41-.46,0-.9,.33-1.04,.85-.02,.08-.04,.18-.04,.29v.68h0Z"/>
    <path class="cls-2" d="M63.28,169.83c.42-.07,.91-.11,1.45-.11,.98,0,1.67,.23,2.14,.66,.47,.43,.75,1.04,.75,1.88s-.27,1.56-.76,2.05c-.5,.49-1.31,.76-2.33,.76-.49,0-.89-.02-1.24-.06v-5.18h0Zm.68,4.66c.17,.03,.43,.03,.69,.03,1.46,0,2.24-.81,2.24-2.23,0-1.25-.69-2.03-2.13-2.03-.35,0-.62,.03-.8,.07v4.16h0Z"/>
    <path class="cls-2" d="M68.88,173.27c.01,.93,.6,1.31,1.29,1.31,.49,0,.79-.09,1.05-.2l.12,.49c-.24,.11-.66,.24-1.26,.24-1.16,0-1.86-.77-1.86-1.91s.67-2.04,1.78-2.04c1.23,0,1.55,1.08,1.55,1.78,0,.14,0,.25-.02,.32h-2.65Zm2.01-.49c0-.43-.18-1.11-.95-1.11-.7,0-1,.63-1.05,1.11h2Z"/>
    <path class="cls-2" d="M72.31,174.33c.21,.13,.57,.27,.91,.27,.5,0,.73-.25,.73-.56s-.2-.5-.7-.69c-.68-.25-1.01-.62-1-1.07,0-.61,.49-1.11,1.31-1.11,.39,0,.72,.1,.92,.23l-.17,.5c-.14-.09-.42-.22-.78-.22-.4,0-.63,.23-.63,.52,0,.31,.22,.45,.72,.64,.65,.24,.99,.57,.99,1.14,0,.67-.52,1.14-1.42,1.14-.41,0-.79-.11-1.06-.26l.16-.52h0Z"/>
    <path class="cls-2" d="M76.27,170.18c0,.23-.16,.43-.44,.43-.25,0-.42-.2-.42-.43s.17-.43,.43-.43,.42,.19,.43,.43h0Zm-.77,4.85v-3.78h.69v3.78h-.69Z"/>
    <path class="cls-2" d="M80.59,171.25c-.02,.27-.03,.57-.03,1.03v2.2c0,.88-.18,1.4-.54,1.73s-.9,.45-1.38,.45-.96-.11-1.26-.31l.17-.53c.25,.16,.64,.3,1.11,.3,.7,0,1.22-.37,1.22-1.32v-.42h-.02c-.21,.36-.62,.64-1.2,.64-.94,0-1.61-.8-1.61-1.85,0-1.28,.83-2.01,1.71-2.01,.66,0,1.01,.34,1.18,.65h.02l.03-.56h.6Zm-.71,1.48c0-.11,0-.22-.04-.31-.13-.4-.46-.73-.96-.73-.66,0-1.12,.56-1.12,1.43,0,.74,.38,1.36,1.12,1.36,.43,0,.81-.27,.96-.71,.03-.11,.05-.25,.05-.36v-.68h0Z"/>
    <path class="cls-2" d="M81.65,172.27c0-.4-.01-.71-.03-1.02h.61l.04,.62h.02c.19-.36,.63-.71,1.25-.71,.52,0,1.33,.31,1.33,1.61v2.26h-.69v-2.18c0-.61-.23-1.12-.87-1.12-.45,0-.8,.32-.92,.7-.03,.08-.05,.2-.05,.32v2.28h-.69v-2.76h0Z"/>
    <path class="cls-2" d="M90.96,175.03c-.15-.15-.29-.3-.49-.51-.46,.42-.96,.6-1.54,.6-1.02,0-1.62-.69-1.62-1.48,0-.72,.43-1.21,1.03-1.54v-.03c-.27-.34-.44-.72-.44-1.1,0-.65,.46-1.3,1.34-1.3,.66,0,1.17,.43,1.17,1.12,0,.55-.33,.99-1.15,1.41v.03c.45,.52,.94,1.09,1.28,1.47,.24-.37,.4-.88,.51-1.54h.63c-.14,.83-.36,1.48-.76,1.94,.28,.3,.56,.59,.87,.93h-.82Zm-.83-.91c-.31-.34-.9-.99-1.48-1.66-.29,.18-.68,.52-.68,1.07,0,.61,.44,1.06,1.08,1.06,.46,0,.83-.2,1.09-.47h0Zm-1.6-3.22c0,.38,.18,.67,.4,.95,.53-.3,.87-.59,.87-1.03,0-.33-.18-.68-.61-.68s-.66,.36-.66,.76h0Z"/>
    <path class="cls-2" d="M94.05,169.83c.42-.07,.91-.11,1.45-.11,.98,0,1.67,.23,2.14,.66,.47,.43,.75,1.04,.75,1.88s-.27,1.56-.76,2.05c-.5,.49-1.31,.76-2.33,.76-.49,0-.89-.02-1.24-.06v-5.18h0Zm.69,4.66c.17,.03,.43,.03,.69,.03,1.46,0,2.24-.81,2.24-2.23,0-1.25-.69-2.03-2.13-2.03-.35,0-.62,.03-.8,.07v4.16h0Z"/>
    <path class="cls-2" d="M99.65,173.27c.01,.93,.6,1.31,1.29,1.31,.49,0,.79-.09,1.05-.2l.12,.49c-.24,.11-.66,.24-1.26,.24-1.16,0-1.86-.77-1.86-1.91s.67-2.04,1.78-2.04c1.23,0,1.55,1.08,1.55,1.78,0,.14,0,.25-.02,.32h-2.65Zm2.01-.49c0-.43-.18-1.11-.95-1.11-.7,0-1,.63-1.05,1.11h2Z"/>
    <path class="cls-2" d="M103.44,171.25l.74,2.12c.13,.35,.23,.66,.31,.98h.02c.09-.31,.2-.63,.32-.98l.74-2.12h.72l-1.49,3.78h-.66l-1.44-3.78h.74Z"/>
    <path class="cls-2" d="M107.24,173.27c.01,.93,.6,1.31,1.29,1.31,.49,0,.79-.09,1.05-.2l.12,.49c-.24,.11-.66,.24-1.26,.24-1.16,0-1.86-.77-1.86-1.91s.67-2.04,1.78-2.04c1.23,0,1.55,1.08,1.55,1.78,0,.14,0,.25-.02,.32h-2.65Zm2.01-.49c0-.43-.18-1.11-.95-1.11-.7,0-1,.63-1.05,1.11h2Z"/>
    <path class="cls-2" d="M110.77,169.48h.69v5.55h-.69v-5.55Z"/>
    <path class="cls-2" d="M116.04,173.11c0,1.4-.97,2.01-1.88,2.01-1.02,0-1.82-.75-1.82-1.95,0-1.26,.83-2.01,1.88-2.01s1.82,.79,1.82,1.94h0Zm-3,.04c0,.83,.47,1.45,1.15,1.45s1.15-.62,1.15-1.48c0-.64-.32-1.45-1.14-1.45s-1.16,.75-1.16,1.47h0Z"/>
    <path class="cls-2" d="M116.91,172.48c0-.48-.01-.87-.03-1.23h.62l.04,.64h.02c.27-.46,.73-.73,1.34-.73,.92,0,1.61,.77,1.61,1.92,0,1.36-.83,2.04-1.72,2.04-.5,0-.94-.22-1.16-.59h-.02v2.06h-.68v-4.1h0Zm.68,1.01c0,.1,0,.19,.03,.28,.12,.48,.54,.81,1.03,.81,.73,0,1.15-.6,1.15-1.46,0-.76-.4-1.4-1.12-1.4-.47,0-.91,.33-1.04,.85-.02,.09-.04,.19-.04,.28v.66h0Z"/>
    <path class="cls-2" d="M121.35,172.27c0-.4-.01-.71-.03-1.02h.6l.03,.61h.02c.21-.36,.56-.69,1.19-.69,.51,0,.9,.31,1.06,.76h.02c.12-.22,.27-.38,.43-.49,.23-.17,.47-.26,.83-.26,.5,0,1.25,.33,1.25,1.64v2.23h-.67v-2.14c0-.73-.27-1.17-.82-1.17-.4,0-.69,.29-.82,.62-.03,.1-.06,.22-.06,.34v2.34h-.67v-2.27c0-.6-.26-1.03-.79-1.03-.43,0-.74,.34-.86,.69-.03,.1-.05,.22-.05,.34v2.28h-.67v-2.76h0Z"/>
    <path class="cls-2" d="M128.25,173.27c.01,.93,.6,1.31,1.29,1.31,.49,0,.79-.09,1.05-.2l.12,.49c-.24,.11-.66,.24-1.26,.24-1.16,0-1.86-.77-1.86-1.91s.67-2.04,1.78-2.04c1.23,0,1.55,1.08,1.55,1.78,0,.14,0,.25-.02,.32h-2.65Zm2.01-.49c0-.43-.18-1.11-.95-1.11-.7,0-1,.63-1.05,1.11h2Z"/>
    <path class="cls-2" d="M131.78,172.27c0-.4-.01-.71-.03-1.02h.61l.04,.62h.02c.19-.36,.63-.71,1.25-.71,.52,0,1.33,.31,1.33,1.61v2.26h-.69v-2.18c0-.61-.23-1.12-.87-1.12-.45,0-.8,.32-.92,.7-.03,.08-.05,.2-.05,.32v2.28h-.69v-2.76h0Z"/>
    <path class="cls-2" d="M136.91,170.16v1.09h.99v.52h-.99v2.04c0,.47,.13,.74,.52,.74,.18,0,.31-.02,.4-.05l.03,.52c-.13,.05-.35,.1-.61,.1-.32,0-.58-.1-.74-.29-.19-.21-.26-.54-.26-.99v-2.06h-.59v-.52h.59v-.91l.67-.18h0Z"/>
  </g>
  <g>
    <path class="cls-2" d="M82.66,181.82c0,1.72-.65,2.68-1.77,2.68-.99,0-1.67-.93-1.68-2.61,0-1.71,.74-2.64,1.77-2.64s1.68,.96,1.68,2.57h0Zm-2.76,.07c0,1.32,.41,2.07,1.03,2.07,.7,0,1.04-.82,1.04-2.11s-.32-2.07-1.03-2.07c-.6,0-1.04,.73-1.04,2.11h0Z"/>
    <path class="cls-2" d="M83.69,183.93c.15,.01,.32,0,.55-.03,.4-.05,.77-.21,1.07-.49,.33-.31,.57-.76,.67-1.35h-.02c-.29,.35-.69,.55-1.2,.55-.91,0-1.5-.69-1.5-1.56,0-.96,.7-1.8,1.74-1.8s1.68,.84,1.68,2.14c0,1.12-.38,1.89-.88,2.38-.39,.38-.93,.62-1.48,.68-.24,.04-.47,.05-.63,.04v-.56h0Zm.25-2.92c0,.63,.38,1.08,.98,1.08,.46,0,.82-.23,1-.53,.03-.07,.06-.14,.06-.25,0-.87-.32-1.53-1.04-1.53-.59,0-1,.52-1,1.24h0Z"/>
    <path class="cls-2" d="M86.94,184.72l2.18-5.67h.53l-2.19,5.67h-.52Z"/>
    <path class="cls-2" d="M89.97,184.41v-.42l.54-.53c1.3-1.24,1.89-1.9,1.89-2.66,0-.52-.24-.99-1-.99-.46,0-.85,.24-1.08,.43l-.22-.48c.35-.3,.85-.52,1.44-.52,1.09,0,1.55,.75,1.55,1.48,0,.94-.68,1.7-1.75,2.73l-.4,.38v.02h2.27v.57h-3.24Z"/>
    <path class="cls-2" d="M97.37,181.82c0,1.72-.65,2.68-1.77,2.68-.99,0-1.67-.93-1.68-2.61,0-1.71,.74-2.64,1.77-2.64s1.68,.96,1.68,2.57h0Zm-2.76,.07c0,1.32,.41,2.07,1.03,2.07,.7,0,1.04-.82,1.04-2.11s-.32-2.07-1.03-2.07c-.6,0-1.04,.73-1.04,2.11h0Z"/>
    <path class="cls-2" d="M97.99,184.41v-.42l.54-.53c1.3-1.24,1.89-1.9,1.89-2.66,0-.52-.24-.99-1-.99-.46,0-.85,.24-1.08,.43l-.22-.48c.35-.3,.85-.52,1.44-.52,1.09,0,1.55,.75,1.55,1.48,0,.94-.68,1.7-1.75,2.73l-.4,.38v.02h2.27v.57h-3.24Z"/>
    <path class="cls-2" d="M103.5,179.97h-.02l-.88,.48-.13-.52,1.11-.59h.58v5.08h-.66v-4.44h0Z"/>
    <path class="cls-2" d="M109.48,182.05v.5h-1.93v-.5h1.93Z"/>
    <path class="cls-2" d="M113.22,179.97h-.02l-.88,.48-.13-.52,1.11-.59h.58v5.08h-.66v-4.44h0Z"/>
    <path class="cls-2" d="M115.73,184.41v-.42l.54-.53c1.3-1.24,1.89-1.9,1.89-2.66,0-.52-.24-.99-1-.99-.46,0-.85,.24-1.08,.43l-.22-.48c.35-.3,.85-.52,1.44-.52,1.09,0,1.55,.75,1.55,1.48,0,.94-.68,1.7-1.75,2.73l-.4,.38v.02h2.27v.57h-3.24Z"/>
    <path class="cls-2" d="M119.38,184.72l2.18-5.67h.53l-2.19,5.67h-.52Z"/>
    <path class="cls-2" d="M122.42,184.41v-.42l.54-.53c1.3-1.24,1.89-1.9,1.89-2.66,0-.52-.24-.99-1-.99-.46,0-.85,.24-1.08,.43l-.22-.48c.35-.3,.85-.52,1.44-.52,1.09,0,1.55,.75,1.55,1.48,0,.94-.68,1.7-1.75,2.73l-.4,.38v.02h2.27v.57h-3.24Z"/>
    <path class="cls-2" d="M129.81,181.82c0,1.72-.65,2.68-1.77,2.68-.99,0-1.67-.93-1.68-2.61,0-1.71,.74-2.64,1.77-2.64s1.68,.96,1.68,2.57h0Zm-2.76,.07c0,1.32,.41,2.07,1.03,2.07,.7,0,1.04-.82,1.04-2.11s-.32-2.07-1.03-2.07c-.6,0-1.04,.73-1.04,2.11h0Z"/>
    <path class="cls-2" d="M130.43,184.41v-.42l.54-.53c1.3-1.24,1.89-1.9,1.89-2.66,0-.52-.24-.99-1-.99-.46,0-.85,.24-1.08,.43l-.22-.48c.35-.3,.85-.52,1.44-.52,1.09,0,1.55,.75,1.55,1.48,0,.94-.68,1.7-1.75,2.73l-.4,.38v.02h2.27v.57h-3.24Z"/>
    <path class="cls-2" d="M134.44,184.41v-.42l.54-.53c1.3-1.24,1.89-1.9,1.89-2.66,0-.52-.24-.99-1-.99-.46,0-.85,.24-1.08,.43l-.22-.48c.35-.3,.85-.52,1.44-.52,1.09,0,1.55,.75,1.55,1.48,0,.94-.68,1.7-1.75,2.73l-.4,.38v.02h2.27v.57h-3.24Z"/>
  </g>
  <g>
    <path class="cls-2" d="M63.38,208.97c.49-.08,1.12-.13,1.78-.13,1.11,0,1.84,.2,2.4,.63,.61,.45,.99,1.17,.99,2.2,0,1.12-.4,1.9-.97,2.37-.62,.51-1.56,.76-2.7,.76-.69,0-1.18-.04-1.5-.09v-5.75Zm1.32,4.78c.12,.02,.3,.02,.46,.02,1.2,0,1.99-.65,1.99-2.05,0-1.22-.71-1.85-1.84-1.85-.29,0-.49,.03-.6,.05v3.83h0Z"/>
    <path class="cls-2" d="M73.42,213.38c0,.55,.02,1.01,.03,1.36h-1.15l-.06-.6h-.03c-.16,.26-.56,.69-1.32,.69-.86,0-1.49-.54-1.49-1.84v-2.5h1.32v2.28c0,.62,.2,.99,.66,.99,.36,0,.57-.25,.66-.46,.03-.08,.05-.17,.05-.28v-2.53h1.32v2.89h0Z"/>
    <path class="cls-2" d="M74.48,211.85c0-.53-.02-.98-.03-1.36h1.15l.06,.59h.03c.17-.27,.6-.69,1.32-.69,.87,0,1.52,.58,1.52,1.83v2.52h-1.32v-2.36c0-.55-.2-.92-.67-.92-.36,0-.58,.26-.67,.5-.03,.08-.05,.21-.05,.33v2.45h-1.32v-2.89h0Z"/>
    <path class="cls-2" d="M80.89,212.29h.02c.1-.18,.2-.36,.31-.51l.86-1.28h1.58l-1.52,1.72,1.74,2.53h-1.62l-1.03-1.75-.33,.42v1.32h-1.32v-6.16h1.32v3.71h0Z"/>
    <path class="cls-2" d="M85.72,209.31c0,.37-.27,.66-.71,.66s-.69-.29-.69-.66c0-.38,.27-.66,.7-.66s.69,.28,.7,.66Zm-1.36,5.43v-4.25h1.32v4.25h-1.32Z"/>
    <path class="cls-2" d="M86.73,211.85c0-.53-.02-.98-.03-1.36h1.15l.06,.59h.03c.17-.27,.6-.69,1.32-.69,.87,0,1.52,.58,1.52,1.83v2.52h-1.32v-2.36c0-.55-.2-.92-.67-.92-.36,0-.58,.26-.67,.5-.03,.08-.05,.21-.05,.33v2.45h-1.32v-2.89h0Z"/>
    <path class="cls-2" d="M93.13,208.79c-.27,.85-.65,1.7-1.04,2.35l-.8,.07c.26-.74,.49-1.58,.61-2.34l1.24-.08h0Z"/>
    <path class="cls-2" d="M95.07,208.97c.49-.08,1.12-.13,1.78-.13,1.11,0,1.84,.2,2.4,.63,.61,.45,.99,1.17,.99,2.2,0,1.12-.4,1.9-.97,2.37-.62,.51-1.56,.76-2.7,.76-.69,0-1.18-.04-1.5-.09v-5.75Zm1.32,4.78c.12,.02,.3,.02,.46,.02,1.2,0,1.99-.65,1.99-2.05,0-1.22-.71-1.85-1.84-1.85-.29,0-.49,.03-.6,.05v3.83h0Z"/>
    <path class="cls-2" d="M105.25,212.57c0,1.55-1.1,2.26-2.24,2.26-1.24,0-2.2-.82-2.2-2.19s.9-2.25,2.27-2.25,2.16,.89,2.16,2.18h0Zm-3.07,.04c0,.72,.31,1.28,.87,1.28,.52,0,.84-.52,.84-1.28,0-.63-.24-1.27-.84-1.27-.63,0-.87,.65-.87,1.28h0Z"/>
    <path class="cls-2" d="M106.06,211.85c0-.53-.02-.98-.03-1.36h1.15l.06,.59h.03c.17-.27,.6-.69,1.32-.69,.87,0,1.52,.58,1.52,1.83v2.52h-1.32v-2.36c0-.55-.2-.92-.67-.92-.36,0-.58,.26-.67,.5-.03,.08-.05,.21-.05,.33v2.45h-1.32v-2.89h0Z"/>
    <path class="cls-2" d="M115.16,213.38c0,.55,.02,1.01,.03,1.36h-1.15l-.06-.6h-.03c-.16,.26-.56,.69-1.32,.69-.86,0-1.49-.54-1.49-1.84v-2.5h1.32v2.28c0,.62,.2,.99,.66,.99,.36,0,.57-.25,.66-.46,.03-.08,.05-.17,.05-.28v-2.53h1.32v2.89h0Z"/>
    <path class="cls-2" d="M117.69,209.28v1.21h.95v.98h-.95v1.54c0,.51,.13,.75,.52,.75,.17,0,.3-.02,.39-.04v1c-.16,.06-.48,.11-.85,.11-.43,0-.78-.15-.99-.37-.25-.25-.36-.66-.36-1.26v-1.74h-.56v-.98h.56v-.91l1.29-.3Z"/>
    <path class="cls-2" d="M119.39,213.59c.24,.15,.75,.32,1.13,.32s.57-.13,.57-.35-.13-.33-.63-.49c-.89-.29-1.22-.77-1.21-1.27,0-.8,.67-1.4,1.73-1.4,.5,0,.94,.12,1.2,.25l-.23,.91c-.19-.1-.56-.24-.92-.24-.32,0-.51,.13-.51,.34s.17,.31,.69,.49c.81,.27,1.15,.69,1.15,1.31,0,.79-.62,1.38-1.84,1.38-.56,0-1.05-.13-1.38-.3l.24-.94h0Z"/>
    <path class="cls-2" d="M124.97,208.89h1.32v4.74h2.33v1.11h-3.65v-5.85h0Z"/>
    <path class="cls-2" d="M129.4,208.89h1.32v4.74h2.33v1.11h-3.65v-5.85h0Z"/>
    <path class="cls-2" d="M137.8,214.58c-.24,.12-.79,.25-1.5,.25-2.03,0-3.07-1.27-3.07-2.93,0-2,1.43-3.1,3.2-3.1,.69,0,1.21,.13,1.44,.26l-.27,1.05c-.26-.11-.64-.22-1.11-.22-1.05,0-1.86,.64-1.86,1.94,0,1.17,.69,1.91,1.87,1.91,.4,0,.84-.08,1.11-.19l.2,1.04h0Z"/>
    <path class="cls-2" d="M96.39,223.95c-.25,.13-.75,.25-1.39,.25-1.48,0-2.6-.94-2.6-2.67s1.12-2.77,2.75-2.77c.65,0,1.07,.14,1.25,.23l-.17,.56c-.26-.12-.62-.22-1.06-.22-1.24,0-2.05,.79-2.05,2.17,0,1.29,.74,2.11,2.02,2.11,.42,0,.84-.08,1.12-.22l.13,.54h0Z"/>
    <path class="cls-2" d="M97.19,221.52c0-.45-.01-.82-.03-1.18h.6l.03,.74h.03c.18-.51,.59-.83,1.05-.83,.07,0,.13,0,.19,.02v.65c-.07-.01-.14-.02-.23-.02-.49,0-.82,.36-.92,.88-.02,.1-.03,.21-.03,.32v2.02h-.69v-2.6h0Z"/>
    <path class="cls-2" d="M100.05,222.35c.01,.93,.6,1.31,1.29,1.31,.49,0,.79-.09,1.05-.2l.12,.49c-.24,.11-.66,.24-1.26,.24-1.16,0-1.86-.77-1.86-1.91s.67-2.04,1.78-2.04c1.23,0,1.55,1.08,1.55,1.78,0,.14,0,.25-.02,.32h-2.65Zm2.01-.49c0-.43-.18-1.11-.95-1.11-.7,0-1,.63-1.05,1.11h2Z"/>
    <path class="cls-2" d="M103.85,220.34l.51,1.92c.11,.42,.2,.82,.28,1.21h.02c.08-.38,.21-.79,.34-1.2l.62-1.92h.58l.59,1.89c.13,.45,.25,.85,.33,1.23h.02c.07-.38,.17-.78,.3-1.23l.54-1.9h.68l-1.22,3.78h-.63l-.57-1.81c-.13-.43-.24-.8-.33-1.25h-.02c-.1,.46-.21,.85-.35,1.25l-.61,1.8h-.63l-1.14-3.78h.7Z"/>
    <path class="cls-2" d="M115.46,221.81c-.04-.73-.09-1.62-.08-2.27h-.02c-.18,.61-.4,1.28-.66,2l-.93,2.56h-.51l-.86-2.51c-.25-.74-.46-1.42-.6-2.04h-.02c-.02,.66-.05,1.53-.1,2.32l-.14,2.26h-.65l.36-5.27h.87l.9,2.55c.22,.65,.4,1.22,.53,1.78h.02c.14-.53,.32-1.12,.56-1.78l.94-2.55h.87l.33,5.27h-.67l-.13-2.31h0Z"/>
    <path class="cls-2" d="M117.7,222.35c.01,.93,.6,1.31,1.29,1.31,.49,0,.79-.09,1.05-.2l.12,.49c-.24,.11-.66,.24-1.26,.24-1.16,0-1.86-.77-1.86-1.91s.67-2.04,1.78-2.04c1.23,0,1.55,1.08,1.55,1.78,0,.14,0,.25-.02,.32h-2.65Zm2.01-.49c0-.43-.18-1.11-.95-1.11-.7,0-1,.63-1.05,1.11h2Z"/>
    <path class="cls-2" d="M121.23,221.36c0-.4-.01-.71-.03-1.02h.6l.03,.61h.02c.21-.36,.56-.69,1.19-.69,.51,0,.9,.31,1.06,.76h.02c.12-.22,.27-.38,.43-.49,.23-.17,.47-.26,.83-.26,.5,0,1.25,.33,1.25,1.64v2.23h-.67v-2.14c0-.73-.27-1.17-.82-1.17-.4,0-.69,.29-.82,.62-.03,.1-.06,.22-.06,.34v2.34h-.67v-2.27c0-.6-.26-1.03-.79-1.03-.43,0-.74,.34-.86,.69-.03,.1-.05,.22-.05,.34v2.28h-.67v-2.76h0Z"/>
    <path class="cls-2" d="M127.72,224.12c.02-.26,.03-.64,.03-.98v-4.58h.68v2.37h.02c.24-.43,.68-.69,1.29-.69,.94,0,1.6,.78,1.6,1.92,0,1.35-.86,2.03-1.7,2.03-.55,0-.98-.21-1.27-.71h-.02l-.03,.62h-.59Zm.71-1.51c0,.09,0,.17,.03,.25,.13,.48,.53,.8,1.03,.8,.72,0,1.15-.59,1.15-1.45,0-.76-.39-1.41-1.13-1.41-.46,0-.9,.33-1.04,.85-.02,.08-.04,.18-.04,.29v.68h0Z"/>
    <path class="cls-2" d="M132.59,222.35c.01,.93,.6,1.31,1.29,1.31,.49,0,.79-.09,1.05-.2l.12,.49c-.24,.11-.66,.24-1.26,.24-1.16,0-1.86-.77-1.86-1.91s.67-2.04,1.78-2.04c1.23,0,1.55,1.08,1.55,1.78,0,.14,0,.25-.02,.32h-2.65Zm2.01-.49c0-.43-.18-1.11-.95-1.11-.7,0-1,.63-1.05,1.11h2Z"/>
    <path class="cls-2" d="M136.12,221.52c0-.45-.01-.82-.03-1.18h.6l.03,.74h.03c.18-.51,.59-.83,1.05-.83,.07,0,.13,0,.19,.02v.65c-.07-.01-.14-.02-.23-.02-.49,0-.82,.36-.92,.88-.02,.1-.03,.21-.03,.32v2.02h-.69v-2.6h0Z"/>
    <path class="cls-2" d="M80.77,229.05h-.02l-.88,.48-.13-.52,1.11-.59h.58v5.08h-.66v-4.44h0Z"/>
    <path class="cls-2" d="M84.78,229.05h-.02l-.88,.48-.13-.52,1.11-.59h.58v5.08h-.66v-4.44h0Z"/>
    <path class="cls-2" d="M86.94,233.81l2.18-5.67h.53l-2.19,5.67h-.52Z"/>
    <path class="cls-2" d="M89.97,233.5v-.42l.54-.53c1.3-1.24,1.89-1.9,1.89-2.66,0-.52-.24-.99-1-.99-.46,0-.85,.24-1.08,.43l-.22-.48c.35-.3,.85-.52,1.44-.52,1.09,0,1.55,.75,1.55,1.48,0,.94-.68,1.7-1.75,2.73l-.4,.38v.02h2.27v.57h-3.24Z"/>
    <path class="cls-2" d="M97.37,230.91c0,1.72-.65,2.68-1.77,2.68-.99,0-1.67-.93-1.68-2.61,0-1.71,.74-2.64,1.77-2.64s1.68,.96,1.68,2.57h0Zm-2.76,.07c0,1.32,.41,2.07,1.03,2.07,.7,0,1.04-.82,1.04-2.11s-.32-2.07-1.03-2.07c-.6,0-1.04,.73-1.04,2.11h0Z"/>
    <path class="cls-2" d="M99.48,229.05h-.02l-.88,.48-.13-.52,1.11-.59h.58v5.08h-.66v-4.44h0Z"/>
    <path class="cls-2" d="M104.13,233.5v-1.38h-2.36v-.45l2.26-3.25h.75v3.16h.71v.53h-.71v1.38h-.65Zm0-1.92v-1.7c0-.26,0-.53,.03-.79h-.03c-.16,.3-.28,.52-.42,.75l-1.24,1.73v.02h1.66Z"/>
    <path class="cls-2" d="M109.48,231.13v.5h-1.93v-.5h1.93Z"/>
    <path class="cls-2" d="M115.1,230.91c0,1.72-.65,2.68-1.77,2.68-.99,0-1.67-.93-1.68-2.61,0-1.71,.74-2.64,1.77-2.64s1.68,.96,1.68,2.57h0Zm-2.76,.07c0,1.32,.41,2.07,1.03,2.07,.7,0,1.04-.82,1.04-2.11s-.32-2.07-1.03-2.07c-.6,0-1.04,.73-1.04,2.11h0Z"/>
    <path class="cls-2" d="M116.13,233.01c.15,.01,.32,0,.55-.03,.4-.05,.77-.21,1.07-.49,.33-.31,.57-.76,.67-1.35h-.02c-.29,.35-.69,.55-1.2,.55-.91,0-1.5-.69-1.5-1.56,0-.96,.7-1.8,1.74-1.8s1.68,.84,1.68,2.14c0,1.12-.38,1.89-.88,2.38-.39,.38-.93,.62-1.48,.68-.24,.04-.47,.05-.63,.04v-.56Zm.25-2.92c0,.63,.38,1.08,.98,1.08,.46,0,.82-.23,1-.53,.03-.07,.06-.14,.06-.25,0-.87-.32-1.53-1.04-1.53-.59,0-1,.52-1,1.24h0Z"/>
    <path class="cls-2" d="M119.38,233.81l2.18-5.67h.53l-2.19,5.67h-.52Z"/>
    <path class="cls-2" d="M122.42,233.5v-.42l.54-.53c1.3-1.24,1.89-1.9,1.89-2.66,0-.52-.24-.99-1-.99-.46,0-.85,.24-1.08,.43l-.22-.48c.35-.3,.85-.52,1.44-.52,1.09,0,1.55,.75,1.55,1.48,0,.94-.68,1.7-1.75,2.73l-.4,.38v.02h2.27v.57h-3.24Z"/>
    <path class="cls-2" d="M129.81,230.91c0,1.72-.65,2.68-1.77,2.68-.99,0-1.67-.93-1.68-2.61,0-1.71,.74-2.64,1.77-2.64s1.68,.96,1.68,2.57h0Zm-2.76,.07c0,1.32,.41,2.07,1.03,2.07,.7,0,1.04-.82,1.04-2.11s-.32-2.07-1.03-2.07c-.6,0-1.04,.73-1.04,2.11h0Z"/>
    <path class="cls-2" d="M130.43,233.5v-.42l.54-.53c1.3-1.24,1.89-1.9,1.89-2.66,0-.52-.24-.99-1-.99-.46,0-.85,.24-1.08,.43l-.22-.48c.35-.3,.85-.52,1.44-.52,1.09,0,1.55,.75,1.55,1.48,0,.94-.68,1.7-1.75,2.73l-.4,.38v.02h2.27v.57h-3.24Z"/>
    <path class="cls-2" d="M135.94,229.05h-.02l-.88,.48-.13-.52,1.11-.59h.58v5.08h-.66v-4.44h0Z"/>
  </g>
  <g>
    <path class="cls-2" d="M199.38,63.02c.49-.08,1.12-.13,1.78-.13,1.11,0,1.84,.2,2.4,.63,.61,.45,.99,1.17,.99,2.2,0,1.12-.4,1.9-.97,2.37-.62,.51-1.56,.76-2.7,.76-.69,0-1.18-.04-1.5-.09v-5.75h0Zm1.32,4.78c.12,.02,.3,.02,.46,.02,1.2,0,1.99-.65,1.99-2.05,0-1.22-.71-1.85-1.84-1.85-.29,0-.49,.03-.6,.05v3.83h0Z"/>
    <path class="cls-2" d="M206.39,67.09c.04,.55,.58,.81,1.2,.81,.45,0,.81-.06,1.17-.18l.18,.89c-.44,.18-.97,.27-1.54,.27-1.44,0-2.27-.84-2.27-2.16,0-1.08,.67-2.27,2.14-2.27,1.38,0,1.9,1.07,1.9,2.12,0,.23-.03,.43-.05,.53h-2.73Zm1.55-.9c0-.32-.14-.86-.74-.86-.56,0-.79,.51-.82,.86h1.56Z"/>
    <path class="cls-2" d="M211.32,63.36c0,.37-.27,.66-.71,.66s-.69-.29-.69-.66c0-.38,.27-.66,.7-.66s.69,.28,.7,.66h0Zm-1.36,5.43v-4.25h1.32v4.25h-1.32Z"/>
    <path class="cls-2" d="M212.33,67.64c.24,.15,.75,.32,1.13,.32s.57-.13,.57-.35-.13-.33-.63-.49c-.89-.29-1.22-.77-1.21-1.27,0-.8,.67-1.4,1.73-1.4,.5,0,.94,.12,1.2,.25l-.23,.91c-.19-.1-.56-.24-.92-.24-.32,0-.51,.13-.51,.34s.17,.31,.69,.49c.81,.27,1.15,.69,1.15,1.31,0,.79-.62,1.38-1.84,1.38-.56,0-1.05-.13-1.38-.3l.24-.94h0Z"/>
    <path class="cls-2" d="M217.47,62.94v2.25h2.18v-2.25h1.32v5.85h-1.32v-2.45h-2.18v2.45h-1.32v-5.85h1.32Z"/>
    <path class="cls-2" d="M224.52,68.79l-.08-.42h-.03c-.28,.34-.71,.52-1.22,.52-.86,0-1.37-.62-1.37-1.3,0-1.11,.99-1.63,2.5-1.63v-.05c0-.23-.12-.55-.78-.55-.43,0-.89,.15-1.17,.32l-.24-.85c.3-.17,.88-.38,1.65-.38,1.42,0,1.86,.84,1.86,1.84v1.48c0,.4,.02,.79,.07,1.03h-1.2Zm-.16-2.01c-.69,0-1.23,.16-1.23,.67,0,.34,.23,.51,.53,.51,.32,0,.6-.22,.68-.49,.02-.07,.03-.15,.03-.23v-.46h0Z"/>
    <path class="cls-2" d="M229.87,68.69c-.24,.11-.68,.2-1.19,.2-1.37,0-2.25-.84-2.25-2.17,0-1.24,.85-2.26,2.43-2.26,.35,0,.73,.07,1.01,.17l-.2,.98c-.16-.07-.39-.13-.74-.13-.7,0-1.15,.49-1.14,1.19,0,.78,.53,1.19,1.16,1.19,.32,0,.56-.06,.76-.14l.16,.97h0Z"/>
    <path class="cls-2" d="M231.92,66.34h.02c.1-.18,.2-.36,.31-.51l.86-1.28h1.58l-1.52,1.72,1.74,2.53h-1.62l-1.03-1.75-.33,.42v1.32h-1.32v-6.16h1.32v3.71h0Z"/>
    <path class="cls-2" d="M235.3,67.64c.24,.15,.75,.32,1.13,.32s.57-.13,.57-.35-.13-.33-.63-.49c-.89-.29-1.22-.77-1.21-1.27,0-.8,.67-1.4,1.73-1.4,.5,0,.94,.12,1.2,.25l-.23,.91c-.19-.1-.56-.24-.92-.24-.32,0-.51,.13-.51,.34s.17,.31,.69,.49c.81,.27,1.15,.69,1.15,1.31,0,.79-.62,1.38-1.84,1.38-.56,0-1.05-.13-1.38-.3l.24-.94h0Z"/>
    <path class="cls-2" d="M240.67,68.79v-.8l.72-.66c1.24-1.11,1.84-1.74,1.84-2.4,0-.46-.27-.82-.92-.82-.49,0-.91,.24-1.21,.46l-.37-.94c.42-.32,1.09-.58,1.84-.58,1.28,0,1.98,.75,1.98,1.77,0,.95-.68,1.71-1.5,2.43l-.52,.43v.02h2.14v1.09h-4.01Z"/>
    <path class="cls-2" d="M249.66,65.95c0,1.74-.71,2.94-2.14,2.94s-2.11-1.31-2.11-2.9c0-1.64,.69-2.93,2.15-2.93s2.11,1.35,2.11,2.9h0Zm-2.93,.03c0,1.3,.31,1.91,.82,1.91s.79-.65,.79-1.93-.27-1.91-.8-1.91c-.49,0-.82,.61-.81,1.92Z"/>
    <path class="cls-2" d="M250.3,68.79v-.8l.72-.66c1.24-1.11,1.84-1.74,1.84-2.4,0-.46-.27-.82-.92-.82-.49,0-.91,.24-1.21,.46l-.37-.94c.42-.32,1.09-.58,1.84-.58,1.28,0,1.98,.75,1.98,1.77,0,.95-.68,1.71-1.5,2.43l-.52,.43v.02h2.14v1.09h-4.01Z"/>
    <path class="cls-2" d="M258.72,64.09c-.15,0-.31,0-.52,.01-1.17,.1-1.69,.69-1.84,1.35h.03c.28-.28,.67-.45,1.2-.45,.95,0,1.75,.67,1.75,1.84s-.86,2.04-2.08,2.04c-1.51,0-2.24-1.12-2.24-2.46,0-1.06,.39-1.95,1-2.52,.56-.51,1.29-.79,2.17-.83,.24-.02,.4-.01,.53,0v1.02h0Zm-.72,2.83c0-.53-.27-.97-.84-.97-.36,0-.65,.22-.78,.5-.04,.07-.06,.18-.06,.33,.03,.59,.31,1.14,.92,1.14,.47,0,.76-.43,.76-1h0Z"/>
    <path class="cls-2" d="M199.4,72.97c.3-.07,.77-.11,1.24-.11,.68,0,1.12,.12,1.45,.38,.27,.21,.44,.52,.44,.93,0,.51-.34,.96-.89,1.15v.02c.5,.12,1.09,.53,1.09,1.32,0,.45-.18,.8-.45,1.05-.36,.34-.96,.49-1.82,.49-.47,0-.83-.03-1.05-.06v-5.18Zm.68,2.16h.63c.71,0,1.13-.38,1.13-.89,0-.61-.46-.86-1.15-.86-.32,0-.49,.02-.61,.05v1.7h0Zm0,2.53c.14,.03,.33,.03,.57,.03,.71,0,1.35-.26,1.35-1.02,0-.72-.62-1.02-1.36-1.02h-.56v2.01h0Z"/>
    <path class="cls-2" d="M207.07,76.24c0,1.4-.97,2.01-1.88,2.01-1.02,0-1.82-.75-1.82-1.95,0-1.26,.83-2.01,1.88-2.01s1.82,.79,1.82,1.94h0Zm-3,.05c0,.83,.47,1.45,1.15,1.45s1.15-.62,1.15-1.48c0-.64-.32-1.45-1.14-1.45s-1.16,.75-1.16,1.47h0Z"/>
    <path class="cls-2" d="M210.03,78.17l-.06-.48h-.02c-.21,.3-.62,.56-1.15,.56-.76,0-1.15-.54-1.15-1.09,0-.92,.81-1.42,2.27-1.41v-.08c0-.31-.09-.88-.86-.87-.35,0-.72,.1-.99,.28l-.16-.46c.31-.2,.77-.33,1.25-.33,1.15,0,1.44,.79,1.44,1.55v1.42c0,.32,.01,.65,.06,.9h-.62Zm-.1-1.93c-.74-.02-1.6,.12-1.6,.85,0,.45,.3,.66,.64,.66,.5,0,.81-.31,.92-.63,.02-.07,.03-.15,.03-.22v-.66h0Z"/>
    <path class="cls-2" d="M211.7,75.57c0-.45-.01-.82-.03-1.18h.6l.03,.74h.03c.18-.51,.59-.83,1.05-.83,.07,0,.13,0,.19,.02v.65c-.07-.01-.14-.02-.23-.02-.49,0-.82,.36-.92,.88-.02,.1-.03,.21-.03,.32v2.02h-.69v-2.6h0Z"/>
    <path class="cls-2" d="M217.44,72.62v4.58c0,.33,.01,.72,.03,.98h-.61l-.03-.66h-.02c-.21,.42-.66,.74-1.28,.74-.92,0-1.62-.77-1.62-1.92,0-1.26,.78-2.03,1.7-2.03,.58,0,.97,.27,1.14,.57h.02v-2.26h.68Zm-.68,3.31c0-.09,0-.2-.03-.3-.11-.43-.48-.79-.99-.79-.71,0-1.14,.63-1.14,1.45,0,.77,.38,1.41,1.12,1.41,.46,0,.88-.31,1-.82,.03-.09,.03-.19,.03-.3v-.66h0Z"/>
    <path class="cls-2" d="M220.26,72.9h2.84v.57h-2.15v1.75h1.99v.56h-1.99v2.38h-.69v-5.27Z"/>
    <path class="cls-2" d="M224.19,76.4c.01,.93,.6,1.31,1.29,1.31,.49,0,.79-.09,1.05-.2l.12,.49c-.24,.11-.66,.24-1.26,.24-1.16,0-1.86-.77-1.86-1.91s.67-2.04,1.78-2.04c1.23,0,1.55,1.08,1.55,1.78,0,.14,0,.25-.02,.32h-2.65Zm2.01-.49c0-.43-.18-1.11-.95-1.11-.7,0-1,.63-1.05,1.11h2Z"/>
    <path class="cls-2" d="M227.72,72.62h.69v5.55h-.69v-5.55Z"/>
    <path class="cls-2" d="M229.57,72.62h.69v5.55h-.69v-5.55Z"/>
    <path class="cls-2" d="M234.83,76.24c0,1.4-.97,2.01-1.88,2.01-1.02,0-1.82-.75-1.82-1.95,0-1.26,.83-2.01,1.88-2.01s1.82,.79,1.82,1.94h0Zm-3,.05c0,.83,.47,1.45,1.15,1.45s1.15-.62,1.15-1.48c0-.64-.32-1.45-1.14-1.45s-1.16,.75-1.16,1.47h0Z"/>
    <path class="cls-2" d="M235.91,74.39l.51,1.92c.11,.42,.2,.82,.28,1.21h.02c.08-.38,.21-.79,.34-1.2l.62-1.92h.58l.59,1.89c.13,.45,.25,.85,.33,1.23h.02c.07-.38,.17-.78,.3-1.23l.54-1.9h.68l-1.22,3.78h-.63l-.57-1.81c-.13-.43-.24-.8-.33-1.25h-.02c-.1,.46-.21,.85-.35,1.25l-.61,1.8h-.63l-1.14-3.78h.7Z"/>
    <path class="cls-2" d="M202.54,84.96c0,1.72-.65,2.68-1.77,2.68-.99,0-1.67-.93-1.68-2.61,0-1.71,.74-2.64,1.77-2.64s1.68,.96,1.68,2.57h0Zm-2.76,.07c0,1.32,.41,2.07,1.03,2.07,.7,0,1.04-.82,1.04-2.11s-.32-2.07-1.03-2.07c-.6,0-1.04,.73-1.04,2.11h0Z"/>
    <path class="cls-2" d="M203.57,87.06c.15,.01,.32,0,.55-.03,.4-.05,.77-.21,1.07-.49,.33-.31,.57-.76,.67-1.35h-.02c-.29,.35-.69,.55-1.2,.55-.91,0-1.5-.69-1.5-1.56,0-.96,.7-1.8,1.74-1.8s1.68,.84,1.68,2.14c0,1.12-.38,1.89-.88,2.38-.39,.38-.93,.62-1.48,.68-.24,.04-.47,.05-.63,.04v-.56h0Zm.25-2.92c0,.63,.38,1.08,.98,1.08,.46,0,.82-.23,1-.53,.03-.07,.06-.14,.06-.25,0-.87-.32-1.53-1.04-1.53-.59,0-1,.52-1,1.24h0Z"/>
    <path class="cls-2" d="M206.82,87.86l2.18-5.67h.53l-2.19,5.67h-.53Z"/>
    <path class="cls-2" d="M209.85,87.55v-.42l.54-.53c1.3-1.24,1.89-1.9,1.89-2.66,0-.52-.24-.99-1-.99-.46,0-.85,.24-1.08,.43l-.22-.48c.35-.3,.85-.52,1.44-.52,1.09,0,1.55,.75,1.55,1.48,0,.94-.68,1.7-1.75,2.73l-.4,.38v.02h2.27v.57h-3.24Z"/>
    <path class="cls-2" d="M217.25,84.96c0,1.72-.65,2.68-1.77,2.68-.99,0-1.67-.93-1.68-2.61,0-1.71,.74-2.64,1.77-2.64s1.68,.96,1.68,2.57h0Zm-2.76,.07c0,1.32,.41,2.07,1.03,2.07,.7,0,1.04-.82,1.04-2.11s-.32-2.07-1.03-2.07c-.6,0-1.04,.73-1.04,2.11h0Z"/>
    <path class="cls-2" d="M217.87,87.55v-.42l.54-.53c1.3-1.24,1.89-1.9,1.89-2.66,0-.52-.24-.99-1-.99-.46,0-.85,.24-1.08,.43l-.22-.48c.35-.3,.85-.52,1.44-.52,1.09,0,1.55,.75,1.55,1.48,0,.94-.68,1.7-1.75,2.73l-.4,.38v.02h2.27v.57h-3.24Z"/>
    <path class="cls-2" d="M224.91,83.04h-1.94l-.2,1.31c.12-.02,.23-.03,.41-.03,.4,0,.78,.09,1.1,.27,.4,.22,.72,.66,.72,1.3,0,.99-.79,1.73-1.89,1.73-.56,0-1.02-.16-1.27-.31l.17-.53c.21,.13,.62,.29,1.09,.29,.64,0,1.2-.43,1.2-1.11,0-.65-.44-1.12-1.46-1.12-.3,0-.52,.03-.71,.05l.33-2.44h2.43v.58h0Z"/>
    <path class="cls-2" d="M229.36,85.19v.5h-1.93v-.5h1.93Z"/>
    <path class="cls-2" d="M234.98,84.96c0,1.72-.65,2.68-1.77,2.68-.99,0-1.67-.93-1.68-2.61,0-1.71,.74-2.64,1.77-2.64s1.68,.96,1.68,2.57h0Zm-2.76,.07c0,1.32,.41,2.07,1.03,2.07,.7,0,1.04-.82,1.04-2.11s-.32-2.07-1.03-2.07c-.6,0-1.04,.73-1.04,2.11h0Z"/>
    <path class="cls-2" d="M235.61,87.55v-.42l.54-.53c1.3-1.24,1.89-1.9,1.89-2.66,0-.52-.24-.99-1-.99-.46,0-.85,.24-1.08,.43l-.22-.48c.35-.3,.85-.52,1.44-.52,1.09,0,1.55,.75,1.55,1.48,0,.94-.68,1.7-1.75,2.73l-.4,.38v.02h2.27v.57h-3.24Z"/>
    <path class="cls-2" d="M239.26,87.86l2.18-5.67h.53l-2.19,5.67h-.52Z"/>
    <path class="cls-2" d="M242.3,87.55v-.42l.54-.53c1.3-1.24,1.89-1.9,1.89-2.66,0-.52-.24-.99-1-.99-.46,0-.85,.24-1.08,.43l-.22-.48c.35-.3,.85-.52,1.44-.52,1.09,0,1.55,.75,1.55,1.48,0,.94-.68,1.7-1.75,2.73l-.4,.38v.02h2.28v.57h-3.25Z"/>
    <path class="cls-2" d="M249.69,84.96c0,1.72-.65,2.68-1.77,2.68-.99,0-1.67-.93-1.68-2.61,0-1.71,.74-2.64,1.77-2.64s1.68,.96,1.68,2.57h0Zm-2.76,.07c0,1.32,.41,2.07,1.03,2.07,.7,0,1.04-.82,1.04-2.11s-.32-2.07-1.03-2.07c-.6,0-1.04,.73-1.04,2.11h0Z"/>
    <path class="cls-2" d="M250.31,87.55v-.42l.54-.53c1.3-1.24,1.89-1.9,1.89-2.66,0-.52-.24-.99-1-.99-.46,0-.85,.24-1.08,.43l-.22-.48c.35-.3,.85-.52,1.44-.52,1.09,0,1.55,.75,1.55,1.48,0,.94-.68,1.7-1.75,2.73l-.4,.38v.02h2.28v.57h-3.25Z"/>
    <path class="cls-2" d="M257.23,82.95c-.14,0-.32,0-.52,.04-1.08,.17-1.65,.96-1.76,1.81h.02c.24-.33,.66-.59,1.22-.59,.9,0,1.54,.66,1.54,1.64,0,.93-.63,1.79-1.69,1.79s-1.79-.85-1.79-2.16c0-1,.36-1.79,.86-2.29,.42-.42,.98-.67,1.62-.76,.2-.03,.37-.04,.49-.04v.56h0Zm-.2,2.93c0-.73-.42-1.16-1.05-1.16-.42,0-.8,.26-.99,.63-.04,.08-.07,.18-.07,.3,0,.84,.4,1.46,1.12,1.46,.59,0,.99-.49,.99-1.22h0Z"/>
  </g>
  <g>
    <path class="cls-2" d="M203.68,126.47c-.24,.12-.79,.25-1.5,.25-2.03,0-3.07-1.27-3.07-2.93,0-2,1.43-3.1,3.2-3.1,.69,0,1.21,.13,1.44,.26l-.27,1.05c-.26-.12-.64-.22-1.11-.22-1.05,0-1.86,.64-1.86,1.94,0,1.17,.69,1.91,1.87,1.91,.4,0,.84-.08,1.11-.19l.2,1.04h0Z"/>
    <path class="cls-2" d="M208.53,124.46c0,1.55-1.1,2.26-2.24,2.26-1.24,0-2.2-.82-2.2-2.19s.9-2.25,2.27-2.25,2.16,.89,2.16,2.18h0Zm-3.07,.04c0,.72,.31,1.28,.87,1.28,.52,0,.84-.52,.84-1.28,0-.63-.24-1.27-.84-1.27-.63,0-.87,.65-.87,1.28Z"/>
    <path class="cls-2" d="M209.35,123.73c0-.53-.02-.98-.03-1.36h1.12l.06,.58h.03c.18-.27,.56-.67,1.28-.67,.55,0,.98,.28,1.16,.73h.02c.16-.23,.35-.4,.55-.52,.23-.14,.49-.21,.81-.21,.81,0,1.43,.57,1.43,1.84v2.5h-1.28v-2.31c0-.62-.2-.97-.63-.97-.31,0-.52,.21-.61,.46-.03,.1-.05,.23-.05,.33v2.49h-1.28v-2.38c0-.53-.19-.9-.61-.9-.34,0-.54,.26-.62,.47-.04,.1-.05,.23-.05,.33v2.47h-1.28v-2.89h0Z"/>
    <path class="cls-2" d="M216.81,123.81c0-.56-.02-1.03-.03-1.43h1.15l.06,.59h.02c.32-.45,.8-.69,1.42-.69,.93,0,1.77,.81,1.77,2.17,0,1.55-.99,2.27-1.93,2.27-.51,0-.92-.2-1.1-.49h-.02v2.11h-1.32v-4.54h0Zm1.32,1c0,.1,0,.19,.03,.27,.09,.35,.39,.63,.77,.63,.57,0,.91-.48,.91-1.2,0-.68-.3-1.19-.89-1.19-.37,0-.71,.28-.79,.67-.02,.07-.03,.16-.03,.23v.59h0Z"/>
    <path class="cls-2" d="M222,123.78c0-.63-.01-1.03-.03-1.4h1.14l.05,.79h.03c.22-.62,.73-.88,1.15-.88,.12,0,.18,0,.28,.03v1.24c-.1-.02-.21-.03-.36-.03-.49,0-.82,.26-.91,.67-.02,.08-.03,.19-.03,.3v2.15h-1.32v-2.85h0Z"/>
    <path class="cls-2" d="M226.65,121.2c0,.37-.27,.66-.71,.66s-.69-.29-.69-.66c0-.38,.27-.66,.7-.66s.69,.28,.7,.66h0Zm-1.36,5.43v-4.25h1.32v4.25h-1.32Z"/>
    <path class="cls-2" d="M227.66,123.73c0-.53-.02-.98-.03-1.36h1.15l.06,.59h.03c.17-.27,.6-.69,1.32-.69,.87,0,1.52,.58,1.52,1.83v2.52h-1.32v-2.36c0-.55-.2-.92-.67-.92-.36,0-.58,.26-.67,.5-.03,.08-.05,.21-.05,.33v2.45h-1.32v-2.89h0Z"/>
    <path class="cls-2" d="M234.18,121.16v1.21h.95v.98h-.95v1.54c0,.51,.13,.75,.52,.75,.17,0,.3-.02,.4-.04v1c-.16,.06-.48,.11-.85,.11-.43,0-.78-.15-.99-.37-.25-.25-.36-.66-.36-1.26v-1.74h-.56v-.98h.56v-.91l1.29-.3h0Z"/>
    <path class="cls-2" d="M239,121.2c0,.37-.27,.66-.71,.66s-.69-.29-.69-.66c0-.38,.27-.66,.7-.66s.69,.28,.7,.66h0Zm-1.36,5.43v-4.25h1.32v4.25h-1.32Z"/>
    <path class="cls-2" d="M240.02,123.73c0-.53-.02-.98-.03-1.36h1.15l.06,.59h.03c.17-.27,.6-.69,1.32-.69,.87,0,1.52,.58,1.52,1.83v2.52h-1.32v-2.36c0-.55-.2-.92-.67-.92-.36,0-.58,.26-.67,.5-.03,.08-.05,.21-.05,.33v2.45h-1.32v-2.89h0Z"/>
    <path class="cls-2" d="M248.3,126.52c-.24,.11-.68,.2-1.19,.2-1.37,0-2.25-.84-2.25-2.17,0-1.24,.85-2.26,2.43-2.26,.35,0,.73,.07,1.01,.17l-.2,.98c-.16-.07-.39-.13-.74-.13-.7,0-1.15,.49-1.14,1.19,0,.78,.53,1.19,1.16,1.19,.32,0,.56-.06,.76-.14l.16,.97h0Z"/>
    <path class="cls-2" d="M248.87,125.92c0-.47,.33-.8,.78-.8s.77,.33,.78,.8c0,.46-.31,.8-.78,.8s-.78-.33-.78-.8Z"/>
    <path class="cls-2" d="M203.41,135.77c-.3,.12-.91,.29-1.62,.29-.8,0-1.46-.2-1.97-.69-.46-.44-.73-1.14-.73-1.96,0-1.57,1.09-2.72,2.85-2.72,.61,0,1.09,.13,1.32,.24l-.17,.56c-.28-.13-.63-.23-1.16-.23-1.28,0-2.12,.79-2.12,2.11s.8,2.13,2.03,2.13c.45,0,.75-.06,.9-.14v-1.57h-1.07v-.54h1.74v2.53h0Z"/>
    <path class="cls-2" d="M204.44,133.4c0-.45-.01-.82-.03-1.18h.6l.03,.74h.03c.18-.51,.59-.83,1.05-.83,.07,0,.13,0,.19,.02v.65c-.07-.01-.14-.02-.23-.02-.49,0-.82,.36-.92,.88-.02,.1-.03,.21-.03,.32v2.02h-.69v-2.6h0Z"/>
    <path class="cls-2" d="M209.05,136.01l-.06-.48h-.02c-.21,.3-.62,.56-1.15,.56-.76,0-1.15-.54-1.15-1.09,0-.92,.81-1.42,2.27-1.41v-.08c0-.31-.09-.88-.86-.87-.35,0-.72,.1-.99,.28l-.16-.46c.31-.2,.77-.33,1.25-.33,1.15,0,1.44,.79,1.44,1.55v1.42c0,.32,.01,.65,.06,.9h-.62Zm-.1-1.93c-.74-.02-1.6,.12-1.6,.85,0,.45,.3,.66,.64,.66,.5,0,.81-.31,.92-.63,.02-.07,.03-.15,.03-.22v-.66h0Z"/>
    <path class="cls-2" d="M210.72,133.46c0-.48-.01-.87-.03-1.23h.62l.04,.64h.02c.27-.46,.73-.73,1.34-.73,.92,0,1.61,.77,1.61,1.92,0,1.36-.83,2.04-1.72,2.04-.5,0-.94-.22-1.16-.59h-.02v2.06h-.68v-4.1h0Zm.68,1.01c0,.1,0,.19,.03,.28,.12,.48,.54,.81,1.03,.81,.73,0,1.15-.6,1.15-1.46,0-.76-.4-1.4-1.12-1.4-.47,0-.91,.33-1.04,.85-.02,.09-.04,.19-.04,.28v.66h0Z"/>
    <path class="cls-2" d="M215.17,130.45h.69v2.36h.02c.11-.2,.29-.36,.49-.49,.2-.12,.44-.19,.7-.19,.51,0,1.32,.31,1.32,1.61v2.25h-.69v-2.17c0-.61-.23-1.12-.87-1.12-.45,0-.79,.31-.93,.69-.03,.1-.05,.2-.05,.33v2.28h-.69v-5.55h0Z"/>
    <path class="cls-2" d="M220.28,131.16c0,.23-.16,.43-.44,.43-.25,0-.42-.2-.42-.43s.17-.43,.43-.43,.42,.19,.43,.43h0Zm-.77,4.85v-3.78h.69v3.78h-.69Z"/>
    <path class="cls-2" d="M224.03,135.87c-.18,.09-.58,.22-1.09,.22-1.14,0-1.89-.78-1.89-1.93s.79-2.01,2.03-2.01c.4,0,.77,.1,.96,.2l-.15,.53c-.17-.09-.43-.18-.8-.18-.86,0-1.34,.65-1.33,1.43,0,.88,.56,1.42,1.32,1.42,.39,0,.65-.1,.84-.18l.12,.52h0Z"/>
    <path class="cls-2" d="M227.37,134.35l-.54,1.65h-.7l1.79-5.27h.82l1.8,5.27h-.73l-.56-1.65h-1.87Zm1.73-.53l-.52-1.52c-.11-.34-.2-.66-.27-.96h-.02c-.07,.31-.16,.63-.26,.95l-.52,1.52h1.59Z"/>
    <path class="cls-2" d="M231.25,133.4c0-.45-.01-.82-.03-1.18h.6l.03,.74h.03c.18-.51,.59-.83,1.05-.83,.07,0,.13,0,.19,.02v.65c-.07-.01-.14-.02-.23-.02-.49,0-.83,.36-.92,.88-.02,.1-.03,.21-.03,.32v2.02h-.69v-2.6h0Z"/>
    <path class="cls-2" d="M234.82,131.14v1.09h.99v.52h-.99v2.04c0,.47,.13,.74,.52,.74,.18,0,.31-.02,.4-.05l.03,.52c-.13,.05-.35,.1-.62,.1-.32,0-.58-.1-.74-.29-.19-.21-.27-.54-.27-.99v-2.06h-.59v-.52h.59v-.91l.67-.18h0Z"/>
    <path class="cls-2" d="M237.35,131.16c0,.23-.16,.43-.44,.43-.25,0-.42-.2-.42-.43s.17-.43,.43-.43,.42,.19,.43,.43h0Zm-.77,4.85v-3.78h.69v3.78h-.69Z"/>
    <path class="cls-2" d="M238.31,135.3c.21,.13,.57,.27,.91,.27,.5,0,.73-.25,.73-.56s-.2-.5-.7-.69c-.68-.25-1.01-.62-1-1.07,0-.61,.49-1.11,1.31-1.11,.39,0,.72,.1,.92,.23l-.17,.5c-.14-.09-.42-.22-.78-.22-.4,0-.63,.23-.63,.52,0,.31,.22,.45,.72,.64,.65,.24,.99,.57,.99,1.14,0,.67-.52,1.14-1.42,1.14-.41,0-.79-.11-1.06-.26l.16-.52h0Z"/>
    <path class="cls-2" d="M242.33,131.14v1.09h.99v.52h-.99v2.04c0,.47,.13,.74,.52,.74,.18,0,.31-.02,.4-.05l.03,.52c-.13,.05-.35,.1-.62,.1-.32,0-.58-.1-.74-.29-.19-.21-.27-.54-.27-.99v-2.06h-.59v-.52h.59v-.91l.67-.18h0Z"/>
    <path class="cls-2" d="M200.65,140.94h-.02l-.88,.48-.13-.52,1.11-.59h.58v5.08h-.66v-4.44h0Z"/>
    <path class="cls-2" d="M206.55,142.79c0,1.72-.65,2.68-1.77,2.68-.99,0-1.67-.93-1.68-2.61,0-1.71,.74-2.64,1.77-2.64s1.68,.96,1.68,2.57h0Zm-2.76,.07c0,1.32,.41,2.07,1.03,2.07,.7,0,1.04-.82,1.04-2.11s-.32-2.07-1.03-2.07c-.6,0-1.04,.73-1.04,2.11h0Z"/>
    <path class="cls-2" d="M206.82,145.7l2.18-5.67h.53l-2.19,5.67h-.52Z"/>
    <path class="cls-2" d="M209.85,145.38v-.42l.54-.53c1.3-1.24,1.89-1.9,1.89-2.66,0-.52-.24-.99-1-.99-.46,0-.85,.24-1.08,.43l-.22-.48c.35-.3,.85-.52,1.44-.52,1.09,0,1.55,.75,1.55,1.48,0,.94-.68,1.7-1.75,2.73l-.4,.38v.02h2.28v.57h-3.25Z"/>
    <path class="cls-2" d="M217.25,142.79c0,1.72-.65,2.68-1.77,2.68-.99,0-1.67-.93-1.68-2.61,0-1.71,.74-2.64,1.77-2.64s1.68,.96,1.68,2.57h0Zm-2.76,.07c0,1.32,.41,2.07,1.03,2.07,.7,0,1.04-.82,1.04-2.11s-.32-2.07-1.03-2.07c-.6,0-1.04,.73-1.04,2.11h0Z"/>
    <path class="cls-2" d="M217.87,145.38v-.42l.54-.53c1.3-1.24,1.89-1.9,1.89-2.66,0-.52-.24-.99-1-.99-.46,0-.85,.24-1.08,.43l-.22-.48c.35-.3,.85-.52,1.44-.52,1.09,0,1.55,.75,1.55,1.48,0,.94-.68,1.7-1.75,2.73l-.4,.38v.02h2.28v.57h-3.25Z"/>
    <path class="cls-2" d="M223.37,140.94h-.02l-.88,.48-.13-.52,1.11-.59h.58v5.08h-.66v-4.44h0Z"/>
    <path class="cls-2" d="M229.36,143.02v.5h-1.93v-.5h1.93Z"/>
    <path class="cls-2" d="M234.98,142.79c0,1.72-.65,2.68-1.77,2.68-.99,0-1.67-.93-1.68-2.61,0-1.71,.74-2.64,1.77-2.64s1.68,.96,1.68,2.57h0Zm-2.76,.07c0,1.32,.41,2.07,1.03,2.07,.7,0,1.04-.82,1.04-2.11s-.32-2.07-1.03-2.07c-.6,0-1.04,.73-1.04,2.11h0Z"/>
    <path class="cls-2" d="M235.55,144.09c0-.64,.38-1.09,1-1.36v-.02c-.57-.26-.81-.7-.81-1.14,0-.8,.68-1.35,1.58-1.35,.98,0,1.48,.62,1.48,1.25,0,.43-.21,.89-.83,1.19v.03c.63,.25,1.02,.7,1.02,1.31,0,.89-.76,1.48-1.73,1.48-1.06,0-1.7-.63-1.7-1.38h0Zm2.73-.04c0-.61-.43-.91-1.12-1.11-.59,.17-.92,.56-.92,1.05-.02,.51,.37,.96,1.02,.96s1.02-.38,1.02-.91h0Zm-1.89-2.54c0,.51,.38,.79,.97,.94,.43-.14,.77-.46,.77-.92,0-.4-.24-.82-.86-.82-.57,0-.88,.38-.88,.81h0Z"/>
    <path class="cls-2" d="M239.26,145.7l2.18-5.67h.53l-2.19,5.67h-.53Z"/>
    <path class="cls-2" d="M242.3,145.38v-.42l.54-.53c1.3-1.24,1.89-1.9,1.89-2.66,0-.52-.24-.99-1-.99-.46,0-.85,.24-1.08,.43l-.22-.48c.35-.3,.85-.52,1.44-.52,1.09,0,1.55,.75,1.55,1.48,0,.94-.68,1.7-1.75,2.73l-.4,.38v.02h2.27v.57h-3.24Z"/>
    <path class="cls-2" d="M249.69,142.79c0,1.72-.65,2.68-1.77,2.68-.99,0-1.67-.93-1.68-2.61,0-1.71,.74-2.64,1.77-2.64s1.68,.96,1.68,2.57h0Zm-2.76,.07c0,1.32,.41,2.07,1.03,2.07,.7,0,1.04-.82,1.04-2.11s-.32-2.07-1.03-2.07c-.6,0-1.04,.73-1.04,2.11h0Z"/>
    <path class="cls-2" d="M250.32,145.38v-.42l.54-.53c1.3-1.24,1.89-1.9,1.89-2.66,0-.52-.24-.99-1-.99-.46,0-.85,.24-1.08,.43l-.22-.48c.35-.3,.85-.52,1.44-.52,1.09,0,1.55,.75,1.55,1.48,0,.94-.68,1.7-1.75,2.73l-.4,.38v.02h2.27v.57h-3.24Z"/>
    <path class="cls-2" d="M256.45,145.38v-1.38h-2.36v-.45l2.26-3.25h.75v3.16h.71v.53h-.71v1.38h-.65Zm0-1.92v-1.7c0-.26,0-.53,.03-.79h-.03c-.16,.3-.28,.52-.42,.75l-1.24,1.73v.02h1.66Z"/>
  </g>
  <g>
    <path class="cls-2" d="M199.38,179.82c.35-.07,1.05-.13,1.71-.13,.81,0,1.3,.08,1.73,.33,.41,.22,.7,.62,.7,1.15s-.3,1-.96,1.25v.02c.67,.17,1.16,.69,1.16,1.43,0,.53-.25,.96-.61,1.24-.43,.34-1.14,.53-2.3,.53-.65,0-1.13-.04-1.43-.09v-5.75h0Zm1.32,2.24h.43c.7,0,1.07-.29,1.07-.72s-.34-.68-.93-.68c-.29,0-.45,.02-.56,.04v1.36h0Zm0,2.59c.13,.02,.28,.03,.51,.03,.6,0,1.13-.23,1.13-.85s-.53-.82-1.19-.82h-.45v1.65Z"/>
    <path class="cls-2" d="M204.63,179.82c.35-.07,1.05-.13,1.71-.13,.81,0,1.3,.08,1.73,.33,.41,.22,.7,.62,.7,1.15s-.3,1-.96,1.25v.02c.67,.17,1.16,.69,1.16,1.43,0,.53-.25,.96-.61,1.24-.43,.34-1.14,.53-2.3,.53-.65,0-1.13-.04-1.43-.09v-5.75h0Zm1.32,2.24h.43c.7,0,1.07-.29,1.07-.72s-.34-.68-.93-.68c-.29,0-.45,.02-.56,.04v1.36h0Zm0,2.59c.13,.02,.28,.03,.51,.03,.6,0,1.13-.23,1.13-.85s-.53-.82-1.19-.82h-.45v1.65Z"/>
    <path class="cls-2" d="M214.16,185.43c-.24,.12-.79,.25-1.5,.25-2.03,0-3.07-1.27-3.07-2.93,0-2,1.43-3.1,3.2-3.1,.69,0,1.21,.13,1.44,.26l-.27,1.05c-.26-.11-.64-.22-1.11-.22-1.05,0-1.86,.64-1.86,1.94,0,1.17,.69,1.91,1.87,1.91,.4,0,.84-.08,1.11-.19l.2,1.04h0Z"/>
    <path class="cls-2" d="M216.79,179.82c.41-.07,.98-.12,1.79-.12s1.4,.16,1.79,.47c.37,.29,.62,.78,.62,1.35s-.19,1.06-.53,1.38c-.45,.43-1.12,.62-1.9,.62-.17,0-.33-.01-.45-.03v2.1h-1.31v-5.77h0Zm1.32,2.65c.11,.03,.25,.03,.44,.03,.7,0,1.14-.36,1.14-.95,0-.54-.37-.86-1.04-.86-.26,0-.44,.02-.54,.04v1.73h0Z"/>
    <path class="cls-2" d="M221.71,182.74c0-.63-.01-1.03-.03-1.4h1.14l.05,.79h.03c.22-.62,.73-.88,1.15-.88,.12,0,.18,0,.28,.03v1.24c-.1-.02-.21-.03-.36-.03-.49,0-.82,.26-.91,.67-.02,.08-.03,.19-.03,.3v2.15h-1.32v-2.85h0Z"/>
    <path class="cls-2" d="M226.35,180.16c0,.37-.27,.66-.71,.66s-.69-.29-.69-.66c0-.38,.27-.66,.7-.66s.69,.28,.7,.66h0Zm-1.36,5.43v-4.25h1.32v4.25h-1.32Z"/>
    <path class="cls-2" d="M227.37,182.7c0-.53-.02-.98-.03-1.36h1.15l.06,.59h.03c.17-.27,.6-.69,1.32-.69,.87,0,1.52,.58,1.52,1.83v2.52h-1.32v-2.36c0-.55-.2-.92-.67-.92-.36,0-.58,.26-.67,.5-.03,.08-.05,.21-.05,.33v2.45h-1.32v-2.89h0Z"/>
    <path class="cls-2" d="M233.88,180.13v1.21h.95v.98h-.95v1.54c0,.51,.13,.75,.52,.75,.17,0,.3-.02,.4-.04v1c-.16,.06-.48,.11-.85,.11-.43,0-.78-.15-.99-.37-.25-.25-.36-.66-.36-1.26v-1.74h-.56v-.98h.56v-.91l1.29-.3h0Z"/>
    <path class="cls-2" d="M236.95,180.16c0,.37-.27,.66-.71,.66s-.69-.29-.69-.66c0-.38,.27-.66,.7-.66s.69,.28,.7,.66h0Zm-1.36,5.43v-4.25h1.32v4.25h-1.32Z"/>
    <path class="cls-2" d="M237.97,182.7c0-.53-.02-.98-.03-1.36h1.15l.06,.59h.03c.17-.27,.6-.69,1.32-.69,.87,0,1.52,.58,1.52,1.83v2.52h-1.32v-2.36c0-.55-.2-.92-.67-.92-.36,0-.58,.26-.67,.5-.03,.08-.05,.21-.05,.33v2.45h-1.32v-2.89h0Z"/>
    <path class="cls-2" d="M247.12,181.34c-.02,.27-.03,.63-.03,1.27v2.37c0,.82-.16,1.48-.65,1.91-.46,.4-1.1,.52-1.72,.52-.56,0-1.15-.11-1.53-.33l.26-1c.26,.15,.73,.32,1.23,.32,.63,0,1.1-.33,1.1-1.12v-.27h-.02c-.25,.35-.66,.55-1.15,.55-1.05,0-1.8-.85-1.8-2.07,0-1.37,.88-2.24,1.93-2.24,.58,0,.95,.25,1.16,.6h.02l.04-.51h1.15Zm-1.36,1.75c0-.09,0-.17-.03-.24-.09-.35-.34-.59-.71-.59-.48,0-.86,.44-.86,1.21,0,.63,.31,1.13,.86,1.13,.34,0,.61-.23,.7-.53,.03-.1,.04-.24,.04-.35v-.63h0Z"/>
    <path class="cls-2" d="M253.66,185.59c-.13-.13-.25-.26-.39-.42-.38,.3-.92,.51-1.61,.51-1.42,0-2.04-.84-2.04-1.66,0-.77,.44-1.33,1.12-1.68v-.03c-.25-.28-.45-.71-.45-1.13,0-.74,.59-1.55,1.76-1.55,.9,0,1.58,.53,1.58,1.37,0,.59-.35,1.1-1.15,1.51v.03c.33,.37,.69,.8,.97,1.09,.24-.37,.42-.9,.5-1.43h1.18c-.16,.89-.45,1.65-.97,2.22,.33,.38,.67,.76,1.03,1.15h-1.53Zm-1-1.16c-.36-.36-.84-.9-1.32-1.43-.24,.17-.46,.43-.46,.81,0,.5,.37,.92,.98,.92,.34,0,.63-.13,.8-.3h0Zm-1.18-3.37c0,.3,.13,.56,.4,.84,.43-.29,.64-.52,.64-.86,0-.28-.16-.58-.51-.58s-.53,.29-.53,.59Z"/>
    <path class="cls-2" d="M257.58,179.82c.41-.07,.98-.12,1.79-.12s1.4,.16,1.79,.47c.37,.29,.62,.78,.62,1.35s-.19,1.06-.53,1.38c-.45,.43-1.12,.62-1.9,.62-.17,0-.33-.01-.45-.03v2.1h-1.31v-5.77h0Zm1.31,2.65c.11,.03,.25,.03,.44,.03,.7,0,1.14-.36,1.14-.95,0-.54-.37-.86-1.04-.86-.26,0-.44,.02-.54,.04v1.73h0Z"/>
    <path class="cls-2" d="M262.5,182.74c0-.63-.01-1.03-.03-1.4h1.14l.05,.79h.03c.22-.62,.73-.88,1.15-.88,.12,0,.18,0,.28,.03v1.24c-.1-.02-.21-.03-.36-.03-.49,0-.82,.26-.91,.67-.02,.08-.03,.19-.03,.3v2.15h-1.32v-2.85h0Z"/>
    <path class="cls-2" d="M269.92,183.42c0,1.55-1.1,2.26-2.24,2.26-1.24,0-2.2-.82-2.2-2.19s.9-2.25,2.27-2.25,2.16,.89,2.16,2.18h0Zm-3.07,.04c0,.72,.31,1.28,.87,1.28,.52,0,.84-.52,.84-1.28,0-.63-.24-1.27-.84-1.27-.63,0-.87,.65-.87,1.28h0Z"/>
    <path class="cls-2" d="M274.88,179.43v4.9c0,.48,.02,.99,.03,1.27h-1.18l-.06-.62h-.02c-.27,.48-.78,.72-1.33,.72-1,0-1.81-.86-1.81-2.18,0-1.43,.89-2.26,1.9-2.26,.53,0,.93,.19,1.12,.48h.02v-2.3h1.32Zm-1.32,3.72c0-.07,0-.16-.02-.24-.07-.36-.36-.65-.76-.65-.6,0-.91,.54-.91,1.21,0,.72,.35,1.17,.9,1.17,.38,0,.69-.26,.76-.63,.02-.09,.03-.2,.03-.3v-.56h0Z"/>
    <path class="cls-2" d="M279.94,184.23c0,.55,.02,1.01,.03,1.36h-1.15l-.06-.6h-.03c-.16,.26-.56,.69-1.32,.69-.86,0-1.49-.54-1.49-1.84v-2.5h1.32v2.28c0,.62,.2,.99,.66,.99,.36,0,.57-.25,.66-.46,.03-.08,.05-.17,.05-.28v-2.53h1.32v2.89h0Z"/>
    <path class="cls-2" d="M284.19,185.49c-.24,.11-.68,.2-1.19,.2-1.37,0-2.25-.84-2.25-2.17,0-1.24,.85-2.26,2.43-2.26,.35,0,.73,.07,1.01,.17l-.2,.98c-.16-.07-.39-.13-.74-.13-.7,0-1.15,.49-1.14,1.19,0,.78,.53,1.19,1.16,1.19,.32,0,.56-.06,.76-.14l.16,.98h0Z"/>
    <path class="cls-2" d="M286.53,180.13v1.21h.95v.98h-.95v1.54c0,.51,.13,.75,.52,.75,.17,0,.3-.02,.4-.04v1c-.16,.06-.48,.11-.85,.11-.43,0-.78-.15-.99-.37-.25-.25-.36-.66-.36-1.26v-1.74h-.56v-.98h.56v-.91l1.29-.3h0Z"/>
    <path class="cls-2" d="M288.24,184.44c.24,.15,.75,.32,1.13,.32s.57-.13,.57-.35-.13-.33-.63-.49c-.89-.29-1.22-.77-1.21-1.27,0-.8,.67-1.4,1.73-1.4,.5,0,.94,.12,1.2,.25l-.23,.91c-.19-.1-.56-.24-.92-.24-.32,0-.51,.13-.51,.34s.17,.31,.69,.49c.81,.27,1.15,.69,1.15,1.31,0,.79-.62,1.38-1.84,1.38-.56,0-1.05-.13-1.38-.3l.24-.94h0Z"/>
    <path class="cls-2" d="M203.41,194.73c-.3,.11-.91,.29-1.62,.29-.8,0-1.46-.2-1.97-.69-.46-.44-.73-1.14-.73-1.96,0-1.57,1.09-2.72,2.85-2.72,.61,0,1.09,.13,1.32,.24l-.17,.56c-.28-.13-.63-.23-1.16-.23-1.28,0-2.12,.79-2.12,2.11s.8,2.13,2.03,2.13c.45,0,.75-.06,.9-.14v-1.57h-1.07v-.54h1.74v2.53h0Z"/>
    <path class="cls-2" d="M204.44,192.37c0-.45-.01-.82-.03-1.18h.6l.03,.74h.03c.18-.51,.59-.83,1.05-.83,.07,0,.13,0,.19,.02v.65c-.07-.01-.14-.02-.23-.02-.49,0-.82,.36-.92,.88-.02,.1-.03,.21-.03,.32v2.02h-.69v-2.6h0Z"/>
    <path class="cls-2" d="M209.05,194.97l-.06-.48h-.02c-.21,.3-.62,.56-1.15,.56-.76,0-1.15-.54-1.15-1.09,0-.92,.81-1.42,2.27-1.41v-.08c0-.31-.09-.88-.86-.87-.35,0-.72,.1-.99,.28l-.16-.46c.31-.2,.77-.33,1.25-.33,1.15,0,1.44,.79,1.44,1.55v1.42c0,.32,.01,.65,.06,.9h-.62Zm-.1-1.94c-.74-.02-1.6,.12-1.6,.85,0,.45,.3,.66,.64,.66,.5,0,.81-.31,.92-.63,.02-.07,.03-.15,.03-.22v-.66h0Z"/>
    <path class="cls-2" d="M210.72,192.42c0-.48-.01-.87-.03-1.23h.62l.04,.64h.02c.27-.46,.73-.73,1.34-.73,.92,0,1.61,.77,1.61,1.92,0,1.36-.83,2.04-1.72,2.04-.5,0-.94-.22-1.16-.59h-.02v2.06h-.68v-4.1h0Zm.68,1.01c0,.1,0,.19,.03,.28,.12,.48,.54,.81,1.03,.81,.73,0,1.15-.6,1.15-1.46,0-.76-.4-1.4-1.12-1.4-.47,0-.91,.33-1.04,.85-.02,.09-.04,.19-.04,.28v.66h0Z"/>
    <path class="cls-2" d="M215.17,189.42h.69v2.36h.02c.11-.2,.29-.36,.49-.49,.2-.12,.44-.19,.7-.19,.51,0,1.32,.31,1.32,1.61v2.25h-.69v-2.17c0-.61-.23-1.12-.87-1.12-.45,0-.79,.31-.93,.69-.03,.1-.05,.2-.05,.33v2.28h-.69v-5.55h0Z"/>
    <path class="cls-2" d="M220.28,190.12c0,.23-.16,.43-.44,.43-.25,0-.42-.2-.42-.43s.17-.43,.43-.43,.42,.19,.43,.43h0Zm-.77,4.85v-3.78h.69v3.78h-.69Z"/>
    <path class="cls-2" d="M224.03,194.83c-.18,.09-.58,.22-1.09,.22-1.14,0-1.89-.78-1.89-1.93s.79-2.01,2.03-2.01c.4,0,.77,.1,.96,.2l-.15,.53c-.17-.09-.43-.18-.8-.18-.86,0-1.34,.65-1.33,1.43,0,.88,.56,1.42,1.32,1.42,.39,0,.65-.1,.84-.18l.12,.52h0Z"/>
    <path class="cls-2" d="M226.51,189.77c.42-.07,.91-.11,1.45-.11,.98,0,1.68,.23,2.14,.66,.47,.43,.75,1.04,.75,1.88s-.27,1.56-.76,2.05c-.5,.49-1.31,.76-2.33,.76-.49,0-.89-.02-1.24-.06v-5.18h0Zm.68,4.66c.17,.03,.43,.03,.69,.03,1.46,0,2.24-.81,2.24-2.23,0-1.25-.69-2.03-2.13-2.03-.35,0-.62,.03-.8,.07v4.16h0Z"/>
    <path class="cls-2" d="M232.11,193.2c.01,.93,.6,1.31,1.29,1.31,.49,0,.79-.09,1.05-.2l.12,.49c-.24,.11-.66,.24-1.26,.24-1.16,0-1.86-.77-1.86-1.91s.67-2.04,1.78-2.04c1.23,0,1.55,1.08,1.55,1.78,0,.14,0,.25-.02,.32h-2.65Zm2.01-.49c0-.43-.18-1.11-.95-1.11-.7,0-1,.63-1.05,1.11h2Z"/>
    <path class="cls-2" d="M235.55,194.27c.21,.13,.57,.27,.91,.27,.5,0,.73-.25,.73-.56s-.2-.5-.7-.69c-.68-.25-1.01-.62-1-1.07,0-.61,.49-1.11,1.31-1.11,.39,0,.72,.1,.92,.23l-.17,.5c-.14-.09-.42-.22-.78-.22-.4,0-.63,.23-.63,.52,0,.31,.22,.45,.72,.64,.65,.24,.99,.57,.99,1.14,0,.67-.52,1.14-1.42,1.14-.41,0-.79-.11-1.06-.26l.16-.52h0Z"/>
    <path class="cls-2" d="M239.51,190.12c0,.23-.16,.43-.44,.43-.25,0-.42-.2-.42-.43s.17-.43,.43-.43,.42,.19,.43,.43h0Zm-.77,4.85v-3.78h.69v3.78h-.69Z"/>
    <path class="cls-2" d="M243.83,191.19c-.02,.27-.03,.57-.03,1.03v2.2c0,.88-.18,1.4-.54,1.73s-.9,.45-1.38,.45-.96-.11-1.26-.31l.17-.53c.25,.16,.64,.3,1.11,.3,.7,0,1.22-.37,1.22-1.32v-.42h-.02c-.21,.36-.62,.64-1.2,.64-.94,0-1.61-.8-1.61-1.85,0-1.28,.83-2.01,1.71-2.01,.66,0,1.01,.34,1.18,.65h.02l.03-.56h.6Zm-.72,1.48c0-.11,0-.22-.04-.31-.13-.4-.46-.73-.96-.73-.66,0-1.12,.56-1.12,1.43,0,.74,.38,1.36,1.12,1.36,.43,0,.81-.27,.96-.71,.03-.11,.05-.25,.05-.36v-.68h0Z"/>
    <path class="cls-2" d="M244.89,192.21c0-.4-.01-.71-.03-1.02h.61l.04,.62h.02c.19-.36,.63-.71,1.25-.71,.52,0,1.33,.31,1.33,1.61v2.26h-.69v-2.18c0-.61-.23-1.12-.87-1.12-.45,0-.8,.32-.92,.7-.03,.08-.05,.2-.05,.32v2.28h-.69v-2.76h0Z"/>
    <path class="cls-2" d="M249.61,193.2c.01,.93,.6,1.31,1.29,1.31,.49,0,.79-.09,1.05-.2l.12,.49c-.24,.11-.66,.24-1.26,.24-1.16,0-1.86-.77-1.86-1.91s.67-2.04,1.78-2.04c1.23,0,1.55,1.08,1.55,1.78,0,.14,0,.25-.02,.32h-2.65Zm2.01-.49c0-.43-.18-1.11-.95-1.11-.7,0-1,.63-1.05,1.11h2Z"/>
    <path class="cls-2" d="M253.14,192.37c0-.45-.01-.82-.03-1.18h.6l.03,.74h.03c.18-.51,.59-.83,1.05-.83,.07,0,.13,0,.19,.02v.65c-.07-.01-.14-.02-.23-.02-.49,0-.83,.36-.92,.88-.02,.1-.03,.21-.03,.32v2.02h-.69v-2.6h0Z"/>
    <path class="cls-2" d="M202.54,201.76c0,1.72-.65,2.68-1.77,2.68-.99,0-1.67-.93-1.68-2.61,0-1.71,.74-2.64,1.77-2.64s1.68,.96,1.68,2.57h0Zm-2.76,.07c0,1.32,.41,2.07,1.03,2.07,.7,0,1.04-.82,1.04-2.11s-.32-2.07-1.03-2.07c-.6,0-1.04,.73-1.04,2.11h0Z"/>
    <path class="cls-2" d="M203.16,204.35v-.42l.54-.53c1.3-1.24,1.89-1.9,1.89-2.66,0-.52-.24-.99-1-.99-.46,0-.85,.24-1.08,.43l-.22-.48c.35-.3,.85-.52,1.44-.52,1.09,0,1.55,.75,1.55,1.48,0,.94-.68,1.7-1.75,2.73l-.4,.38v.02h2.27v.57h-3.24Z"/>
    <path class="cls-2" d="M206.82,204.66l2.18-5.67h.53l-2.19,5.67h-.52Z"/>
    <path class="cls-2" d="M209.85,204.35v-.42l.54-.53c1.3-1.24,1.89-1.9,1.89-2.66,0-.52-.24-.99-1-.99-.46,0-.85,.24-1.08,.43l-.22-.48c.35-.3,.85-.52,1.44-.52,1.09,0,1.55,.75,1.55,1.48,0,.94-.68,1.7-1.75,2.73l-.4,.38v.02h2.28v.57h-3.25Z"/>
    <path class="cls-2" d="M217.25,201.76c0,1.72-.65,2.68-1.77,2.68-.99,0-1.67-.93-1.68-2.61,0-1.71,.74-2.64,1.77-2.64s1.68,.96,1.68,2.57h0Zm-2.76,.07c0,1.32,.41,2.07,1.03,2.07,.7,0,1.04-.82,1.04-2.11s-.32-2.07-1.03-2.07c-.6,0-1.04,.73-1.04,2.11h0Z"/>
    <path class="cls-2" d="M219.37,199.9h-.02l-.88,.48-.13-.52,1.11-.59h.58v5.08h-.66v-4.44h0Z"/>
    <path class="cls-2" d="M225.18,199.26v.45l-2.21,4.63h-.71l2.2-4.5v-.02h-2.48v-.57h3.2Z"/>
    <path class="cls-2" d="M229.36,201.98v.5h-1.93v-.5h1.93Z"/>
    <path class="cls-2" d="M233.09,199.9h-.02l-.88,.48-.13-.52,1.11-.59h.58v5.08h-.66v-4.44h0Z"/>
    <path class="cls-2" d="M237.1,199.9h-.02l-.88,.48-.13-.52,1.11-.59h.58v5.08h-.66v-4.44h0Z"/>
    <path class="cls-2" d="M239.26,204.66l2.18-5.67h.53l-2.19,5.67h-.53Z"/>
    <path class="cls-2" d="M242.3,204.35v-.42l.54-.53c1.3-1.24,1.89-1.9,1.89-2.66,0-.52-.24-.99-1-.99-.46,0-.85,.24-1.08,.43l-.22-.48c.35-.3,.85-.52,1.44-.52,1.09,0,1.55,.75,1.55,1.48,0,.94-.68,1.7-1.75,2.73l-.4,.38v.02h2.27v.57h-3.24Z"/>
    <path class="cls-2" d="M249.69,201.76c0,1.72-.65,2.68-1.77,2.68-.99,0-1.67-.93-1.68-2.61,0-1.71,.74-2.64,1.77-2.64s1.68,.96,1.68,2.57h0Zm-2.76,.07c0,1.32,.41,2.07,1.03,2.07,.7,0,1.04-.82,1.04-2.11s-.32-2.07-1.03-2.07c-.6,0-1.04,.73-1.04,2.11h0Z"/>
    <path class="cls-2" d="M250.32,204.35v-.42l.54-.53c1.3-1.24,1.89-1.9,1.89-2.66,0-.52-.24-.99-1-.99-.46,0-.85,.24-1.08,.43l-.22-.48c.35-.3,.85-.52,1.44-.52,1.09,0,1.55,.75,1.55,1.48,0,.94-.68,1.7-1.75,2.73l-.4,.38v.02h2.27v.57h-3.24Z"/>
    <path class="cls-2" d="M257.7,201.76c0,1.72-.65,2.68-1.77,2.68-.99,0-1.67-.93-1.68-2.61,0-1.71,.74-2.64,1.77-2.64s1.68,.96,1.68,2.57h0Zm-2.76,.07c0,1.32,.41,2.07,1.03,2.07,.7,0,1.04-.82,1.04-2.11s-.32-2.07-1.03-2.07c-.6,0-1.04,.73-1.04,2.11h0Z"/>
  </g>
  <g>
    <path class="cls-2" d="M204.33,243.62c-.03-.71-.05-1.55-.05-2.41h-.02c-.19,.75-.43,1.58-.65,2.27l-.72,2.28h-1.03l-.63-2.26c-.19-.69-.38-1.52-.53-2.29h-.02c-.03,.79-.06,1.7-.1,2.43l-.11,2.22h-1.22l.37-5.85h1.76l.57,1.96c.19,.67,.36,1.41,.49,2.09h.03c.16-.68,.36-1.45,.56-2.1l.62-1.95h1.73l.31,5.85h-1.28l-.09-2.24Z"/>
    <path class="cls-2" d="M210.9,243.69c0,1.55-1.1,2.26-2.24,2.26-1.24,0-2.2-.82-2.2-2.19s.9-2.25,2.27-2.25,2.16,.89,2.16,2.18h0Zm-3.07,.05c0,.72,.31,1.28,.87,1.28,.52,0,.84-.52,.84-1.28,0-.63-.24-1.27-.84-1.27-.63,0-.87,.65-.87,1.28h0Z"/>
    <path class="cls-2" d="M212.62,241.61l.57,1.98c.1,.36,.18,.69,.24,1.03h.03c.07-.35,.14-.67,.23-1.03l.55-1.98h1.39l-1.58,4.25h-1.32l-1.55-4.25h1.44Z"/>
    <path class="cls-2" d="M217.13,244.16c.04,.55,.58,.81,1.2,.81,.45,0,.81-.06,1.17-.18l.18,.89c-.44,.18-.97,.27-1.54,.27-1.44,0-2.27-.84-2.27-2.16,0-1.08,.67-2.27,2.14-2.27,1.38,0,1.9,1.07,1.9,2.12,0,.23-.02,.43-.05,.53h-2.73Zm1.55-.9c0-.32-.14-.86-.74-.86-.56,0-.79,.51-.82,.86h1.56Z"/>
    <path class="cls-2" d="M223.92,240.4v1.21h.95v.98h-.95v1.54c0,.51,.13,.75,.52,.75,.17,0,.3-.02,.39-.04v1c-.16,.06-.48,.11-.85,.11-.43,0-.78-.15-.99-.37-.25-.25-.36-.66-.36-1.26v-1.74h-.56v-.98h.56v-.91l1.29-.3h0Z"/>
    <path class="cls-2" d="M229.78,243.69c0,1.55-1.1,2.26-2.24,2.26-1.24,0-2.2-.82-2.2-2.19s.9-2.25,2.27-2.25,2.16,.89,2.16,2.18h0Zm-3.07,.05c0,.72,.31,1.28,.87,1.28,.52,0,.84-.52,.84-1.28,0-.63-.24-1.27-.84-1.27-.63,0-.87,.65-.87,1.28h0Z"/>
    <path class="cls-2" d="M233.72,240.01v3.36c0,1.01,.39,1.53,1.06,1.53s1.08-.49,1.08-1.53v-3.36h1.32v3.29c0,1.81-.91,2.67-2.44,2.67s-2.34-.82-2.34-2.68v-3.27h1.32Z"/>
    <path class="cls-2" d="M238.36,244.49c.35,.19,.9,.37,1.47,.37,.61,0,.93-.25,.93-.64,0-.36-.28-.57-.98-.82-.98-.35-1.61-.88-1.61-1.73,0-1,.84-1.76,2.21-1.76,.67,0,1.15,.13,1.49,.3l-.29,1.06c-.23-.11-.65-.28-1.22-.28s-.85,.27-.85,.56c0,.37,.33,.53,1.09,.82,1.04,.39,1.52,.92,1.52,1.75,0,.98-.75,1.81-2.36,1.81-.66,0-1.33-.18-1.65-.36l.27-1.09h0Z"/>
    <path class="cls-2" d="M200.65,250.8h-.02l-.88,.48-.13-.52,1.11-.59h.58v5.08h-.66v-4.44h0Z"/>
    <path class="cls-2" d="M206.55,252.65c0,1.72-.65,2.68-1.77,2.68-.99,0-1.67-.93-1.68-2.61,0-1.71,.74-2.64,1.77-2.64s1.68,.96,1.68,2.57h0Zm-2.76,.07c0,1.32,.41,2.07,1.03,2.07,.7,0,1.04-.82,1.04-2.11s-.32-2.07-1.03-2.07c-.6,0-1.04,.73-1.04,2.11h0Z"/>
    <path class="cls-2" d="M206.82,255.55l2.18-5.67h.53l-2.19,5.67h-.52Z"/>
    <path class="cls-2" d="M209.85,255.24v-.42l.54-.53c1.3-1.24,1.89-1.9,1.89-2.66,0-.52-.24-.99-1-.99-.46,0-.85,.24-1.08,.43l-.22-.48c.35-.3,.85-.52,1.44-.52,1.09,0,1.55,.75,1.55,1.47,0,.94-.68,1.7-1.75,2.73l-.4,.38v.02h2.28v.57h-3.25Z"/>
    <path class="cls-2" d="M217.25,252.65c0,1.72-.65,2.68-1.77,2.68-.99,0-1.67-.93-1.68-2.61,0-1.71,.74-2.64,1.77-2.64s1.68,.96,1.68,2.57h0Zm-2.76,.07c0,1.32,.41,2.07,1.03,2.07,.7,0,1.04-.82,1.04-2.11s-.32-2.07-1.03-2.07c-.6,0-1.04,.73-1.04,2.11h0Z"/>
    <path class="cls-2" d="M219.37,250.8h-.02l-.88,.48-.13-.52,1.11-.59h.58v5.08h-.66v-4.44h0Z"/>
    <path class="cls-2" d="M224.01,255.24v-1.38h-2.36v-.45l2.26-3.25h.74v3.16h.71v.53h-.71v1.38h-.65Zm0-1.92v-1.7c0-.26,0-.53,.03-.79h-.03c-.16,.3-.28,.52-.42,.75l-1.24,1.73v.02h1.66Z"/>
  </g>
  <rect class="cls-3" width="336" height="284.43"/>
</svg>