<?xml version="1.0" encoding="UTF-8"?>
<svg id="Layer_1" xmlns="http://www.w3.org/2000/svg" version="1.1" xmlns:xlink="http://www.w3.org/1999/xlink" viewBox="0 0 335 283.58">
  <!-- Generator: Adobe Illustrator 29.8.2, SVG Export Plug-In . SVG Version: 2.1.1 Build 3)  -->
  <defs>
    <style>
      .st0 {
        fill: #554d49;
      }

      .st1 {
        fill: #fff;
      }

      .st2, .st3 {
        fill: none;
      }

      .st4 {
        fill: #544c48;
      }

      .st3 {
        stroke: #554d49;
        stroke-miterlimit: 10;
        stroke-width: 2.5px;
      }

      .st5 {
        clip-path: url(#clippath);
      }
    </style>
    <clipPath id="clippath">
      <rect class="st2" x="-.45" width="335.9" height="284.34"/>
    </clipPath>
  </defs>
  <g class="st5">
    <rect class="st0" x="165.56" y="3.52" width="4.32" height="277.82"/>
    <circle class="st0" cx="167.72" cy="3.42" r="2.16"/>
    <circle class="st0" cx="167.72" cy="281.33" r="2.16"/>
    <polyline class="st3" points="142.74 35.67 154.15 35.67 167.7 24.53"/>
    <circle class="st0" cx="167.7" cy="24.53" r="1.7"/>
    <circle class="st1" cx="167.7" cy="24.53" r="1.37"/>
    <circle class="st0" cx="142.75" cy="35.6" r="1.51"/>
    <polyline class="st3" points="142.74 95.02 154.15 95.02 167.7 83.88"/>
    <circle class="st0" cx="167.7" cy="83.88" r="1.7"/>
    <circle class="st1" cx="167.7" cy="83.88" r="1.37"/>
    <circle class="st0" cx="142.75" cy="94.95" r="1.51"/>
    <polyline class="st3" points="142.74 154.37 154.15 154.37 167.7 143.24"/>
    <circle class="st0" cx="167.7" cy="143.24" r="1.7"/>
    <circle class="st1" cx="167.7" cy="143.24" r="1.37"/>
    <circle class="st0" cx="142.75" cy="154.31" r="1.51"/>
    <polyline class="st3" points="142.74 213.72 154.15 213.72 167.7 202.59"/>
    <circle class="st0" cx="167.7" cy="202.59" r="1.7"/>
    <circle class="st1" cx="167.7" cy="202.59" r="1.37"/>
    <circle class="st0" cx="142.75" cy="213.66" r="1.51"/>
    <polyline class="st3" points="192.71 65.34 181.3 65.34 167.76 54.21"/>
    <circle class="st0" cx="167.76" cy="54.21" r="1.7"/>
    <circle class="st1" cx="167.76" cy="54.21" r="1.37"/>
    <circle class="st0" cx="192.7" cy="65.28" r="1.51"/>
    <polyline class="st3" points="192.71 124.7 181.3 124.7 167.76 113.56"/>
    <circle class="st0" cx="167.76" cy="113.56" r="1.7"/>
    <circle class="st1" cx="167.76" cy="113.56" r="1.37"/>
    <circle class="st0" cx="192.7" cy="124.63" r="1.51"/>
    <polyline class="st3" points="192.71 184.05 181.3 184.05 167.76 172.91"/>
    <circle class="st0" cx="167.76" cy="172.91" r="1.7"/>
    <circle class="st1" cx="167.76" cy="172.91" r="1.37"/>
    <circle class="st0" cx="192.7" cy="183.98" r="1.51"/>
    <polyline class="st3" points="192.71 243.4 181.3 243.4 167.76 232.27"/>
    <circle class="st0" cx="167.76" cy="232.27" r="1.7"/>
    <circle class="st1" cx="167.76" cy="232.27" r="1.37"/>
    <circle class="st0" cx="192.7" cy="243.34" r="1.51"/>
    <polyline class="st3" points="142.74 273.08 154.15 273.08 167.7 261.94"/>
    <circle class="st0" cx="167.7" cy="261.94" r="1.7"/>
    <circle class="st1" cx="167.7" cy="261.94" r="1.37"/>
    <circle class="st0" cx="142.75" cy="273.01" r="1.51"/>
    <g>
      <path class="st0" d="M62.79,91.21c.35-.07,1.05-.13,1.71-.13.81,0,1.3.08,1.73.33.41.22.7.62.7,1.15s-.3,1-.96,1.25v.02c.67.17,1.16.69,1.16,1.43,0,.53-.25.95-.61,1.24-.43.34-1.14.53-2.3.53-.65,0-1.13-.04-1.43-.09v-5.75h0ZM64.1,93.45h.43c.7,0,1.07-.29,1.07-.72s-.34-.68-.93-.68c-.29,0-.45.02-.56.04v1.36h0ZM64.1,96.04c.13.02.28.03.51.03.6,0,1.13-.23,1.13-.85s-.53-.82-1.18-.82h-.45v1.64h0Z"/>
      <path class="st0" d="M67.98,94.13c0-.62-.01-1.03-.03-1.4h1.14l.05.79h.03c.22-.62.73-.88,1.15-.88.12,0,.18,0,.28.03v1.24c-.1-.02-.21-.03-.36-.03-.49,0-.82.26-.91.67-.02.08-.03.19-.03.3v2.15h-1.32v-2.85h0Z"/>
      <path class="st0" d="M73.6,96.98l-.08-.42h-.03c-.28.34-.71.52-1.22.52-.86,0-1.37-.62-1.37-1.3,0-1.11.99-1.63,2.5-1.63v-.05c0-.23-.12-.55-.78-.55-.43,0-.89.15-1.17.32l-.24-.85c.3-.17.88-.38,1.65-.38,1.41,0,1.86.84,1.86,1.84v1.48c0,.4.02.79.07,1.03h-1.2ZM73.44,94.97c-.69,0-1.23.16-1.23.67,0,.34.23.51.53.51.32,0,.6-.22.68-.49.02-.07.03-.15.03-.23v-.46h0Z"/>
      <path class="st0" d="M75.77,94.09c0-.53-.02-.98-.03-1.36h1.15l.06.59h.03c.17-.27.6-.69,1.31-.69.87,0,1.52.58,1.52,1.83v2.52h-1.32v-2.36c0-.55-.2-.92-.67-.92-.36,0-.58.26-.67.5-.03.08-.05.21-.05.33v2.45h-1.32v-2.89h0Z"/>
      <path class="st0" d="M84.97,90.82v4.9c0,.48.02.99.03,1.27h-1.18l-.06-.62h-.02c-.27.48-.78.72-1.33.72-1,0-1.81-.86-1.81-2.18,0-1.43.89-2.26,1.9-2.26.53,0,.93.19,1.12.48h.02v-2.3h1.32,0ZM83.65,94.54c0-.07,0-.16-.02-.24-.07-.36-.36-.65-.76-.65-.61,0-.91.54-.91,1.21,0,.72.35,1.17.9,1.17.38,0,.69-.26.76-.63.02-.09.03-.19.03-.3v-.56h0Z"/>
      <path class="st0" d="M87.04,95.28c.04.55.58.81,1.2.81.45,0,.81-.06,1.17-.18l.18.89c-.44.18-.97.27-1.54.27-1.44,0-2.27-.84-2.27-2.16,0-1.08.67-2.27,2.14-2.27,1.38,0,1.9,1.07,1.9,2.12,0,.23-.03.43-.05.53h-2.73ZM88.59,94.38c0-.32-.14-.86-.74-.86-.56,0-.79.51-.82.86h1.56Z"/>
      <path class="st0" d="M91.97,91.55c0,.37-.27.66-.71.66s-.69-.29-.69-.66c0-.38.27-.66.7-.66s.69.28.7.66ZM90.61,96.98v-4.25h1.32v4.25h-1.32Z"/>
      <path class="st0" d="M92.98,95.83c.24.15.75.32,1.13.32s.57-.13.57-.35-.13-.33-.62-.49c-.89-.29-1.22-.77-1.21-1.27,0-.8.67-1.4,1.73-1.4.5,0,.94.12,1.2.25l-.23.91c-.19-.1-.56-.24-.92-.24-.32,0-.51.13-.51.34s.17.31.69.49c.81.27,1.15.69,1.15,1.31,0,.79-.62,1.38-1.84,1.38-.56,0-1.05-.13-1.38-.3l.24-.94Z"/>
      <path class="st0" d="M99.87,91.13v3.36c0,1.01.39,1.53,1.06,1.53s1.08-.49,1.08-1.53v-3.36h1.32v3.29c0,1.81-.91,2.66-2.44,2.66s-2.34-.82-2.34-2.68v-3.27h1.32Z"/>
      <path class="st0" d="M104.41,94.09c0-.53-.02-.98-.03-1.36h1.15l.06.59h.03c.17-.27.6-.69,1.31-.69.87,0,1.52.58,1.52,1.83v2.52h-1.32v-2.36c0-.55-.2-.92-.67-.92-.36,0-.58.26-.67.5-.03.08-.05.21-.05.33v2.45h-1.32v-2.89h0Z"/>
      <path class="st0" d="M110.86,91.55c0,.37-.27.66-.71.66s-.69-.29-.69-.66c0-.38.27-.66.7-.66s.69.28.7.66ZM109.49,96.98v-4.25h1.32v4.25h-1.32,0Z"/>
      <path class="st0" d="M112.86,92.73l.57,1.97c.1.36.18.69.24,1.03h.03c.07-.35.14-.67.23-1.03l.55-1.97h1.39l-1.58,4.25h-1.32l-1.54-4.25h1.44,0Z"/>
      <path class="st0" d="M117.36,95.28c.04.55.58.81,1.2.81.45,0,.81-.06,1.17-.18l.18.89c-.44.18-.97.27-1.54.27-1.44,0-2.27-.84-2.27-2.16,0-1.08.67-2.27,2.14-2.27,1.38,0,1.9,1.07,1.9,2.12,0,.23-.03.43-.05.53h-2.73ZM118.91,94.38c0-.32-.14-.86-.74-.86-.56,0-.79.51-.82.86h1.56Z"/>
      <path class="st0" d="M120.93,94.13c0-.62-.01-1.03-.03-1.4h1.14l.05.79h.03c.22-.62.73-.88,1.15-.88.12,0,.18,0,.28.03v1.24c-.1-.02-.21-.03-.36-.03-.49,0-.82.26-.91.67-.02.08-.03.19-.03.3v2.15h-1.32v-2.85h0Z"/>
      <path class="st0" d="M124.22,95.83c.24.15.75.32,1.13.32s.57-.13.57-.35-.13-.33-.62-.49c-.89-.29-1.22-.77-1.21-1.27,0-.8.67-1.4,1.73-1.4.5,0,.94.12,1.2.25l-.23.91c-.19-.1-.56-.24-.92-.24-.32,0-.51.13-.51.34s.17.31.69.49c.81.27,1.15.69,1.15,1.31,0,.79-.62,1.38-1.84,1.38-.56,0-1.05-.13-1.38-.3l.24-.94h0Z"/>
      <path class="st0" d="M129.35,91.55c0,.37-.27.66-.71.66s-.69-.29-.69-.66c0-.38.27-.66.7-.66s.69.28.7.66h0ZM127.99,96.98v-4.25h1.32v4.25h-1.32Z"/>
      <path class="st0" d="M131.84,91.52v1.21h.95v.98h-.95v1.54c0,.51.13.75.52.75.17,0,.3-.02.39-.04v1c-.16.06-.48.11-.85.11-.43,0-.78-.15-.99-.37-.25-.25-.36-.66-.36-1.26v-1.74h-.56v-.98h.56v-.91l1.29-.3h0Z"/>
      <path class="st0" d="M134.59,92.73l.63,2.09c.07.25.16.57.21.79h.03c.06-.23.13-.54.19-.79l.53-2.09h1.41l-.99,2.79c-.61,1.69-1.02,2.36-1.5,2.79-.46.4-.94.55-1.27.58l-.28-1.12c.17-.03.37-.11.57-.23.2-.11.42-.32.54-.53.04-.07.07-.13.07-.19,0-.05-.01-.11-.06-.22l-1.56-3.89h1.47Z"/>
      <path class="st0" d="M84.51,104.04c-.04-.73-.09-1.62-.08-2.27h-.02c-.18.61-.4,1.28-.66,2l-.93,2.56h-.51l-.86-2.51c-.25-.74-.46-1.42-.6-2.04h-.02c-.02.66-.05,1.53-.1,2.32l-.14,2.26h-.65l.36-5.27h.87l.9,2.55c.22.65.39,1.22.53,1.77h.02c.14-.53.32-1.12.56-1.77l.94-2.55h.87l.33,5.27h-.67l-.13-2.31h0Z"/>
      <path class="st0" d="M86.34,101.16c.3-.07.77-.11,1.24-.11.68,0,1.12.12,1.45.38.27.21.44.52.44.93,0,.51-.34.96-.89,1.15v.02c.5.12,1.09.53,1.09,1.32,0,.45-.18.8-.45,1.05-.36.34-.95.49-1.82.49-.47,0-.83-.03-1.05-.06v-5.18ZM87.02,103.32h.62c.71,0,1.13-.38,1.13-.89,0-.61-.46-.86-1.15-.86-.32,0-.49.02-.61.05v1.7h0ZM87.02,105.84c.14.03.33.03.57.03.71,0,1.35-.26,1.35-1.02,0-.72-.62-1.02-1.36-1.02h-.56v2.01h0Z"/>
      <path class="st0" d="M91.42,104.7l-.54,1.65h-.7l1.79-5.27h.82l1.8,5.27h-.73l-.56-1.65h-1.87ZM93.15,104.17l-.52-1.51c-.11-.34-.2-.66-.27-.96h-.02c-.07.31-.16.63-.26.95l-.52,1.52h1.59,0Z"/>
      <path class="st0" d="M97.75,101.51c0,.23-.16.43-.44.43-.25,0-.42-.2-.42-.43s.17-.43.43-.43.42.19.43.43h0ZM96.98,106.35v-3.78h.69v3.78h-.69Z"/>
      <path class="st0" d="M98.81,103.6c0-.39-.01-.71-.03-1.02h.61l.04.62h.02c.19-.36.62-.71,1.25-.71.52,0,1.33.31,1.33,1.61v2.25h-.69v-2.18c0-.61-.23-1.12-.87-1.12-.45,0-.8.32-.92.71-.03.08-.05.2-.05.32v2.28h-.69v-2.76h0Z"/>
      <path class="st0" d="M109.27,104.04c-.04-.73-.09-1.62-.08-2.27h-.02c-.18.61-.4,1.28-.66,2l-.93,2.56h-.51l-.86-2.51c-.25-.74-.46-1.42-.6-2.04h-.02c-.02.66-.05,1.53-.1,2.32l-.14,2.26h-.65l.36-5.27h.87l.9,2.55c.22.65.39,1.22.53,1.77h.02c.14-.53.32-1.12.56-1.77l.94-2.55h.87l.33,5.27h-.67l-.13-2.31h0Z"/>
      <path class="st0" d="M113.23,106.35l-.06-.48h-.02c-.21.3-.62.56-1.15.56-.76,0-1.15-.54-1.15-1.08,0-.92.81-1.42,2.27-1.41v-.08c0-.31-.09-.88-.86-.87-.35,0-.72.1-.99.28l-.16-.46c.31-.2.77-.33,1.25-.33,1.15,0,1.44.79,1.44,1.54v1.41c0,.32.01.65.06.9h-.62,0ZM113.12,104.43c-.74-.02-1.6.12-1.6.85,0,.45.3.66.64.66.5,0,.81-.31.92-.63.02-.07.03-.15.03-.22v-.66h0Z"/>
      <path class="st0" d="M114.89,103.75c0-.45-.01-.82-.03-1.18h.6l.03.74h.03c.18-.51.59-.83,1.05-.83.07,0,.13,0,.19.02v.65c-.07-.01-.14-.02-.23-.02-.49,0-.82.36-.92.88-.02.1-.03.21-.03.32v2.02h-.69v-2.6h0Z"/>
      <path class="st0" d="M118.16,104.31h.02c.09-.13.22-.3.33-.43l1.12-1.3h.82l-1.46,1.55,1.66,2.23h-.84l-1.3-1.82-.35.39v1.42h-.68v-5.55h.68v3.5h0Z"/>
      <path class="st0" d="M121.54,104.59c.01.93.6,1.31,1.29,1.31.49,0,.79-.09,1.05-.2l.12.49c-.24.11-.66.24-1.26.24-1.16,0-1.86-.77-1.86-1.91s.67-2.04,1.78-2.04c1.23,0,1.55,1.08,1.55,1.78,0,.14,0,.25-.02.32h-2.65ZM123.55,104.1c0-.43-.18-1.11-.95-1.11-.7,0-1,.63-1.05,1.11h2,0Z"/>
      <path class="st0" d="M125.89,101.49v1.09h.99v.52h-.99v2.04c0,.47.13.74.52.74.18,0,.31-.02.4-.05l.03.52c-.13.05-.35.1-.61.1-.32,0-.58-.1-.74-.29-.19-.21-.26-.54-.26-.99v-2.06h-.59v-.52h.59v-.91l.67-.18h0Z"/>
      <path class="st0" d="M128.42,101.51c0,.23-.16.43-.44.43-.25,0-.42-.2-.42-.43s.17-.43.43-.43.42.19.43.43h0ZM127.65,106.35v-3.78h.69v3.78h-.69Z"/>
      <path class="st0" d="M129.48,103.6c0-.39-.01-.71-.03-1.02h.61l.04.62h.02c.19-.36.62-.71,1.25-.71.52,0,1.33.31,1.33,1.61v2.25h-.69v-2.18c0-.61-.23-1.12-.87-1.12-.45,0-.8.32-.92.71-.03.08-.05.2-.05.32v2.28h-.69v-2.76h0Z"/>
      <path class="st0" d="M137.08,102.58c-.02.27-.03.57-.03,1.03v2.2c0,.88-.18,1.4-.54,1.73-.37.34-.9.45-1.38.45s-.95-.11-1.26-.31l.17-.53c.25.16.64.3,1.11.3.7,0,1.22-.37,1.22-1.32v-.42h-.02c-.21.36-.62.64-1.2.64-.94,0-1.61-.8-1.61-1.85,0-1.28.83-2,1.71-2,.66,0,1.01.34,1.18.65h.02l.03-.56h.61,0ZM136.36,104.06c0-.11,0-.22-.04-.31-.13-.4-.46-.73-.96-.73-.66,0-1.12.56-1.12,1.43,0,.74.38,1.36,1.12,1.36.43,0,.81-.27.95-.71.03-.11.05-.25.05-.36v-.68h0Z"/>
      <path class="st0" d="M82.18,113.14c0,1.72-.65,2.68-1.77,2.68-.99,0-1.67-.93-1.68-2.61,0-1.71.74-2.64,1.77-2.64s1.68.95,1.68,2.57h0ZM79.43,113.21c0,1.32.41,2.07,1.03,2.07.7,0,1.04-.82,1.04-2.11s-.32-2.07-1.03-2.07c-.6,0-1.04.73-1.04,2.11h0Z"/>
      <path class="st0" d="M83.21,115.25c.15.01.32,0,.55-.03.39-.05.77-.21,1.07-.49.33-.31.57-.76.67-1.35h-.02c-.29.35-.69.55-1.2.55-.91,0-1.5-.69-1.5-1.56,0-.95.7-1.8,1.74-1.8s1.68.84,1.68,2.14c0,1.12-.38,1.89-.88,2.38-.39.38-.93.62-1.48.68-.24.04-.47.05-.63.04v-.56h0ZM83.46,112.33c0,.63.38,1.08.98,1.08.46,0,.82-.23,1-.53.03-.07.06-.14.06-.25,0-.87-.32-1.53-1.04-1.53-.59,0-1,.52-1,1.24Z"/>
      <path class="st0" d="M86.46,116.04l2.18-5.66h.53l-2.19,5.66h-.53,0Z"/>
      <path class="st0" d="M89.5,115.73v-.42l.54-.53c1.3-1.24,1.89-1.9,1.89-2.66,0-.52-.24-.99-1-.99-.46,0-.85.24-1.08.43l-.22-.48c.35-.3.85-.52,1.44-.52,1.09,0,1.55.75,1.55,1.48,0,.94-.68,1.7-1.75,2.73l-.4.38v.02h2.27v.57h-3.24,0Z"/>
      <path class="st0" d="M96.89,113.14c0,1.72-.65,2.68-1.77,2.68-.99,0-1.67-.93-1.68-2.61,0-1.71.74-2.64,1.77-2.64s1.68.95,1.68,2.57h0ZM94.13,113.21c0,1.32.41,2.07,1.03,2.07.7,0,1.04-.82,1.04-2.11s-.32-2.07-1.03-2.07c-.6,0-1.04.73-1.04,2.11h0Z"/>
      <path class="st0" d="M97.51,115.73v-.42l.54-.53c1.3-1.24,1.89-1.9,1.89-2.66,0-.52-.24-.99-1-.99-.46,0-.85.24-1.08.43l-.22-.48c.35-.3.85-.52,1.44-.52,1.09,0,1.55.75,1.55,1.48,0,.94-.68,1.7-1.75,2.73l-.4.38v.02h2.27v.57h-3.24,0Z"/>
      <path class="st0" d="M103.64,115.73v-1.38h-2.36v-.45l2.26-3.25h.75v3.16h.71v.53h-.71v1.38h-.65ZM103.64,113.81v-1.7c0-.26,0-.53.03-.79h-.03c-.16.3-.28.52-.42.75l-1.24,1.73v.02h1.66,0Z"/>
      <path class="st0" d="M109,113.37v.5h-1.93v-.5h1.93Z"/>
      <path class="st0" d="M112.73,111.29h-.02l-.88.48-.13-.52,1.11-.59h.58v5.08h-.66v-4.44h0Z"/>
      <path class="st0" d="M115.24,115.73v-.42l.54-.53c1.3-1.24,1.89-1.9,1.89-2.66,0-.52-.24-.99-1-.99-.46,0-.85.24-1.08.43l-.22-.48c.35-.3.85-.52,1.44-.52,1.09,0,1.55.75,1.55,1.48,0,.94-.68,1.7-1.75,2.73l-.4.38v.02h2.27v.57h-3.24,0Z"/>
      <path class="st0" d="M118.89,116.04l2.18-5.66h.53l-2.19,5.66h-.53,0Z"/>
      <path class="st0" d="M121.93,115.73v-.42l.54-.53c1.3-1.24,1.89-1.9,1.89-2.66,0-.52-.24-.99-1-.99-.46,0-.85.24-1.08.43l-.22-.48c.35-.3.85-.52,1.44-.52,1.09,0,1.55.75,1.55,1.48,0,.94-.68,1.7-1.75,2.73l-.4.38v.02h2.27v.57h-3.24,0Z"/>
      <path class="st0" d="M129.32,113.14c0,1.72-.65,2.68-1.77,2.68-.99,0-1.67-.93-1.68-2.61,0-1.71.74-2.64,1.77-2.64s1.68.95,1.68,2.57h0ZM126.56,113.21c0,1.32.41,2.07,1.03,2.07.7,0,1.04-.82,1.04-2.11s-.32-2.07-1.03-2.07c-.6,0-1.04.73-1.04,2.11h0Z"/>
      <path class="st0" d="M129.94,115.73v-.42l.54-.53c1.3-1.24,1.89-1.9,1.89-2.66,0-.52-.24-.99-1-.99-.46,0-.85.24-1.08.43l-.22-.48c.35-.3.85-.52,1.44-.52,1.09,0,1.55.75,1.55,1.48,0,.94-.68,1.7-1.75,2.73l-.4.38v.02h2.27v.57h-3.24,0Z"/>
      <path class="st0" d="M136.86,111.13c-.14,0-.32,0-.52.04-1.08.17-1.64.96-1.76,1.81h.02c.24-.33.66-.59,1.22-.59.9,0,1.54.66,1.54,1.64,0,.93-.63,1.79-1.69,1.79s-1.79-.85-1.79-2.16c0-1,.36-1.79.86-2.29.42-.42.98-.67,1.62-.76.2-.03.37-.04.49-.04v.56h0,0ZM136.66,114.07c0-.73-.42-1.16-1.05-1.16-.42,0-.8.26-.99.62-.04.08-.07.18-.07.3,0,.84.39,1.46,1.12,1.46.59,0,.99-.49.99-1.22h0Z"/>
    </g>
    <g>
      <path class="st0" d="M31.78,149.76v3.36c0,1.01.39,1.53,1.06,1.53s1.08-.49,1.08-1.53v-3.36h1.32v3.29c0,1.81-.91,2.66-2.44,2.66s-2.34-.82-2.34-2.68v-3.27h1.32,0Z"/>
      <path class="st0" d="M36.32,152.72c0-.53-.02-.98-.03-1.36h1.15l.06.59h.03c.17-.27.6-.69,1.31-.69.87,0,1.52.58,1.52,1.83v2.52h-1.32v-2.36c0-.55-.2-.92-.67-.92-.36,0-.58.26-.67.5-.03.08-.05.21-.05.33v2.45h-1.32v-2.89h0Z"/>
      <path class="st0" d="M42.77,150.18c0,.37-.27.66-.71.66s-.69-.29-.69-.66c0-.38.27-.66.7-.66s.69.28.7.66ZM41.41,155.61v-4.25h1.32v4.25h-1.32Z"/>
      <path class="st0" d="M44.77,151.36l.57,1.97c.1.36.18.69.24,1.03h.03c.07-.35.14-.67.23-1.03l.55-1.97h1.39l-1.58,4.25h-1.32l-1.54-4.25h1.44Z"/>
      <path class="st0" d="M49.27,153.91c.04.55.58.81,1.2.81.45,0,.81-.06,1.17-.18l.18.89c-.44.18-.97.27-1.54.27-1.44,0-2.27-.84-2.27-2.16,0-1.08.67-2.27,2.14-2.27,1.38,0,1.9,1.07,1.9,2.12,0,.23-.03.43-.05.53h-2.73ZM50.83,153c0-.32-.14-.86-.74-.86-.56,0-.79.51-.82.86h1.56Z"/>
      <path class="st0" d="M52.84,152.76c0-.62-.01-1.03-.03-1.4h1.14l.05.79h.03c.22-.62.73-.88,1.15-.88.12,0,.18,0,.28.03v1.24c-.1-.02-.21-.03-.36-.03-.49,0-.82.26-.91.67-.02.08-.03.19-.03.3v2.15h-1.32v-2.85h0Z"/>
      <path class="st0" d="M56.13,154.46c.24.15.75.32,1.13.32s.57-.13.57-.35-.13-.33-.62-.49c-.89-.29-1.22-.77-1.21-1.27,0-.8.67-1.4,1.73-1.4.5,0,.94.12,1.2.25l-.23.91c-.19-.1-.56-.24-.92-.24-.32,0-.51.13-.51.34s.17.31.69.49c.81.27,1.15.69,1.15,1.31,0,.79-.62,1.38-1.84,1.38-.56,0-1.05-.13-1.38-.3l.24-.94h0Z"/>
      <path class="st0" d="M61.26,150.18c0,.37-.27.66-.71.66s-.69-.29-.69-.66c0-.38.27-.66.7-.66s.69.28.7.66ZM59.9,155.61v-4.25h1.32v4.25h-1.32Z"/>
      <path class="st0" d="M63.75,150.15v1.21h.95v.98h-.95v1.54c0,.51.13.75.52.75.17,0,.3-.02.39-.04v1c-.16.06-.48.11-.85.11-.43,0-.78-.15-.99-.37-.25-.25-.36-.66-.36-1.26v-1.74h-.56v-.98h.56v-.91l1.29-.3Z"/>
      <path class="st0" d="M66.5,151.36l.63,2.09c.07.25.16.56.21.79h.03c.06-.23.13-.54.19-.79l.53-2.09h1.41l-.99,2.79c-.61,1.69-1.02,2.36-1.5,2.79-.46.4-.94.55-1.27.58l-.28-1.12c.17-.03.37-.11.57-.23.2-.11.42-.32.54-.53.04-.07.07-.13.07-.19,0-.05-.01-.11-.06-.22l-1.56-3.89h1.47,0Z"/>
      <path class="st0" d="M75.99,153.44c0,1.55-1.1,2.26-2.24,2.26-1.24,0-2.2-.82-2.2-2.19s.9-2.25,2.27-2.25,2.16.89,2.16,2.18h0ZM72.92,153.48c0,.72.31,1.28.87,1.28.52,0,.84-.52.84-1.28,0-.62-.24-1.27-.84-1.27-.63,0-.87.65-.87,1.28h0Z"/>
      <path class="st0" d="M76.96,155.61v-3.28h-.56v-.98h.56v-.16c0-.51.16-1.07.53-1.42.33-.31.79-.43,1.18-.43.29,0,.52.04.7.09l-.05,1.01c-.12-.03-.25-.06-.43-.06-.43,0-.62.34-.62.75v.22h.85v.98h-.84v3.28h-1.32Z"/>
      <path class="st0" d="M86.52,153.37c-.03-.71-.05-1.55-.05-2.41h-.03c-.19.75-.43,1.58-.65,2.27l-.72,2.28h-1.03l-.63-2.26c-.19-.69-.38-1.52-.53-2.29h-.02c-.03.79-.06,1.7-.1,2.43l-.11,2.22h-1.22l.37-5.85h1.76l.57,1.96c.19.67.36,1.41.49,2.09h.03c.16-.68.36-1.45.56-2.1l.62-1.95h1.73l.31,5.85h-1.28l-.09-2.24h0Z"/>
      <path class="st0" d="M91.31,155.61l-.08-.42h-.03c-.28.34-.71.52-1.22.52-.86,0-1.37-.62-1.37-1.3,0-1.11.99-1.63,2.5-1.63v-.05c0-.23-.12-.55-.78-.55-.43,0-.89.15-1.17.32l-.24-.85c.3-.17.88-.38,1.65-.38,1.41,0,1.86.84,1.86,1.84v1.48c0,.4.02.79.07,1.03h-1.2ZM91.15,153.6c-.69,0-1.23.16-1.23.67,0,.34.23.51.53.51.32,0,.6-.22.68-.49.02-.07.03-.15.03-.23v-.46h0Z"/>
      <path class="st0" d="M93.47,154.46c.24.15.75.32,1.13.32s.57-.13.57-.35-.13-.33-.62-.49c-.89-.29-1.22-.77-1.21-1.27,0-.8.67-1.4,1.73-1.4.5,0,.94.12,1.2.25l-.23.91c-.19-.1-.56-.24-.92-.24-.32,0-.51.13-.51.34s.17.31.69.49c.81.27,1.15.69,1.15,1.31,0,.79-.62,1.38-1.84,1.38-.56,0-1.05-.13-1.38-.3l.24-.94h0Z"/>
      <path class="st0" d="M97.23,154.46c.24.15.75.32,1.13.32s.57-.13.57-.35-.13-.33-.62-.49c-.89-.29-1.22-.77-1.21-1.27,0-.8.67-1.4,1.73-1.4.5,0,.94.12,1.2.25l-.23.91c-.19-.1-.56-.24-.92-.24-.32,0-.51.13-.51.34s.17.31.69.49c.81.27,1.15.69,1.15,1.31,0,.79-.62,1.38-1.84,1.38-.56,0-1.05-.13-1.38-.3l.24-.94h0Z"/>
      <path class="st0" d="M103.43,155.61l-.08-.42h-.03c-.28.34-.71.52-1.22.52-.86,0-1.37-.62-1.37-1.3,0-1.11.99-1.63,2.5-1.63v-.05c0-.23-.12-.55-.78-.55-.43,0-.89.15-1.17.32l-.24-.85c.3-.17.88-.38,1.65-.38,1.41,0,1.86.84,1.86,1.84v1.48c0,.4.02.79.07,1.03h-1.2ZM103.27,153.6c-.69,0-1.23.16-1.23.67,0,.34.23.51.53.51.32,0,.6-.22.68-.49.02-.07.03-.15.03-.23v-.46h0Z"/>
      <path class="st0" d="M108.78,155.5c-.24.11-.68.2-1.18.2-1.37,0-2.25-.84-2.25-2.17,0-1.24.85-2.26,2.43-2.26.35,0,.73.07,1.01.17l-.2.98c-.16-.07-.39-.13-.74-.13-.7,0-1.15.49-1.14,1.19,0,.78.53,1.19,1.16,1.19.32,0,.56-.06.76-.14l.16.98h0Z"/>
      <path class="st0" d="M109.5,149.44h1.32v2.43h.02c.14-.19.31-.33.52-.44.2-.11.44-.17.69-.17.84,0,1.49.59,1.49,1.87v2.48h-1.32v-2.33c0-.56-.19-.94-.68-.94-.35,0-.57.23-.66.47-.03.08-.04.19-.04.29v2.52h-1.32v-6.16h0Z"/>
      <path class="st0" d="M118.59,154.25c0,.55.02,1.01.03,1.36h-1.15l-.06-.6h-.03c-.16.26-.56.69-1.32.69-.86,0-1.49-.54-1.49-1.84v-2.5h1.32v2.28c0,.62.2.99.66.99.36,0,.57-.25.66-.46.03-.08.05-.17.05-.28v-2.53h1.32v2.89h0Z"/>
      <path class="st0" d="M119.64,154.46c.24.15.75.32,1.13.32s.57-.13.57-.35-.13-.33-.62-.49c-.89-.29-1.22-.77-1.21-1.27,0-.8.67-1.4,1.73-1.4.5,0,.94.12,1.2.25l-.23.91c-.19-.1-.56-.24-.92-.24-.32,0-.51.13-.51.34s.17.31.69.49c.81.27,1.15.69,1.15,1.31,0,.79-.62,1.38-1.84,1.38-.56,0-1.05-.13-1.38-.3l.24-.94h0Z"/>
      <path class="st0" d="M124.44,153.91c.04.55.58.81,1.2.81.45,0,.81-.06,1.17-.18l.18.89c-.44.18-.97.27-1.54.27-1.44,0-2.27-.84-2.27-2.16,0-1.08.67-2.27,2.14-2.27,1.38,0,1.9,1.07,1.9,2.12,0,.23-.03.43-.05.53h-2.73ZM125.99,153c0-.32-.14-.86-.74-.86-.56,0-.79.51-.82.86h1.56Z"/>
      <path class="st0" d="M129.47,150.15v1.21h.95v.98h-.95v1.54c0,.51.13.75.52.75.17,0,.3-.02.39-.04v1c-.16.06-.48.11-.85.11-.43,0-.78-.15-.99-.37-.25-.25-.36-.66-.36-1.26v-1.74h-.56v-.98h.56v-.91l1.29-.3Z"/>
      <path class="st0" d="M132.66,150.15v1.21h.95v.98h-.95v1.54c0,.51.13.75.52.75.17,0,.3-.02.39-.04v1c-.16.06-.48.11-.85.11-.43,0-.78-.15-.99-.37-.25-.25-.36-.66-.36-1.26v-1.74h-.56v-.98h.56v-.91l1.29-.3Z"/>
      <path class="st0" d="M134.37,154.46c.24.15.75.32,1.13.32s.57-.13.57-.35-.13-.33-.62-.49c-.89-.29-1.22-.77-1.21-1.27,0-.8.67-1.4,1.73-1.4.5,0,.94.12,1.2.25l-.23.91c-.19-.1-.56-.24-.92-.24-.32,0-.51.13-.51.34s.17.31.69.49c.81.27,1.15.69,1.15,1.31,0,.79-.62,1.38-1.84,1.38-.56,0-1.05-.13-1.38-.3l.24-.94h0Z"/>
      <path class="st0" d="M7.64,164.81c-.25.13-.75.25-1.39.25-1.48,0-2.6-.94-2.6-2.67s1.12-2.76,2.75-2.76c.65,0,1.07.14,1.25.23l-.17.56c-.26-.12-.62-.22-1.06-.22-1.24,0-2.05.79-2.05,2.17,0,1.29.74,2.11,2.02,2.11.42,0,.84-.08,1.12-.22l.13.54h0Z"/>
      <path class="st0" d="M8.76,163.22c.01.93.6,1.31,1.29,1.31.49,0,.79-.09,1.05-.2l.12.49c-.24.11-.66.24-1.26.24-1.16,0-1.86-.77-1.86-1.91s.67-2.04,1.78-2.04c1.23,0,1.55,1.08,1.55,1.78,0,.14,0,.25-.02.32h-2.65ZM10.77,162.72c0-.43-.18-1.11-.95-1.11-.7,0-1,.63-1.05,1.11h2,0Z"/>
      <path class="st0" d="M12.29,162.38c0-.45-.01-.82-.03-1.18h.6l.03.74h.03c.18-.51.59-.83,1.05-.83.07,0,.13,0,.19.02v.65c-.07-.01-.14-.02-.23-.02-.49,0-.82.36-.92.88-.02.1-.03.21-.03.32v2.02h-.69v-2.6h0Z"/>
      <path class="st0" d="M15.86,160.11v1.09h.99v.52h-.99v2.04c0,.47.13.74.52.74.18,0,.31-.02.4-.05l.03.52c-.13.05-.35.1-.61.1-.32,0-.58-.1-.74-.29-.19-.21-.26-.54-.26-.99v-2.06h-.59v-.52h.59v-.91l.67-.18h0Z"/>
      <path class="st0" d="M18.39,160.13c0,.23-.16.43-.44.43-.25,0-.42-.2-.42-.43s.17-.43.43-.43.42.19.43.43h0ZM17.62,164.98v-3.78h.69v3.78h-.69Z"/>
      <path class="st0" d="M19.51,164.98v-3.26h-.53v-.52h.53v-.21c0-.99.59-1.64,1.65-1.64.36,0,.77.11.96.25l-.19.52c-.17-.11-.46-.22-.8-.22-.72,0-.94.51-.94,1.12v.19h2.2v3.78h-.69v-3.26h-1.51v3.26h-.69,0Z"/>
      <path class="st0" d="M26.23,164.85c-.18.09-.58.22-1.08.22-1.14,0-1.89-.78-1.89-1.93s.79-2.01,2.03-2.01c.4,0,.77.1.95.2l-.15.53c-.17-.09-.43-.18-.8-.18-.86,0-1.34.65-1.33,1.43,0,.88.56,1.41,1.31,1.41.39,0,.65-.1.84-.18l.12.52h0Z"/>
      <path class="st0" d="M29.14,164.98l-.06-.48h-.02c-.21.3-.62.56-1.15.56-.76,0-1.15-.54-1.15-1.08,0-.92.81-1.42,2.27-1.41v-.08c0-.31-.09-.88-.86-.87-.35,0-.72.1-.99.28l-.16-.46c.31-.2.77-.33,1.25-.33,1.15,0,1.44.79,1.44,1.54v1.41c0,.32.01.65.06.9h-.62,0ZM29.03,163.05c-.74-.02-1.6.12-1.6.85,0,.45.3.66.64.66.5,0,.81-.31.92-.63.02-.07.03-.15.03-.22v-.66h0Z"/>
      <path class="st0" d="M31.6,160.11v1.09h.99v.52h-.99v2.04c0,.47.13.74.52.74.18,0,.31-.02.4-.05l.03.52c-.13.05-.35.1-.61.1-.32,0-.58-.1-.74-.29-.19-.21-.26-.54-.26-.99v-2.06h-.59v-.52h.59v-.91l.67-.18h0Z"/>
      <path class="st0" d="M33.7,163.22c.01.93.6,1.31,1.29,1.31.49,0,.79-.09,1.05-.2l.12.49c-.24.11-.66.24-1.26.24-1.16,0-1.86-.77-1.86-1.91s.67-2.04,1.78-2.04c1.23,0,1.55,1.08,1.55,1.78,0,.14,0,.25-.02.32h-2.65ZM35.71,162.72c0-.43-.18-1.11-.95-1.11-.7,0-1,.63-1.05,1.11h2,0Z"/>
      <path class="st0" d="M39.65,160.13c0,.23-.16.43-.44.43-.25,0-.42-.2-.42-.43s.17-.43.43-.43.42.19.43.43h0ZM38.88,164.98v-3.78h.69v3.78h-.69Z"/>
      <path class="st0" d="M40.71,162.22c0-.39-.01-.71-.03-1.02h.61l.04.62h.02c.19-.36.62-.71,1.25-.71.52,0,1.33.31,1.33,1.61v2.26h-.69v-2.18c0-.61-.23-1.12-.87-1.12-.45,0-.8.32-.92.7-.03.08-.05.2-.05.32v2.28h-.69v-2.76h0Z"/>
      <path class="st0" d="M47.3,164.98l-1.34-5.27h.72l.63,2.66c.15.66.29,1.31.39,1.82h.02c.09-.53.25-1.15.43-1.83l.71-2.66h.7l.64,2.67c.15.63.29,1.25.37,1.81h.02c.1-.58.25-1.16.42-1.82l.69-2.66h.7l-1.49,5.27h-.71l-.66-2.74c-.16-.68-.28-1.19-.35-1.72h-.02c-.09.53-.21,1.04-.4,1.72l-.75,2.74h-.72s0,0,0,0Z"/>
      <path class="st0" d="M53.16,163.22c.01.93.6,1.31,1.29,1.31.49,0,.79-.09,1.05-.2l.12.49c-.24.11-.66.24-1.26.24-1.16,0-1.86-.77-1.86-1.91s.67-2.04,1.78-2.04c1.23,0,1.55,1.08,1.55,1.78,0,.14,0,.25-.02.32h-2.65,0ZM55.17,162.72c0-.43-.18-1.11-.95-1.11-.7,0-1,.63-1.05,1.11h2,0Z"/>
      <path class="st0" d="M56.65,164.98c.02-.26.03-.64.03-.98v-4.57h.68v2.37h.02c.24-.43.68-.69,1.29-.69.94,0,1.6.78,1.6,1.92,0,1.35-.86,2.03-1.7,2.03-.55,0-.98-.21-1.27-.71h-.02l-.03.62h-.59s0,0,0,0ZM57.37,163.47c0,.09,0,.17.03.25.13.48.53.8,1.03.8.72,0,1.15-.59,1.15-1.45,0-.76-.39-1.41-1.13-1.41-.46,0-.9.33-1.04.85-.02.08-.04.18-.04.29v.68h0Z"/>
      <path class="st0" d="M62.81,159.79c.42-.07.91-.11,1.45-.11.98,0,1.67.23,2.14.66.47.43.75,1.04.75,1.88s-.27,1.56-.76,2.05c-.5.49-1.31.76-2.33.76-.49,0-.89-.02-1.24-.06v-5.18h0ZM63.49,164.45c.17.03.43.03.69.03,1.46,0,2.24-.81,2.24-2.23,0-1.25-.69-2.03-2.13-2.03-.35,0-.62.03-.8.07v4.16h0Z"/>
      <path class="st0" d="M68.41,163.22c.01.93.6,1.31,1.29,1.31.49,0,.79-.09,1.05-.2l.12.49c-.24.11-.66.24-1.26.24-1.16,0-1.86-.77-1.86-1.91s.67-2.04,1.78-2.04c1.23,0,1.55,1.08,1.55,1.78,0,.14,0,.25-.02.32h-2.65ZM70.41,162.72c0-.43-.18-1.11-.95-1.11-.7,0-1,.63-1.05,1.11h2,0Z"/>
      <path class="st0" d="M71.83,164.28c.21.13.57.27.91.27.5,0,.73-.25.73-.56s-.2-.5-.7-.69c-.68-.25-1.01-.62-1-1.07,0-.61.49-1.11,1.31-1.11.39,0,.72.1.92.23l-.17.5c-.14-.09-.42-.22-.78-.22-.4,0-.62.23-.62.52,0,.31.22.45.72.64.65.24.99.57.99,1.14,0,.67-.52,1.14-1.41,1.14-.41,0-.79-.11-1.06-.26l.16-.52h0,0Z"/>
      <path class="st0" d="M75.8,160.13c0,.23-.16.43-.44.43-.25,0-.42-.2-.42-.43s.17-.43.43-.43.42.19.43.43h0ZM75.03,164.98v-3.78h.69v3.78h-.69Z"/>
      <path class="st0" d="M80.11,161.2c-.02.27-.03.57-.03,1.03v2.2c0,.88-.18,1.4-.54,1.73s-.9.45-1.38.45-.95-.11-1.26-.31l.17-.53c.25.16.64.3,1.11.3.7,0,1.22-.37,1.22-1.32v-.42h-.02c-.21.36-.62.64-1.2.64-.94,0-1.61-.8-1.61-1.85,0-1.28.83-2,1.71-2,.66,0,1.01.34,1.18.65h.02l.03-.56h.61,0ZM79.4,162.69c0-.11,0-.22-.04-.31-.13-.4-.46-.73-.96-.73-.66,0-1.12.56-1.12,1.43,0,.74.38,1.36,1.12,1.36.43,0,.81-.27.95-.71.03-.11.05-.25.05-.36v-.68h0Z"/>
      <path class="st0" d="M81.17,162.22c0-.39-.01-.71-.03-1.02h.61l.04.62h.02c.19-.36.62-.71,1.25-.71.52,0,1.33.31,1.33,1.61v2.26h-.69v-2.18c0-.61-.23-1.12-.87-1.12-.45,0-.8.32-.92.7-.03.08-.05.2-.05.32v2.28h-.69v-2.76h0Z"/>
      <path class="st0" d="M90.49,164.98c-.15-.15-.29-.3-.49-.51-.46.42-.96.6-1.54.6-1.02,0-1.62-.69-1.62-1.48,0-.72.43-1.21,1.03-1.54v-.03c-.27-.34-.44-.72-.44-1.1,0-.65.46-1.3,1.34-1.3.66,0,1.17.43,1.17,1.12,0,.55-.33.99-1.15,1.41v.03c.45.52.94,1.09,1.28,1.47.24-.37.4-.88.51-1.54h.62c-.14.83-.36,1.48-.76,1.94.28.3.56.59.87.93h-.82s0,0,0,0ZM89.65,164.08c-.31-.34-.9-.99-1.48-1.66-.29.18-.68.52-.68,1.07,0,.61.44,1.06,1.08,1.06.46,0,.83-.2,1.08-.47h0ZM88.05,160.86c0,.38.18.67.4.95.53-.3.87-.59.87-1.03,0-.33-.18-.68-.61-.68s-.66.36-.66.76h0Z"/>
      <path class="st0" d="M93.57,159.79c.42-.07.91-.11,1.45-.11.98,0,1.67.23,2.14.66.47.43.75,1.04.75,1.88s-.27,1.56-.76,2.05c-.5.49-1.31.76-2.33.76-.49,0-.89-.02-1.24-.06v-5.18h0ZM94.25,164.45c.17.03.43.03.69.03,1.46,0,2.24-.81,2.24-2.23,0-1.25-.69-2.03-2.13-2.03-.35,0-.62.03-.8.07v4.16h0Z"/>
      <path class="st0" d="M99.17,163.22c.01.93.6,1.31,1.29,1.31.49,0,.79-.09,1.05-.2l.12.49c-.24.11-.66.24-1.26.24-1.16,0-1.86-.77-1.86-1.91s.67-2.04,1.78-2.04c1.23,0,1.55,1.08,1.55,1.78,0,.14,0,.25-.02.32h-2.65ZM101.18,162.72c0-.43-.18-1.11-.95-1.11-.7,0-1,.63-1.05,1.11h2,0Z"/>
      <path class="st0" d="M102.96,161.2l.74,2.12c.13.35.23.66.31.98h.02c.09-.31.2-.63.32-.98l.74-2.12h.72l-1.49,3.78h-.66l-1.44-3.78h.74,0Z"/>
      <path class="st0" d="M106.76,163.22c.01.93.6,1.31,1.29,1.31.49,0,.79-.09,1.05-.2l.12.49c-.24.11-.66.24-1.26.24-1.16,0-1.86-.77-1.86-1.91s.67-2.04,1.78-2.04c1.23,0,1.55,1.08,1.55,1.78,0,.14,0,.25-.02.32h-2.65ZM108.77,162.72c0-.43-.18-1.11-.95-1.11-.7,0-1,.63-1.05,1.11h2,0Z"/>
      <path class="st0" d="M110.29,159.43h.69v5.55h-.69v-5.55Z"/>
      <path class="st0" d="M115.55,163.06c0,1.4-.97,2.01-1.88,2.01-1.02,0-1.82-.75-1.82-1.95,0-1.26.83-2,1.87-2s1.82.79,1.82,1.94h0ZM112.55,163.1c0,.83.47,1.45,1.15,1.45s1.15-.62,1.15-1.48c0-.64-.32-1.45-1.14-1.45s-1.16.75-1.16,1.47h0Z"/>
      <path class="st0" d="M116.42,162.43c0-.48-.01-.87-.03-1.23h.62l.04.64h.02c.27-.46.73-.73,1.34-.73.92,0,1.61.77,1.61,1.92,0,1.36-.83,2.04-1.72,2.04-.5,0-.94-.22-1.16-.59h-.02v2.06h-.68v-4.1h0ZM117.1,163.44c0,.1,0,.19.03.28.12.48.54.81,1.03.81.73,0,1.15-.6,1.15-1.46,0-.76-.39-1.4-1.12-1.4-.47,0-.91.33-1.04.85-.02.09-.04.19-.04.28v.66h0Z"/>
      <path class="st0" d="M120.86,162.22c0-.39-.01-.71-.03-1.02h.6l.03.61h.02c.21-.36.56-.69,1.19-.69.51,0,.9.31,1.06.76h.02c.12-.22.27-.38.43-.49.23-.17.47-.26.83-.26.5,0,1.25.33,1.25,1.64v2.23h-.67v-2.14c0-.73-.27-1.17-.82-1.17-.39,0-.69.29-.82.62-.03.1-.06.22-.06.34v2.34h-.67v-2.27c0-.6-.26-1.03-.79-1.03-.43,0-.74.34-.85.69-.03.1-.05.22-.05.34v2.28h-.67v-2.76h0Z"/>
      <path class="st0" d="M127.76,163.22c.01.93.6,1.31,1.29,1.31.49,0,.79-.09,1.05-.2l.12.49c-.24.11-.66.24-1.26.24-1.16,0-1.86-.77-1.86-1.91s.67-2.04,1.78-2.04c1.23,0,1.55,1.08,1.55,1.78,0,.14,0,.25-.02.32h-2.65ZM129.77,162.72c0-.43-.18-1.11-.95-1.11-.7,0-1,.63-1.05,1.11h2,0Z"/>
      <path class="st0" d="M131.29,162.22c0-.39-.01-.71-.03-1.02h.61l.04.62h.02c.19-.36.62-.71,1.25-.71.52,0,1.33.31,1.33,1.61v2.26h-.69v-2.18c0-.61-.23-1.12-.87-1.12-.45,0-.8.32-.92.7-.03.08-.05.2-.05.32v2.28h-.69v-2.76h0Z"/>
      <path class="st0" d="M136.42,160.11v1.09h.99v.52h-.99v2.04c0,.47.13.74.52.74.18,0,.31-.02.4-.05l.03.52c-.13.05-.35.1-.61.1-.32,0-.58-.1-.74-.29-.19-.21-.26-.54-.26-.99v-2.06h-.59v-.52h.59v-.91l.67-.18h0Z"/>
      <path class="st0" d="M82.18,171.76c0,1.72-.65,2.68-1.77,2.68-.99,0-1.67-.93-1.68-2.61,0-1.71.74-2.64,1.77-2.64s1.68.95,1.68,2.57h0ZM79.43,171.84c0,1.32.41,2.07,1.03,2.07.7,0,1.04-.82,1.04-2.11s-.32-2.07-1.03-2.07c-.6,0-1.04.73-1.04,2.11h0Z"/>
      <path class="st0" d="M83.21,173.87c.15.01.32,0,.55-.03.39-.05.77-.21,1.07-.49.33-.31.57-.76.67-1.35h-.02c-.29.35-.69.55-1.2.55-.91,0-1.5-.69-1.5-1.56,0-.95.7-1.8,1.74-1.8s1.68.84,1.68,2.14c0,1.12-.38,1.89-.88,2.38-.39.38-.93.62-1.48.68-.24.04-.47.05-.63.04v-.56h0ZM83.46,170.95c0,.63.38,1.08.98,1.08.46,0,.82-.23,1-.53.03-.07.06-.14.06-.25,0-.87-.32-1.53-1.04-1.53-.59,0-1,.52-1,1.24h0Z"/>
      <path class="st0" d="M86.46,174.67l2.18-5.66h.53l-2.19,5.66h-.53,0Z"/>
      <path class="st0" d="M89.5,174.35v-.42l.54-.53c1.3-1.24,1.89-1.9,1.89-2.66,0-.52-.24-.99-1-.99-.46,0-.85.24-1.08.43l-.22-.48c.35-.3.85-.52,1.44-.52,1.09,0,1.55.75,1.55,1.48,0,.94-.68,1.7-1.75,2.73l-.4.38v.02h2.27v.57h-3.24,0Z"/>
      <path class="st0" d="M96.89,171.76c0,1.72-.65,2.68-1.77,2.68-.99,0-1.67-.93-1.68-2.61,0-1.71.74-2.64,1.77-2.64s1.68.95,1.68,2.57h0ZM94.13,171.84c0,1.32.41,2.07,1.03,2.07.7,0,1.04-.82,1.04-2.11s-.32-2.07-1.03-2.07c-.6,0-1.04.73-1.04,2.11h0Z"/>
      <path class="st0" d="M97.51,174.35v-.42l.54-.53c1.3-1.24,1.89-1.9,1.89-2.66,0-.52-.24-.99-1-.99-.46,0-.85.24-1.08.43l-.22-.48c.35-.3.85-.52,1.44-.52,1.09,0,1.55.75,1.55,1.48,0,.94-.68,1.7-1.75,2.73l-.4.38v.02h2.27v.57h-3.24,0Z"/>
      <path class="st0" d="M103.01,169.91h-.02l-.88.48-.13-.52,1.11-.59h.58v5.08h-.66v-4.44h0Z"/>
      <path class="st0" d="M109,171.99v.5h-1.93v-.5h1.93Z"/>
      <path class="st0" d="M112.73,169.91h-.02l-.88.48-.13-.52,1.11-.59h.58v5.08h-.66v-4.44h0Z"/>
      <path class="st0" d="M115.24,174.35v-.42l.54-.53c1.3-1.24,1.89-1.9,1.89-2.66,0-.52-.24-.99-1-.99-.46,0-.85.24-1.08.43l-.22-.48c.35-.3.85-.52,1.44-.52,1.09,0,1.55.75,1.55,1.48,0,.94-.68,1.7-1.75,2.73l-.4.38v.02h2.27v.57h-3.24,0Z"/>
      <path class="st0" d="M118.89,174.67l2.18-5.66h.53l-2.19,5.66h-.53,0Z"/>
      <path class="st0" d="M121.93,174.35v-.42l.54-.53c1.3-1.24,1.89-1.9,1.89-2.66,0-.52-.24-.99-1-.99-.46,0-.85.24-1.08.43l-.22-.48c.35-.3.85-.52,1.44-.52,1.09,0,1.55.75,1.55,1.48,0,.94-.68,1.7-1.75,2.73l-.4.38v.02h2.27v.57h-3.24,0Z"/>
      <path class="st0" d="M129.32,171.76c0,1.72-.65,2.68-1.77,2.68-.99,0-1.67-.93-1.68-2.61,0-1.71.74-2.64,1.77-2.64s1.68.95,1.68,2.57h0ZM126.56,171.84c0,1.32.41,2.07,1.03,2.07.7,0,1.04-.82,1.04-2.11s-.32-2.07-1.03-2.07c-.6,0-1.04.73-1.04,2.11h0Z"/>
      <path class="st0" d="M129.94,174.35v-.42l.54-.53c1.3-1.24,1.89-1.9,1.89-2.66,0-.52-.24-.99-1-.99-.46,0-.85.24-1.08.43l-.22-.48c.35-.3.85-.52,1.44-.52,1.09,0,1.55.75,1.55,1.48,0,.94-.68,1.7-1.75,2.73l-.4.38v.02h2.27v.57h-3.24,0Z"/>
      <path class="st0" d="M133.95,174.35v-.42l.54-.53c1.3-1.24,1.89-1.9,1.89-2.66,0-.52-.24-.99-1-.99-.46,0-.85.24-1.08.43l-.22-.48c.35-.3.85-.52,1.44-.52,1.09,0,1.55.75,1.55,1.48,0,.94-.68,1.7-1.75,2.73l-.4.38v.02h2.27v.57h-3.24,0Z"/>
    </g>
    <g>
      <path class="st0" d="M62.91,208.91c.49-.08,1.12-.13,1.78-.13,1.11,0,1.84.2,2.4.63.61.45.99,1.17.99,2.2,0,1.12-.4,1.9-.97,2.37-.62.51-1.56.76-2.7.76-.69,0-1.18-.04-1.5-.09v-5.75ZM64.23,213.68c.12.02.3.02.46.02,1.2,0,1.99-.65,1.99-2.05,0-1.22-.71-1.85-1.84-1.85-.29,0-.49.03-.6.05v3.83h0Z"/>
      <path class="st0" d="M72.95,213.32c0,.55.02,1.01.03,1.36h-1.15l-.06-.6h-.03c-.16.26-.56.69-1.32.69-.86,0-1.49-.54-1.49-1.84v-2.5h1.32v2.28c0,.62.2.99.66.99.36,0,.57-.25.66-.46.03-.08.05-.17.05-.28v-2.53h1.32v2.89h0Z"/>
      <path class="st0" d="M74,211.78c0-.53-.02-.98-.03-1.36h1.15l.06.59h.03c.17-.27.6-.69,1.31-.69.87,0,1.52.58,1.52,1.83v2.52h-1.32v-2.36c0-.55-.2-.92-.67-.92-.36,0-.58.26-.67.5-.03.08-.05.21-.05.33v2.45h-1.32v-2.89h0Z"/>
      <path class="st0" d="M80.41,212.22h.02c.1-.18.2-.36.31-.51l.86-1.28h1.58l-1.52,1.72,1.74,2.53h-1.62l-1.03-1.74-.33.42v1.32h-1.32v-6.16h1.32v3.71h0Z"/>
      <path class="st0" d="M85.24,209.25c0,.37-.27.66-.71.66s-.69-.29-.69-.66c0-.38.27-.66.7-.66s.69.28.7.66ZM83.88,214.68v-4.25h1.32v4.25h-1.32Z"/>
      <path class="st0" d="M86.26,211.78c0-.53-.02-.98-.03-1.36h1.15l.06.59h.03c.17-.27.6-.69,1.31-.69.87,0,1.52.58,1.52,1.83v2.52h-1.32v-2.36c0-.55-.2-.92-.67-.92-.36,0-.58.26-.67.5-.03.08-.05.21-.05.33v2.45h-1.32v-2.89h0Z"/>
      <path class="st0" d="M92.66,208.73c-.27.85-.65,1.7-1.04,2.35l-.8.07c.26-.74.49-1.58.61-2.34l1.24-.08h0Z"/>
      <path class="st0" d="M94.59,208.91c.49-.08,1.12-.13,1.78-.13,1.11,0,1.84.2,2.4.63.61.45.99,1.17.99,2.2,0,1.12-.4,1.9-.97,2.37-.62.51-1.56.76-2.7.76-.69,0-1.18-.04-1.5-.09v-5.75ZM95.91,213.68c.12.02.3.02.46.02,1.2,0,1.99-.65,1.99-2.05,0-1.22-.71-1.85-1.84-1.85-.29,0-.49.03-.6.05v3.83h0Z"/>
      <path class="st0" d="M104.76,212.51c0,1.55-1.1,2.26-2.24,2.26-1.24,0-2.2-.82-2.2-2.19s.9-2.25,2.27-2.25,2.16.89,2.16,2.18h0ZM101.69,212.55c0,.72.31,1.28.87,1.28.52,0,.84-.52.84-1.28,0-.62-.24-1.27-.84-1.27-.63,0-.87.65-.87,1.28h0Z"/>
      <path class="st0" d="M105.58,211.78c0-.53-.02-.98-.03-1.36h1.15l.06.59h.03c.17-.27.6-.69,1.31-.69.87,0,1.52.58,1.52,1.83v2.52h-1.32v-2.36c0-.55-.2-.92-.67-.92-.36,0-.58.26-.67.5-.03.08-.05.21-.05.33v2.45h-1.32v-2.89h0Z"/>
      <path class="st0" d="M114.67,213.32c0,.55.02,1.01.03,1.36h-1.15l-.06-.6h-.03c-.16.26-.56.69-1.32.69-.86,0-1.49-.54-1.49-1.84v-2.5h1.32v2.28c0,.62.2.99.66.99.36,0,.57-.25.66-.46.03-.08.05-.17.05-.28v-2.53h1.32v2.89h0Z"/>
      <path class="st0" d="M117.2,209.21v1.21h.95v.98h-.95v1.54c0,.51.13.75.52.75.17,0,.3-.02.39-.04v1c-.16.06-.48.11-.85.11-.43,0-.78-.15-.99-.37-.25-.25-.36-.66-.36-1.26v-1.74h-.56v-.98h.56v-.91l1.29-.3Z"/>
      <path class="st0" d="M118.91,213.52c.24.15.75.32,1.13.32s.57-.13.57-.35-.13-.33-.62-.49c-.89-.29-1.22-.77-1.21-1.27,0-.8.67-1.4,1.73-1.4.5,0,.94.12,1.2.25l-.23.91c-.19-.1-.56-.24-.92-.24-.32,0-.51.13-.51.34s.17.31.69.49c.81.27,1.15.69,1.15,1.31,0,.79-.62,1.38-1.84,1.38-.56,0-1.05-.13-1.38-.3l.24-.94h0Z"/>
      <path class="st0" d="M124.48,208.82h1.32v4.74h2.33v1.11h-3.65v-5.85h0Z"/>
      <path class="st0" d="M128.91,208.82h1.32v4.74h2.33v1.11h-3.65v-5.85h0Z"/>
      <path class="st0" d="M137.31,214.51c-.24.12-.79.25-1.5.25-2.03,0-3.07-1.27-3.07-2.93,0-2,1.43-3.1,3.2-3.1.69,0,1.21.13,1.44.26l-.27,1.05c-.26-.11-.64-.22-1.11-.22-1.05,0-1.86.64-1.86,1.94,0,1.17.69,1.91,1.87,1.91.4,0,.84-.08,1.11-.19l.2,1.04h0Z"/>
      <path class="st0" d="M95.91,223.88c-.25.13-.75.25-1.39.25-1.48,0-2.6-.94-2.6-2.67s1.12-2.76,2.75-2.76c.65,0,1.07.14,1.25.23l-.17.56c-.26-.12-.62-.22-1.06-.22-1.24,0-2.05.79-2.05,2.17,0,1.29.74,2.11,2.02,2.11.42,0,.84-.08,1.12-.22l.13.54h0Z"/>
      <path class="st0" d="M96.71,221.45c0-.45-.01-.82-.03-1.18h.6l.03.74h.03c.18-.51.59-.83,1.05-.83.07,0,.13,0,.19.02v.65c-.07-.01-.14-.02-.23-.02-.49,0-.82.36-.92.88-.02.1-.03.21-.03.32v2.02h-.69v-2.6h0Z"/>
      <path class="st0" d="M99.57,222.29c.01.93.6,1.31,1.29,1.31.49,0,.79-.09,1.05-.2l.12.49c-.24.11-.66.24-1.26.24-1.16,0-1.86-.77-1.86-1.91s.67-2.04,1.78-2.04c1.23,0,1.55,1.08,1.55,1.78,0,.14,0,.25-.02.32h-2.65ZM101.58,221.79c0-.43-.18-1.11-.95-1.11-.7,0-1,.63-1.05,1.11h2,0Z"/>
      <path class="st0" d="M103.37,220.27l.51,1.92c.11.42.2.82.28,1.21h.02c.08-.38.21-.79.34-1.2l.62-1.92h.58l.59,1.89c.13.45.25.85.33,1.23h.02c.07-.38.17-.78.3-1.23l.54-1.9h.68l-1.22,3.78h-.62l-.57-1.81c-.13-.43-.24-.8-.33-1.25h-.02c-.1.46-.21.85-.35,1.25l-.61,1.8h-.63l-1.14-3.78h.7Z"/>
      <path class="st0" d="M114.97,221.74c-.04-.73-.09-1.62-.08-2.27h-.02c-.18.61-.4,1.28-.66,2l-.93,2.56h-.51l-.86-2.51c-.25-.74-.46-1.42-.6-2.04h-.02c-.02.66-.05,1.53-.1,2.32l-.14,2.26h-.65l.36-5.27h.87l.9,2.55c.22.65.39,1.22.53,1.77h.02c.14-.53.32-1.12.56-1.77l.94-2.55h.87l.33,5.27h-.67l-.13-2.31h0Z"/>
      <path class="st0" d="M117.22,222.29c.01.93.6,1.31,1.29,1.31.49,0,.79-.09,1.05-.2l.12.49c-.24.11-.66.24-1.26.24-1.16,0-1.86-.77-1.86-1.91s.67-2.04,1.78-2.04c1.23,0,1.55,1.08,1.55,1.78,0,.14,0,.25-.02.32h-2.65ZM119.23,221.79c0-.43-.18-1.11-.95-1.11-.7,0-1,.63-1.05,1.11h2,0Z"/>
      <path class="st0" d="M120.75,221.29c0-.39-.01-.71-.03-1.02h.6l.03.61h.02c.21-.36.56-.69,1.19-.69.51,0,.9.31,1.06.76h.02c.12-.22.27-.38.43-.49.23-.17.47-.26.83-.26.5,0,1.25.33,1.25,1.64v2.23h-.67v-2.14c0-.73-.27-1.17-.82-1.17-.39,0-.69.29-.82.62-.03.1-.06.22-.06.34v2.34h-.67v-2.27c0-.6-.26-1.03-.79-1.03-.43,0-.74.34-.85.69-.03.1-.05.22-.05.34v2.28h-.67v-2.76h0Z"/>
      <path class="st0" d="M127.23,224.05c.02-.26.03-.64.03-.98v-4.57h.68v2.37h.02c.24-.43.68-.69,1.29-.69.94,0,1.6.78,1.6,1.92,0,1.35-.86,2.03-1.7,2.03-.55,0-.98-.21-1.27-.71h-.02l-.03.62h-.59ZM127.94,222.54c0,.09,0,.17.03.25.13.48.53.8,1.03.8.72,0,1.15-.59,1.15-1.45,0-.76-.39-1.41-1.13-1.41-.46,0-.9.33-1.04.85-.02.08-.04.18-.04.29v.68h0Z"/>
      <path class="st0" d="M132.1,222.29c.01.93.6,1.31,1.29,1.31.49,0,.79-.09,1.05-.2l.12.49c-.24.11-.66.24-1.26.24-1.16,0-1.86-.77-1.86-1.91s.67-2.04,1.78-2.04c1.23,0,1.55,1.08,1.55,1.78,0,.14,0,.25-.02.32h-2.65ZM134.11,221.79c0-.43-.18-1.11-.95-1.11-.7,0-1,.63-1.05,1.11h2,0Z"/>
      <path class="st0" d="M135.63,221.45c0-.45-.01-.82-.03-1.18h.6l.03.74h.03c.18-.51.59-.83,1.05-.83.07,0,.13,0,.19.02v.65c-.07-.01-.14-.02-.23-.02-.49,0-.82.36-.92.88-.02.1-.03.21-.03.32v2.02h-.69v-2.6h0Z"/>
      <path class="st0" d="M80.3,228.98h-.02l-.88.48-.13-.52,1.11-.59h.58v5.08h-.66v-4.44h0Z"/>
      <path class="st0" d="M84.31,228.98h-.02l-.88.48-.13-.52,1.11-.59h.58v5.08h-.66v-4.44h0Z"/>
      <path class="st0" d="M86.46,233.74l2.18-5.66h.53l-2.19,5.66h-.53,0Z"/>
      <path class="st0" d="M89.5,233.43v-.42l.54-.53c1.3-1.24,1.89-1.9,1.89-2.66,0-.52-.24-.99-1-.99-.46,0-.85.24-1.08.43l-.22-.48c.35-.3.85-.52,1.44-.52,1.09,0,1.55.75,1.55,1.48,0,.94-.68,1.7-1.75,2.73l-.4.38v.02h2.27v.57h-3.24,0Z"/>
      <path class="st0" d="M96.89,230.84c0,1.72-.65,2.68-1.77,2.68-.99,0-1.67-.93-1.68-2.61,0-1.71.74-2.64,1.77-2.64s1.68.95,1.68,2.57h0ZM94.13,230.9c0,1.32.41,2.07,1.03,2.07.7,0,1.04-.82,1.04-2.11s-.32-2.07-1.03-2.07c-.6,0-1.04.73-1.04,2.11h0Z"/>
      <path class="st0" d="M99.01,228.98h-.02l-.88.48-.13-.52,1.11-.59h.58v5.08h-.66v-4.44h0Z"/>
      <path class="st0" d="M103.64,233.43v-1.38h-2.36v-.45l2.26-3.25h.75v3.16h.71v.53h-.71v1.38h-.65ZM103.64,231.51v-1.7c0-.26,0-.53.03-.79h-.03c-.16.3-.28.52-.42.75l-1.24,1.73v.02h1.66,0Z"/>
      <path class="st0" d="M109,231.06v.5h-1.93v-.5h1.93Z"/>
      <path class="st0" d="M114.62,230.84c0,1.72-.65,2.68-1.77,2.68-.99,0-1.67-.93-1.68-2.61,0-1.71.74-2.64,1.77-2.64s1.68.95,1.68,2.57h0ZM111.86,230.9c0,1.32.41,2.07,1.03,2.07.7,0,1.04-.82,1.04-2.11s-.32-2.07-1.03-2.07c-.6,0-1.04.73-1.04,2.11h0Z"/>
      <path class="st0" d="M115.65,232.94c.15.01.32,0,.55-.03.39-.05.77-.21,1.07-.49.33-.31.57-.76.67-1.35h-.02c-.29.35-.69.55-1.2.55-.91,0-1.5-.69-1.5-1.56,0-.95.7-1.8,1.74-1.8s1.68.84,1.68,2.14c0,1.12-.38,1.89-.88,2.38-.39.38-.93.62-1.48.68-.24.04-.47.05-.63.04v-.56ZM115.9,230.02c0,.63.38,1.08.98,1.08.46,0,.82-.23,1-.53.03-.07.06-.14.06-.25,0-.87-.32-1.53-1.04-1.53-.59,0-1,.52-1,1.24h0Z"/>
      <path class="st0" d="M118.89,233.74l2.18-5.66h.53l-2.19,5.66h-.53,0Z"/>
      <path class="st0" d="M121.93,233.43v-.42l.54-.53c1.3-1.24,1.89-1.9,1.89-2.66,0-.52-.24-.99-1-.99-.46,0-.85.24-1.08.43l-.22-.48c.35-.3.85-.52,1.44-.52,1.09,0,1.55.75,1.55,1.48,0,.94-.68,1.7-1.75,2.73l-.4.38v.02h2.27v.57h-3.24,0Z"/>
      <path class="st0" d="M129.32,230.84c0,1.72-.65,2.68-1.77,2.68-.99,0-1.67-.93-1.68-2.61,0-1.71.74-2.64,1.77-2.64s1.68.95,1.68,2.57h0ZM126.56,230.9c0,1.32.41,2.07,1.03,2.07.7,0,1.04-.82,1.04-2.11s-.32-2.07-1.03-2.07c-.6,0-1.04.73-1.04,2.11h0Z"/>
      <path class="st0" d="M129.94,233.43v-.42l.54-.53c1.3-1.24,1.89-1.9,1.89-2.66,0-.52-.24-.99-1-.99-.46,0-.85.24-1.08.43l-.22-.48c.35-.3.85-.52,1.44-.52,1.09,0,1.55.75,1.55,1.48,0,.94-.68,1.7-1.75,2.73l-.4.38v.02h2.27v.57h-3.24,0Z"/>
      <path class="st0" d="M135.45,228.98h-.02l-.88.48-.13-.52,1.11-.59h.58v5.08h-.66v-4.44h0Z"/>
    </g>
    <g>
      <path class="st0" d="M198.87,63c.49-.08,1.12-.13,1.78-.13,1.11,0,1.84.2,2.4.63.61.45.99,1.17.99,2.2,0,1.12-.4,1.9-.97,2.37-.62.51-1.56.76-2.7.76-.69,0-1.18-.04-1.5-.09v-5.75h0ZM200.19,67.78c.12.02.3.02.46.02,1.2,0,1.99-.65,1.99-2.05,0-1.22-.71-1.85-1.84-1.85-.29,0-.49.03-.6.05v3.83h0Z"/>
      <path class="st0" d="M205.88,67.07c.04.55.58.81,1.2.81.45,0,.81-.06,1.17-.18l.18.89c-.44.18-.97.27-1.54.27-1.44,0-2.27-.84-2.27-2.16,0-1.08.67-2.27,2.14-2.27,1.38,0,1.9,1.07,1.9,2.12,0,.23-.03.43-.05.53h-2.73,0ZM207.42,66.17c0-.32-.14-.86-.74-.86-.56,0-.79.51-.82.86h1.56Z"/>
      <path class="st0" d="M210.8,63.34c0,.37-.27.66-.71.66s-.69-.29-.69-.66c0-.38.27-.66.7-.66s.69.28.7.66h0ZM209.44,68.77v-4.25h1.32v4.25h-1.32Z"/>
      <path class="st0" d="M211.81,67.62c.24.15.75.32,1.13.32s.57-.13.57-.35-.13-.33-.62-.49c-.89-.29-1.22-.77-1.21-1.27,0-.8.67-1.4,1.73-1.4.5,0,.94.12,1.2.25l-.23.91c-.19-.1-.56-.24-.92-.24-.32,0-.51.13-.51.34s.17.31.69.49c.81.27,1.15.69,1.15,1.31,0,.79-.62,1.38-1.84,1.38-.56,0-1.05-.13-1.38-.3l.24-.94h0Z"/>
      <path class="st0" d="M216.95,62.92v2.25h2.18v-2.25h1.32v5.85h-1.32v-2.45h-2.18v2.45h-1.32v-5.85h1.32Z"/>
      <path class="st0" d="M224,68.77l-.08-.42h-.03c-.28.34-.71.52-1.22.52-.86,0-1.37-.62-1.37-1.3,0-1.11.99-1.63,2.5-1.63v-.05c0-.23-.12-.55-.78-.55-.43,0-.89.15-1.17.32l-.24-.85c.3-.17.88-.38,1.65-.38,1.41,0,1.86.84,1.86,1.84v1.48c0,.4.02.79.07,1.03h-1.2,0ZM223.84,66.76c-.69,0-1.23.16-1.23.67,0,.34.23.51.53.51.32,0,.6-.22.68-.49.02-.07.03-.15.03-.23v-.46h0Z"/>
      <path class="st0" d="M229.35,68.67c-.24.11-.68.2-1.18.2-1.37,0-2.25-.84-2.25-2.17,0-1.24.85-2.26,2.43-2.26.35,0,.73.07,1.01.17l-.2.98c-.16-.07-.39-.13-.74-.13-.7,0-1.15.49-1.14,1.19,0,.78.53,1.19,1.16,1.19.32,0,.56-.06.76-.14l.16.97h0Z"/>
      <path class="st0" d="M231.4,66.32h.02c.1-.18.2-.36.31-.51l.86-1.28h1.58l-1.52,1.72,1.74,2.53h-1.62l-1.03-1.74-.33.42v1.32h-1.32v-6.16h1.32v3.71h0Z"/>
      <path class="st0" d="M234.78,67.62c.24.15.75.32,1.13.32s.57-.13.57-.35-.13-.33-.62-.49c-.89-.29-1.22-.77-1.21-1.27,0-.8.67-1.4,1.73-1.4.5,0,.94.12,1.2.25l-.23.91c-.19-.1-.56-.24-.92-.24-.32,0-.51.13-.51.34s.17.31.69.49c.81.27,1.15.69,1.15,1.31,0,.79-.62,1.38-1.84,1.38-.56,0-1.05-.13-1.38-.3l.24-.94h0Z"/>
      <path class="st0" d="M240.14,68.77v-.8l.72-.66c1.24-1.11,1.84-1.74,1.84-2.4,0-.46-.27-.82-.92-.82-.49,0-.91.24-1.21.46l-.37-.94c.42-.32,1.08-.58,1.84-.58,1.28,0,1.98.75,1.98,1.77,0,.95-.68,1.71-1.5,2.43l-.52.43v.02h2.14v1.09h-4.01,0Z"/>
      <path class="st0" d="M249.13,65.93c0,1.74-.71,2.94-2.14,2.94s-2.1-1.31-2.11-2.9c0-1.64.69-2.93,2.15-2.93s2.1,1.35,2.1,2.89h0ZM246.2,65.96c0,1.3.31,1.91.82,1.91s.79-.65.79-1.93-.27-1.91-.8-1.91c-.49,0-.82.61-.81,1.92Z"/>
      <path class="st0" d="M249.78,68.77v-.8l.72-.66c1.24-1.11,1.84-1.74,1.84-2.4,0-.46-.27-.82-.92-.82-.49,0-.91.24-1.21.46l-.37-.94c.42-.32,1.08-.58,1.84-.58,1.28,0,1.98.75,1.98,1.77,0,.95-.68,1.71-1.5,2.43l-.52.43v.02h2.14v1.09h-4.01,0Z"/>
      <path class="st0" d="M258.2,64.07c-.15,0-.31,0-.52.01-1.17.1-1.69.69-1.84,1.35h.03c.28-.28.67-.45,1.2-.45.95,0,1.75.67,1.75,1.84s-.86,2.04-2.08,2.04c-1.51,0-2.24-1.12-2.24-2.46,0-1.06.39-1.95,1-2.52.56-.51,1.29-.79,2.17-.83.24-.02.4-.01.53,0v1.02h0ZM257.47,66.9c0-.53-.27-.97-.84-.97-.36,0-.65.22-.78.5-.04.07-.06.18-.06.33.03.59.31,1.14.92,1.14.47,0,.76-.43.76-1h0Z"/>
      <path class="st0" d="M198.89,72.95c.3-.07.77-.11,1.24-.11.68,0,1.12.12,1.45.38.27.21.44.52.44.93,0,.51-.34.96-.89,1.15v.02c.5.12,1.09.53,1.09,1.32,0,.45-.18.8-.45,1.05-.36.34-.95.49-1.82.49-.47,0-.83-.03-1.05-.06v-5.18ZM199.57,75.11h.62c.71,0,1.13-.38,1.13-.89,0-.61-.46-.86-1.15-.86-.32,0-.49.02-.61.05v1.7h0ZM199.57,77.63c.14.03.33.03.57.03.71,0,1.35-.26,1.35-1.02,0-.72-.62-1.02-1.36-1.02h-.56v2.01h0Z"/>
      <path class="st0" d="M206.55,76.22c0,1.4-.97,2.01-1.88,2.01-1.02,0-1.82-.75-1.82-1.95,0-1.26.83-2,1.87-2s1.82.79,1.82,1.94h0ZM203.56,76.27c0,.83.47,1.45,1.15,1.45s1.15-.62,1.15-1.48c0-.64-.32-1.45-1.14-1.45s-1.16.75-1.16,1.47h0Z"/>
      <path class="st0" d="M209.52,78.15l-.06-.48h-.02c-.21.3-.62.56-1.15.56-.76,0-1.15-.54-1.15-1.08,0-.92.81-1.42,2.27-1.41v-.08c0-.31-.09-.88-.86-.87-.35,0-.72.1-.99.28l-.16-.46c.31-.2.77-.33,1.25-.33,1.15,0,1.44.79,1.44,1.54v1.41c0,.32.01.65.06.9h-.62ZM209.41,76.22c-.74-.02-1.6.12-1.6.85,0,.45.3.66.64.66.5,0,.81-.31.92-.63.02-.07.03-.15.03-.22v-.66h0Z"/>
      <path class="st0" d="M211.19,75.55c0-.45-.01-.82-.03-1.18h.6l.03.74h.03c.18-.51.59-.83,1.05-.83.07,0,.13,0,.19.02v.65c-.07-.01-.14-.02-.23-.02-.49,0-.82.36-.92.88-.02.1-.03.21-.03.32v2.02h-.69v-2.6h0Z"/>
      <path class="st0" d="M216.92,72.6v4.57c0,.33.01.72.03.98h-.61l-.03-.66h-.02c-.21.42-.66.74-1.28.74-.92,0-1.62-.77-1.62-1.92,0-1.26.78-2.03,1.7-2.03.58,0,.97.27,1.14.57h.02v-2.26h.68,0ZM216.24,75.91c0-.09,0-.2-.03-.3-.11-.43-.48-.79-.99-.79-.71,0-1.14.62-1.14,1.45,0,.77.38,1.41,1.12,1.41.46,0,.88-.31,1-.82.03-.09.03-.19.03-.3v-.66h0Z"/>
      <path class="st0" d="M219.75,72.88h2.84v.57h-2.15v1.75h1.99v.56h-1.99v2.38h-.69v-5.27Z"/>
      <path class="st0" d="M223.67,76.38c.01.93.6,1.31,1.29,1.31.49,0,.79-.09,1.05-.2l.12.49c-.24.11-.66.24-1.26.24-1.16,0-1.86-.77-1.86-1.91s.67-2.04,1.78-2.04c1.23,0,1.55,1.08,1.55,1.78,0,.14,0,.25-.02.32h-2.65ZM225.68,75.88c0-.43-.18-1.11-.95-1.11-.7,0-1,.63-1.05,1.11h2,0Z"/>
      <path class="st0" d="M227.2,72.6h.69v5.55h-.69v-5.55Z"/>
      <path class="st0" d="M229.05,72.6h.69v5.55h-.69v-5.55Z"/>
      <path class="st0" d="M234.31,76.22c0,1.4-.97,2.01-1.88,2.01-1.02,0-1.82-.75-1.82-1.95,0-1.26.83-2,1.87-2s1.82.79,1.82,1.94h0ZM231.31,76.27c0,.83.47,1.45,1.15,1.45s1.15-.62,1.15-1.48c0-.64-.32-1.45-1.14-1.45s-1.16.75-1.16,1.47h0Z"/>
      <path class="st0" d="M235.39,74.37l.51,1.92c.11.42.2.82.28,1.21h.02c.08-.38.21-.79.34-1.2l.62-1.92h.58l.59,1.89c.13.45.25.85.33,1.23h.02c.07-.38.17-.78.3-1.23l.54-1.9h.68l-1.22,3.78h-.62l-.57-1.81c-.13-.43-.24-.8-.33-1.25h-.02c-.1.46-.21.85-.35,1.25l-.61,1.8h-.63l-1.14-3.78h.7s0,0,0,0Z"/>
      <path class="st0" d="M202.03,84.93c0,1.72-.65,2.68-1.77,2.68-.99,0-1.67-.93-1.68-2.61,0-1.71.74-2.64,1.77-2.64s1.68.95,1.68,2.57h0ZM199.27,85c0,1.32.41,2.07,1.03,2.07.7,0,1.04-.82,1.04-2.11s-.32-2.07-1.03-2.07c-.6,0-1.04.73-1.04,2.11h0Z"/>
      <path class="st0" d="M203.06,87.03c.15.01.32,0,.55-.03.39-.05.77-.21,1.07-.49.33-.31.57-.76.67-1.35h-.02c-.29.35-.69.55-1.2.55-.91,0-1.5-.69-1.5-1.56,0-.95.7-1.8,1.74-1.8s1.68.84,1.68,2.14c0,1.12-.38,1.89-.88,2.38-.39.38-.93.62-1.48.68-.24.04-.47.05-.63.04v-.56h0ZM203.31,84.12c0,.63.38,1.08.98,1.08.46,0,.82-.23,1-.53.03-.07.06-.14.06-.25,0-.87-.32-1.53-1.04-1.53-.59,0-1,.52-1,1.24h0Z"/>
      <path class="st0" d="M206.31,87.83l2.18-5.66h.53l-2.19,5.66h-.53Z"/>
      <path class="st0" d="M209.34,87.52v-.42l.54-.53c1.3-1.24,1.89-1.9,1.89-2.66,0-.52-.24-.99-1-.99-.46,0-.85.24-1.08.43l-.22-.48c.35-.3.85-.52,1.44-.52,1.09,0,1.55.75,1.55,1.48,0,.94-.68,1.7-1.75,2.73l-.4.38v.02h2.27v.57h-3.24,0Z"/>
      <path class="st0" d="M216.73,84.93c0,1.72-.65,2.68-1.77,2.68-.99,0-1.67-.93-1.68-2.61,0-1.71.74-2.64,1.77-2.64s1.68.95,1.68,2.57h0ZM213.97,85c0,1.32.41,2.07,1.03,2.07.7,0,1.04-.82,1.04-2.11s-.32-2.07-1.03-2.07c-.6,0-1.04.73-1.04,2.11h0Z"/>
      <path class="st0" d="M217.35,87.52v-.42l.54-.53c1.3-1.24,1.89-1.9,1.89-2.66,0-.52-.24-.99-1-.99-.46,0-.85.24-1.08.43l-.22-.48c.35-.3.85-.52,1.44-.52,1.09,0,1.55.75,1.55,1.48,0,.94-.68,1.7-1.75,2.73l-.4.38v.02h2.27v.57h-3.24,0Z"/>
      <path class="st0" d="M224.39,83.02h-1.94l-.2,1.31c.12-.02.23-.03.41-.03.39,0,.78.09,1.1.27.39.22.72.66.72,1.3,0,.99-.79,1.73-1.89,1.73-.56,0-1.02-.16-1.27-.31l.17-.53c.21.13.62.29,1.09.29.64,0,1.2-.43,1.2-1.11,0-.65-.44-1.12-1.46-1.12-.3,0-.52.03-.71.05l.33-2.44h2.43v.58h0Z"/>
      <path class="st0" d="M228.84,85.16v.5h-1.93v-.5h1.93Z"/>
      <path class="st0" d="M234.46,84.93c0,1.72-.65,2.68-1.77,2.68-.99,0-1.67-.93-1.68-2.61,0-1.71.74-2.64,1.77-2.64s1.68.95,1.68,2.57h0ZM231.7,85c0,1.32.41,2.07,1.03,2.07.7,0,1.04-.82,1.04-2.11s-.32-2.07-1.03-2.07c-.6,0-1.04.73-1.04,2.11h0Z"/>
      <path class="st0" d="M235.09,87.52v-.42l.54-.53c1.3-1.24,1.89-1.9,1.89-2.66,0-.52-.24-.99-1-.99-.46,0-.85.24-1.08.43l-.22-.48c.35-.3.85-.52,1.44-.52,1.09,0,1.55.75,1.55,1.48,0,.94-.68,1.7-1.75,2.73l-.4.38v.02h2.27v.57h-3.24,0Z"/>
      <path class="st0" d="M238.74,87.83l2.18-5.66h.53l-2.19,5.66h-.53,0Z"/>
      <path class="st0" d="M241.77,87.52v-.42l.54-.53c1.3-1.24,1.89-1.9,1.89-2.66,0-.52-.24-.99-1-.99-.46,0-.85.24-1.08.43l-.22-.48c.35-.3.85-.52,1.44-.52,1.09,0,1.55.75,1.55,1.48,0,.94-.68,1.7-1.75,2.73l-.4.38v.02h2.28v.57h-3.25Z"/>
      <path class="st0" d="M249.16,84.93c0,1.72-.65,2.68-1.77,2.68-.99,0-1.67-.93-1.68-2.61,0-1.71.74-2.64,1.77-2.64s1.68.95,1.68,2.57h0ZM246.4,85c0,1.32.41,2.07,1.03,2.07.7,0,1.04-.82,1.04-2.11s-.32-2.07-1.03-2.07c-.6,0-1.04.73-1.04,2.11h0Z"/>
      <path class="st0" d="M249.79,87.52v-.42l.54-.53c1.3-1.24,1.89-1.9,1.89-2.66,0-.52-.24-.99-1-.99-.46,0-.85.24-1.08.43l-.22-.48c.35-.3.85-.52,1.44-.52,1.09,0,1.55.75,1.55,1.48,0,.94-.68,1.7-1.75,2.73l-.4.38v.02h2.28v.57h-3.25Z"/>
      <path class="st0" d="M256.7,82.92c-.14,0-.32,0-.52.04-1.08.17-1.64.96-1.76,1.81h.02c.24-.33.66-.59,1.22-.59.9,0,1.54.66,1.54,1.64,0,.93-.63,1.79-1.69,1.79s-1.79-.85-1.79-2.16c0-1,.36-1.79.86-2.29.42-.42.98-.67,1.62-.76.2-.03.37-.04.49-.04v.56h0ZM256.5,85.86c0-.73-.42-1.16-1.05-1.16-.42,0-.8.26-.99.62-.04.08-.07.18-.07.3,0,.84.39,1.46,1.12,1.46.59,0,.99-.49.99-1.22h0Z"/>
    </g>
    <g>
      <path class="st0" d="M203.16,126.43c-.24.12-.79.25-1.5.25-2.03,0-3.07-1.27-3.07-2.93,0-2,1.43-3.1,3.2-3.1.69,0,1.21.13,1.44.26l-.27,1.05c-.26-.12-.64-.22-1.11-.22-1.05,0-1.86.64-1.86,1.94,0,1.17.69,1.91,1.87,1.91.4,0,.84-.08,1.11-.19l.2,1.04h0Z"/>
      <path class="st0" d="M208.02,124.42c0,1.55-1.1,2.26-2.24,2.26-1.24,0-2.2-.82-2.2-2.19s.9-2.25,2.27-2.25,2.16.89,2.16,2.18h0ZM204.94,124.46c0,.72.31,1.28.87,1.28.52,0,.84-.52.84-1.28,0-.62-.24-1.27-.84-1.27-.63,0-.87.65-.87,1.28Z"/>
      <path class="st0" d="M208.84,123.7c0-.53-.02-.98-.03-1.36h1.12l.06.58h.03c.18-.27.56-.67,1.28-.67.55,0,.98.28,1.16.73h.02c.16-.23.35-.4.55-.52.23-.14.49-.21.81-.21.81,0,1.43.57,1.43,1.84v2.5h-1.28v-2.31c0-.62-.2-.97-.62-.97-.31,0-.52.21-.61.46-.03.1-.05.23-.05.33v2.49h-1.28v-2.38c0-.53-.19-.9-.61-.9-.34,0-.54.26-.62.47-.04.1-.05.23-.05.33v2.47h-1.28v-2.89h0Z"/>
      <path class="st0" d="M216.3,123.77c0-.56-.02-1.03-.03-1.43h1.15l.06.59h.02c.32-.45.8-.69,1.41-.69.93,0,1.77.81,1.77,2.17,0,1.55-.99,2.27-1.93,2.27-.51,0-.92-.2-1.1-.49h-.02v2.11h-1.32v-4.54h0ZM217.62,124.77c0,.1,0,.19.03.27.09.35.39.62.77.62.57,0,.91-.48.91-1.2,0-.68-.3-1.19-.89-1.19-.37,0-.71.28-.79.67-.02.07-.03.16-.03.23v.59h0Z"/>
      <path class="st0" d="M221.49,123.74c0-.62-.01-1.03-.03-1.4h1.14l.05.79h.03c.22-.62.73-.88,1.15-.88.12,0,.18,0,.28.03v1.24c-.1-.02-.21-.03-.36-.03-.49,0-.82.26-.91.67-.02.08-.03.19-.03.3v2.15h-1.32v-2.85h0Z"/>
      <path class="st0" d="M226.13,121.16c0,.37-.27.66-.71.66s-.69-.29-.69-.66c0-.38.27-.66.7-.66s.69.28.7.66h0ZM224.77,126.59v-4.25h1.32v4.25h-1.32Z"/>
      <path class="st0" d="M227.14,123.7c0-.53-.02-.98-.03-1.36h1.15l.06.59h.03c.17-.27.6-.69,1.31-.69.87,0,1.52.58,1.52,1.83v2.52h-1.32v-2.36c0-.55-.2-.92-.67-.92-.36,0-.58.26-.67.5-.03.08-.05.21-.05.33v2.45h-1.32v-2.89h0Z"/>
      <path class="st0" d="M233.65,121.13v1.21h.95v.98h-.95v1.54c0,.51.13.75.52.75.17,0,.3-.02.39-.04v1c-.16.06-.48.11-.85.11-.43,0-.78-.15-.99-.37-.25-.25-.36-.66-.36-1.26v-1.74h-.56v-.98h.56v-.91l1.29-.3h0Z"/>
      <path class="st0" d="M238.48,121.16c0,.37-.27.66-.71.66s-.69-.29-.69-.66c0-.38.27-.66.7-.66s.69.28.7.66h0ZM237.12,126.59v-4.25h1.32v4.25h-1.32Z"/>
      <path class="st0" d="M239.5,123.7c0-.53-.02-.98-.03-1.36h1.15l.06.59h.03c.17-.27.6-.69,1.31-.69.87,0,1.52.58,1.52,1.83v2.52h-1.32v-2.36c0-.55-.2-.92-.67-.92-.36,0-.58.26-.67.5-.03.08-.05.21-.05.33v2.45h-1.32v-2.89h0Z"/>
      <path class="st0" d="M247.77,126.48c-.24.11-.68.2-1.18.2-1.37,0-2.25-.84-2.25-2.17,0-1.24.85-2.26,2.43-2.26.35,0,.73.07,1.01.17l-.2.98c-.16-.07-.39-.13-.74-.13-.7,0-1.15.49-1.14,1.19,0,.78.53,1.19,1.16,1.19.32,0,.56-.06.76-.14l.16.97h0Z"/>
      <path class="st0" d="M248.34,125.88c0-.47.33-.8.78-.8s.77.33.78.8c0,.46-.31.8-.78.8s-.78-.33-.78-.8Z"/>
      <path class="st0" d="M202.9,135.73c-.3.12-.91.29-1.62.29-.8,0-1.46-.2-1.97-.69-.46-.44-.73-1.14-.73-1.96,0-1.57,1.08-2.72,2.85-2.72.61,0,1.09.13,1.32.24l-.17.56c-.28-.13-.63-.23-1.16-.23-1.28,0-2.12.79-2.12,2.11s.8,2.13,2.03,2.13c.45,0,.75-.06.9-.14v-1.57h-1.07v-.54h1.74v2.53h0Z"/>
      <path class="st0" d="M203.93,133.36c0-.45-.01-.82-.03-1.18h.6l.03.74h.03c.18-.51.59-.83,1.05-.83.07,0,.13,0,.19.02v.65c-.07-.01-.14-.02-.23-.02-.49,0-.82.36-.92.88-.02.1-.03.21-.03.32v2.02h-.69v-2.6h0Z"/>
      <path class="st0" d="M208.54,135.96l-.06-.48h-.02c-.21.3-.62.56-1.15.56-.76,0-1.15-.54-1.15-1.08,0-.92.81-1.42,2.27-1.41v-.08c0-.31-.09-.88-.86-.87-.35,0-.72.1-.99.28l-.16-.46c.31-.2.77-.33,1.25-.33,1.15,0,1.44.79,1.44,1.54v1.41c0,.32.01.65.06.9h-.62ZM208.44,134.03c-.74-.02-1.6.12-1.6.85,0,.45.3.66.64.66.5,0,.81-.31.92-.63.02-.07.03-.15.03-.22v-.66h0Z"/>
      <path class="st0" d="M210.21,133.42c0-.48-.01-.87-.03-1.23h.62l.04.64h.02c.27-.46.73-.73,1.34-.73.92,0,1.61.77,1.61,1.92,0,1.36-.83,2.04-1.72,2.04-.5,0-.94-.22-1.16-.59h-.02v2.06h-.68v-4.1h0ZM210.89,134.42c0,.1,0,.19.03.28.12.48.54.81,1.03.81.73,0,1.15-.6,1.15-1.46,0-.76-.39-1.4-1.12-1.4-.47,0-.91.33-1.04.85-.02.09-.04.19-.04.28v.66h0Z"/>
      <path class="st0" d="M214.65,130.41h.69v2.36h.02c.11-.2.29-.36.49-.49.2-.12.44-.19.7-.19.51,0,1.32.31,1.32,1.61v2.25h-.69v-2.17c0-.61-.23-1.12-.87-1.12-.45,0-.79.31-.93.69-.03.1-.05.2-.05.33v2.28h-.69v-5.55h0Z"/>
      <path class="st0" d="M219.76,131.12c0,.23-.16.43-.44.43-.25,0-.42-.2-.42-.43s.17-.43.43-.43.42.19.43.43h0ZM218.99,135.96v-3.78h.69v3.78h-.69Z"/>
      <path class="st0" d="M223.51,135.83c-.18.09-.58.22-1.08.22-1.14,0-1.89-.78-1.89-1.93s.79-2.01,2.03-2.01c.4,0,.77.1.95.2l-.15.53c-.17-.09-.43-.18-.8-.18-.86,0-1.34.65-1.33,1.43,0,.88.56,1.41,1.31,1.41.39,0,.65-.1.84-.18l.12.52h0Z"/>
      <path class="st0" d="M226.85,134.31l-.54,1.65h-.7l1.79-5.27h.82l1.8,5.27h-.73l-.56-1.65h-1.87ZM228.58,133.78l-.52-1.51c-.11-.34-.2-.66-.27-.96h-.02c-.07.31-.16.63-.26.95l-.52,1.52h1.59,0Z"/>
      <path class="st0" d="M230.73,133.36c0-.45-.01-.82-.03-1.18h.6l.03.74h.03c.18-.51.59-.83,1.05-.83.07,0,.13,0,.19.02v.65c-.07-.01-.14-.02-.23-.02-.49,0-.83.36-.92.88-.02.1-.03.21-.03.32v2.02h-.69v-2.6h0Z"/>
      <path class="st0" d="M234.3,131.09v1.09h.99v.52h-.99v2.04c0,.47.13.74.52.74.18,0,.31-.02.4-.05l.03.52c-.13.05-.35.1-.62.1-.32,0-.58-.1-.74-.29-.19-.21-.27-.54-.27-.99v-2.06h-.59v-.52h.59v-.91l.67-.18h0Z"/>
      <path class="st0" d="M236.83,131.12c0,.23-.16.43-.44.43-.25,0-.42-.2-.42-.43s.17-.43.43-.43.42.19.43.43h0ZM236.06,135.96v-3.78h.69v3.78h-.69Z"/>
      <path class="st0" d="M237.79,135.26c.21.13.57.27.91.27.5,0,.73-.25.73-.56s-.2-.5-.7-.69c-.68-.25-1.01-.62-1-1.07,0-.61.49-1.11,1.31-1.11.39,0,.72.1.92.23l-.17.5c-.14-.09-.42-.22-.78-.22-.4,0-.62.23-.62.52,0,.31.22.45.72.64.65.24.99.57.99,1.14,0,.67-.52,1.14-1.41,1.14-.41,0-.79-.11-1.06-.26l.16-.52h0,0Z"/>
      <path class="st0" d="M241.8,131.09v1.09h.99v.52h-.99v2.04c0,.47.13.74.52.74.18,0,.31-.02.4-.05l.03.52c-.13.05-.35.1-.62.1-.32,0-.58-.1-.74-.29-.19-.21-.27-.54-.27-.99v-2.06h-.59v-.52h.59v-.91l.67-.18h0Z"/>
      <path class="st0" d="M200.14,140.89h-.02l-.88.48-.13-.52,1.11-.59h.58v5.08h-.66v-4.44h0Z"/>
      <path class="st0" d="M206.04,142.75c0,1.72-.65,2.68-1.77,2.68-.99,0-1.67-.93-1.68-2.61,0-1.71.74-2.64,1.77-2.64s1.68.95,1.68,2.57h0ZM203.28,142.82c0,1.32.41,2.07,1.03,2.07.7,0,1.04-.82,1.04-2.11s-.32-2.07-1.03-2.07c-.6,0-1.04.73-1.04,2.11h0Z"/>
      <path class="st0" d="M206.31,145.65l2.18-5.66h.53l-2.19,5.66h-.53,0Z"/>
      <path class="st0" d="M209.34,145.34v-.42l.54-.53c1.3-1.24,1.89-1.9,1.89-2.66,0-.52-.24-.99-1-.99-.46,0-.85.24-1.08.43l-.22-.48c.35-.3.85-.52,1.44-.52,1.09,0,1.55.75,1.55,1.48,0,.94-.68,1.7-1.75,2.73l-.4.38v.02h2.28v.57h-3.25,0Z"/>
      <path class="st0" d="M216.73,142.75c0,1.72-.65,2.68-1.77,2.68-.99,0-1.67-.93-1.68-2.61,0-1.71.74-2.64,1.77-2.64s1.68.95,1.68,2.57h0ZM213.97,142.82c0,1.32.41,2.07,1.03,2.07.7,0,1.04-.82,1.04-2.11s-.32-2.07-1.03-2.07c-.6,0-1.04.73-1.04,2.11h0Z"/>
      <path class="st0" d="M217.35,145.34v-.42l.54-.53c1.3-1.24,1.89-1.9,1.89-2.66,0-.52-.24-.99-1-.99-.46,0-.85.24-1.08.43l-.22-.48c.35-.3.85-.52,1.44-.52,1.09,0,1.55.75,1.55,1.48,0,.94-.68,1.7-1.75,2.73l-.4.38v.02h2.28v.57h-3.25,0Z"/>
      <path class="st0" d="M222.86,140.89h-.02l-.88.48-.13-.52,1.11-.59h.58v5.08h-.66v-4.44h0Z"/>
      <path class="st0" d="M228.84,142.97v.5h-1.93v-.5h1.93Z"/>
      <path class="st0" d="M234.46,142.75c0,1.72-.65,2.68-1.77,2.68-.99,0-1.67-.93-1.68-2.61,0-1.71.74-2.64,1.77-2.64s1.68.95,1.68,2.57h0ZM231.7,142.82c0,1.32.41,2.07,1.03,2.07.7,0,1.04-.82,1.04-2.11s-.32-2.07-1.03-2.07c-.6,0-1.04.73-1.04,2.11h0Z"/>
      <path class="st0" d="M235.03,144.05c0-.64.38-1.09,1-1.36v-.02c-.57-.26-.81-.7-.81-1.14,0-.8.68-1.35,1.58-1.35.98,0,1.48.62,1.48,1.25,0,.43-.21.89-.83,1.18v.03c.63.25,1.02.7,1.02,1.31,0,.89-.76,1.48-1.73,1.48-1.06,0-1.7-.63-1.7-1.38h0ZM237.76,144.01c0-.61-.43-.91-1.12-1.11-.59.17-.92.56-.92,1.05-.02.51.37.96,1.02.96s1.02-.38,1.02-.91h0ZM235.87,141.48c0,.51.38.79.97.94.43-.14.77-.46.77-.92,0-.4-.24-.82-.86-.82-.57,0-.88.38-.88.81h0Z"/>
      <path class="st0" d="M238.74,145.65l2.18-5.66h.53l-2.19,5.66h-.53Z"/>
      <path class="st0" d="M241.77,145.34v-.42l.54-.53c1.3-1.24,1.89-1.9,1.89-2.66,0-.52-.24-.99-1-.99-.46,0-.85.24-1.08.43l-.22-.48c.35-.3.85-.52,1.44-.52,1.09,0,1.55.75,1.55,1.48,0,.94-.68,1.7-1.75,2.73l-.4.38v.02h2.27v.57h-3.24,0Z"/>
      <path class="st0" d="M249.16,142.75c0,1.72-.65,2.68-1.77,2.68-.99,0-1.67-.93-1.68-2.61,0-1.71.74-2.64,1.77-2.64s1.68.95,1.68,2.57h0ZM246.4,142.82c0,1.32.41,2.07,1.03,2.07.7,0,1.04-.82,1.04-2.11s-.32-2.07-1.03-2.07c-.6,0-1.04.73-1.04,2.11h0Z"/>
      <path class="st0" d="M249.79,145.34v-.42l.54-.53c1.3-1.24,1.89-1.9,1.89-2.66,0-.52-.24-.99-1-.99-.46,0-.85.24-1.08.43l-.22-.48c.35-.3.85-.52,1.44-.52,1.09,0,1.55.75,1.55,1.48,0,.94-.68,1.7-1.75,2.73l-.4.38v.02h2.27v.57h-3.24,0Z"/>
      <path class="st0" d="M255.92,145.34v-1.38h-2.36v-.45l2.26-3.25h.75v3.16h.71v.53h-.71v1.38h-.65ZM255.92,143.42v-1.7c0-.26,0-.53.03-.79h-.03c-.16.3-.28.52-.42.75l-1.24,1.73v.02h1.66,0Z"/>
    </g>
    <g>
      <path class="st0" d="M198.87,179.77c.35-.07,1.05-.13,1.71-.13.81,0,1.3.08,1.73.33.41.22.7.62.7,1.15s-.3,1-.96,1.25v.02c.67.17,1.16.69,1.16,1.43,0,.53-.25.95-.61,1.24-.43.34-1.14.53-2.3.53-.65,0-1.13-.04-1.43-.09v-5.75h0ZM200.19,182h.43c.7,0,1.07-.29,1.07-.72s-.34-.68-.93-.68c-.29,0-.45.02-.56.04v1.36h0ZM200.19,184.6c.13.02.28.03.51.03.6,0,1.13-.23,1.13-.85s-.53-.82-1.18-.82h-.45v1.64Z"/>
      <path class="st0" d="M204.11,179.77c.35-.07,1.05-.13,1.71-.13.81,0,1.3.08,1.73.33.41.22.7.62.7,1.15s-.3,1-.96,1.25v.02c.67.17,1.16.69,1.16,1.43,0,.53-.25.95-.61,1.24-.43.34-1.14.53-2.3.53-.65,0-1.13-.04-1.43-.09v-5.75h0ZM205.43,182h.43c.7,0,1.07-.29,1.07-.72s-.34-.68-.93-.68c-.29,0-.45.02-.56.04v1.36h0ZM205.43,184.6c.13.02.28.03.51.03.6,0,1.13-.23,1.13-.85s-.53-.82-1.18-.82h-.45v1.64Z"/>
      <path class="st0" d="M213.65,185.37c-.24.12-.79.25-1.5.25-2.03,0-3.07-1.27-3.07-2.93,0-2,1.43-3.1,3.2-3.1.69,0,1.21.13,1.44.26l-.27,1.05c-.26-.11-.64-.22-1.11-.22-1.05,0-1.86.64-1.86,1.94,0,1.17.69,1.91,1.87,1.91.4,0,.84-.08,1.11-.19l.2,1.04h0Z"/>
      <path class="st0" d="M216.27,179.76c.41-.07.98-.12,1.79-.12s1.4.16,1.79.47c.37.29.62.78.62,1.35s-.19,1.06-.53,1.38c-.45.43-1.12.62-1.9.62-.17,0-.33-.01-.45-.03v2.1h-1.31v-5.77h0ZM217.59,182.42c.11.03.25.03.44.03.7,0,1.14-.36,1.14-.95,0-.54-.37-.86-1.04-.86-.26,0-.44.02-.54.04v1.73h0Z"/>
      <path class="st0" d="M221.19,182.69c0-.62-.01-1.03-.03-1.4h1.14l.05.79h.03c.22-.62.73-.88,1.15-.88.12,0,.18,0,.28.03v1.24c-.1-.02-.21-.03-.36-.03-.49,0-.82.26-.91.67-.02.08-.03.19-.03.3v2.15h-1.32v-2.85h0Z"/>
      <path class="st0" d="M225.83,180.11c0,.37-.27.66-.71.66s-.69-.29-.69-.66c0-.38.27-.66.7-.66s.69.28.7.66h0ZM224.47,185.54v-4.25h1.32v4.25h-1.32Z"/>
      <path class="st0" d="M226.85,182.64c0-.53-.02-.98-.03-1.36h1.15l.06.59h.03c.17-.27.6-.69,1.31-.69.87,0,1.52.58,1.52,1.83v2.52h-1.32v-2.36c0-.55-.2-.92-.67-.92-.36,0-.58.26-.67.5-.03.08-.05.21-.05.33v2.45h-1.32v-2.89h0Z"/>
      <path class="st0" d="M233.36,180.07v1.21h.95v.98h-.95v1.54c0,.51.13.75.52.75.17,0,.3-.02.39-.04v1c-.16.06-.48.11-.85.11-.43,0-.78-.15-.99-.37-.25-.25-.36-.66-.36-1.26v-1.74h-.56v-.98h.56v-.91l1.29-.3h0Z"/>
      <path class="st0" d="M236.43,180.11c0,.37-.27.66-.71.66s-.69-.29-.69-.66c0-.38.27-.66.7-.66s.69.28.7.66h0ZM235.07,185.54v-4.25h1.32v4.25h-1.32Z"/>
      <path class="st0" d="M237.45,182.64c0-.53-.02-.98-.03-1.36h1.15l.06.59h.03c.17-.27.6-.69,1.31-.69.87,0,1.52.58,1.52,1.83v2.52h-1.32v-2.36c0-.55-.2-.92-.67-.92-.36,0-.58.26-.67.5-.03.08-.05.21-.05.33v2.45h-1.32v-2.89h0Z"/>
      <path class="st0" d="M246.59,181.28c-.02.27-.03.63-.03,1.27v2.37c0,.82-.16,1.48-.65,1.91-.46.4-1.1.52-1.72.52-.56,0-1.15-.11-1.53-.33l.26-1c.26.15.73.32,1.23.32.62,0,1.1-.33,1.1-1.12v-.27h-.02c-.25.35-.66.55-1.15.55-1.05,0-1.8-.85-1.8-2.07,0-1.37.88-2.24,1.93-2.24.58,0,.95.25,1.16.6h.02l.04-.51h1.15s0,0,0,0ZM245.23,183.02c0-.09,0-.17-.03-.24-.09-.35-.34-.59-.71-.59-.48,0-.86.44-.86,1.21,0,.63.31,1.13.86,1.13.34,0,.61-.23.7-.53.03-.1.04-.24.04-.35v-.62h0Z"/>
      <path class="st0" d="M253.14,185.54c-.13-.13-.25-.26-.39-.42-.38.3-.92.51-1.61.51-1.42,0-2.04-.84-2.04-1.66,0-.77.44-1.33,1.12-1.68v-.03c-.25-.28-.45-.71-.45-1.13,0-.74.59-1.55,1.76-1.55.9,0,1.58.53,1.58,1.37,0,.59-.35,1.1-1.15,1.51v.03c.33.37.69.8.97,1.09.24-.37.42-.9.5-1.43h1.18c-.16.89-.45,1.64-.97,2.22.33.38.67.76,1.03,1.15h-1.53ZM252.13,184.38c-.36-.36-.84-.9-1.31-1.43-.24.17-.46.43-.46.81,0,.5.37.92.98.92.34,0,.63-.13.8-.3h0ZM250.96,181.01c0,.3.13.56.4.84.43-.29.64-.52.64-.86,0-.28-.16-.58-.51-.58s-.53.29-.53.59Z"/>
      <path class="st0" d="M257.05,179.76c.41-.07.98-.12,1.79-.12s1.4.16,1.79.47c.37.29.62.78.62,1.35s-.19,1.06-.53,1.38c-.45.43-1.12.62-1.9.62-.17,0-.33-.01-.45-.03v2.1h-1.31v-5.77h0ZM258.36,182.42c.11.03.25.03.44.03.7,0,1.14-.36,1.14-.95,0-.54-.37-.86-1.04-.86-.26,0-.44.02-.54.04v1.73h0Z"/>
      <path class="st0" d="M261.97,182.69c0-.62-.01-1.03-.03-1.4h1.14l.05.79h.03c.22-.62.73-.88,1.15-.88.12,0,.18,0,.28.03v1.24c-.1-.02-.21-.03-.36-.03-.49,0-.82.26-.91.67-.02.08-.03.19-.03.3v2.15h-1.32v-2.85h0Z"/>
      <path class="st0" d="M269.39,183.37c0,1.55-1.1,2.26-2.24,2.26-1.24,0-2.2-.82-2.2-2.19s.9-2.25,2.27-2.25,2.16.89,2.16,2.18h0ZM266.32,183.41c0,.72.31,1.28.87,1.28.52,0,.84-.52.84-1.28,0-.62-.24-1.27-.84-1.27-.63,0-.87.65-.87,1.28h0Z"/>
      <path class="st0" d="M274.34,179.37v4.9c0,.48.02.99.03,1.27h-1.18l-.06-.62h-.02c-.27.48-.78.72-1.33.72-1,0-1.81-.86-1.81-2.18,0-1.43.89-2.26,1.9-2.26.53,0,.93.19,1.12.48h.02v-2.3h1.32ZM273.02,183.09c0-.07,0-.16-.02-.24-.07-.36-.36-.65-.76-.65-.6,0-.91.54-.91,1.21,0,.72.35,1.17.9,1.17.38,0,.69-.26.76-.63.02-.09.03-.2.03-.3v-.56h0Z"/>
      <path class="st0" d="M279.4,184.17c0,.55.02,1.01.03,1.36h-1.15l-.06-.6h-.03c-.16.26-.56.69-1.32.69-.86,0-1.49-.54-1.49-1.84v-2.5h1.32v2.28c0,.62.2.99.66.99.36,0,.57-.25.66-.46.03-.08.05-.17.05-.28v-2.53h1.32v2.89h0Z"/>
      <path class="st0" d="M283.65,185.43c-.24.11-.68.2-1.18.2-1.37,0-2.25-.84-2.25-2.17,0-1.24.85-2.26,2.43-2.26.35,0,.73.07,1.01.17l-.2.98c-.16-.07-.39-.13-.74-.13-.7,0-1.15.49-1.14,1.19,0,.78.53,1.19,1.16,1.19.32,0,.56-.06.76-.14l.16.98h0Z"/>
      <path class="st0" d="M285.99,180.07v1.21h.95v.98h-.95v1.54c0,.51.13.75.52.75.17,0,.3-.02.39-.04v1c-.16.06-.48.11-.85.11-.43,0-.78-.15-.99-.37-.25-.25-.36-.66-.36-1.26v-1.74h-.56v-.98h.56v-.91l1.29-.3h0Z"/>
      <path class="st0" d="M287.7,184.38c.24.15.75.32,1.13.32s.57-.13.57-.35-.13-.33-.62-.49c-.89-.29-1.22-.77-1.21-1.27,0-.8.67-1.4,1.73-1.4.5,0,.94.12,1.2.25l-.23.91c-.19-.1-.56-.24-.92-.24-.32,0-.51.13-.51.34s.17.31.69.49c.81.27,1.15.69,1.15,1.31,0,.79-.62,1.38-1.84,1.38-.56,0-1.05-.13-1.38-.3l.24-.94h0Z"/>
      <path class="st0" d="M202.9,194.67c-.3.11-.91.29-1.62.29-.8,0-1.46-.2-1.97-.69-.46-.44-.73-1.14-.73-1.96,0-1.57,1.08-2.72,2.85-2.72.61,0,1.09.13,1.32.24l-.17.56c-.28-.13-.63-.23-1.16-.23-1.28,0-2.12.79-2.12,2.11s.8,2.13,2.03,2.13c.45,0,.75-.06.9-.14v-1.57h-1.07v-.54h1.74v2.53h0Z"/>
      <path class="st0" d="M203.93,192.31c0-.45-.01-.82-.03-1.18h.6l.03.74h.03c.18-.51.59-.83,1.05-.83.07,0,.13,0,.19.02v.65c-.07-.01-.14-.02-.23-.02-.49,0-.82.36-.92.88-.02.1-.03.21-.03.32v2.02h-.69v-2.6h0Z"/>
      <path class="st0" d="M208.54,194.91l-.06-.48h-.02c-.21.3-.62.56-1.15.56-.76,0-1.15-.54-1.15-1.08,0-.92.81-1.42,2.27-1.41v-.08c0-.31-.09-.88-.86-.87-.35,0-.72.1-.99.28l-.16-.46c.31-.2.77-.33,1.25-.33,1.15,0,1.44.79,1.44,1.54v1.41c0,.32.01.65.06.9h-.62ZM208.44,192.98c-.74-.02-1.6.12-1.6.85,0,.45.3.66.64.66.5,0,.81-.31.92-.63.02-.07.03-.15.03-.22v-.66h0Z"/>
      <path class="st0" d="M210.21,192.36c0-.48-.01-.87-.03-1.23h.62l.04.64h.02c.27-.46.73-.73,1.34-.73.92,0,1.61.77,1.61,1.92,0,1.36-.83,2.04-1.72,2.04-.5,0-.94-.22-1.16-.59h-.02v2.06h-.68v-4.1h0ZM210.89,193.37c0,.1,0,.19.03.28.12.48.54.81,1.03.81.73,0,1.15-.6,1.15-1.46,0-.76-.39-1.4-1.12-1.4-.47,0-.91.33-1.04.85-.02.09-.04.19-.04.28v.66h0Z"/>
      <path class="st0" d="M214.65,189.36h.69v2.36h.02c.11-.2.29-.36.49-.49.2-.12.44-.19.7-.19.51,0,1.32.31,1.32,1.61v2.25h-.69v-2.17c0-.61-.23-1.12-.87-1.12-.45,0-.79.31-.93.69-.03.1-.05.2-.05.33v2.28h-.69v-5.55h0Z"/>
      <path class="st0" d="M219.76,190.06c0,.23-.16.43-.44.43-.25,0-.42-.2-.42-.43s.17-.43.43-.43.42.19.43.43h0ZM218.99,194.91v-3.78h.69v3.78h-.69Z"/>
      <path class="st0" d="M223.51,194.77c-.18.09-.58.22-1.08.22-1.14,0-1.89-.78-1.89-1.93s.79-2.01,2.03-2.01c.4,0,.77.1.95.2l-.15.53c-.17-.09-.43-.18-.8-.18-.86,0-1.34.65-1.33,1.43,0,.88.56,1.41,1.31,1.41.39,0,.65-.1.84-.18l.12.52h0Z"/>
      <path class="st0" d="M225.99,189.72c.42-.07.91-.11,1.45-.11.98,0,1.68.23,2.14.66.47.43.75,1.04.75,1.88s-.27,1.56-.76,2.05c-.5.49-1.31.76-2.33.76-.49,0-.89-.02-1.24-.06v-5.18h0ZM226.68,194.37c.17.03.43.03.69.03,1.46,0,2.24-.81,2.24-2.23,0-1.25-.69-2.03-2.13-2.03-.35,0-.62.03-.8.07v4.16h0Z"/>
      <path class="st0" d="M231.59,193.14c.01.93.6,1.31,1.29,1.31.49,0,.79-.09,1.05-.2l.12.49c-.24.11-.66.24-1.26.24-1.16,0-1.86-.77-1.86-1.91s.67-2.04,1.78-2.04c1.23,0,1.55,1.08,1.55,1.78,0,.14,0,.25-.02.32h-2.65,0ZM233.61,192.65c0-.43-.18-1.11-.95-1.11-.7,0-1,.63-1.05,1.11h2,0Z"/>
      <path class="st0" d="M235.03,194.21c.21.13.57.27.91.27.5,0,.73-.25.73-.56s-.2-.5-.7-.69c-.68-.25-1.01-.62-1-1.07,0-.61.49-1.11,1.31-1.11.39,0,.72.1.92.23l-.17.5c-.14-.09-.42-.22-.78-.22-.4,0-.62.23-.62.52,0,.31.22.45.72.64.65.24.99.57.99,1.14,0,.67-.52,1.14-1.41,1.14-.41,0-.79-.11-1.06-.26l.16-.52h0,0Z"/>
      <path class="st0" d="M238.98,190.06c0,.23-.16.43-.44.43-.25,0-.42-.2-.42-.43s.17-.43.43-.43.42.19.43.43h0ZM238.22,194.91v-3.78h.69v3.78h-.69Z"/>
      <path class="st0" d="M243.31,191.13c-.02.27-.03.57-.03,1.03v2.2c0,.88-.18,1.4-.54,1.73s-.9.45-1.38.45-.95-.11-1.26-.31l.17-.53c.25.16.64.3,1.11.3.7,0,1.22-.37,1.22-1.32v-.42h-.02c-.21.36-.62.64-1.2.64-.94,0-1.61-.8-1.61-1.85,0-1.28.83-2,1.71-2,.66,0,1.01.34,1.18.65h.02l.03-.56h.61,0ZM242.59,192.62c0-.11,0-.22-.04-.31-.13-.4-.46-.73-.96-.73-.66,0-1.12.56-1.12,1.43,0,.74.38,1.36,1.12,1.36.43,0,.81-.27.95-.71.03-.11.05-.25.05-.36v-.68h0Z"/>
      <path class="st0" d="M244.36,192.15c0-.39-.01-.71-.03-1.02h.61l.04.62h.02c.19-.36.62-.71,1.25-.71.52,0,1.33.31,1.33,1.61v2.26h-.69v-2.18c0-.61-.23-1.12-.87-1.12-.45,0-.8.32-.92.7-.03.08-.05.2-.05.32v2.28h-.69v-2.76h0Z"/>
      <path class="st0" d="M249.08,193.14c.01.93.6,1.31,1.29,1.31.49,0,.79-.09,1.05-.2l.12.49c-.24.11-.66.24-1.26.24-1.16,0-1.86-.77-1.86-1.91s.67-2.04,1.78-2.04c1.23,0,1.55,1.08,1.55,1.78,0,.14,0,.25-.02.32h-2.65,0ZM251.1,192.65c0-.43-.18-1.11-.95-1.11-.7,0-1,.63-1.05,1.11h2,0Z"/>
      <path class="st0" d="M252.61,192.31c0-.45-.01-.82-.03-1.18h.6l.03.74h.03c.18-.51.59-.83,1.05-.83.07,0,.13,0,.19.02v.65c-.07-.01-.14-.02-.23-.02-.49,0-.83.36-.92.88-.02.1-.03.21-.03.32v2.02h-.69v-2.6h0Z"/>
      <path class="st0" d="M202.03,201.69c0,1.72-.65,2.68-1.77,2.68-.99,0-1.67-.93-1.68-2.61,0-1.71.74-2.64,1.77-2.64s1.68.95,1.68,2.57h0ZM199.27,201.76c0,1.32.41,2.07,1.03,2.07.7,0,1.04-.82,1.04-2.11s-.32-2.07-1.03-2.07c-.6,0-1.04.73-1.04,2.11h0Z"/>
      <path class="st0" d="M202.65,204.28v-.42l.54-.53c1.3-1.24,1.89-1.9,1.89-2.66,0-.52-.24-.99-1-.99-.46,0-.85.24-1.08.43l-.22-.48c.35-.3.85-.52,1.44-.52,1.09,0,1.55.75,1.55,1.48,0,.94-.68,1.7-1.75,2.73l-.4.38v.02h2.27v.57h-3.24,0Z"/>
      <path class="st0" d="M206.31,204.6l2.18-5.66h.53l-2.19,5.66h-.53,0Z"/>
      <path class="st0" d="M209.34,204.28v-.42l.54-.53c1.3-1.24,1.89-1.9,1.89-2.66,0-.52-.24-.99-1-.99-.46,0-.85.24-1.08.43l-.22-.48c.35-.3.85-.52,1.44-.52,1.09,0,1.55.75,1.55,1.48,0,.94-.68,1.7-1.75,2.73l-.4.38v.02h2.28v.57h-3.25,0Z"/>
      <path class="st0" d="M216.73,201.69c0,1.72-.65,2.68-1.77,2.68-.99,0-1.67-.93-1.68-2.61,0-1.71.74-2.64,1.77-2.64s1.68.95,1.68,2.57h0ZM213.97,201.76c0,1.32.41,2.07,1.03,2.07.7,0,1.04-.82,1.04-2.11s-.32-2.07-1.03-2.07c-.6,0-1.04.73-1.04,2.11h0Z"/>
      <path class="st0" d="M218.85,199.84h-.02l-.88.48-.13-.52,1.11-.59h.58v5.08h-.66v-4.44h0Z"/>
      <path class="st0" d="M224.66,199.2v.45l-2.21,4.63h-.71l2.2-4.5v-.02h-2.48v-.57h3.2Z"/>
      <path class="st0" d="M228.84,201.92v.5h-1.93v-.5h1.93Z"/>
      <path class="st0" d="M232.57,199.84h-.02l-.88.48-.13-.52,1.11-.59h.58v5.08h-.66v-4.44h0Z"/>
      <path class="st0" d="M236.58,199.84h-.02l-.88.48-.13-.52,1.11-.59h.58v5.08h-.66v-4.44h0Z"/>
      <path class="st0" d="M238.74,204.6l2.18-5.66h.53l-2.19,5.66h-.53Z"/>
      <path class="st0" d="M241.77,204.28v-.42l.54-.53c1.3-1.24,1.89-1.9,1.89-2.66,0-.52-.24-.99-1-.99-.46,0-.85.24-1.08.43l-.22-.48c.35-.3.85-.52,1.44-.52,1.09,0,1.55.75,1.55,1.48,0,.94-.68,1.7-1.75,2.73l-.4.38v.02h2.27v.57h-3.24,0Z"/>
      <path class="st0" d="M249.16,201.69c0,1.72-.65,2.68-1.77,2.68-.99,0-1.67-.93-1.68-2.61,0-1.71.74-2.64,1.77-2.64s1.68.95,1.68,2.57h0ZM246.4,201.76c0,1.32.41,2.07,1.03,2.07.7,0,1.04-.82,1.04-2.11s-.32-2.07-1.03-2.07c-.6,0-1.04.73-1.04,2.11h0Z"/>
      <path class="st0" d="M249.79,204.28v-.42l.54-.53c1.3-1.24,1.89-1.9,1.89-2.66,0-.52-.24-.99-1-.99-.46,0-.85.24-1.08.43l-.22-.48c.35-.3.85-.52,1.44-.52,1.09,0,1.55.75,1.55,1.48,0,.94-.68,1.7-1.75,2.73l-.4.38v.02h2.27v.57h-3.24,0Z"/>
      <path class="st0" d="M257.18,201.69c0,1.72-.65,2.68-1.77,2.68-.99,0-1.67-.93-1.68-2.61,0-1.71.74-2.64,1.77-2.64s1.68.95,1.68,2.57h0ZM254.42,201.76c0,1.32.41,2.07,1.03,2.07.7,0,1.04-.82,1.04-2.11s-.32-2.07-1.03-2.07c-.6,0-1.04.73-1.04,2.11h0Z"/>
    </g>
    <g>
      <path class="st0" d="M203.82,243.55c-.03-.71-.05-1.55-.05-2.41h-.02c-.19.75-.43,1.58-.65,2.27l-.72,2.28h-1.03l-.63-2.26c-.19-.69-.38-1.52-.53-2.29h-.02c-.03.79-.06,1.7-.1,2.43l-.11,2.22h-1.22l.37-5.85h1.76l.57,1.96c.19.67.36,1.41.49,2.09h.03c.16-.68.36-1.45.56-2.1l.62-1.95h1.73l.31,5.85h-1.28l-.09-2.24Z"/>
      <path class="st0" d="M210.38,243.62c0,1.55-1.1,2.26-2.24,2.26-1.24,0-2.2-.82-2.2-2.19s.9-2.25,2.27-2.25,2.16.89,2.16,2.18h0ZM207.31,243.66c0,.72.31,1.28.87,1.28.52,0,.84-.52.84-1.28,0-.62-.24-1.27-.84-1.27-.63,0-.87.65-.87,1.28h0Z"/>
      <path class="st0" d="M212.11,241.54l.57,1.97c.1.36.18.69.24,1.03h.03c.07-.35.14-.67.23-1.03l.55-1.97h1.39l-1.58,4.25h-1.32l-1.54-4.25h1.44,0Z"/>
      <path class="st0" d="M216.61,244.08c.04.55.58.81,1.2.81.45,0,.81-.06,1.17-.18l.18.89c-.44.18-.97.27-1.54.27-1.44,0-2.27-.84-2.27-2.16,0-1.08.67-2.27,2.14-2.27,1.38,0,1.9,1.07,1.9,2.12,0,.23-.02.43-.05.53h-2.73ZM218.16,243.18c0-.32-.14-.86-.74-.86-.56,0-.79.51-.82.86h1.56Z"/>
      <path class="st0" d="M223.4,240.32v1.21h.95v.98h-.95v1.54c0,.51.13.75.52.75.17,0,.3-.02.39-.04v1c-.16.06-.48.11-.85.11-.43,0-.78-.15-.99-.37-.25-.25-.36-.66-.36-1.26v-1.74h-.56v-.98h.56v-.91l1.29-.3h0Z"/>
      <path class="st0" d="M229.26,243.62c0,1.55-1.1,2.26-2.24,2.26-1.24,0-2.2-.82-2.2-2.19s.9-2.25,2.27-2.25,2.16.89,2.16,2.18h0ZM226.19,243.66c0,.72.31,1.28.87,1.28.52,0,.84-.52.84-1.28,0-.62-.24-1.27-.84-1.27-.63,0-.87.65-.87,1.28h0Z"/>
      <path class="st0" d="M233.19,239.94v3.36c0,1.01.39,1.53,1.06,1.53s1.08-.49,1.08-1.53v-3.36h1.32v3.29c0,1.81-.91,2.66-2.44,2.66s-2.34-.82-2.34-2.68v-3.27h1.32Z"/>
      <path class="st0" d="M237.84,244.42c.35.19.9.37,1.47.37.61,0,.93-.25.93-.64,0-.36-.28-.57-.98-.82-.98-.35-1.61-.88-1.61-1.73,0-1,.84-1.76,2.21-1.76.67,0,1.15.13,1.49.3l-.29,1.06c-.23-.11-.65-.28-1.22-.28s-.85.27-.85.56c0,.37.33.53,1.08.82,1.04.39,1.51.92,1.51,1.75,0,.98-.75,1.81-2.36,1.81-.66,0-1.33-.18-1.65-.36l.27-1.09h0Z"/>
      <path class="st0" d="M200.14,250.72h-.02l-.88.48-.13-.52,1.11-.59h.58v5.08h-.66v-4.44h0Z"/>
      <path class="st0" d="M206.04,252.57c0,1.72-.65,2.68-1.77,2.68-.99,0-1.67-.93-1.68-2.61,0-1.71.74-2.64,1.77-2.64s1.68.95,1.68,2.57h0ZM203.28,252.64c0,1.32.41,2.07,1.03,2.07.7,0,1.04-.82,1.04-2.11s-.32-2.07-1.03-2.07c-.6,0-1.04.73-1.04,2.11h0Z"/>
      <path class="st0" d="M206.31,255.47l2.18-5.66h.53l-2.19,5.66h-.53,0Z"/>
      <path class="st0" d="M209.34,255.16v-.42l.54-.53c1.3-1.24,1.89-1.9,1.89-2.66,0-.52-.24-.99-1-.99-.46,0-.85.24-1.08.43l-.22-.48c.35-.3.85-.52,1.44-.52,1.09,0,1.55.75,1.55,1.47,0,.94-.68,1.7-1.75,2.73l-.4.38v.02h2.28v.57h-3.25,0Z"/>
      <path class="st0" d="M216.73,252.57c0,1.72-.65,2.68-1.77,2.68-.99,0-1.67-.93-1.68-2.61,0-1.71.74-2.64,1.77-2.64s1.68.95,1.68,2.57h0ZM213.97,252.64c0,1.32.41,2.07,1.03,2.07.7,0,1.04-.82,1.04-2.11s-.32-2.07-1.03-2.07c-.6,0-1.04.73-1.04,2.11h0Z"/>
      <path class="st0" d="M218.85,250.72h-.02l-.88.48-.13-.52,1.11-.59h.58v5.08h-.66v-4.44h0Z"/>
      <path class="st0" d="M223.49,255.16v-1.38h-2.36v-.45l2.26-3.25h.74v3.16h.71v.53h-.71v1.38h-.65,0ZM223.49,253.24v-1.7c0-.26,0-.53.03-.79h-.03c-.16.3-.28.52-.42.75l-1.24,1.73v.02h1.66,0Z"/>
    </g>
    <g>
      <path class="st4" d="M57.79,36.76c-.24.12-.79.25-1.5.25-2.03,0-3.07-1.27-3.07-2.93,0-2,1.43-3.1,3.2-3.1.69,0,1.21.13,1.44.26l-.27,1.05c-.26-.12-.64-.22-1.11-.22-1.05,0-1.86.64-1.86,1.94,0,1.17.69,1.91,1.87,1.91.4,0,.84-.08,1.11-.19l.2,1.04h0Z"/>
      <path class="st4" d="M58.59,30.76h1.32v2.43h.02c.14-.19.31-.33.52-.44.2-.11.44-.17.69-.17.84,0,1.49.59,1.49,1.87v2.48h-1.32v-2.33c0-.56-.19-.94-.68-.94-.35,0-.57.23-.66.47-.03.08-.04.19-.04.29v2.52h-1.32v-6.16h0Z"/>
      <path class="st4" d="M66.1,36.92l-.08-.42h-.03c-.28.34-.71.52-1.22.52-.86,0-1.38-.62-1.38-1.3,0-1.11.99-1.63,2.5-1.63v-.05c0-.23-.12-.55-.78-.55-.43,0-.89.15-1.17.32l-.24-.85c.3-.17.88-.38,1.65-.38,1.41,0,1.86.84,1.86,1.84v1.48c0,.4.02.79.07,1.03h-1.19ZM65.94,34.91c-.69,0-1.23.16-1.23.67,0,.34.23.51.53.51.33,0,.6-.22.69-.49.02-.07.03-.15.03-.23v-.46h0Z"/>
      <path class="st4" d="M68.26,34.08c0-.62-.01-1.03-.03-1.4h1.14l.05.79h.03c.22-.62.73-.88,1.15-.88.12,0,.18,0,.28.03v1.24c-.1-.02-.21-.03-.36-.03-.49,0-.82.26-.91.67-.02.08-.03.19-.03.3v2.15h-1.32v-2.85h0Z"/>
      <path class="st4" d="M71.53,30.76h1.32v6.16h-1.32v-6.16Z"/>
      <path class="st4" d="M74.94,35.22c.04.55.58.81,1.2.81.45,0,.81-.06,1.17-.18l.18.89c-.44.18-.97.27-1.54.27-1.44,0-2.27-.84-2.27-2.16,0-1.08.67-2.27,2.14-2.27,1.38,0,1.9,1.07,1.9,2.12,0,.23-.03.43-.05.53h-2.73,0ZM76.49,34.32c0-.32-.14-.86-.74-.86-.56,0-.79.51-.82.86h1.56Z"/>
      <path class="st4" d="M78.5,35.77c.24.15.75.32,1.13.32s.57-.13.57-.35-.13-.33-.62-.49c-.89-.29-1.22-.77-1.21-1.27,0-.8.67-1.4,1.73-1.4.5,0,.94.12,1.2.25l-.23.91c-.19-.1-.56-.24-.92-.24-.32,0-.51.13-.51.34s.17.31.69.49c.81.27,1.15.69,1.15,1.31,0,.79-.62,1.38-1.84,1.38-.56,0-1.05-.13-1.38-.3l.24-.94Z"/>
      <path class="st4" d="M84.07,31.15c.43-.07,1.05-.13,1.76-.13.87,0,1.48.13,1.89.46.35.28.54.69.54,1.23,0,.74-.53,1.26-1.03,1.44v.03c.41.16.63.55.78,1.09.18.66.36,1.42.47,1.65h-1.35c-.09-.17-.23-.64-.4-1.36-.16-.73-.41-.93-.95-.93h-.39v2.3h-1.31v-5.77h0ZM85.38,33.67h.52c.66,0,1.05-.33,1.05-.84,0-.53-.37-.81-.97-.81-.32,0-.5.02-.59.04v1.61Z"/>
      <path class="st4" d="M90.62,31.49c0,.37-.27.66-.71.66s-.69-.29-.69-.66c0-.38.27-.66.7-.66s.69.28.7.66ZM89.26,36.92v-4.25h1.32v4.25h-1.32Z"/>
      <path class="st4" d="M92.62,32.67l.57,1.97c.1.36.18.69.24,1.03h.03c.07-.35.14-.67.23-1.03l.55-1.97h1.39l-1.58,4.25h-1.32l-1.54-4.25h1.44Z"/>
      <path class="st4" d="M97.13,35.22c.04.55.58.81,1.2.81.45,0,.81-.06,1.17-.18l.18.89c-.44.18-.97.27-1.54.27-1.44,0-2.27-.84-2.27-2.16,0-1.08.67-2.27,2.14-2.27,1.38,0,1.9,1.07,1.9,2.12,0,.23-.02.43-.05.53h-2.73ZM98.68,34.32c0-.32-.14-.86-.74-.86-.56,0-.79.51-.82.86h1.56Z"/>
      <path class="st4" d="M100.69,34.08c0-.62-.01-1.03-.03-1.4h1.14l.05.79h.03c.22-.62.73-.88,1.15-.88.12,0,.18,0,.28.03v1.24c-.1-.02-.21-.03-.36-.03-.49,0-.82.26-.91.67-.02.08-.03.19-.03.3v2.15h-1.32v-2.85h0Z"/>
      <path class="st4" d="M110.74,34.68c-.03-.71-.05-1.55-.05-2.41h-.02c-.19.75-.43,1.58-.65,2.27l-.72,2.28h-1.03l-.63-2.26c-.19-.69-.38-1.52-.53-2.29h-.02c-.03.79-.06,1.7-.1,2.43l-.11,2.22h-1.22l.37-5.85h1.76l.57,1.96c.19.67.36,1.41.49,2.09h.03c.16-.68.36-1.45.56-2.1l.62-1.95h1.73l.31,5.85h-1.28l-.09-2.24h0Z"/>
      <path class="st4" d="M117.09,35.56c0,.55.02,1.01.03,1.36h-1.15l-.06-.6h-.03c-.16.26-.56.69-1.32.69-.86,0-1.49-.54-1.49-1.84v-2.5h1.32v2.28c0,.62.2.99.66.99.36,0,.57-.25.66-.46.03-.08.05-.17.05-.28v-2.53h1.32v2.89h0Z"/>
      <path class="st4" d="M118.15,35.77c.24.15.75.32,1.13.32s.57-.13.57-.35-.13-.33-.62-.49c-.89-.29-1.22-.77-1.21-1.27,0-.8.67-1.4,1.73-1.4.5,0,.94.12,1.2.25l-.23.91c-.19-.1-.56-.24-.92-.24-.32,0-.51.13-.51.34s.17.31.69.49c.81.27,1.15.69,1.15,1.31,0,.79-.62,1.38-1.84,1.38-.56,0-1.05-.13-1.38-.3l.24-.94h0Z"/>
      <path class="st4" d="M122.94,35.22c.04.55.58.81,1.2.81.45,0,.81-.06,1.17-.18l.18.89c-.44.18-.97.27-1.54.27-1.44,0-2.27-.84-2.27-2.16,0-1.08.67-2.27,2.14-2.27,1.38,0,1.9,1.07,1.9,2.12,0,.23-.03.43-.05.53h-2.73,0ZM124.49,34.32c0-.32-.14-.86-.74-.86-.56,0-.79.51-.82.86h1.56Z"/>
      <path class="st4" d="M130.5,35.56c0,.55.02,1.01.03,1.36h-1.15l-.06-.6h-.03c-.16.26-.56.69-1.32.69-.86,0-1.49-.54-1.49-1.84v-2.5h1.32v2.28c0,.62.2.99.66.99.36,0,.57-.25.66-.46.03-.08.05-.17.05-.28v-2.53h1.32v2.89h0Z"/>
      <path class="st4" d="M131.56,34.03c0-.53-.02-.98-.03-1.36h1.12l.06.58h.03c.18-.27.56-.67,1.28-.67.55,0,.98.28,1.16.73h.02c.16-.23.35-.4.55-.52.23-.14.49-.21.81-.21.81,0,1.43.57,1.43,1.84v2.5h-1.28v-2.31c0-.62-.2-.97-.62-.97-.31,0-.52.21-.61.46-.03.1-.05.23-.05.33v2.49h-1.28v-2.38c0-.53-.19-.9-.61-.9-.34,0-.54.26-.62.47-.04.1-.05.23-.05.33v2.47h-1.28v-2.89h0Z"/>
      <path class="st4" d="M49.03,45.17c0,1.55-1.1,2.26-2.24,2.26-1.24,0-2.19-.82-2.19-2.19s.9-2.25,2.27-2.25,2.16.89,2.16,2.18ZM45.96,45.22c0,.72.31,1.28.87,1.28.52,0,.84-.52.84-1.28,0-.62-.24-1.27-.84-1.27-.63,0-.87.65-.87,1.28h0Z"/>
      <path class="st4" d="M50,47.34v-3.28h-.56v-.98h.56v-.16c0-.51.16-1.07.53-1.42.33-.31.79-.43,1.18-.43.29,0,.52.04.7.09l-.05,1.01c-.12-.03-.25-.06-.43-.06-.43,0-.62.34-.62.75v.22h.85v.98h-.84v3.28s-1.32,0-1.32,0Z"/>
      <path class="st4" d="M55.93,41.49v5.85h-1.32v-5.85s1.32,0,1.32,0Z"/>
      <path class="st4" d="M57.06,44.45c0-.53-.02-.98-.03-1.36h1.15l.06.59h.03c.17-.27.6-.69,1.31-.69.87,0,1.52.58,1.52,1.83v2.52h-1.32v-2.36c0-.55-.2-.92-.67-.92-.36,0-.58.26-.67.5-.03.08-.05.21-.05.33v2.45h-1.32v-2.89h0Z"/>
      <path class="st4" d="M66.26,41.18v4.9c0,.48.02.99.03,1.27h-1.18l-.06-.62h-.02c-.27.48-.78.72-1.33.72-1,0-1.81-.86-1.81-2.18,0-1.43.89-2.26,1.9-2.26.53,0,.93.19,1.12.48h.02v-2.3h1.32ZM64.94,44.89c0-.07,0-.16-.02-.24-.07-.36-.36-.65-.76-.65-.6,0-.91.54-.91,1.21,0,.72.35,1.17.9,1.17.38,0,.69-.26.76-.63.02-.09.03-.19.03-.3v-.56Z"/>
      <path class="st4" d="M71.32,45.98c0,.55.02,1.01.03,1.36h-1.15l-.06-.6h-.03c-.16.26-.56.69-1.32.69-.86,0-1.49-.54-1.49-1.84v-2.5h1.32v2.28c0,.62.2.99.66.99.36,0,.57-.25.66-.46.03-.08.05-.17.05-.28v-2.53h1.32v2.89h0Z"/>
      <path class="st4" d="M72.37,46.19c.24.15.75.32,1.13.32s.57-.13.57-.35-.13-.33-.62-.49c-.89-.29-1.22-.77-1.21-1.27,0-.8.67-1.4,1.73-1.4.5,0,.94.12,1.2.25l-.23.91c-.19-.1-.56-.24-.92-.24-.32,0-.51.13-.51.34s.17.31.69.49c.81.27,1.15.69,1.15,1.31,0,.79-.62,1.38-1.84,1.38-.56,0-1.05-.13-1.38-.3l.24-.94Z"/>
      <path class="st4" d="M77.62,41.88v1.21h.95v.98h-.95v1.54c0,.51.13.75.52.75.17,0,.3-.02.39-.04v1c-.16.06-.48.11-.85.11-.43,0-.78-.15-.99-.37-.25-.25-.36-.66-.36-1.26v-1.74h-.56v-.98h.56v-.91l1.29-.3h0Z"/>
      <path class="st4" d="M79.33,44.49c0-.62-.01-1.03-.03-1.4h1.14l.05.79h.03c.22-.62.73-.88,1.15-.88.12,0,.18,0,.28.03v1.24c-.1-.02-.21-.03-.36-.03-.49,0-.82.26-.91.67-.02.08-.03.19-.03.3v2.15h-1.32v-2.85h0Z"/>
      <path class="st4" d="M83.77,43.09l.63,2.09c.07.25.16.57.21.79h.03c.06-.23.13-.54.19-.79l.53-2.09h1.41l-.99,2.79c-.61,1.69-1.02,2.36-1.5,2.79-.46.4-.94.55-1.27.58l-.28-1.12c.17-.03.37-.11.57-.23.2-.11.42-.32.54-.53.04-.07.07-.13.07-.19,0-.05-.01-.11-.06-.22l-1.56-3.89h1.47Z"/>
      <path class="st4" d="M92.85,47.34c-.13-.13-.25-.26-.39-.42-.38.3-.92.51-1.61.51-1.42,0-2.04-.84-2.04-1.66,0-.77.44-1.33,1.12-1.68v-.03c-.25-.28-.45-.71-.45-1.13,0-.74.59-1.55,1.76-1.55.9,0,1.58.53,1.58,1.37,0,.59-.35,1.1-1.15,1.51v.03c.33.37.69.8.97,1.09.24-.37.42-.9.5-1.43h1.18c-.16.89-.45,1.64-.97,2.22.33.38.67.76,1.03,1.15h-1.53ZM91.84,46.18c-.36-.36-.84-.89-1.31-1.43-.24.17-.46.43-.46.81,0,.5.37.92.98.92.34,0,.63-.13.8-.3h0ZM90.67,42.81c0,.3.13.56.4.84.43-.29.64-.52.64-.86,0-.28-.16-.58-.51-.58s-.53.29-.53.59Z"/>
      <path class="st4" d="M98.08,41.49v5.85h-1.32v-5.85s1.32,0,1.32,0Z"/>
      <path class="st4" d="M99.21,44.45c0-.53-.02-.98-.03-1.36h1.15l.06.59h.03c.17-.27.6-.69,1.31-.69.87,0,1.52.58,1.52,1.83v2.52h-1.32v-2.36c0-.55-.2-.92-.67-.92-.36,0-.58.26-.67.5-.03.08-.05.21-.05.33v2.45h-1.32v-2.89h0Z"/>
      <path class="st4" d="M104.3,44.45c0-.53-.02-.98-.03-1.36h1.15l.06.59h.03c.17-.27.6-.69,1.31-.69.87,0,1.52.58,1.52,1.83v2.52h-1.32v-2.36c0-.55-.2-.92-.67-.92-.36,0-.58.26-.67.5-.03.08-.05.21-.05.33v2.45h-1.32v-2.89h0Z"/>
      <path class="st4" d="M113.58,45.17c0,1.55-1.1,2.26-2.24,2.26-1.24,0-2.19-.82-2.19-2.19s.9-2.25,2.27-2.25,2.16.89,2.16,2.18ZM110.51,45.22c0,.72.31,1.28.87,1.28.52,0,.84-.52.84-1.28,0-.62-.24-1.27-.84-1.27-.63,0-.87.65-.87,1.28h0Z"/>
      <path class="st4" d="M115.3,43.09l.57,1.97c.1.36.18.69.24,1.03h.03c.07-.35.14-.67.23-1.03l.55-1.97h1.39l-1.58,4.25h-1.32l-1.54-4.25h1.44Z"/>
      <path class="st4" d="M121.27,47.34l-.08-.42h-.03c-.28.34-.71.52-1.22.52-.86,0-1.38-.62-1.38-1.3,0-1.11.99-1.63,2.5-1.63v-.05c0-.23-.12-.55-.78-.55-.43,0-.89.15-1.17.32l-.24-.85c.3-.17.88-.38,1.65-.38,1.41,0,1.86.84,1.86,1.84v1.48c0,.4.02.79.07,1.03h-1.19ZM121.11,45.33c-.69,0-1.23.16-1.23.67,0,.34.23.51.53.51.33,0,.6-.22.69-.49.02-.07.03-.15.03-.23v-.46h0Z"/>
      <path class="st4" d="M124.84,41.88v1.21h.95v.98h-.95v1.54c0,.51.13.75.52.75.17,0,.3-.02.39-.04v1c-.16.06-.48.11-.85.11-.43,0-.78-.15-.99-.37-.25-.25-.36-.66-.36-1.26v-1.74h-.56v-.98h.56v-.91l1.29-.3h0Z"/>
      <path class="st4" d="M127.92,41.91c0,.37-.27.66-.71.66s-.69-.29-.69-.66c0-.38.27-.66.7-.66s.69.28.7.66h0ZM126.55,47.34v-4.25h1.32v4.25h-1.32Z"/>
      <path class="st4" d="M133.12,45.17c0,1.55-1.1,2.26-2.24,2.26-1.24,0-2.19-.82-2.19-2.19s.9-2.25,2.27-2.25,2.16.89,2.16,2.18h0ZM130.05,45.22c0,.72.31,1.28.87,1.28.52,0,.84-.52.84-1.28,0-.62-.24-1.27-.84-1.27-.63,0-.87.65-.87,1.28h0Z"/>
      <path class="st4" d="M133.94,44.45c0-.53-.02-.98-.03-1.36h1.15l.06.59h.03c.17-.27.6-.69,1.31-.69.87,0,1.52.58,1.52,1.83v2.52h-1.32v-2.36c0-.55-.2-.92-.67-.92-.36,0-.58.26-.67.5-.03.08-.05.21-.05.33v2.45h-1.32v-2.89h0Z"/>
      <path class="st4" d="M36.25,56.71l-1.72-5.27h.74l.82,2.6c.23.71.42,1.35.56,1.97h.02c.15-.61.36-1.27.6-1.96l.89-2.6h.73l-1.88,5.27h-.75Z"/>
      <path class="st4" d="M42.59,54.78c0,1.4-.97,2.01-1.88,2.01-1.02,0-1.82-.75-1.82-1.95,0-1.26.83-2,1.87-2s1.82.79,1.82,1.94h0ZM39.59,54.83c0,.83.47,1.45,1.15,1.45s1.15-.62,1.15-1.48c0-.64-.32-1.45-1.14-1.45s-1.16.75-1.16,1.47h0Z"/>
      <path class="st4" d="M43.46,51.17h.69v5.55h-.69v-5.55Z"/>
      <path class="st4" d="M48.46,55.68c0,.39.01.73.03,1.03h-.61l-.03-.62h-.02c-.17.3-.57.7-1.25.7-.59,0-1.3-.33-1.3-1.66v-2.21h.69v2.09c0,.72.23,1.21.85,1.21.46,0,.78-.32.91-.63.03-.1.06-.22.06-.35v-2.31h.69v2.74h0Z"/>
      <path class="st4" d="M49.61,53.95c0-.39-.01-.71-.03-1.02h.61l.04.62h.02c.19-.36.62-.71,1.25-.71.52,0,1.33.31,1.33,1.61v2.25h-.69v-2.18c0-.61-.23-1.12-.87-1.12-.45,0-.8.32-.92.71-.03.08-.05.2-.05.32v2.28h-.69v-2.76h0Z"/>
      <path class="st4" d="M54.74,51.85v1.09h.99v.52h-.99v2.04c0,.47.13.74.52.74.18,0,.31-.02.4-.05l.03.52c-.13.05-.35.1-.61.1-.32,0-.58-.1-.74-.29-.19-.21-.26-.54-.26-.99v-2.06h-.59v-.52h.59v-.91l.67-.18h0Z"/>
      <path class="st4" d="M56.83,54.95c.01.93.6,1.31,1.29,1.31.49,0,.79-.09,1.05-.2l.12.49c-.24.11-.66.24-1.26.24-1.16,0-1.86-.77-1.86-1.91s.67-2.04,1.78-2.04c1.23,0,1.55,1.08,1.55,1.78,0,.14,0,.25-.02.32h-2.65,0ZM58.85,54.45c0-.43-.18-1.11-.95-1.11-.7,0-1,.63-1.05,1.11h2,0Z"/>
      <path class="st4" d="M60.75,54.95c.01.93.6,1.31,1.29,1.31.49,0,.79-.09,1.05-.2l.12.49c-.24.11-.66.24-1.26.24-1.16,0-1.86-.77-1.86-1.91s.67-2.04,1.78-2.04c1.23,0,1.55,1.08,1.55,1.78,0,.14,0,.25-.02.32h-2.65ZM62.76,54.45c0-.43-.18-1.11-.95-1.11-.7,0-1,.63-1.05,1.11h2,0Z"/>
      <path class="st4" d="M64.27,54.11c0-.45-.01-.82-.03-1.18h.6l.03.74h.03c.18-.51.59-.83,1.05-.83.07,0,.13,0,.19.02v.65c-.07-.01-.14-.02-.23-.02-.49,0-.82.36-.92.88-.02.1-.03.21-.03.32v2.02h-.69v-2.6h0Z"/>
      <path class="st4" d="M72.95,54.4c-.04-.73-.09-1.62-.08-2.27h-.02c-.18.61-.4,1.28-.66,2l-.93,2.56h-.51l-.86-2.51c-.25-.74-.46-1.42-.6-2.04h-.02c-.02.66-.05,1.53-.1,2.32l-.14,2.26h-.65l.36-5.27h.87l.9,2.55c.22.65.39,1.22.53,1.77h.02c.14-.53.32-1.12.56-1.77l.94-2.55h.87l.33,5.27h-.67l-.13-2.31h0Z"/>
      <path class="st4" d="M76.91,56.71l-.06-.48h-.02c-.21.3-.62.56-1.15.56-.76,0-1.15-.54-1.15-1.08,0-.92.81-1.42,2.27-1.41v-.08c0-.31-.09-.88-.86-.87-.35,0-.72.1-.99.28l-.16-.46c.31-.2.77-.33,1.25-.33,1.15,0,1.44.79,1.44,1.54v1.41c0,.32.01.65.06.9h-.62ZM76.8,54.78c-.74-.02-1.6.12-1.6.85,0,.45.3.66.64.66.5,0,.81-.31.92-.63.02-.07.03-.15.03-.22v-.66h0Z"/>
      <path class="st4" d="M78.58,54.11c0-.45-.01-.82-.03-1.18h.6l.03.74h.03c.18-.51.59-.83,1.05-.83.07,0,.13,0,.19.02v.65c-.07-.01-.14-.02-.23-.02-.49,0-.82.36-.92.88-.02.1-.03.21-.03.32v2.02h-.69v-2.6h0Z"/>
      <path class="st4" d="M81.85,54.66h.02c.09-.13.22-.3.33-.43l1.12-1.3h.82l-1.46,1.55,1.66,2.23h-.84l-1.3-1.82-.35.39v1.42h-.68v-5.55h.68v3.5h0Z"/>
      <path class="st4" d="M85.22,54.95c.01.93.6,1.31,1.29,1.31.49,0,.79-.09,1.05-.2l.12.49c-.24.11-.66.24-1.26.24-1.16,0-1.86-.77-1.86-1.91s.67-2.04,1.78-2.04c1.23,0,1.55,1.08,1.55,1.78,0,.14,0,.25-.02.32h-2.65ZM87.23,54.45c0-.43-.18-1.11-.95-1.11-.7,0-1,.63-1.05,1.11h2,0Z"/>
      <path class="st4" d="M89.57,51.85v1.09h.99v.52h-.99v2.04c0,.47.13.74.52.74.18,0,.31-.02.4-.05l.03.52c-.13.05-.35.1-.61.1-.32,0-.58-.1-.74-.29-.19-.21-.26-.54-.26-.99v-2.06h-.59v-.52h.59v-.91l.67-.18h0Z"/>
      <path class="st4" d="M92.1,51.86c0,.23-.16.43-.44.43-.25,0-.42-.2-.42-.43s.17-.43.43-.43.42.19.43.43h0ZM91.34,56.71v-3.78h.69v3.78h-.69Z"/>
      <path class="st4" d="M93.16,53.95c0-.39-.01-.71-.03-1.02h.61l.04.62h.02c.19-.36.62-.71,1.25-.71.52,0,1.33.31,1.33,1.61v2.25h-.69v-2.18c0-.61-.23-1.12-.87-1.12-.45,0-.8.32-.92.71-.03.08-.05.2-.05.32v2.28h-.69v-2.76h0Z"/>
      <path class="st4" d="M100.76,52.93c-.02.27-.03.57-.03,1.03v2.2c0,.88-.18,1.4-.54,1.73-.37.34-.9.45-1.38.45s-.95-.11-1.26-.31l.17-.53c.25.16.64.3,1.11.3.7,0,1.22-.37,1.22-1.32v-.42h-.02c-.21.36-.62.64-1.2.64-.94,0-1.61-.8-1.61-1.85,0-1.28.83-2,1.71-2,.66,0,1.01.34,1.18.65h.02l.03-.56h.61,0ZM100.04,54.42c0-.11,0-.22-.04-.31-.13-.4-.46-.73-.96-.73-.66,0-1.12.56-1.12,1.43,0,.74.38,1.36,1.12,1.36.43,0,.81-.27.95-.71.03-.11.05-.25.05-.36v-.68Z"/>
      <path class="st4" d="M107.22,56.54c-.25.12-.75.25-1.39.25-1.48,0-2.6-.94-2.6-2.67s1.12-2.76,2.75-2.76c.65,0,1.07.14,1.25.23l-.17.56c-.26-.12-.62-.22-1.06-.22-1.24,0-2.05.79-2.05,2.17,0,1.29.74,2.11,2.02,2.11.42,0,.84-.08,1.12-.22l.14.54h0Z"/>
      <path class="st4" d="M111.39,54.78c0,1.4-.97,2.01-1.88,2.01-1.02,0-1.82-.75-1.82-1.95,0-1.26.83-2,1.87-2s1.82.79,1.82,1.94h0ZM108.39,54.83c0,.83.47,1.45,1.15,1.45s1.15-.62,1.15-1.48c0-.64-.32-1.45-1.14-1.45s-1.16.75-1.16,1.47h0Z"/>
      <path class="st4" d="M112.25,53.95c0-.39-.01-.71-.03-1.02h.61l.04.62h.02c.19-.36.62-.71,1.25-.71.52,0,1.33.31,1.33,1.61v2.25h-.69v-2.18c0-.61-.23-1.12-.87-1.12-.45,0-.8.32-.92.71-.03.08-.05.2-.05.32v2.28h-.69v-2.76h0Z"/>
      <path class="st4" d="M116.49,56.01c.21.13.57.27.91.27.5,0,.73-.25.73-.56s-.2-.5-.7-.69c-.68-.25-1.01-.62-1-1.07,0-.61.49-1.11,1.31-1.11.39,0,.72.1.92.23l-.17.5c-.14-.09-.42-.22-.78-.22-.4,0-.62.23-.62.52,0,.31.22.45.72.64.65.24.99.57.99,1.14,0,.67-.52,1.14-1.41,1.14-.41,0-.79-.11-1.06-.26l.16-.52h0Z"/>
      <path class="st4" d="M122.84,55.68c0,.39.01.73.03,1.03h-.61l-.03-.62h-.02c-.17.3-.57.7-1.25.7-.59,0-1.3-.33-1.3-1.66v-2.21h.69v2.09c0,.72.23,1.21.85,1.21.46,0,.78-.32.91-.63.03-.1.06-.22.06-.35v-2.31h.69v2.74h0Z"/>
      <path class="st4" d="M123.98,51.17h.69v5.55h-.69v-5.55Z"/>
      <path class="st4" d="M126.65,51.85v1.09h.99v.52h-.99v2.04c0,.47.13.74.52.74.18,0,.31-.02.4-.05l.03.52c-.13.05-.35.1-.61.1-.32,0-.58-.1-.74-.29-.19-.21-.26-.54-.26-.99v-2.06h-.59v-.52h.59v-.91l.67-.18h0Z"/>
      <path class="st4" d="M130.51,56.71l-.06-.48h-.02c-.21.3-.62.56-1.15.56-.76,0-1.15-.54-1.15-1.08,0-.92.81-1.42,2.27-1.41v-.08c0-.31-.09-.88-.86-.87-.35,0-.72.1-.99.28l-.16-.46c.31-.2.77-.33,1.25-.33,1.15,0,1.44.79,1.44,1.54v1.41c0,.32.01.65.06.9h-.62ZM130.4,54.78c-.74-.02-1.6.12-1.6.85,0,.45.3.66.64.66.5,0,.81-.31.92-.63.02-.07.03-.15.03-.22v-.66h0Z"/>
      <path class="st4" d="M132.18,53.95c0-.39-.01-.71-.03-1.02h.61l.04.62h.02c.19-.36.62-.71,1.25-.71.52,0,1.33.31,1.33,1.61v2.25h-.69v-2.18c0-.61-.23-1.12-.87-1.12-.45,0-.8.32-.92.71-.03.08-.05.2-.05.32v2.28h-.69v-2.76h0Z"/>
      <path class="st4" d="M137.31,51.85v1.09h.99v.52h-.99v2.04c0,.47.13.74.52.74.18,0,.31-.02.4-.05l.03.52c-.13.05-.35.1-.61.1-.32,0-.58-.1-.74-.29-.19-.21-.26-.54-.26-.99v-2.06h-.59v-.52h.59v-.91l.67-.18h0Z"/>
      <path class="st4" d="M83.07,63.49c0,1.72-.65,2.68-1.77,2.68-.99,0-1.67-.93-1.68-2.61,0-1.71.74-2.64,1.77-2.64s1.68.95,1.68,2.57h0ZM80.31,63.57c0,1.32.41,2.07,1.03,2.07.7,0,1.04-.82,1.04-2.11s-.32-2.07-1.03-2.07c-.6,0-1.04.73-1.04,2.11h0Z"/>
      <path class="st4" d="M84.1,65.6c.15.01.32,0,.55-.03.39-.05.77-.21,1.07-.49.33-.31.57-.76.67-1.35h-.02c-.29.35-.69.55-1.2.55-.91,0-1.5-.69-1.5-1.56,0-.95.7-1.8,1.74-1.8s1.68.84,1.68,2.14c0,1.12-.38,1.89-.88,2.38-.39.38-.93.62-1.48.68-.24.04-.47.05-.63.04v-.56h0ZM84.35,62.68c0,.63.38,1.08.98,1.08.46,0,.82-.23,1-.53.03-.07.06-.14.06-.25,0-.87-.32-1.53-1.04-1.53-.59,0-1,.52-1,1.24Z"/>
      <path class="st4" d="M87.35,66.4l2.18-5.66h.53l-2.19,5.66h-.53Z"/>
      <path class="st4" d="M90.39,66.09v-.42l.54-.53c1.3-1.24,1.89-1.9,1.89-2.66,0-.52-.24-.99-1-.99-.46,0-.85.24-1.08.43l-.22-.48c.35-.3.85-.52,1.44-.52,1.09,0,1.55.75,1.55,1.48,0,.94-.68,1.7-1.75,2.73l-.4.38v.02h2.27v.57h-3.24,0Z"/>
      <path class="st4" d="M97.77,63.49c0,1.72-.65,2.68-1.77,2.68-.99,0-1.67-.93-1.68-2.61,0-1.71.74-2.64,1.77-2.64s1.68.95,1.68,2.57h0ZM95.02,63.57c0,1.32.41,2.07,1.03,2.07.7,0,1.04-.82,1.04-2.11s-.32-2.07-1.03-2.07c-.6,0-1.04.73-1.04,2.11h0Z"/>
      <path class="st4" d="M98.4,66.09v-.42l.54-.53c1.3-1.24,1.89-1.9,1.89-2.66,0-.52-.24-.99-1-.99-.46,0-.85.24-1.08.43l-.22-.48c.35-.3.85-.52,1.44-.52,1.09,0,1.55.75,1.55,1.48,0,.94-.68,1.7-1.75,2.73l-.4.38v.02h2.27v.57h-3.24,0Z"/>
      <path class="st4" d="M105.44,61.58h-1.94l-.2,1.31c.12-.02.23-.03.41-.03.39,0,.78.09,1.1.27.39.22.72.66.72,1.3,0,.99-.79,1.73-1.89,1.73-.56,0-1.02-.16-1.27-.31l.17-.53c.21.13.62.29,1.09.29.64,0,1.2-.43,1.2-1.11,0-.65-.44-1.12-1.46-1.12-.3,0-.52.03-.71.05l.33-2.44h2.43v.58h0Z"/>
      <path class="st4" d="M109.88,63.72v.5h-1.93v-.5h1.93Z"/>
      <path class="st4" d="M115.5,63.49c0,1.72-.65,2.68-1.77,2.68-.99,0-1.67-.93-1.68-2.61,0-1.71.74-2.64,1.77-2.64s1.68.95,1.68,2.57h0ZM112.75,63.57c0,1.32.41,2.07,1.03,2.07.7,0,1.04-.82,1.04-2.11s-.32-2.07-1.03-2.07c-.6,0-1.04.73-1.04,2.11h0Z"/>
      <path class="st4" d="M119.16,61.58h-1.94l-.2,1.31c.12-.02.23-.03.41-.03.39,0,.78.09,1.1.27.39.22.72.66.72,1.3,0,.99-.79,1.73-1.89,1.73-.56,0-1.02-.16-1.27-.31l.17-.53c.21.13.62.29,1.09.29.64,0,1.2-.43,1.2-1.11,0-.65-.44-1.12-1.46-1.12-.3,0-.52.03-.71.05l.33-2.44h2.43v.58h0Z"/>
      <path class="st4" d="M119.78,66.4l2.18-5.66h.53l-2.19,5.66h-.53,0Z"/>
      <path class="st4" d="M122.82,66.09v-.42l.54-.53c1.3-1.24,1.89-1.9,1.89-2.66,0-.52-.24-.99-1-.99-.46,0-.85.24-1.08.43l-.22-.48c.35-.3.85-.52,1.44-.52,1.09,0,1.55.75,1.55,1.48,0,.94-.68,1.7-1.75,2.73l-.4.38v.02h2.28v.57h-3.25Z"/>
      <path class="st4" d="M130.21,63.49c0,1.72-.65,2.68-1.77,2.68-.99,0-1.67-.93-1.68-2.61,0-1.71.74-2.64,1.77-2.64s1.68.95,1.68,2.57h0ZM127.45,63.57c0,1.32.41,2.07,1.03,2.07.7,0,1.04-.82,1.04-2.11s-.32-2.07-1.03-2.07c-.6,0-1.04.73-1.04,2.11h0Z"/>
      <path class="st4" d="M130.83,66.09v-.42l.54-.53c1.3-1.24,1.89-1.9,1.89-2.66,0-.52-.24-.99-1-.99-.46,0-.85.24-1.08.43l-.22-.48c.35-.3.85-.52,1.44-.52,1.09,0,1.55.75,1.55,1.48,0,.94-.68,1.7-1.75,2.73l-.4.38v.02h2.28v.57h-3.25Z"/>
      <path class="st4" d="M137.74,61.49c-.14,0-.32,0-.52.04-1.08.17-1.64.96-1.76,1.81h.02c.24-.33.66-.59,1.22-.59.9,0,1.54.66,1.54,1.64,0,.93-.63,1.79-1.69,1.79s-1.79-.85-1.79-2.16c0-1,.36-1.79.86-2.29.42-.42.98-.67,1.62-.76.2-.03.37-.04.49-.04v.56h0ZM137.55,64.42c0-.73-.42-1.16-1.05-1.16-.42,0-.8.26-.99.62-.04.08-.07.18-.07.3,0,.84.39,1.46,1.12,1.46.59,0,.99-.49.99-1.22h0Z"/>
    </g>
  </g>
</svg>