<?xml version="1.0" encoding="UTF-8"?>
<svg id="Layer_1" xmlns="http://www.w3.org/2000/svg" version="1.1" viewBox="0 0 674.13 299.53">
  <!-- Generator: Adobe Illustrator 29.8.2, SVG Export Plug-In . SVG Version: 2.1.1 Build 3)  -->
  <defs>
    <style>
      .st0 {
        fill: #554d49;
      }

      .st1 {
        fill: #716862;
      }
    </style>
  </defs>
  <path class="st0" d="M0,2.34h43.73c28.01,0,50.6,10.02,50.6,40.95s-22.84,43.16-49.82,43.16h-15.73v43.19H0V2.34ZM42.82,63.6c15.83,0,23.31-7.05,23.31-20.31s-8.52-18.1-24.1-18.1h-13.25v38.41h14.04Z"/>
  <path class="st0" d="M101.03,65.44C101.03,23.85,124.51,0,158.85,0s57.82,24.01,57.82,65.44-23.48,66.54-57.82,66.54-57.82-24.95-57.82-66.54h0ZM187.17,65.44c0-25.52-10.96-40.59-28.32-40.59s-28.32,15.07-28.32,40.59,10.96,41.7,28.32,41.7,28.32-16.17,28.32-41.7Z"/>
  <path class="st1" d="M328.96,131.14h-35.68l-24.3-45.81h-13.42v45.81h-31.78V.84h47.35c33.12,0,50.63,14.23,50.63,41.14,0,17.39-7.62,30.29-22.07,37.41l29.28,51.75h-.01ZM295.09,128.14h28.73l-28.35-50.1,1.5-.68c14.25-6.44,21.78-18.67,21.78-35.38,0-25.31-16.03-38.14-47.63-38.14h-44.35v124.3h25.78v-45.81h18.23l24.3,45.81h.01ZM268.78,62.48h-16.22V23.69h16.22c11.53,0,24.77,2.08,24.77,18.29,0,13.22-8.8,20.5-24.77,20.5ZM255.55,59.48h13.22c14.45,0,21.77-5.89,21.77-17.5,0-10.86-6.31-15.29-21.77-15.29h-13.22v32.79Z"/>
  <path class="st0" d="M361.24,26.47h-35.04V2.33h98.86v24.14h-35.04v103.16h-28.78V26.47Z"/>
  <path class="st0" d="M226.19,147.88h80.34v24.14h-51.56v29.51h44.04v24.14h-44.04v49.51h-28.78v-127.3h0Z"/>
  <path class="st0" d="M307.62,210.98c0-41.59,23.48-65.44,57.82-65.44s57.82,24.01,57.82,65.44-23.48,66.54-57.82,66.54-57.82-24.95-57.82-66.54ZM393.76,210.98c0-25.52-10.96-40.59-28.32-40.59s-28.32,15.07-28.32,40.59,10.96,41.7,28.32,41.7,28.32-16.17,28.32-41.7h0Z"/>
  <path class="st0" d="M433.42,147.88h28.78v103.16h50.25v24.14h-79.03v-127.3h0Z"/>
  <path class="st1" d="M551.69,276.68h-31.71v-92.22h31.71v92.22ZM522.98,273.68h25.71v-86.22h-25.71v86.22Z"/>
  <path class="st0" d="M558.5,210.98c0-41.59,23.48-65.44,57.82-65.44s57.81,24.01,57.81,65.44-23.48,66.54-57.81,66.54-57.82-24.95-57.82-66.54ZM644.63,210.98c0-25.52-10.96-40.59-28.32-40.59s-28.32,15.07-28.32,40.59,10.96,41.7,28.32,41.7,28.32-16.17,28.32-41.7h0Z"/>
  <path class="st1" d="M535.78,178.1c-8.74,0-15.86-7.11-15.86-15.86s7.11-15.86,15.86-15.86,15.86,7.11,15.86,15.86-7.11,15.86-15.86,15.86ZM535.78,149.38c-7.09,0-12.86,5.77-12.86,12.86s5.77,12.86,12.86,12.86,12.86-5.77,12.86-12.86-5.77-12.86-12.86-12.86Z"/>
  <g>
    <path class="st0" d="M230.04,294.19l-1.67,5.08h-2.17l5.5-16.18h2.51l5.53,16.18h-2.23l-1.73-5.08h-5.74ZM235.35,292.55l-1.6-4.66c-.35-1.06-.59-2.02-.83-2.95h-.06c-.23.95-.48,1.93-.8,2.92l-1.59,4.68h4.89-.01Z"/>
    <path class="st0" d="M246.26,290.8c0-1.21-.04-2.17-.1-3.13h1.87l.12,1.91h.06c.57-1.09,1.92-2.17,3.84-2.17,1.59,0,4.09.96,4.09,4.95v6.92h-2.1v-6.69c0-1.88-.71-3.45-2.68-3.45-1.39,0-2.47.99-2.84,2.17-.09.26-.14.63-.14.98v7h-2.1v-8.47l-.02-.02Z"/>
    <path class="st0" d="M270.31,299.27l-.19-1.47h-.06c-.64.91-1.89,1.73-3.55,1.73-2.35,0-3.55-1.66-3.55-3.33,0-2.81,2.49-4.36,6.98-4.32v-.25c0-.94-.27-2.69-2.64-2.68-1.08,0-2.21.32-3.02.87l-.48-1.4c.96-.62,2.37-1.02,3.83-1.02,3.55,0,4.41,2.43,4.41,4.75v4.34c0,.99.04,1.98.17,2.78h-1.9ZM269.99,293.34c-2.28-.05-4.9.36-4.9,2.61,0,1.39.91,2.02,1.97,2.02,1.53,0,2.49-.96,2.83-1.94.07-.22.1-.46.1-.67v-2.02h0Z"/>
    <path class="st0" d="M279.74,282.23h2.1v7.25h.05c.35-.59.87-1.12,1.52-1.49.62-.36,1.36-.59,2.16-.59,1.56,0,4.05.95,4.05,4.96v6.91h-2.1v-6.68c0-1.87-.71-3.45-2.68-3.45-1.38,0-2.44.96-2.85,2.11-.11.29-.14.62-.14,1.01v7.02h-2.1v-17.04h0Z"/>
    <path class="st0" d="M299.72,284.38c0,.72-.5,1.31-1.34,1.31-.76,0-1.28-.59-1.27-1.31,0-.72.54-1.31,1.31-1.31s1.3.58,1.3,1.31ZM297.36,299.27v-11.61h2.1v11.61h-2.1Z"/>
    <path class="st0" d="M309.8,284.32v3.34h3.03v1.6h-3.03v6.26c0,1.45.42,2.26,1.6,2.26.55,0,.95-.07,1.22-.15l.1,1.6c-.41.16-1.07.29-1.89.29-.97,0-1.78-.32-2.28-.89-.58-.64-.82-1.66-.82-3.03v-6.34h-1.8v-1.6h1.8v-2.8l2.07-.54h0Z"/>
    <path class="st0" d="M325.95,299.27l-.19-1.47h-.06c-.64.91-1.89,1.73-3.55,1.73-2.35,0-3.55-1.66-3.55-3.33,0-2.81,2.49-4.36,6.98-4.32v-.25c0-.94-.27-2.69-2.64-2.68-1.08,0-2.21.32-3.02.87l-.48-1.4c.96-.62,2.37-1.02,3.83-1.02,3.55,0,4.41,2.43,4.41,4.75v4.34c0,.99.04,1.98.17,2.78h-1.9ZM325.62,293.34c-2.28-.05-4.9.36-4.9,2.61,0,1.39.91,2.02,1.97,2.02,1.53,0,2.49-.96,2.83-1.94.07-.22.1-.46.1-.67v-2.02h0Z"/>
    <path class="st0" d="M358.47,292.17c-.12-2.25-.27-4.98-.26-6.98h-.07c-.56,1.88-1.23,3.92-2.04,6.13l-2.86,7.85h-1.58l-2.64-7.7c-.77-2.29-1.4-4.36-1.85-6.28h-.06c-.06,2.02-.16,4.71-.32,7.14l-.43,6.94h-1.99l1.13-16.18h2.67l2.75,7.83c.67,1.98,1.21,3.76,1.63,5.45h.06c.43-1.64.99-3.42,1.71-5.45l2.89-7.83h2.67l1,16.18h-2.05l-.39-7.1h.03Z"/>
    <path class="st0" d="M379,293.35c0,4.3-2.98,6.18-5.77,6.18-3.15,0-5.58-2.29-5.58-5.98,0-3.88,2.55-6.16,5.76-6.16s5.59,2.42,5.59,5.96h0ZM369.8,293.49c0,2.55,1.46,4.46,3.52,4.46s3.54-1.89,3.54-4.53c0-1.96-.99-4.45-3.5-4.45s-3.56,2.31-3.56,4.51h0Z"/>
    <path class="st0" d="M395.67,296.09c0,1.22.04,2.26.1,3.18h-1.87l-.11-1.9h-.06c-.54.93-1.76,2.16-3.84,2.16-1.82,0-4-1.02-4-5.09v-6.78h2.1v6.41c0,2.21.69,3.72,2.59,3.72,1.42,0,2.4-.99,2.79-1.94.11-.3.19-.68.19-1.08v-7.11h2.1v8.43h0Z"/>
    <path class="st0" d="M403.49,290.8c0-1.21-.04-2.17-.1-3.13h1.87l.12,1.91h.06c.57-1.09,1.92-2.17,3.84-2.17,1.59,0,4.09.96,4.09,4.95v6.92h-2.1v-6.69c0-1.88-.71-3.45-2.68-3.45-1.39,0-2.47.99-2.84,2.17-.09.26-.14.63-.14.98v7h-2.1v-8.47l-.02-.02Z"/>
    <path class="st0" d="M423.46,284.38c0,.72-.5,1.31-1.34,1.31-.76,0-1.28-.59-1.27-1.31,0-.72.54-1.31,1.31-1.31s1.3.58,1.3,1.31ZM421.1,299.27v-11.61h2.1v11.61h-2.1Z"/>
  </g>
</svg>