<?xml version="1.0" encoding="UTF-8"?>
<svg id="Layer_1" xmlns="http://www.w3.org/2000/svg" version="1.1" viewBox="0 0 234.9 47.66">
  <!-- Generator: Adobe Illustrator 29.8.2, SVG Export Plug-In . SVG Version: 2.1.1 Build 3)  -->
  <defs>
    <style>
      .st0 {
        fill: #c4bdb7;
      }

      .st1 {
        fill: none;
      }

      .st2 {
        fill: #eae4e1;
      }
    </style>
  </defs>
  <g>
    <g>
      <path class="st0" d="M0,.63h11.68c7.48,0,13.51,2.68,13.51,10.93s-6.1,11.52-13.3,11.52h-4.2v11.53H0V.63ZM11.43,16.98c4.23,0,6.23-1.88,6.23-5.42s-2.28-4.83-6.43-4.83h-3.54v10.26h3.75Z"/>
      <path class="st0" d="M26.98,17.47C26.98,6.37,33.25,0,42.41,0s15.44,6.41,15.44,17.47-6.27,17.77-15.44,17.77-15.44-6.66-15.44-17.77ZM49.98,17.47c0-6.82-2.93-10.84-7.56-10.84s-7.56,4.02-7.56,10.84,2.93,11.13,7.56,11.13,7.56-4.32,7.56-11.13Z"/>
      <path class="st1" d="M71.77,6.73h-3.93v9.56h3.93c4.04,0,6.21-1.73,6.21-5.07s-2.17-4.48-6.21-4.48Z"/>
      <path class="st0" d="M79.46,21.02l.16.37c1.87-.85,3.45-2.1,4.56-3.79,1.11-1.69,1.73-3.82,1.73-6.38,0-2.07-.38-3.8-1.08-5.24-1.05-2.15-2.81-3.61-4.97-4.5-2.17-.89-4.73-1.25-7.47-1.25h-12.64v34.79h8.49v-12.23h3.58l6.49,12.23h9.53l-8.03-14.19-.35.2.16.37-.16-.37-.35.2,7.35,13h-7.67l-6.49-12.23h-4.87v12.23h-6.88V1.03h11.84c1.78,0,3.47.15,5,.51,2.3.53,4.22,1.5,5.57,3.04,1.35,1.54,2.15,3.68,2.15,6.64,0,2.44-.59,4.39-1.6,5.95-1.01,1.55-2.46,2.71-4.22,3.5l-.4.18.22.38.35-.2Z"/>
      <path class="st0" d="M71.77,16.28v-.4h-3.53V7.13h3.53c.99,0,1.86.07,2.6.22.55.11,1.03.27,1.43.47.6.31,1.03.71,1.33,1.25.3.54.46,1.24.46,2.14,0,.79-.13,1.47-.37,2.05-.37.86-.98,1.5-1.88,1.94-.9.44-2.09.68-3.57.68v.8c2.08,0,3.72-.44,4.87-1.37.57-.46,1.01-1.05,1.31-1.74.29-.69.43-1.48.43-2.36,0-.88-.14-1.64-.44-2.29-.22-.48-.53-.9-.92-1.23-.58-.51-1.32-.85-2.2-1.06-.88-.21-1.9-.3-3.05-.3h-4.33v10.36h4.33v-.4Z"/>
      <path class="st0" d="M96.46,7.07h-9.36V.63h26.4v6.45h-9.36v27.55h-7.69V7.07Z"/>
    </g>
    <g>
      <path class="st0" d="M115.29.63h21.45v6.45h-13.77v7.88h11.76v6.45h-11.76v13.22h-7.69V.63Z"/>
      <path class="st0" d="M137.03,17.47c0-11.11,6.27-17.47,15.44-17.47s15.44,6.41,15.44,17.47-6.27,17.77-15.44,17.77-15.44-6.66-15.44-17.77ZM160.03,17.47c0-6.82-2.93-10.84-7.56-10.84s-7.56,4.02-7.56,10.84,2.93,11.13,7.56,11.13,7.56-4.32,7.56-11.13Z"/>
      <path class="st0" d="M170.62.63h7.69v27.55h13.42v6.45h-21.1V.63Z"/>
      <path class="st0" d="M204.02,17.47c0-11.11,6.27-17.47,15.44-17.47s15.44,6.41,15.44,17.47-6.27,17.77-15.44,17.77-15.44-6.66-15.44-17.77ZM227.02,17.47c0-6.82-2.93-10.84-7.56-10.84s-7.56,4.02-7.56,10.84,2.93,11.13,7.56,11.13,7.56-4.32,7.56-11.13Z"/>
      <path class="st0" d="M201.8,10.79h-.4v23.42h-6.87V11.2h7.27v-.4h-.4.4v-.4h-8.07v24.62h8.47V10.39h-.4v.4ZM197.96.63V.23c-2.34,0-4.23,1.9-4.23,4.23,0,2.34,1.9,4.23,4.23,4.23,2.34,0,4.23-1.9,4.23-4.23,0-2.34-1.9-4.23-4.23-4.23v.8c.95,0,1.8.38,2.43,1.01.62.62,1.01,1.48,1.01,2.43,0,.95-.38,1.8-1.01,2.43-.62.62-1.48,1.01-2.43,1.01-.95,0-1.8-.38-2.43-1.01-.62-.62-1.01-1.48-1.01-2.43,0-.95.38-1.8,1.01-2.43.62-.62,1.48-1.01,2.43-1.01v-.4Z"/>
    </g>
  </g>
  <g>
    <path class="st2" d="M89.7,44.54l-.98,2.97h-1.26l3.21-9.44h1.47l3.22,9.44h-1.3l-1.01-2.97h-3.35ZM92.8,43.59l-.94-2.72c-.2-.62-.35-1.18-.49-1.72h-.03c-.14.55-.28,1.13-.47,1.71l-.93,2.73h2.85Z"/>
    <path class="st2" d="M99.16,42.56c0-.71-.02-1.27-.06-1.83h1.09l.07,1.11h.03c.33-.64,1.12-1.27,2.24-1.27.93,0,2.39.56,2.39,2.89v4.04h-1.23v-3.91c0-1.1-.41-2.01-1.57-2.01-.81,0-1.44.58-1.66,1.26-.05.15-.08.37-.08.57v4.08h-1.23v-4.94Z"/>
    <path class="st2" d="M113.19,47.51l-.11-.86h-.04c-.37.53-1.1,1.01-2.07,1.01-1.37,0-2.07-.97-2.07-1.94,0-1.64,1.46-2.54,4.07-2.52v-.14c0-.55-.15-1.57-1.54-1.56-.63,0-1.29.19-1.76.51l-.28-.82c.56-.36,1.38-.59,2.24-.59,2.07,0,2.58,1.42,2.58,2.77v2.53c0,.58.03,1.16.1,1.62h-1.11ZM113,44.05c-1.33-.03-2.86.21-2.86,1.52,0,.81.53,1.18,1.15,1.18.89,0,1.45-.56,1.65-1.13.04-.13.06-.27.06-.39v-1.18Z"/>
    <path class="st2" d="M118.69,37.56h1.23v4.23h.03c.2-.35.51-.66.89-.87.36-.21.79-.34,1.26-.34.91,0,2.36.56,2.36,2.89v4.03h-1.23v-3.9c0-1.09-.41-2.01-1.57-2.01-.81,0-1.43.56-1.66,1.23-.06.17-.08.36-.08.59v4.09h-1.23v-9.95Z"/>
    <path class="st2" d="M130.34,38.82c0,.42-.29.77-.78.77-.45,0-.74-.35-.74-.77,0-.42.31-.77.77-.77s.76.34.76.77ZM128.97,47.51v-6.77h1.23v6.77h-1.23Z"/>
    <path class="st2" d="M136.23,38.78v1.95h1.77v.93h-1.77v3.65c0,.84.24,1.32.93,1.32.32,0,.55-.04.71-.09l.06.94c-.24.09-.62.17-1.1.17-.57,0-1.04-.19-1.33-.52-.34-.37-.48-.97-.48-1.77v-3.7h-1.05v-.93h1.05v-1.63l1.21-.32Z"/>
    <path class="st2" d="M145.64,47.51l-.11-.86h-.04c-.37.53-1.1,1.01-2.07,1.01-1.37,0-2.07-.97-2.07-1.94,0-1.64,1.46-2.54,4.07-2.52v-.14c0-.55-.15-1.57-1.54-1.56-.63,0-1.29.19-1.76.51l-.28-.82c.56-.36,1.38-.59,2.24-.59,2.07,0,2.58,1.42,2.58,2.77v2.53c0,.58.03,1.16.1,1.62h-1.11ZM145.45,44.05c-1.33-.03-2.86.21-2.86,1.52,0,.81.53,1.18,1.15,1.18.89,0,1.45-.56,1.65-1.13.04-.13.06-.27.06-.39v-1.18Z"/>
    <path class="st2" d="M164.62,43.36c-.07-1.31-.16-2.91-.15-4.07h-.04c-.33,1.1-.72,2.29-1.19,3.58l-1.67,4.58h-.92l-1.54-4.5c-.45-1.33-.82-2.54-1.08-3.66h-.03c-.03,1.18-.09,2.75-.19,4.17l-.25,4.05h-1.16l.66-9.44h1.56l1.61,4.57c.39,1.16.71,2.2.95,3.18h.04c.25-.96.58-2,1-3.18l1.68-4.57h1.56l.58,9.44h-1.2l-.23-4.15Z"/>
    <path class="st2" d="M176.59,44.06c0,2.51-1.74,3.61-3.37,3.61-1.84,0-3.26-1.34-3.26-3.49,0-2.27,1.49-3.59,3.36-3.59s3.26,1.41,3.26,3.48ZM171.22,44.13c0,1.49.85,2.61,2.05,2.61s2.06-1.1,2.06-2.64c0-1.15-.58-2.59-2.04-2.59s-2.08,1.35-2.08,2.63Z"/>
    <path class="st2" d="M186.32,45.65c0,.71.02,1.32.06,1.85h-1.09l-.07-1.11h-.03c-.31.55-1.03,1.26-2.24,1.26-1.06,0-2.33-.59-2.33-2.97v-3.96h1.23v3.74c0,1.29.4,2.17,1.51,2.17.83,0,1.4-.58,1.63-1.13.06-.18.11-.4.11-.63v-4.15h1.23v4.92Z"/>
    <path class="st2" d="M190.87,42.56c0-.71-.02-1.27-.06-1.83h1.09l.07,1.11h.03c.33-.64,1.12-1.27,2.24-1.27.93,0,2.39.56,2.39,2.89v4.04h-1.23v-3.91c0-1.1-.41-2.01-1.57-2.01-.81,0-1.44.58-1.66,1.26-.05.15-.08.37-.08.57v4.08h-1.23v-4.94Z"/>
    <path class="st2" d="M202.52,38.82c0,.42-.29.77-.78.77-.45,0-.74-.35-.74-.77,0-.42.31-.77.77-.77s.76.34.76.77ZM201.15,47.51v-6.77h1.23v6.77h-1.23Z"/>
  </g>
</svg>