<?xml version="1.0" encoding="UTF-8"?>
<svg id="Layer_1" data-name="Layer 1" xmlns="http://www.w3.org/2000/svg" viewBox="0 0 30.55 30.77">
  <defs>
    <style>
      .cls-1 {
        fill: #fff;
      }

      .cls-2 {
        fill: none;
      }
    </style>
  </defs>
  <path class="cls-2" d="M24.39,10.74H10.51v13.89h13.37c.13,0,.52-.33,.52-.44V10.74h0Zm-3.59,10.37h-6.57l-.14-.14v-6.57h6.71v6.71Z"/>
  <rect class="cls-2" x="15.54" y="15.78" width="3.82" height="3.89"/>
  <path class="cls-2" d="M6.23,28.33s-.04,0-.06,0c-.36,.05-.49,.32-.46,.57,.03,.24,.22,.49,.57,.45,.19-.02,.32-.11,.38-.25,.08-.18,.04-.42-.09-.59-.06-.07-.17-.18-.34-.18h0Z"/>
  <path class="cls-2" d="M28.75,29.36c.19-.02,.33-.12,.4-.28,.08-.18,.05-.42-.07-.58-.1-.13-.26-.19-.44-.16-.31,.05-.45,.35-.42,.61,.03,.21,.18,.45,.53,.42h0Z"/>
  <path class="cls-2" d="M11.93,2.2h.62c.14-.19,.16-.43,.04-.63-.12-.19-.33-.27-.56-.22-.28,.06-.31,.31-.29,.44,.01,.22,.13,.39,.2,.4Z"/>
  <path class="cls-2" d="M1.66,15.11c-.23,.05-.32,.27-.33,.44-.01,.19,.07,.41,.27,.47,.25,.08,.47,.04,.6-.13s.14-.43,.03-.61c-.11-.18-.32-.24-.57-.18Z"/>
  <path class="cls-2" d="M28.74,6.88c.2-.02,.35-.12,.42-.28,.08-.18,.04-.41-.08-.57-.12-.15-.3-.2-.51-.16-.31,.06-.38,.32-.35,.53,.04,.25,.24,.51,.53,.49h0Z"/>
  <path class="cls-2" d="M1.66,22.7c-.27,.06-.37,.34-.32,.58,.05,.24,.24,.46,.55,.41,.18-.03,.32-.14,.38-.31,.07-.18,.03-.4-.1-.55-.12-.14-.3-.18-.51-.14h0Z"/>
  <path class="cls-1" d="M7.19,22.61s-.06-.02-.12-.08c-.14-.12-.39-.35-.7-.37-.51-.04-.7,.12-.86,.26-.1,.08-.19,.17-.33,.19-.17,.03-1.45,.03-1.59-.01h-.02s0-.03,0-.03c-.27-.53-.75-.92-1.31-1.07-.52-.14-1.06-.04-1.5,.26-.52,.35-.8,.95-.74,1.61,.06,.67,.46,1.24,1.03,1.49,.99,.43,1.91,.08,2.52-.96h0s.01-.01,.01-.01c.13-.05,1.42-.05,1.59-.02,.11,.02,.21,.1,.32,.19,.18,.14,.4,.32,.72,.32,.37,0,.69-.28,.84-.42,.07-.07,.1-.09,.13-.09h1.96v2.1h2.41v2.17h-.01s-.03,.03-.05,.03-.06,0-.07,.01c-.01,.01-.01,.06-.01,.07,0,.02,0,.04-.01,.05h-.01s-.02,.01-.02,.01h-3.49v-.03c-.29-.95-1.17-1.21-1.83-1.14-.75,.08-1.55,.58-1.63,1.55-.1,1.19,.65,1.82,1.32,1.99,.74,.19,1.7-.06,2.17-1.08v-.03s.05,0,.05,0c.24,.05,.85,.02,1.44,0,.81-.03,1.56-.07,1.75,.05,.04,.02,.07,.08,.12,.15,.05,.08,.11,.17,.19,.23,.42,.32,.93,.34,1.33,.06,.42-.3,.59-.84,.42-1.38-.04-.14-.21-.3-.31-.39-.07-.07-.09-.09-.09-.12v-2.11h4.22v2.04s-.02,.06-.11,.16c-.13,.14-.33,.38-.38,.56-.11,.43,.04,.89,.36,1.16,.56,.46,1.2,.3,1.55-.05,.37-.36,.52-1,.03-1.61-.03-.04-.1-.05-.13-.06-.02,0-.06-.01-.06-.05v-2.15h4.22v2.04s-.03,.06-.09,.13c-.17,.18-.53,.56-.39,1.16,.11,.46,.4,.75,.81,.84,.46,.1,.97-.1,1.25-.47,.25-.34,.26-.78,.02-1.23-.04-.07-.1-.14-.16-.21-.08-.1-.17-.18-.19-.29-.02-.1-.04-1.84,.04-1.95v-.02h.03c1.2-.14,1.99-.99,1.95-2.13v-.06h.06c.17,.04,.42,.03,.69,.01,.18-.01,.36-.02,.53-.02,.41,0,.78,.06,.92,.3,.15,.27,.12,1.02,.08,1.73-.03,.52-.05,1.02,0,1.28v.04s-.03,.01-.03,.01c-1.11,.49-1.29,1.57-.99,2.37,.29,.79,1.1,1.43,2.22,1.08,.75-.23,1.24-.91,1.25-1.71,.01-.62-.29-1.39-1.16-1.7h-.03v-2.92c.01-.13,.11-.23,.21-.33,.11-.12,.23-.24,.27-.39,.11-.43,.01-.84-.27-1.12-.3-.3-.76-.41-1.22-.29-.15,.04-.33,.22-.45,.32-.08,.07-.1,.1-.13,.1h-1.96v-4.22h1.89s.06,.03,.13,.09c.18,.17,.55,.52,1.12,.42,.4-.07,.7-.32,.84-.7,.15-.41,.07-.88-.19-1.19-.26-.31-.69-.42-1.2-.31-.18,.04-.39,.24-.5,.34-.07,.07-.1,.09-.13,.09h-1.96v-4.22h2s.05,.04,.05,.06c0,.03,.01,.1,.06,.13,.47,.38,.95,.45,1.35,.22,.42-.25,.67-.82,.58-1.32-.05-.26-.23-.72-.92-.85-.55-.1-.88,.24-1.04,.4-.06,.06-.08,.09-.12,.09h-1.96v-2.18h-2.03v-2.11c0-.05,.25-.34,.25-.34,.15-.09,2.57-.08,2.77-.04,.2,.04,.26,.18,.32,.29,.03,.06,.05,.12,.09,.17,.79,.92,1.82,.88,2.49,.43,.64-.43,1.09-1.36,.57-2.38-.31-.6-.93-.95-1.64-.92-.74,.03-1.38,.46-1.65,1.12v.03h-.05c-.39-.06-.86-.03-1.33,0-.51,.03-1.03,.07-1.44-.01-.11-.02-.2-.1-.3-.19-.11-.1-.24-.21-.4-.24-.49-.1-.92,.01-1.2,.32-.27,.29-.35,.72-.22,1.17,.04,.14,.21,.33,.31,.45,.08,.09,.1,.11,.1,.14v2.11h-4.22v-2.11s.02-.06,.11-.14c.13-.13,.33-.33,.38-.5,.19-.71-.15-1.07-.37-1.23-.41-.29-1.03-.29-1.44-.01-.39,.27-.52,.74-.36,1.31,.04,.15,.22,.33,.32,.45,.07,.08,.1,.1,.1,.13v2.11h-4.22v-2.11s.01-.04,.14-.16c.08-.08,.2-.19,.23-.25,.2-.35,.21-.68,.02-1.09-.06-.13-.21-.28-.31-.36-.07-.06-.08-.08-.09-.1-.03-.12-.02-1.7,.01-1.8v-.02c.11-.1,.24-.18,.36-.25,.11-.07,.22-.13,.31-.22,.52-.53,.67-1.29,.37-1.99-.29-.69-.92-1.12-1.65-1.12h0c-1.11,0-1.66,.78-1.8,1.45-.14,.73,.14,1.65,1.11,2.05h.03v.05c-.04,.25-.02,.56,0,.86,.02,.33,.04,.67,0,.93-.02,.11-.1,.2-.19,.31-.14,.17-.32,.39-.32,.74,0,.36,.21,.58,.36,.75,.08,.08,.14,.15,.15,.22,.07,.25,.04,.65,.01,1.08-.03,.37-.06,.75-.01,.99v.06s-2.4,0-2.4,0v2.18h-1.96s-.06-.03-.12-.09c-.14-.14-.44-.44-.85-.43-.37,.01-.69,.29-.85,.43-.08,.07-.11,.09-.14,.09H1.19v2.32h-.03C.24,14.27-.04,15.11,0,15.75c.05,.71,.51,1.5,1.42,1.66,1.15,.19,1.89-.51,2.12-1.3,.22-.76-.03-1.72-1.06-2.14h-.03s-.01-1.05-.01-1.05h2.79s.06,.03,.12,.09c.14,.14,.44,.44,.85,.44s.71-.3,.85-.44c.06-.07,.09-.09,.12-.09h1.96v4.22h-1.96s-.05-.02-.13-.1c-.11-.11-.29-.28-.45-.32-.54-.14-.99-.03-1.27,.32-.29,.35-.35,.9-.14,1.32,.18,.37,.53,.57,.97,.57h.04c.42-.01,.71-.3,.85-.44,.06-.06,.09-.09,.12-.09h1.82l.14,.14v4.08h-1.96v-.02Zm-4.82,.81c-.07,.2-.24,.33-.45,.36-.04,0-.07,0-.11,0-.31,0-.5-.24-.55-.49-.06-.29,.06-.61,.39-.69,.25-.06,.46,0,.6,.17,.15,.17,.2,.42,.12,.64h0Zm4.39,5.73c-.08,.18-.24,.28-.46,.31h-.07c-.35,0-.56-.26-.6-.54-.03-.28,.12-.61,.53-.67,.18-.03,.36,.05,.49,.21,.15,.2,.2,.48,.11,.69h0Zm21.88-.89c.22-.03,.4,.04,.53,.2,.14,.18,.18,.45,.08,.67-.08,.19-.25,.31-.47,.33-.03,0-.05,0-.08,0-.34,0-.52-.24-.56-.5-.04-.3,.12-.65,.49-.71h0Zm-.08-22.47c.24-.05,.46,.02,.6,.19,.15,.18,.19,.45,.1,.66-.08,.2-.26,.32-.49,.34h-.05c-.32,0-.54-.28-.58-.57-.03-.24,.06-.55,.42-.63h0ZM2.27,15.96c-.1,.13-.25,.2-.43,.2-.08,0-.17-.01-.26-.04-.25-.08-.35-.34-.33-.57,.01-.27,.17-.47,.4-.53,.3-.07,.54,.02,.67,.22,.14,.21,.12,.51-.04,.71h0ZM12.01,1.27c.27-.06,.52,.04,.66,.26,.14,.23,.12,.52-.06,.74v.02s-.68,0-.68,0c-.15-.01-.27-.27-.28-.49-.02-.28,.12-.48,.37-.54h0Zm-1.59,9.37h14.07v13.54c0,.17-.45,.53-.61,.53H10.41V10.65h0Z"/>
  <path class="cls-1" d="M20.71,21.02v-6.52h-6.52v6.43l.08,.08h6.44Zm-5.26-5.33h4v4.08h-4v-4.08Z"/>
</svg>