<?xml version="1.0" encoding="UTF-8"?>
<svg id="Layer_1" data-name="Layer 1" xmlns="http://www.w3.org/2000/svg" viewBox="0 0 31.04 30.67">
  <defs>
    <style>
      .cls-1 {
        fill: #fff;
      }

      .cls-2 {
        fill: none;
      }
    </style>
  </defs>
  <path class="cls-2" d="M13.92,20.23c-.23,.02-.25,.25-.25,.61v.16c-.06,1.52-.03,3.1,0,4.62,.02,1.07,.04,2.17,.03,3.25,.06,.14,.28,.17,.53,.17h.08c1.39,.08,3.23,.08,4.6,0h.06c.14,0,.41-.02,.49-.13l-.05-8.66c-.06-.03-.13-.03-.21-.04h-.04c-.86-.07-1.8-.04-2.7-.01-.85,.03-1.72,.06-2.54,0h0Zm4.23,.91c.24,.02,.42,.11,.56,.27,.28,.33,.25,.88,.2,1.4-.04,.46-.26,.7-.69,.75-.35,.04-.93,.06-1.52,.06-.64,0-1.3-.02-1.69-.06-.36-.03-.61-.22-.67-.5-.05-.24-.04-1.06-.01-1.3,.04-.33,.25-.55,.57-.61,.61-.11,2.62-.08,3.27-.02h0Z"/>
  <path class="cls-2" d="M2.64,16.34c.23-.32,.47-.88,.7-1.42,.29-.69,.6-1.4,.92-1.71,.15-.15,.35-.24,.53-.24,.06,0,.12,0,.17,.03,.23,.07,.4,.26,.46,.53v4.85c-.27,1.43-.65,2.87-1.02,4.26-.4,1.52-.82,3.08-1.1,4.61-.1,.56-.12,1.13,.45,1.53,.36,.25,.73,.33,1.04,.22,.33-.12,.58-.43,.71-.89,.33-1.21,.54-2.56,.74-3.87,.22-1.45,.45-2.94,.85-4.26,.13-.45,.44-.73,.8-.75,.34-.01,.66,.24,.81,.65v.03s.41,8.41,.41,8.41c.08,.31,.36,.56,.72,.65,.36,.09,.7,0,.93-.24,.32-.33,.29-1.13,.26-1.71,0-.1,0-.2-.01-.29-.04-2.03-.1-4.1-.16-6.1-.06-1.91-.12-3.89-.16-5.84,0-.09-.01-.22-.03-.38-.06-.67-.16-1.69,.26-2.01,.16-.12,.37-.13,.63-.03h.02s2.16,1.72,2.16,1.72c.24,.07,.58,.24,.95,.42,.55,.27,1.17,.57,1.47,.54,.28-.03,.52-.19,.63-.45,.11-.26,.07-.57-.11-.8-.19-.24-.79-.51-1.37-.78-.5-.23-.97-.44-1.25-.65-.17-.13-.3-.29-.43-.45-.1-.12-.2-.24-.31-.35-.65-.61-2.38-1.91-3.19-2.12-.79-.21-3.3-.28-4.04-.07-1.21,.35-3.01,2.73-4.19,4.66-.04,.07-.1,.16-.16,.25-.26,.42-.66,1.05-.71,1.39-.07,.51,.25,.82,.54,.94,.33,.13,.79,.09,1.08-.31h0Z"/>
  <path class="cls-2" d="M18.67,9.16L29.01,2.94c.38-.28,1.09-1.38,1.02-1.78,0-.03-.07-.24-1.21-.15-1.03,.08-1.98,.84-2.91,1.56-.56,.44-1.09,.86-1.63,1.13l-.03,.02c-.13,.07-.26,.13-.41,.15l-7.82-.67s.09,.03,.14,.05,.09,.03,.13,.04c.43,.16,.93,.32,1.47,.48,.93,.29,1.89,.58,2.56,.93,.26,.14,.42,.34,.46,.57,.04,.23-.05,.47-.25,.68-.38,.4-.99,.76-1.57,1.11-.45,.27-.88,.53-1.2,.79l-.03,.02c-.4,.12-1.04-.06-1.66-.24-.53-.15-1.08-.31-1.34-.22-.03,.01-.16,.09-.25,.15l2.72,1.6h1.51s0-.01,0-.01Z"/>
  <path class="cls-2" d="M8.43,6.38c1.18-.1,1.64-1.06,1.58-1.91-.06-.85-.68-1.74-1.87-1.66-.66,.04-1.17,.37-1.44,.93-.3,.61-.24,1.4,.14,1.95,.35,.5,.91,.75,1.59,.69Z"/>
  <polygon class="cls-2" points="16.35 19.03 16.87 19.03 16.87 16.1 16.35 16.2 16.35 19.03"/>
  <path class="cls-1" d="M1.22,17.6c.83,.31,1.71,.04,2.24-.68l.94-1.81v3.28l-2.17,8.97c-.16,1.53,.85,2.44,1.85,2.63,.92,.17,2.01-.22,2.35-1.49l1.31-6.63,.29,6.34c.17,1.24,1.11,1.8,1.97,1.8h0c.87,0,1.82-.56,1.99-1.81l-.39-14.41,.14,.07c.28,.15,.54,.38,.79,.6,.22,.19,.42,.37,.64,.5,.38,.23,.88,.42,1.35,.59,.26,.1,.5,.18,.72,.28l.06,.02v3.34h-1.59c-.38,0-.97,.57-1.02,.98,.01,1.08,0,2.2,0,3.28-.02,1.91-.03,3.88,.08,5.8,.07,.14,.16,.31,.28,.42,.1,.1,.22,.14,.33,.19,.08,.04,.17,.07,.23,.12s.1,.12,.14,.19c.04,.08,.09,.17,.18,.24,.35,.26,1.42,.3,1.81,.06,.13-.08,.18-.16,.24-.25,.11-.16,.21-.26,.51-.26,.07,0,.15,0,.24,.02,.13,.01,.18,.13,.24,.23,.03,.06,.06,.12,.1,.15,.35,.33,1.43,.37,1.83,.14,.1-.06,.18-.17,.25-.27,.06-.08,.11-.15,.17-.19,.08-.05,.17-.08,.27-.11,.13-.04,.27-.08,.39-.18,.29-.22,.47-.54,.5-.93v-8.54c-.1-.41-.26-.68-.55-.86-.06-.04-.44-.22-.49-.23h-1.64v-5.29c-.01-.05-.19-.44-.24-.53-.33-.56-1.03-.85-1.71-1.13-.46-.19-.89-.37-1.21-.63-.14-.11-.29-.29-.45-.48-.14-.16-.28-.33-.42-.45-.83-.75-2.47-1.92-3.38-2.18-.87-.25-3.26-.24-4.21-.15-1.28,.11-2.86,1.6-4.72,4.43l-.11,.17C.92,13.65,.05,14.98,0,15.64c-.08,1.07,.58,1.71,1.22,1.95h0Zm17.95,2.46h.04c.11,.01,.23,.02,.34,.1l.04,.03v.05l.05,8.76v.02c-.11,.22-.44,.23-.66,.24h-.06c-.68,.04-1.49,.06-2.3,.06s-1.62-.02-2.32-.06h-.08c-.24-.01-.6-.03-.7-.32v-.03c0-1.08-.01-2.19-.04-3.26-.03-1.53-.06-3.11,0-4.64v-.15c0-.31,0-.76,.43-.8,.83,.05,1.7,.02,2.54,0,.91-.03,1.84-.06,2.72,0h0Zm-2.12-.84h-.89v-3.17l.89-.16v3.33h0ZM.83,15.69c.06-.38,.45-1.01,.74-1.46,.06-.09,.11-.18,.15-.25,.43-.71,2.67-4.28,4.29-4.74,.77-.22,3.33-.15,4.14,.06,.85,.22,2.58,1.52,3.26,2.16,.13,.11,.23,.24,.33,.37,.13,.16,.25,.31,.4,.42,.26,.2,.74,.42,1.21,.63,.63,.29,1.23,.56,1.44,.83,.22,.29,.28,.67,.14,.99-.14,.32-.43,.52-.78,.56-.35,.03-.97-.27-1.57-.56-.36-.18-.71-.35-.93-.41l-.03-.02-2.17-1.71c-.19-.07-.33-.07-.44,0-.34,.26-.24,1.29-.19,1.85,.01,.17,.03,.3,.03,.4,.04,1.95,.1,3.93,.16,5.84,.06,2,.13,4.07,.16,6.1,0,.08,0,.18,.01,.28,.02,.61,.06,1.45-.32,1.84-.27,.29-.69,.4-1.11,.29-.42-.11-.75-.41-.86-.8l-.4-8.42c-.13-.33-.36-.53-.63-.52-.28,0-.52,.24-.63,.61-.39,1.31-.62,2.8-.84,4.23-.2,1.31-.41,2.66-.74,3.89-.14,.52-.43,.88-.82,1.02-.11,.04-.24,.06-.36,.06-.28,0-.57-.1-.86-.31-.65-.47-.63-1.13-.52-1.72,.29-1.54,.7-3.11,1.1-4.62,.37-1.39,.75-2.82,1.03-4.23v-4.81c-.05-.18-.17-.33-.34-.38-.17-.05-.37,.01-.53,.17-.29,.29-.59,.99-.88,1.66-.25,.57-.48,1.12-.72,1.45-.34,.48-.9,.53-1.3,.37-.47-.19-.73-.64-.66-1.14h.01Z"/>
  <path class="cls-1" d="M16.79,10.13h2.14S29.78,3.64,29.78,3.64c.4-.46,1.62-1.97,1.16-2.98-.46-1-2.61-.65-3.54-.34l-3.68,2.55-8.47-.68c-.73,.37-1.09,.73-1.08,1.06,.01,.38,.3,.49,.62,.61l.12,.05c.78,.31,1.61,.58,2.41,.85,.58,.19,1.18,.39,1.75,.6,.01,0,.03,0,.04,0,.04,0,.1,0,.13,.06,.04,.05,.03,.11,.02,.16v.04s-1.88,1.28-1.88,1.28h-.03c-.38,.01-.82-.12-1.3-.26-.58-.16-1.18-.33-1.59-.23-.15,.04-1.14,.64-1.27,.77-.28,.28-.28,.59,0,.88l3.57,2.07h0Zm-2.6-2.53c0-.12,.45-.34,.45-.34,.32-.1,.87,.05,1.45,.22,.58,.17,1.19,.33,1.55,.24,.33-.27,.76-.52,1.21-.79,.58-.35,1.17-.7,1.54-1.08,.16-.17,.23-.35,.2-.52-.03-.17-.16-.33-.36-.43-.66-.35-1.61-.64-2.53-.92-.54-.17-1.04-.32-1.48-.48-.04-.01-.08-.03-.12-.04-.19-.07-.42-.14-.54-.29l-.14-.17,8.42,.72c.11-.02,.22-.07,.33-.13l.03-.02c.53-.27,1.05-.68,1.6-1.11,.95-.74,1.92-1.52,3.01-1.6,.9-.07,1.36,.03,1.41,.3,.08,.51-.7,1.67-1.1,1.96l-10.39,6.25-1.61,.02h-.02s-2.9-1.72-2.9-1.72v-.05h0Z"/>
  <path class="cls-1" d="M7.64,7.33c1.18,.26,2.17-.07,2.79-.93,.69-.96,.75-2.38,.15-3.38-.55-.92-1.55-1.33-2.81-1.16-1.49,.2-2.2,1.47-2.25,2.63-.04,1.09,.49,2.48,2.13,2.84Zm-1.1-3.66c.3-.62,.86-.99,1.59-1.03,1.31-.08,1.99,.89,2.06,1.83,.07,.94-.45,2-1.75,2.11-.07,0-.14,0-.21,0-.65,0-1.2-.27-1.55-.78-.42-.6-.47-1.46-.15-2.13Z"/>
  <path class="cls-1" d="M14.51,23.01c.07,.29,.38,.35,.51,.36,.75,.07,2.49,.08,3.18,0,.34-.04,.49-.21,.53-.58,.03-.36,.09-.96-.16-1.27-.1-.12-.24-.19-.43-.21-.33-.03-1.02-.05-1.69-.05-.63,0-1.25,.02-1.53,.07-.25,.04-.39,.2-.42,.45-.03,.24-.03,1.03,.01,1.23Zm.76-.85h2.61v.38h-2.61v-.38Z"/>
</svg>