<?xml version="1.0" encoding="UTF-8"?>
<svg id="Layer_1" xmlns="http://www.w3.org/2000/svg" version="1.1" viewBox="0 0 133.38 153.09">
  <!-- Generator: Adobe Illustrator 29.8.2, SVG Export Plug-In . SVG Version: 2.1.1 Build 3)  -->
  <defs>
    <style>
      .st0 {
        fill: #eae4e1;
      }
    </style>
  </defs>
  <path class="st0" d="M129.8,76.37c-.32-7.51-3.21-13.51-9.28-17.81-4.38-3.11-9.45-4.37-14.69-5.05-5.76-.75-11.48-.6-17.15.69-.1.02-.2,0-.47,0,.24-.95.41-1.86.72-2.72.09-.24.55-.43.87-.49,5.49-.97,11-1,16.52-.3,5.01.64,9.86,1.84,14.22,4.47,7.23,4.35,11.13,10.86,11.96,19.21.15,1.55.02,3.12.02,4.78h-18.95c-.19-1.18-.35-2.28-.56-3.38-.88-4.64-3.57-7.54-8.25-8.48-4.12-.82-8.24-.96-12.29.38-.7.23-1.4.54-2.04.91-3.46,2.02-3.68,6.37-.28,8.51,2,1.26,4.23,2.25,6.47,3.02,5.33,1.84,10.74,3.41,16.08,5.22,4.15,1.41,8.17,3.13,11.66,5.87,6.42,5.05,9.22,11.81,9.01,19.83-.25,9.89-4.57,17.49-13.25,22.41-3.82,2.17-8.05,3.14-12.4,3.59-7.24.74-14.41.39-21.44-1.61-12.09-3.45-18.78-11.71-21.03-23.85-.31-1.68-.5-3.4-.61-5.11-.09-1.36.16-1.52,1.54-1.59,5.38-.26,10.75-.5,16.13-.8.78-.04,1.03.16,1.12.93.31,2.8.98,5.52,2.28,8.04,2.24,4.35,6,6.54,10.69,7.25,3.69.56,7.37.53,10.98-.65,3.42-1.12,7.25-4.74,6.8-9.2-.17-1.65-.91-2.98-2.18-4.02-2.25-1.84-4.97-2.69-7.67-3.57-5.53-1.81-11.12-3.47-16.59-5.44-4.74-1.7-9.12-4.07-12.62-7.88-1.21-1.32-1.82-2.54-.88-4.22.18-.31.25-.69.67-1.25.06.17.08.37.18.52,2.41,4.03,5.89,6.9,10.18,8.61,4.95,1.97,10.05,3.57,15.06,5.38,3.82,1.37,7.69,2.67,11.41,4.27,2.78,1.2,4.56,3.48,5.08,6.55.61,3.6-.48,6.71-2.95,9.36-2.46,2.63-5.59,3.96-9.08,4.43-3.65.49-7.31.45-10.91-.48-7.26-1.87-11.08-6.89-12.69-13.92-.12-.51-.22-1.02-.33-1.53,0-.03-.05-.06-.19-.22-4.24.2-8.58.41-13.28.64.62,2.74,1.04,5.36,1.82,7.87,2.65,8.44,8.2,14.14,16.68,16.74,9.32,2.86,18.79,3.25,28.17.56,11.03-3.17,17.5-13.25,16.39-24.7-.85-8.79-5.72-14.48-13.52-18.03-5.53-2.51-11.38-4.06-17.13-5.92-3.29-1.06-6.52-2.38-9.69-3.77-2.33-1.02-4.1-2.76-4.86-5.28-1.21-4,.65-7.68,4.79-9.56,3.53-1.61,7.27-1.96,11.07-1.64,1.85.15,3.72.44,5.51.91,5.46,1.46,8.24,5.34,9.29,10.67.09.47.11.85.76.85,4.33-.02,8.66-.01,13.16-.01h-.03Z"/>
  <path class="st0" d="M.03,24.39c.26-.02.44-.06.62-.06,6.43,0,12.86,0,19.29-.02.78,0,1.01.35,1.22.97,4.36,12.79,8.74,25.58,13.11,38.36,1.79,5.22,3.58,10.45,5.47,15.97.46-1.27.85-2.28,1.19-3.3,5.83-17.02,11.65-34.04,17.5-51.06.13-.36.57-.88.87-.88,6.69-.05,13.38-.04,20.25-.04-.57,1.64-1.1,3.17-1.65,4.7-6.19,17.33-12.38,34.66-18.57,51.99-3.09,8.65-6.19,17.29-9.22,25.95-.4,1.15-.89,1.6-2.19,1.58-5.57-.09-11.14-.07-16.71,0-1.05,0-1.38-.43-1.69-1.3-3.55-10.03-7.14-20.05-10.72-30.07C12.63,59.92,6.47,42.66.3,25.39c-.11-.31-.19-.63-.3-1.01h.03ZM75.51,27.25c-.4-.03-.69-.07-.98-.07-4.26,0-8.52.03-12.79-.02-.79,0-1.08.28-1.32.99-1.22,3.69-2.5,7.35-3.76,11.03-4.64,13.56-9.27,27.12-13.92,40.68-.95,2.78-1.93,5.56-2.96,8.53-.2-.5-.33-.8-.44-1.1-2.91-8.47-5.81-16.95-8.71-25.43-3.82-11.16-7.64-22.32-11.43-33.49-.29-.86-.66-1.23-1.64-1.21-4.07.07-8.15.03-12.22.03h-1.34c9.39,26.3,18.71,52.41,28.05,78.55,4.83,0,9.57-.02,14.32.02.85,0,1.24-.24,1.52-1.05,1.84-5.28,3.74-10.55,5.62-15.82,6.28-17.57,12.56-35.15,18.83-52.72,1.05-2.95,2.1-5.89,3.17-8.92Z"/>
  <path class="st0" d="M40.85,153.06c.86-2.37,1.67-4.6,2.49-6.84,6.07-16.62,12.14-33.24,18.22-49.86,2.81-7.68,5.65-15.34,8.46-23.02,7.07-19.35,14.12-38.71,21.18-58.06,1.69-4.63,3.42-9.24,5.05-13.89.38-1.08.88-1.52,1.99-1.35.47.07.96.01,1.56.01-.74,2.05-1.45,4.01-2.16,5.96-7.5,20.51-15,41.02-22.5,61.52-8.01,21.91-16.02,43.82-24.03,65.72-2.23,6.1-4.49,12.19-6.66,18.31-.4,1.12-.89,1.71-2.13,1.49-.42-.07-.87,0-1.47,0v.02Z"/>
</svg>