<?xml version="1.0" encoding="UTF-8"?>
<svg id="Layer_1" data-name="Layer 1" xmlns="http://www.w3.org/2000/svg" viewBox="0 0 30.68 17.83">
  <defs>
    <style>
      .cls-1 {
        fill: #fff;
      }

      .cls-2 {
        fill: none;
      }
    </style>
  </defs>
  <path class="cls-2" d="M15.26,11.52l-7.81-2.97v4.52c0,.23,1.05,1,1.42,1.19,3.14,1.61,9.79,1.61,12.93,0,.38-.19,1.42-.96,1.42-1.19v-4.52l-7.93,2.98h-.03Z"/>
  <path class="cls-2" d="M2.74,5.14c.41,.21,.94,.4,1.45,.6,.22,.08,.43,.16,.63,.24,1.56,.62,3.15,1.23,4.69,1.82,1.91,.74,3.87,1.49,5.8,2.27l8.97-3.52-8.98-1.17c-.31-.07-.52-.26-.59-.51-.07-.25,0-.53,.19-.72,.21-.21,.52-.27,.86-.17,1.53,.29,3.17,.45,4.75,.61,1.63,.16,3.31,.33,4.9,.64,.18,.04,.54,.17,.84,.28,.17,.07,.37,.14,.4,.14,.09-.01,1.12-.43,1.28-.52,.02-.01,.05-.02,.08-.03,.01,0,.03,0,.04-.01L15.29,1.31,2.63,5.09s.02,.01,.04,.01c.03,.01,.05,.02,.07,.03h0Z"/>
  <path class="cls-1" d="M6.19,7.83l.02,5.39c.29,.93,1.07,1.67,2.39,2.27,3.28,1.49,9.16,1.61,12.84,.25,1.68-.62,2.67-1.45,3.02-2.53V7.88l1.96-.75v.14c0,.12,.02,.23,.04,.35,.02,.1,.04,.2,.05,.31,.04,.57,.08,5.12-.06,5.41-.06,.12-.15,.21-.23,.29-.16,.15-.31,.3-.32,.69,0,.53,.81,2.75,1.12,3.43,0,.02,.02,.04,.03,.06,0,.01,0,.02,.01,.03,.08-.34,.25-.76,.43-1.2,.42-1.03,.93-2.32,.51-2.97-.05-.08-.12-.13-.19-.17-.1-.07-.22-.15-.25-.31-.03-.78-.01-1.56,0-2.33,.03-1.34,.06-2.73-.18-4.05v-.04c.02-.11,.21-.19,1.08-.5,.78-.28,2.07-.75,2.21-1.06v-.31c-.23-.33-.66-.46-1.07-.58-.11-.03-.21-.06-.31-.1-2.4-.8-4.88-1.52-7.28-2.21-2.19-.63-4.45-1.29-6.64-2.01-2.04,.65-4.14,1.25-6.16,1.84-2.58,.75-5.25,1.52-7.84,2.38-.1,.03-.2,.06-.31,.1-.41,.12-.84,.24-1.07,.58v.28l.52,.42,5.68,2.23h0Zm17.22,5.23c0,.4-1.31,1.25-1.52,1.36-1.59,.81-4.07,1.22-6.55,1.22s-4.96-.41-6.55-1.22c-.21-.11-1.52-.95-1.52-1.36v-4.79l8.03,3.05,8.12-3.05v4.79h0ZM15.29,1.13h.03s12.98,3.85,12.98,3.85v.07c-.01,.16-.14,.21-.22,.23-.02,0-.04,.01-.06,.02-.1,.06-1.25,.54-1.38,.54h0c-.05,0-.16-.04-.46-.15-.28-.11-.63-.24-.81-.27-1.57-.31-3.26-.47-4.88-.64-1.59-.16-3.23-.32-4.78-.61-.28-.08-.52-.04-.68,.13-.14,.14-.2,.35-.15,.54,.06,.19,.21,.32,.45,.38l9.68,1.26-9.71,3.8h-.03c-1.94-.79-3.92-1.56-5.83-2.3-1.54-.59-3.13-1.21-4.69-1.82-.19-.08-.41-.16-.63-.24-.52-.19-1.04-.39-1.47-.6-.01,0-.04-.01-.06-.02-.08-.03-.21-.07-.21-.23v-.07L15.29,1.13Z"/>
</svg>